<?xml version="1.0" encoding="iso-8859-1"?>
<!-- Generator: Adobe Illustrator 18.0.0, SVG Export Plug-In . SVG Version: 6.00 Build 0)  -->
<!DOCTYPE svg PUBLIC "-//W3C//DTD SVG 1.1//EN" "http://www.w3.org/Graphics/SVG/1.1/DTD/svg11.dtd">
<svg version="1.1" id="Capa_1" xmlns="http://www.w3.org/2000/svg" xmlns:xlink="http://www.w3.org/1999/xlink" x="0px" y="0px"
	 viewBox="0 0 313.24 313.24" style="enable-background:new 0 0 313.24 313.24;" xml:space="preserve">
<g>
	<path d="M97.26,62.649c-8.51,0-15.402,6.893-15.402,15.396v37.087H30.996V78.147c0-8.561-6.938-15.498-15.503-15.498
		C6.938,62.649,0,69.587,0,78.147v105.57c0,8.561,6.938,15.498,15.493,15.498c8.565,0,15.503-6.938,15.503-15.498v-41.641h50.861
		v41.742c0,8.504,6.893,15.396,15.402,15.396c8.497,0,15.391-6.893,15.391-15.396V78.046C112.65,69.542,105.757,62.649,97.26,62.649
		z"/>
	<path d="M248.4,60.423c-40.308,0-66.456,30.596-66.456,71.524c0,38.899,23.719,69.495,64.241,69.495
		c39.912,0,67.055-27.148,67.055-71.926C313.24,91.826,290.357,60.423,248.4,60.423z M247.801,176.927
		c-20.667,0-33.222-18.843-33.222-45.585c0-26.549,12.147-46.397,33.019-46.397c21.278,0,33.029,21.069,33.029,45.591
		C280.627,157.072,268.672,176.927,247.801,176.927z"/>
	<path d="M178.721,237.924h-21.74v-0.237c12.499-10.407,27.763-22.963,27.763-39.313c0-24.979-28.335-29.172-47.165-19.638
		c-5.543,2.799-4.512,10.753,0.599,12.727c4.968,1.907,6.757-2.857,15.706-2.857c8.938,0,12.747,5.006,12.747,11.316
		c-0.291,11.136-13.001,21.709-33.097,39.866c-4.868,4.4-1.46,13.029,5.593,13.029h39.595c4.113,0,7.447-3.333,7.447-7.447
		C186.168,241.258,182.834,237.924,178.721,237.924z"/>
</g>
<g>
</g>
<g>
</g>
<g>
</g>
<g>
</g>
<g>
</g>
<g>
</g>
<g>
</g>
<g>
</g>
<g>
</g>
<g>
</g>
<g>
</g>
<g>
</g>
<g>
</g>
<g>
</g>
<g>
</g>
</svg>
