<svg height="512pt" viewBox="0 -68 512 512" width="512pt" xmlns="http://www.w3.org/2000/svg"><path d="m469.820312 23.5h-84.152343v-8.5h7.792969v-15h-50.667969v15h7.792969v8.5h-170.832032v-12.726562l-10.273437-10.273438h-60.894531l-10.273438 10.273438v12.726562h-56.132812l-42.179688 42.179688v120.109374l42.179688 42.179688h427.640624l42.179688-42.179688v-120.109374zm-104.234374-8.5h5.082031v8.5h-5.082031zm-252.273438 1.984375 1.484375-1.484375h48.46875l1.488281 1.484375v6.515625h-51.441406zm383.6875 162.59375-33.390625 33.390625h-415.21875l-33.390625-33.390625v-107.6875l22.785156-22.785156v100.175781h15v-110.78125h406.429688v83.289062h15v-72.683593l22.785156 22.785156zm0 0"/><path d="m136.128906 303.996094c-12.269531 0-22.25 9.980468-22.25 22.25 0 12.269531 9.980469 22.25 22.25 22.25 12.269532 0 22.25-9.980469 22.25-22.25 0-12.269532-9.980468-22.25-22.25-22.25zm0 29.5c-3.996094 0-7.25-3.253906-7.25-7.25 0-4 3.253906-7.25 7.25-7.25 4 0 7.25 3.25 7.25 7.25 0 3.996094-3.25 7.25-7.25 7.25zm0 0"/><path d="m.0078125 290.871094h14.5429685c-8.988281 9.101562-14.5429685 21.601562-14.5429685 35.375 0 27.777344 22.5976565 50.375 50.3749995 50.375 18.09375 0 33.988282-9.589844 42.871094-23.953125 8.886719 14.363281 24.78125 23.953125 42.875 23.953125 27.777344 0 50.375-22.597656 50.375-50.375 0-13.773438-5.554687-26.273438-14.542968-35.375h168.085937c-8.988281 9.101562-14.542969 21.601562-14.542969 35.375 0 27.777344 22.597656 50.375 50.371094 50.375 18.097656 0 33.992188-9.589844 42.875-23.953125 8.886719 14.363281 24.78125 23.953125 42.875 23.953125 27.777344 0 50.375-22.597656 50.375-50.375 0-13.773438-5.558594-26.273438-14.542969-35.375h14.542969v-52.976563h-511.9921875zm170.6953125 27.875h-4.324219v15h4.324219c-.910156 4.203125-2.570313 8.128906-4.832031 11.632812l-3.050782-3.046875-10.605468 10.605469 3.050781 3.046875c-3.503906 2.265625-7.433594 3.925781-11.636719 4.835937v-4.324218h-15v4.324218c-4.203125-.910156-8.128906-2.570312-11.632812-4.835937l3.046875-3.046875-10.605469-10.605469-3.050781 3.050781c-2.261719-3.503906-3.921875-7.433593-4.832031-11.636718h4.324218v-15h-4.324218c.910156-4.203125 2.570312-8.128906 4.832031-11.632813l3.050781 3.046875 10.605469-10.605468-3.046875-3.046876c3.503906-2.261718 7.429687-3.921874 11.632812-4.835937v4.324219h15v-4.324219c4.203125.914063 8.132813 2.574219 11.636719 4.835937l-3.050781 3.046876 10.605468 10.605468 3.050782-3.046875c2.261718 3.5 3.921875 7.429688 4.832031 11.632813zm-93.628906 23.585937-10.605469 10.605469 3.046875 3.046875c-3.503906 2.265625-7.429687 3.925781-11.632813 4.835937v-4.324218h-15v4.324218c-4.207031-.910156-8.132812-2.570312-11.636718-4.835937l3.046875-3.046875-10.605469-10.605469-3.046875 3.050781c-2.261719-3.503906-3.921875-7.433593-4.832031-11.636718h4.324218v-15h-4.324218c.910156-4.203125 2.570312-8.128906 4.832031-11.632813l3.046875 3.046875 10.605469-10.605468-3.046875-3.046876c3.503906-2.261718 7.433594-3.921874 11.636718-4.835937v4.324219h15v-4.324219c4.203126.914063 8.128907 2.574219 11.632813 4.835937l-3.046875 3.046876 10.605469 10.605468 3.046875-3.046875c2.261718 3.503907 3.921875 7.429688 4.835937 11.632813h-4.324219v15h4.324219c-.914062 4.207031-2.570312 8.132812-4.835937 11.636718zm16.179687-42.507812c-2.007812-3.246094-4.375-6.25-7.042968-8.953125h14.089843c-2.671875 2.703125-5.035156 5.707031-7.046875 8.953125zm402.945313 18.921875h-4.324219v15h4.324219c-.910157 4.203125-2.570313 8.128906-4.832031 11.632812l-3.050782-3.046875-10.605468 10.605469 3.046874 3.046875c-3.503906 2.265625-7.429687 3.925781-11.632812 4.835937v-4.324218h-15v4.324218c-4.203125-.910156-8.132812-2.570312-11.636719-4.835937l3.050781-3.046875-10.605468-10.605469-3.050782 3.050781c-2.261718-3.503906-3.921874-7.433593-4.832031-11.636718h4.324219v-15h-4.324219c.910157-4.203125 2.570313-8.128906 4.832031-11.632813l3.050782 3.046875 10.605468-10.605468-3.050781-3.046876c3.503907-2.261718 7.433594-3.921874 11.636719-4.835937v4.324219h15v-4.324219c4.203125.914063 8.128906 2.574219 11.632812 4.835937l-3.046874 3.046876 10.605468 10.605468 3.050782-3.046875c2.261718 3.5 3.921874 7.429688 4.832031 11.632813zm-93.628907 23.585937-10.605468 10.605469 3.046875 3.046875c-3.503907 2.265625-7.429688 3.925781-11.636719 4.835937v-4.324218h-14.996094v4.324218c-4.207031-.910156-8.132812-2.570312-11.636718-4.835937l3.046874-3.046875-10.605468-10.605469-3.046875 3.050781c-2.261719-3.503906-3.921875-7.433593-4.835938-11.636718h4.328125v-15h-4.328125c.914063-4.203125 2.574219-8.128906 4.835938-11.632813l3.046875 3.046875 10.605468-10.605468-3.046874-3.046876c3.503906-2.261718 7.433593-3.921874 11.636718-4.835937v4.324219h14.996094v-4.324219c4.203125.914063 8.132812 2.574219 11.636719 4.835937l-3.046875 3.046876 10.605468 10.605468 3.046876-3.046875c2.261718 3.503907 3.921874 7.429688 4.835937 11.632813h-4.328125v15h4.328125c-.914063 4.207031-2.574219 8.132812-4.835937 11.636718zm16.179688-42.507812c-2.007812-3.246094-4.375-6.25-7.042969-8.953125h14.089844c-2.671875 2.703125-5.039063 5.707031-7.046875 8.953125zm-403.742188-46.929688h481.992188v22.976563h-481.992188zm0 0"/><path d="m50.382812 303.996094c-12.269531 0-22.25 9.980468-22.25 22.25 0 12.269531 9.980469 22.25 22.25 22.25 12.265626 0 22.25-9.980469 22.25-22.25 0-12.269532-9.984374-22.25-22.25-22.25zm0 29.5c-4 0-7.25-3.253906-7.25-7.25 0-4 3.25-7.25 7.25-7.25 3.996094 0 7.25 3.25 7.25 7.25 0 3.996094-3.253906 7.25-7.25 7.25zm0 0"/><path d="m461.625 303.996094c-12.269531 0-22.25 9.980468-22.25 22.25 0 12.269531 9.980469 22.25 22.25 22.25s22.25-9.980469 22.25-22.25c0-12.269532-9.980469-22.25-22.25-22.25zm0 29.5c-3.996094 0-7.25-3.253906-7.25-7.25 0-4 3.253906-7.25 7.25-7.25 4 0 7.25 3.25 7.25 7.25 0 3.996094-3.253906 7.25-7.25 7.25zm0 0"/><path d="m375.875 303.996094c-12.265625 0-22.246094 9.980468-22.246094 22.25 0 12.269531 9.980469 22.25 22.246094 22.25 12.269531 0 22.25-9.980469 22.25-22.25 0-12.269532-9.980469-22.25-22.25-22.25zm0 29.5c-3.996094 0-7.246094-3.253906-7.246094-7.25 0-4 3.25-7.25 7.246094-7.25 4 0 7.25 3.25 7.25 7.25 0 3.996094-3.25 7.25-7.25 7.25zm0 0"/><path d="m196.292969 337.003906h119.421875v15h-119.421875zm0 0"/><path d="m269.9375 118.164062c-12.289062-32.445312-43.691406-55.574218-80.390625-55.574218h-21.082031v21.085937c0 47.378907 38.546875 85.925781 85.925781 85.925781h6.085937v27.773438h15v-27.773438h2.546876c36.125 0 65.515624-29.386718 65.515624-65.511718v-17.550782h-17.550781c-23.730469.003907-44.554687 12.683594-56.050781 31.625zm-86.476562-34.488281v-6.082031h6.085937c37.539063 0 68.359375 29.3125 70.777344 66.25l-41.546875-41.546875-10.605469 10.609375 41.542969 41.542969c-36.9375-2.414063-66.253906-33.234375-66.253906-70.773438zm145.078124 20.414063c0 24.84375-18.027343 45.550781-41.683593 49.738281l26.738281-26.738281-10.605469-10.605469-26.738281 26.738281c4.1875-23.65625 24.898438-41.679687 49.738281-41.679687h2.550781zm0 0"/><path d="m311.5 313.328125h-61v-15h61zm-71 0h-15v-15h15zm-25 0h-15v-15h15zm0 0"/><path d="m443.28125 63.5h-15v-15h15zm-25 0h-15v-15h15zm-25 0h-96.308594v-15h96.308594zm0 0"/></svg>