<?xml version="1.0" encoding="iso-8859-1"?>
<!-- Generator: Adobe Illustrator 16.0.0, SVG Export Plug-In . SVG Version: 6.00 Build 0)  -->
<!DOCTYPE svg PUBLIC "-//W3C//DTD SVG 1.1//EN" "http://www.w3.org/Graphics/SVG/1.1/DTD/svg11.dtd">
<svg version="1.1" id="Capa_1" xmlns="http://www.w3.org/2000/svg" xmlns:xlink="http://www.w3.org/1999/xlink" x="0px" y="0px"
	 width="332.68px" height="332.68px" viewBox="0 0 332.68 332.68" style="enable-background:new 0 0 332.68 332.68;"
	 xml:space="preserve">
<g>
	<path d="M282.341,8.283C275.765,2.705,266.211,0,253.103,0c-18.951,0-36.359,5.634-51.756,16.743
		c-14.972,10.794-29.274,28.637-42.482,53.028c-4.358,7.993-7.428,11.041-8.973,12.179h-26.255c-10.84,0-19.626,8.786-19.626,19.626
		c0,8.989,6.077,16.486,14.323,18.809l-0.05,0.165h0.589c1.531,0.385,3.109,0.651,4.757,0.651h18.833l-32.688,128.001
		c-7.208,27.848-10.323,37.782-11.666,41.24c-1.445,3.711-3.266,7.062-5.542,10.135c-0.42-5.39-2.637-10.143-6.508-13.854
		c-4.264-4.079-10.109-6.136-17.364-6.136c-8.227,0-15.08,2.433-20.37,7.229c-5.416,4.93-8.283,11.193-8.283,18.134
		c0,5.157,1.701,12.712,9.828,19.348c6.139,4.97,14.845,7.382,26.621,7.382c17.096,0,32.541-4.568,45.891-13.577
		c13.112-8.845,24.612-22.489,34.166-40.522c9.391-17.678,18.696-45.124,28.427-83.9l18.598-73.479h30.016
		c10.841,0,19.625-8.785,19.625-19.625c0-10.84-8.784-19.626-19.625-19.626h-19.628c6.34-21.62,14.175-37.948,23.443-48.578
		c2.284-2.695,5.246-5.692,8.412-7.678c-1.543,3.392-2.325,6.767-2.325,10.055c0,6.164,2.409,11.714,6.909,16.03
		c4.484,4.336,10.167,6.54,16.888,6.54c7.085,0,13.373-2.667,18.17-7.716c4.76-5.005,7.185-11.633,7.185-19.703
		C292.66,21.822,289.089,14.002,282.341,8.283z"/>
</g>
<g>
</g>
<g>
</g>
<g>
</g>
<g>
</g>
<g>
</g>
<g>
</g>
<g>
</g>
<g>
</g>
<g>
</g>
<g>
</g>
<g>
</g>
<g>
</g>
<g>
</g>
<g>
</g>
<g>
</g>
</svg>
