<svg height="851pt" viewBox="-26 -89 851.25357 851" width="851pt" xmlns="http://www.w3.org/2000/svg"><path d="m397.3125 614.117188c-.320312 6.457031 4.648438 11.945312 11.097656 12.261718 23.058594 1.140625 46.863282 1.722656 70.765625 1.722656 40.207031 0 79.320313-1.609374 116.253907-4.789062 6.429687-.554688 11.195312-6.214844 10.652343-12.644531-.558593-6.433594-6.210937-11.195313-12.65625-10.648438-36.273437 3.117188-74.714843 4.695313-114.25 4.695313-23.515625 0-46.941406-.566406-69.605469-1.695313-6.414062-.300781-11.9375 4.652344-12.257812 11.097657zm0 0"/><path d="m209.875 628.238281c-85.859375-14.542969-103.402344-32.203125-103.402344-36.136719 0-5.113281 27.230469-28.402343 151.335938-42.917968.171875 1.226562.351562 2.445312.570312 3.6875 1.496094 8.285156 6.605469 15.308594 14.015625 19.277344 4.011719 2.140624 8.402344 3.214843 12.792969 3.214843 3.691406 0 7.394531-.75 10.890625-2.277343l11.847656-5.175782 3.683594 8.453125-17.394531 7.589844c-5.910156 2.582031-8.617188 9.472656-6.035156 15.386719 1.917968 4.398437 6.21875 7.023437 10.722656 7.023437 1.554687 0 3.148437-.316406 4.671875-.980469l17.386719-7.589843 5.875 13.476562c1.917968 4.394531 6.214843 7.023438 10.722656 7.023438 1.558594 0 3.148437-.320313 4.667968-.984375 5.917969-2.578125 8.621094-9.472656 6.039063-15.390625l-5.878906-13.476563 17.386719-7.582031c5.921874-2.582031 8.625-9.472656 6.042968-15.394531-2.582031-5.910156-9.46875-8.621094-15.386718-6.039063l-17.390626 7.585938-3.6875-8.453125 11.847657-5.167969c5.636719-2.457031 10.15625-6.671875 13.003906-11.9375 27.335937-1.3125 55.570313-1.984375 84.070313-2.007813v13.972657c0 6.449219 5.226562 11.6875 11.6875 11.6875 6.453124 0 11.6875-5.238281 11.6875-11.6875v-167.4375c0-55.109375-44.832032-99.933594-99.929688-99.933594h-8.371094v-59.722656c0-6.457031-5.230468-11.691407-11.691406-11.691407-6.453125 0-11.691406 5.234376-11.691406 11.691407v90.34375c0 1.902343-1.550782 3.453125-3.460938 3.453125h-33.320312c-1.90625 0-3.453125-1.550782-3.453125-3.453125v-295.367188c0-1.90625 1.546875-3.457031 3.453125-3.457031h33.320312c1.910156 0 3.460938 1.550781 3.460938 3.457031v154.316407c0 6.460937 5.238281 11.691406 11.691406 11.691406 6.460938 0 11.691406-5.230469 11.691406-11.691406v-53.074219c53.136719 3.59375 103.832032 21.664062 147.011719 52.484375 2.066406 1.472656 4.433594 2.175781 6.785156 2.175781 3.648438 0 7.246094-1.703125 9.527344-4.898437 3.753906-5.25 2.527344-12.550782-2.730469-16.304688-47.148437-33.65625-102.546875-53.257812-160.59375-56.890625v-47.179687h8.371094c73.824219 0 143.632812 23.449218 201.890625 67.832031 2.121094 1.609375 4.609375 2.390625 7.082031 2.390625 3.519532 0 7.007813-1.589844 9.304688-4.605469 3.914062-5.132813 2.921875-12.46875-2.210938-16.390625-62.367187-47.5-137.078125-72.613281-216.066406-72.613281h-8.371094v-7.242188c0-14.796875-12.039062-26.839843-26.832031-26.839843h-33.324219c-12.863281 0-23.636718 9.101562-26.238281 21.207031h-257.015625c-6.457031 0-11.695312 5.230469-11.695312 11.691406 0 6.453125 5.238281 11.691406 11.695312 11.691406h54.171875v129.285157c0 15.003906 12.210937 27.210937 27.21875 27.210937h97.746094c15 0 27.21875-12.207031 27.21875-27.210937v-129.285157h50.054687v259.867188h-256.410156c-6.457031 0-11.695312 5.234375-11.695312 11.691406 0 6.453125 5.238281 11.691406 11.695312 11.691406h257.015625c2.59375 12.101563 13.363281 21.203125 26.230469 21.203125h33.320312c14.804688 0 26.84375-12.035156 26.84375-26.835937v-7.238281h8.363282c42.210937 0 76.5625 34.339843 76.5625 76.550781v130.082031c-28.054688.023438-55.871094.675781-82.847657 1.929688-.871093-2.101563-2.003906-4.105469-3.414062-5.972657-18.308594-24.347656-45.085938-34.386719-66.628907-24.988281-14.65625 6.394531-24.351562 20.683594-27.367187 38.601562-49.070313 5.632813-90.402344 13.519532-119.78125 22.882813-37.101563 11.832031-55.144531 26.089844-55.144531 43.585937 0 14.636719 12.347656 26.839844 37.746094 37.3125 20.359374 8.394532 49 15.757813 85.128906 21.878907.664062.105469 1.320312.160156 1.964844.160156 5.605468 0 10.546874-4.03125 11.515624-9.742187 1.078126-6.363282-3.207031-12.394532-9.570312-13.472657zm-16.964844-459.902343c0 2.113281-1.722656 3.835937-3.835937 3.835937h-97.746094c-2.117187 0-3.835937-1.722656-3.835937-3.835937v-129.285157h105.417968zm101.820313 340.121093c2.355469-1.023437 4.910156-1.515625 7.578125-1.515625 10.105468 0 21.933594 7.054688 31.019531 19.128906 1.011719 1.34375.855469 2.695313.671875 3.382813-.171875.664063-.6875 1.875-2.15625 2.511719l-22.550781 9.84375c-.003907 0-.003907 0-.011719 0 0 0 0 .007812-.003906.007812l-22.550782 9.839844c-1.46875.636719-2.703124.1875-3.316406-.132812-.625-.335938-1.722656-1.136719-2.015625-2.796876-3.386719-18.804687 2.105469-35.367187 13.335938-40.269531zm0 0"/><path d="m719.148438 542.316406v-156.335937c0-95.476563-37.183594-185.234375-104.695313-252.742188-4.5625-4.570312-11.96875-4.570312-16.527344 0-4.570312 4.5625-4.570312 11.964844 0 16.527344 63.097657 63.09375 97.839844 146.980469 97.839844 236.214844v201.410156c0 6.453125 5.234375 11.691406 11.695313 11.691406 6.453124 0 11.6875-5.238281 11.6875-11.691406v-20.917969c44.316406 11.789063 53.765624 23.085938 53.765624 25.628906 0 3.582032-15.527343 19.84375-91.476562 34.019532-64.460938 12.023437-150.316406 18.648437-241.746094 18.648437-63.839844 0-126.117187-3.300781-180.085937-9.542969-6.417969-.742187-12.214844 3.859376-12.957031 10.273438-.742188 6.414062 3.855468 12.214844 10.265624 12.957031 54.851563 6.34375 118.054688 9.691407 182.777344 9.691407 92.828125 0 180.199219-6.761719 246.03125-19.042969 32.5625-6.074219 58.296875-13.226563 76.492188-21.257813 8.429687-3.714844 34.078125-15.03125 34.078125-35.746094 0-20.789062-24.550781-36.660156-77.144531-49.785156zm0 0"/><path d="m581.277344 262.789062c26.34375 44.175782 40.273437 95.054688 40.273437 147.125v72.613282c0 6.457031 5.226563 11.6875 11.6875 11.6875 6.453125 0 11.691407-5.230469 11.691407-11.6875v-72.613282c0-56.289062-15.066407-111.300781-43.5625-159.101562-3.304688-5.539062-10.484376-7.359375-16.035157-4.058594-5.539062 3.308594-7.359375 10.488282-4.054687 16.035156zm0 0"/><path d="m418.703125 228.527344c66.058594 23.992187 110.445313 87.261718 110.445313 157.453125v132.050781c0 6.457031 5.238281 11.695312 11.691406 11.695312 6.460937 0 11.6875-5.238281 11.6875-11.695312v-132.050781c0-79.988281-50.570313-152.09375-125.847656-179.425781-6.066407-2.207032-12.769532.921874-14.976563 6.996093-2.203125 6.070313.925781 12.773438 7 14.976563zm0 0"/><path d="m109.902344 160.988281c6.460937 0 11.695312-5.238281 11.695312-11.691406 0-6.460937-5.234375-11.691406-11.695312-11.691406h-.136719c-6.457031 0-11.621094 5.230469-11.621094 11.691406 0 6.453125 5.304688 11.691406 11.757813 11.691406zm0 0"/><path d="m170.628906 160.988281c6.460938 0 11.695313-5.238281 11.695313-11.691406 0-6.460937-5.234375-11.691406-11.695313-11.691406h-.136718c-6.457032 0-11.617188 5.230469-11.617188 11.691406 0 6.453125 5.304688 11.691406 11.753906 11.691406zm0 0"/><path d="m660.566406 529.726562c6.449219-.039062 11.65625-5.300781 11.625-11.757812-.035156-6.457031-5.304687-11.621094-11.753906-11.625h-.140625c-6.460937.03125-11.589844 5.300781-11.558594 11.753906.03125 6.4375 5.332031 11.628906 11.757813 11.628906zm0 0"/><path d="m745.152344 538.605469h.070312c6.449219-.035157 11.65625-5.300781 11.625-11.753907-.035156-6.4375-5.261718-11.628906-11.695312-11.628906-.015625 0-.039063 0-.058594 0h-.140625c-6.457031.039063-11.59375 5.292969-11.558594 11.757813.035157 6.4375 5.332031 11.625 11.757813 11.625zm0 0"/><path d="m396.574219 448.46875c-.023438 0-.050781 0-.0625 0h-.144531c-6.460938.03125-11.59375 5.292969-11.554688 11.757812.027344 6.433594 5.328125 11.617188 11.757812 11.617188h.066407c6.453125-.027344 11.660156-5.292969 11.621093-11.746094-.035156-6.4375-5.261718-11.628906-11.683593-11.628906zm0 0"/><path d="m382.566406 494.3125c0-6.460938-5.230468-11.6875-11.691406-11.6875h-.136719c-6.457031 0-11.621093 5.226562-11.621093 11.6875 0 6.453125 5.304687 11.691406 11.757812 11.691406 6.460938 0 11.691406-5.238281 11.691406-11.691406zm0 0"/><path d="m397.375 494.371094c.027344 6.4375 5.324219 11.632812 11.757812 11.632812h.0625c6.457032-.035156 11.664063-5.296875 11.625-11.757812-.03125-6.433594-5.261718-11.621094-11.6875-11.621094-.019531 0-.046874 0-.066406 0h-.136718c-6.460938.035156-11.59375 5.296875-11.554688 11.746094zm0 0"/><path d="m420.75 162.484375c0-6.457031-5.234375-11.6875-11.6875-11.6875h-.140625c-6.457031 0-11.621094 5.230469-11.621094 11.6875 0 6.453125 5.300781 11.6875 11.761719 11.6875 6.453125 0 11.6875-5.234375 11.6875-11.6875zm0 0"/><path d="m433.433594 192.519531h.070312c6.453125-.035156 11.660156-5.296875 11.621094-11.753906-.03125-6.429687-5.261719-11.628906-11.691406-11.628906-.019532 0-.042969 0-.0625 0h-.136719c-6.460937.039062-11.59375 5.300781-11.554687 11.757812.027343 6.433594 5.328124 11.625 11.753906 11.625zm0 0"/><path d="m560.734375 177.199219c6.453125-.027344 11.660156-5.292969 11.625-11.75-.03125-6.433594-5.257813-11.625-11.6875-11.625-.019531 0-.042969 0-.0625 0h-.140625c-6.460938.03125-11.59375 5.292969-11.558594 11.753906.03125 6.433594 5.332032 11.621094 11.757813 11.621094zm0 0"/></svg>