<?xml version='1.0' encoding='iso-8859-1'?>
<svg version="1.1" xmlns="http://www.w3.org/2000/svg" viewBox="0 0 470 470" xmlns:xlink="http://www.w3.org/1999/xlink" enable-background="new 0 0 470 470">
  <g>
    <path d="m452.563,280.918l-35.211-9.389c2.947-13.157 4.513-26.83 4.513-40.863 0-100.525-79.792-182.75-179.365-186.702v-36.464c0-4.143-3.357-7.5-7.5-7.5s-7.5,3.357-7.5,7.5v36.464c-99.573,3.952-179.365,86.177-179.365,186.702 0,14.033 1.566,27.706 4.513,40.863l-35.211,9.389c-4.002,1.067-6.382,5.177-5.314,9.18 0.895,3.354 3.928,5.569 7.242,5.569 0.64,0 1.29-0.083 1.938-0.255l35.204-9.387c18.343,59.026 65.226,105.595 124.433,123.522l10.671,54.396c0.689,3.519 3.773,6.057 7.359,6.057h72.059c3.596,0 6.687-2.553 7.365-6.084l10.441-54.302c59.313-17.877 106.291-64.489 124.659-123.589l35.204,9.387c0.647,0.173 1.298,0.255 1.938,0.255 3.314,0 6.348-2.215 7.242-5.569 1.067-4.003-1.313-8.113-5.315-9.18zm-187.729,174.082h-59.691l-8.112-41.35c12.264,2.541 24.963,3.881 37.97,3.881 12.938,0 25.572-1.323 37.776-3.839l-7.943,41.308zm-29.834-52.469c-79.409,0-146.401-54.139-166.032-127.442-0.012-0.047-0.018-0.095-0.03-0.142-0.015-0.056-0.037-0.108-0.053-0.164-3.744-14.085-5.75-28.87-5.75-44.117 0-94.767 77.099-171.865 171.865-171.865s171.865,77.099 171.865,171.865c0,15.247-2.006,30.032-5.75,44.117-0.016,0.056-0.038,0.108-0.053,0.165-0.013,0.047-0.019,0.095-0.03,0.142-19.631,73.302-86.623,127.441-166.032,127.441z"/>
    <path d="m384.365,223.126c-0.007,0-112.61,0.098-112.61,0.098-1.638-8.105-5.902-15.267-11.858-20.567l56.249-97.621c2.068-3.589 0.835-8.175-2.754-10.242-3.589-2.071-8.175-0.836-10.242,2.754l-56.222,97.574c-3.75-1.262-7.759-1.956-11.928-1.956-4.128,0-8.098,0.68-11.815,1.918l-56.409-97.508c-2.075-3.584-6.662-4.81-10.248-2.736-3.585,2.074-4.811,6.662-2.736,10.248l56.4,97.492c-5.974,5.283-10.262,12.43-11.925,20.528l-112.638,.099c-4.142,0.004-7.497,3.364-7.493,7.507 0.004,4.14 3.36,7.493 7.5,7.493 0.007,0 112.609-0.099 112.609-0.099 1.638,8.105 5.902,15.267 11.857,20.567l-56.248,97.621c-2.068,3.589-0.835,8.175 2.754,10.242 1.18,0.681 2.467,1.003 3.737,1.003 2.594,0 5.117-1.348 6.505-3.757l56.221-97.575c3.75,1.262 7.759,1.957 11.929,1.957 4.128,0 8.098-0.68 11.815-1.918l56.409,97.508c1.391,2.402 3.909,3.745 6.499,3.745 1.274,0 2.566-0.325 3.749-1.009 3.585-2.074 4.811-6.662 2.736-10.248l-56.4-97.492c5.974-5.283 10.262-12.431 11.926-20.529l112.637-.098c4.142-0.004 7.497-3.364 7.493-7.507-0.003-4.139-3.359-7.492-7.499-7.492zm-171.865,7.54c0-12.406 10.094-22.5 22.5-22.5s22.5,10.094 22.5,22.5-10.094,22.5-22.5,22.5-22.5-10.094-22.5-22.5z"/>
  </g>
</svg>
