<svg height="512pt" viewBox="-61 0 512 512" width="512pt" xmlns="http://www.w3.org/2000/svg"><path d="m205.777344 12.023438-11.035156-12.023438-11.035157 12.023438c-55.347656 60.261718-183.707031 217.042968-183.707031 305.234374 0 107.382813 87.359375 194.742188 194.742188 194.742188 107.378906 0 194.738281-87.359375 194.738281-194.742188 0-87.96875-128.550781-245.179687-183.703125-305.234374zm-11.035156 470.015624c-90.863282 0-164.78125-73.917968-164.78125-164.78125 0-74.414062 115.253906-216.148437 164.78125-272.59375 49.464843 56.378907 164.777343 198.238282 164.777343 272.59375 0 90.863282-73.917969 164.78125-164.777343 164.78125zm0 0"/><path d="m209.71875 197.417969c0-24.777344-20.160156-44.9375-44.9375-44.9375-24.78125 0-44.941406 20.160156-44.941406 44.9375 0 24.78125 20.160156 44.941406 44.941406 44.941406 24.777344 0 44.9375-20.160156 44.9375-44.941406zm-59.917969 0c0-8.257813 6.71875-14.980469 14.980469-14.980469 8.257812 0 14.980469 6.722656 14.980469 14.980469 0 8.261719-6.722657 14.980469-14.980469 14.980469-8.261719 0-14.980469-6.71875-14.980469-14.980469zm0 0"/><path d="m239.679688 304.855469v-32.535157h-29.960938v32.535157c-5.246094 1.859375-10.042969 4.671875-14.191406 8.222656l-28.203125-16.28125-14.980469 25.945313 28.183594 16.269531c-.496094 2.664062-.765625 5.402343-.765625 8.207031s.269531 5.542969.765625 8.207031l-28.183594 16.269531 14.980469 25.945313 28.203125-16.28125c4.148437 3.550781 8.945312 6.359375 14.191406 8.222656v32.535157h29.960938v-32.535157c5.25-1.863281 10.046874-4.671875 14.195312-8.222656l28.203125 16.28125 14.976563-25.945313-28.179688-16.269531c.496094-2.664062.765625-5.402343.765625-8.207031 0-2.800781-.269531-5.542969-.765625-8.207031l28.179688-16.269531-14.976563-25.945313-28.203125 16.28125c-4.148438-3.550781-8.945312-6.363281-14.195312-8.222656zm-14.980469 57.34375c-8.257813 0-14.980469-6.71875-14.980469-14.980469 0-8.257812 6.722656-14.980469 14.980469-14.980469 8.261719 0 14.980469 6.722657 14.980469 14.980469 0 8.261719-6.71875 14.980469-14.980469 14.980469zm0 0"/><path d="m89.878906 362.199219h29.960938v29.960937h-29.960938zm0 0"/><path d="m239.679688 212.398438h29.960937v29.960937h-29.960937zm0 0"/><path d="m89.878906 272.320312h29.960938v29.960938h-29.960938zm0 0"/></svg>