<svg height="511pt" viewBox="1 -33 511.999 511" width="511pt" xmlns="http://www.w3.org/2000/svg"><path d="m235.179688 222.875c0 11.480469 9.339843 20.820312 20.820312 20.820312s20.820312-9.339843 20.820312-20.820312-9.339843-20.816406-20.820312-20.816406-20.820312 9.335937-20.820312 20.816406zm20.820312-5.816406c3.207031 0 5.816406 2.609375 5.816406 5.816406 0 3.210938-2.609375 5.820312-5.816406 5.820312s-5.820312-2.609374-5.820312-5.820312c0-3.207031 2.613281-5.816406 5.820312-5.816406zm0 0"/><path d="m133.46875 346.214844c-4.144531 0-7.5 3.355468-7.5 7.5v57.003906h-72.972656c-3.257813-11.265625-13.660156-19.53125-25.964844-19.53125-14.90625 0-27.03125 12.128906-27.03125 27.035156 0 14.902344 12.125 27.03125 27.03125 27.03125 12.304688 0 22.707031-8.265625 25.964844-19.53125h80.472656c4.144531 0 7.5-3.359375 7.5-7.5v-64.507812c0-4.140625-3.355469-7.5-7.5-7.5zm-106.4375 84.039062c-6.632812 0-12.03125-5.398437-12.03125-12.03125 0-6.636718 5.398438-12.03125 12.03125-12.03125 6.636719 0 12.03125 5.394532 12.03125 12.03125 0 6.632813-5.394531 12.03125-12.03125 12.03125zm0 0"/><path d="m484.96875.5c-12.304688 0-22.707031 8.265625-25.96875 19.53125h-80.46875c-4.144531 0-7.5 3.355469-7.5 7.5v64.503906c0 4.144532 3.355469 7.503906 7.5 7.503906s7.5-3.359374 7.5-7.503906v-57.003906h72.96875c3.261719 11.265625 13.664062 19.53125 25.96875 19.53125 14.902344 0 27.03125-12.125 27.03125-27.03125s-12.125-27.03125-27.03125-27.03125zm0 39.0625c-6.636719 0-12.03125-5.394531-12.03125-12.03125 0-6.632812 5.394531-12.03125 12.03125-12.03125 6.632812 0 12.03125 5.398438 12.03125 12.03125 0 6.636719-5.398438 12.03125-12.03125 12.03125zm0 0"/><path d="m484.96875 391.1875c-12.304688 0-22.707031 8.265625-25.96875 19.53125h-72.96875v-57.003906c0-4.144532-3.355469-7.5-7.5-7.5s-7.5 3.355468-7.5 7.5v64.507812c0 4.140625 3.355469 7.5 7.5 7.5h80.46875c3.261719 11.265625 13.664062 19.53125 25.96875 19.53125 14.902344 0 27.03125-12.128906 27.03125-27.03125 0-14.90625-12.125-27.035156-27.03125-27.035156zm0 39.066406c-6.636719 0-12.03125-5.398437-12.03125-12.03125 0-6.636718 5.394531-12.03125 12.03125-12.03125 6.632812 0 12.03125 5.394532 12.03125 12.03125 0 6.632813-5.398438 12.03125-12.03125 12.03125zm0 0"/><path d="m27.03125 54.5625c12.304688 0 22.707031-8.261719 25.964844-19.53125h72.972656v57.007812c0 4.140626 3.355469 7.5 7.5 7.5s7.5-3.359374 7.5-7.5v-64.507812c0-4.144531-3.355469-7.5-7.5-7.5h-80.472656c-3.257813-11.265625-13.660156-19.53125-25.964844-19.53125-14.90625 0-27.03125 12.125-27.03125 27.03125s12.125 27.03125 27.03125 27.03125zm0-39.0625c6.636719 0 12.03125 5.398438 12.03125 12.03125s-5.394531 12.03125-12.03125 12.03125c-6.632812 0-12.03125-5.398438-12.03125-12.03125s5.398438-12.03125 12.03125-12.03125zm0 0"/><path d="m484.96875 195.84375c-12.304688 0-22.707031 8.265625-25.96875 19.53125h-22.59375c-4.144531 0-7.5 3.359375-7.5 7.5 0 4.144531 3.355469 7.5 7.5 7.5h22.59375c3.261719 11.269531 13.664062 19.53125 25.96875 19.53125 14.902344 0 27.03125-12.125 27.03125-27.03125 0-14.902344-12.125-27.03125-27.03125-27.03125zm0 39.0625c-6.636719 0-12.03125-5.394531-12.03125-12.027344 0-6.636718 5.394531-12.03125 12.03125-12.03125 6.632812 0 12.03125 5.394532 12.03125 12.03125 0 6.632813-5.398438 12.027344-12.03125 12.027344zm0 0"/><path d="m27.03125 249.910156c12.304688 0 22.707031-8.265625 25.964844-19.53125h22.597656c4.140625 0 7.5-3.359375 7.5-7.5 0-4.144531-3.359375-7.503906-7.5-7.503906h-22.597656c-3.257813-11.265625-13.660156-19.53125-25.964844-19.53125-14.90625 0-27.03125 12.128906-27.03125 27.03125 0 14.90625 12.125 27.035156 27.03125 27.035156zm0-39.066406c6.636719 0 12.03125 5.398438 12.03125 12.03125 0 6.636719-5.394531 12.03125-12.03125 12.03125-6.632812 0-12.03125-5.394531-12.03125-12.03125 0-6.632812 5.398438-12.03125 12.03125-12.03125zm0 0"/><path d="m238.5 175.375h-.335938c-5.914062 0-11.421874 3.183594-14.382812 8.304688l-17.835938 30.894531c-2.957031 5.121093-2.957031 11.484375 0 16.605469l17.835938 30.894531c2.960938 5.121093 8.46875 8.300781 14.382812 8.300781h35.671876c5.914062 0 11.425781-3.179688 14.382812-8.300781l17.835938-30.898438c2.953124-5.117187 2.953124-11.480469 0-16.601562l-17.835938-30.894531c-2.957031-5.121094-8.46875-8.304688-14.382812-8.304688h-.335938c-4.144531 0-7.5 3.359375-7.5 7.5 0 4.144531 3.355469 7.503906 7.5 7.503906h.335938c.570312 0 1.105468.304688 1.390624.800782l17.835938 30.890624c.285156.496094.285156 1.113282 0 1.609376l-17.835938 30.894531c-.285156.492187-.816406.800781-1.390624.800781h-35.671876c-.574218 0-1.105468-.308594-1.390624-.800781l-17.835938-30.894531c-.289062-.496094-.289062-1.109376 0-1.605469l17.832031-30.890625c.289063-.496094.820313-.804688 1.394531-.804688h.335938c4.140625 0 7.5-3.359375 7.5-7.503906 0-4.140625-3.359375-7.5-7.5-7.5zm0 0"/><path d="m378 302.789062-15.1875-15.1875c6.601562-10.878906 11.46875-22.617187 14.480469-34.960937h21.480469c8.941406 0 16.214843-7.273437 16.214843-16.214844v-27.097656c0-8.9375-7.273437-16.214844-16.214843-16.214844h-21.480469c-3.015625-12.34375-7.878907-24.082031-14.480469-34.960937l15.1875-15.1875c6.324219-6.320313 6.324219-16.609375 0-22.929688l-19.160156-19.160156c-6.320313-6.320312-16.605469-6.320312-22.929688 0l-15.1875 15.191406c-10.875-6.605468-22.613281-11.46875-34.960937-14.484375v-21.480469c0-8.941406-7.273438-16.214843-16.214844-16.214843h-27.09375c-8.941406 0-16.214844 7.273437-16.214844 16.214843v21.480469c-12.34375 3.015625-24.085937 7.878907-34.960937 14.484375l-15.191406-15.191406c-6.320313-6.320312-16.605469-6.320312-22.929688 0l-19.15625 19.160156c-6.324219 6.320313-6.324219 16.605469 0 22.929688l15.1875 15.1875c-6.601562 10.878906-11.46875 22.617187-14.480469 34.960937h-21.480469c-8.941406 0-16.214843 7.273438-16.214843 16.214844v27.09375c0 8.941406 7.273437 16.214844 16.214843 16.214844h21.480469c3.015625 12.347656 7.878907 24.085937 14.480469 34.960937l-15.1875 15.191406c-6.324219 6.320313-6.324219 16.605469 0 22.929688l19.15625 19.160156c6.324219 6.320313 16.609375 6.320313 22.929688-.003906l15.191406-15.1875c10.875 6.601562 22.613281 11.464844 34.960937 14.484375v21.480469c0 8.9375 7.273438 16.210937 16.214844 16.210937h27.09375c8.941406 0 16.214844-7.273437 16.214844-16.210937v-21.480469c12.347656-3.019531 24.085937-7.882813 34.960937-14.484375l15.1875 15.191406c6.324219 6.320313 16.609375 6.320313 22.929688 0l19.160156-19.160156c6.324219-6.320312 6.324219-16.609375 0-22.929688zm-10.605469 12.320313-19.160156 19.160156c-.472656.472657-1.238281.476563-1.714844 0l-16.925781-16.925781c-3.972656-3.96875-10.066406-4.632812-14.820312-1.621094-10.683594 6.777344-22.351563 11.613282-34.679688 14.367188-5.496094 1.230468-9.335938 6.011718-9.335938 11.628906v23.933594c0 .667968-.542968 1.210937-1.210937 1.210937h-27.09375c-.667969 0-1.214844-.542969-1.214844-1.210937v-23.933594c0-5.617188-3.839843-10.398438-9.332031-11.628906-12.328125-2.753906-23.996094-7.589844-34.683594-14.367188-1.988281-1.261718-4.210937-1.878906-6.417968-1.878906-3.0625 0-6.09375 1.191406-8.402344 3.503906l-16.921875 16.921875c-.472657.472657-1.242188.476563-1.714844 0l-19.160156-19.160156c-.472657-.472656-.472657-1.238281 0-1.714844l16.925781-16.921875c3.96875-3.972656 4.636719-10.070312 1.617188-14.824218-6.773438-10.683594-11.605469-22.351563-14.367188-34.679688-1.226562-5.496094-6.007812-9.332031-11.625-9.332031h-23.929688c-.671874 0-1.214843-.542969-1.214843-1.214844v-27.09375c0-.667969.542969-1.214844 1.214843-1.214844h23.929688c5.617188 0 10.398438-3.835937 11.628906-9.332031 2.757813-12.328125 7.589844-23.996094 14.363282-34.679688 3.019531-4.753906 2.351562-10.847656-1.621094-14.824218l-16.921875-16.921875c-.472657-.472657-.472657-1.242188 0-1.714844l19.160156-19.160156c.472656-.472657 1.242187-.472657 1.714844 0l16.921875 16.925781c3.976562 3.972656 10.074218 4.640625 14.824218 1.621094 10.683594-6.777344 22.351563-11.609375 34.675782-14.367188 5.496094-1.230468 9.335937-6.011718 9.335937-11.628906v-23.929688c0-.667968.546875-1.214843 1.214844-1.214843h27.09375c.667969 0 1.210937.546875 1.210937 1.214843v23.929688c0 5.617188 3.839844 10.398438 9.335938 11.628906 12.328125 2.757813 23.996094 7.589844 34.675781 14.363282 4.753907 3.019531 10.851563 2.355468 14.828125-1.617188l16.921875-16.925781c.472657-.46875 1.242188-.472657 1.714844 0l19.160156 19.160156c.472657.472656.472657 1.242187 0 1.714844l-16.925781 16.925781c-3.972656 3.972656-4.636719 10.066406-1.621094 14.820312 6.777344 10.683594 11.609375 22.351563 14.367188 34.683594 1.230468 5.492188 6.011718 9.328125 11.628906 9.328125h23.929688c.667968 0 1.214843.546875 1.214843 1.214844v27.09375c0 .671875-.546875 1.214844-1.214843 1.214844h-23.929688c-5.617188 0-10.398438 3.835937-11.628906 9.332031-2.757813 12.328125-7.589844 23.996094-14.367188 34.679688-3.015625 4.753906-2.351562 10.851562 1.621094 14.824218l16.925781 16.921875c.472657.476563.472657 1.242188 0 1.714844zm0 0"/><path d="m332.039062 206.910156c.847657 4.054688 4.824219 6.652344 8.875 5.808594 4.054688-.847656 6.65625-4.820312 5.808594-8.875-8.914062-42.679688-47.066406-73.65625-90.722656-73.65625-51.109375 0-92.6875 41.582031-92.6875 92.691406s41.578125 92.6875 92.6875 92.6875c43.65625 0 81.808594-30.976562 90.722656-73.652344.847656-4.054687-1.753906-8.03125-5.808594-8.875-4.050781-.839843-8.027343 1.753907-8.875 5.808594-7.46875 35.761719-39.449218 61.71875-76.039062 61.71875-42.835938 0-77.6875-34.851562-77.6875-77.6875 0-42.835937 34.851562-77.6875 77.6875-77.6875 36.589844-.003906 68.570312 25.953125 76.039062 61.71875zm0 0"/></svg>