<svg height="512pt" viewBox="-39 0 512 512" width="512pt" xmlns="http://www.w3.org/2000/svg"><path d="m109.601562 272h214.992188l-47.496094-79.160156v-102.839844h30v-90h-180v90h30v102.839844zm0 0"/><path d="m428.269531 489.179688c8.101563-14.296876 7.882813-31.246094-.570312-45.339844l-85.105469-141.839844h-250.992188l-85.105468 141.839844c-8.453125 14.09375-8.671875 31.042968-.570313 45.339844 8.085938 14.28125 22.734375 22.820312 39.15625 22.820312h344.03125c16.421875 0 31.070313-8.539062 39.15625-22.820312zm-263.671875-74.972657c8.378906 10.050781 21.636719 10.050781 29.984375 0l23.058594 19.21875c-9.992187 11.980469-23.496094 18.574219-38.042969 18.574219s-28.050781-6.59375-38.042968-18.574219c-19.363282-23.230469-19.363282-59.617187.015624-82.851562 19.949219-23.964844 56.089844-23.964844 76.070313 0l-23.058594 19.21875c-8.351562-10.050781-21.621093-10.050781-29.96875 0-10.050781 12.042969-10.050781 32.371093-.015625 44.414062zm142.5 37.792969h-60v-120h30v90h30zm0 0"/></svg>