<?xml version="1.0" encoding="iso-8859-1"?>
<!-- Generator: Adobe Illustrator 19.0.0, SVG Export Plug-In . SVG Version: 6.00 Build 0)  -->
<svg version="1.1" id="Capa_1" xmlns="http://www.w3.org/2000/svg" xmlns:xlink="http://www.w3.org/1999/xlink" x="0px" y="0px"
	 viewBox="0 0 512 512" style="enable-background:new 0 0 512 512;" xml:space="preserve">
<g>
	<g>
		<path d="M422,0H90C40.374,0,0,40.374,0,90v412c0,5.523,4.477,10,10,10h492c5.523,0,10-4.477,10-10V90C512,40.374,471.626,0,422,0z
			 M492,492H20V90c0-38.598,31.402-70,70-70h332c38.598,0,70,31.402,70,70V492z"/>
	</g>
</g>
<g>
	<g>
		<path d="M288.137,459.03c0-0.002-23.025-75.042-23.16-75.482c-1.236-4.023-6.41-5.28-10.079-5.28c-3.38,0-8.772,1.008-9.96,4.757
			l-23.185,75.474c-0.159,0.685-0.24,1.112-0.24,1.283c0,1.967,1.188,3.613,3.566,4.939c3.109,1.733,11.845,4.093,13.437-1.123
			l4.472-15.969h25.71c0,0,4.525,15.84,4.559,15.96c1.391,4.87,8.806,3.02,11.88,1.201c2.16-1.279,3.24-2.799,3.24-4.56
			C288.377,460.071,288.297,459.671,288.137,459.03z M246.415,435.388l10.312-36.84l10.439,36.84H246.415z"/>
	</g>
</g>
<g>
	<g>
		<path d="M125,382c-24.813,0-45,20.187-45,45s20.187,45,45,45s45-20.187,45-45S149.813,382,125,382z M125,452
			c-13.785,0-25-11.215-25-25c0-13.785,11.215-25,25-25c13.785,0,25,11.215,25,25C150,440.785,138.785,452,125,452z"/>
	</g>
</g>
<g>
	<g>
		<path d="M387,382c-24.813,0-45,20.187-45,45s20.187,45,45,45s45-20.187,45-45S411.813,382,387,382z M387,452
			c-13.785,0-25-11.215-25-25c0-13.785,11.215-25,25-25c13.785,0,25,11.215,25,25C412,440.785,400.785,452,387,452z"/>
	</g>
</g>
<g>
	<g>
		<path d="M216,326H50c-5.51,0-10,4.49-10,10s4.49,10,10,10h166c5.51,0,10-4.49,10-10S221.51,326,216,326z"/>
	</g>
</g>
<g>
	<g>
		<path d="M462,326H296c-5.51,0-10,4.49-10,10s4.49,10,10,10h166c5.51,0,10-4.49,10-10S467.51,326,462,326z"/>
	</g>
</g>
<g>
	<g>
		<path d="M256,326c-5.51,0-10,4.49-10,10s4.49,10,10,10s10-4.49,10-10S261.51,326,256,326z"/>
	</g>
</g>
<g>
	<g>
		<path d="M408.735,103.265C367.938,62.468,313.696,40,256,40c-57.696,0-111.938,22.468-152.735,63.265S40,198.304,40,256v40
			c0,5.523,4.477,10,10,10h412c5.523,0,10-4.477,10-10v-40C472,198.304,449.532,144.062,408.735,103.265z M227.713,286
			c4.127-11.641,15.249-20,28.287-20s24.159,8.359,28.287,20H227.713z M452,286H304.994c-2.629-12.898-10.241-24-20.728-31.214
			l34.914-80.82c2.19-5.07-0.145-10.956-5.214-13.146c-5.07-2.188-10.955,0.144-13.146,5.214l-34.968,80.945
			C262.665,246.34,259.372,246,256,246c-24.146,0-44.348,17.205-48.994,40H60v-30c0-108.075,87.925-196,196-196s196,87.925,196,196
			V286z"/>
	</g>
</g>
<g>
	<g>
		<circle cx="386" cy="180.5" r="10"/>
	</g>
</g>
<g>
	<g>
		<circle cx="106" cy="256" r="10"/>
	</g>
</g>
<g>
	<g>
		<circle cx="111" cy="217" r="10"/>
	</g>
</g>
<g>
	<g>
		<circle cx="126" cy="180" r="10"/>
	</g>
</g>
<g>
	<g>
		<circle cx="150" cy="149" r="10"/>
	</g>
</g>
<g>
	<g>
		<circle cx="181" cy="125" r="10"/>
	</g>
</g>
<g>
	<g>
		<circle cx="217" cy="110" r="10"/>
	</g>
</g>
<g>
	<g>
		<circle cx="256" cy="105" r="10"/>
	</g>
</g>
<g>
	<g>
		<circle cx="294.9" cy="110.19" r="10"/>
	</g>
</g>
<g>
	<g>
		<circle cx="331.17" cy="125.25" r="10"/>
	</g>
</g>
<g>
	<g>
		<circle cx="362.17" cy="149.29" r="10"/>
	</g>
</g>
<g>
	<g>
		<circle cx="400.95" cy="216.8" r="10"/>
	</g>
</g>
<g>
	<g>
		<circle cx="406" cy="255.73" r="10"/>
	</g>
</g>
<g>
</g>
<g>
</g>
<g>
</g>
<g>
</g>
<g>
</g>
<g>
</g>
<g>
</g>
<g>
</g>
<g>
</g>
<g>
</g>
<g>
</g>
<g>
</g>
<g>
</g>
<g>
</g>
<g>
</g>
</svg>
