<?xml version='1.0' encoding='iso-8859-1'?>
<!DOCTYPE svg PUBLIC '-//W3C//DTD SVG 1.1//EN' 'http://www.w3.org/Graphics/SVG/1.1/DTD/svg11.dtd'>
<svg version="1.1" xmlns="http://www.w3.org/2000/svg" viewBox="0 0 207.748 207.748" xmlns:xlink="http://www.w3.org/1999/xlink" enable-background="new 0 0 207.748 207.748">
  <g>
    <path d="m62.002,59.195c2.096-3.242 3.144-6.898 3.144-10.966 0-3.397-0.603-6.266-1.814-8.607-1.211-2.339-2.891-4.276-5.047-5.803-2.155-1.531-4.772-2.831-7.849-3.9-3.075-1.073-6.508-2.053-10.302-2.938-3.028-0.766-5.201-1.348-6.514-1.744-1.317-0.399-2.617-0.95-3.9-1.651-1.287-0.706-2.297-1.544-3.028-2.523-0.735-0.98-1.102-2.143-1.102-3.489 0-2.169 1.076-4.029 3.237-5.573 2.154-1.544 4.99-2.317 8.511-2.317 3.792,0 6.547,0.709 8.258,2.133 1.716,1.42 3.182,3.404 4.404,5.94 0.95,1.775 1.832,3.055 2.64,3.833 0.813,0.783 1.997,1.172 3.558,1.172 1.711,0 3.144-0.65 4.291-1.95 1.145-1.3 1.719-2.764 1.719-4.384 0-1.775-0.458-3.593-1.377-5.461-0.916-1.866-2.37-3.648-4.357-5.348-1.989-1.696-4.491-3.058-7.502-4.084-3.017-1.022-6.589-1.535-10.72-1.535-5.166,0-9.666,0.773-13.489,2.317-3.823,1.543-6.743,3.754-8.763,6.629-2.019,2.879-3.027,6.168-3.027,9.866 0,3.889 0.953,7.139 2.865,9.751 1.911,2.617 4.498,4.683 7.753,6.197 3.26,1.514 7.305,2.836 12.138,3.969 3.611,0.826 6.497,1.604 8.653,2.341 2.154,0.734 3.912,1.795 5.276,3.19 1.361,1.389 2.041,3.203 2.041,5.436 0,2.814-1.263,5.161-3.785,7.044-2.523,1.882-5.805,2.822-9.845,2.822-2.935,0-5.308-0.466-7.112-1.399-1.805-0.936-3.203-2.122-4.195-3.558-0.997-1.438-1.921-3.23-2.777-5.367-0.706-1.805-1.551-3.171-2.548-4.085-0.992-0.92-2.211-1.378-3.648-1.378-1.775,0-3.233,0.591-4.385,1.768-1.146,1.175-1.719,2.59-1.719,4.242 0,2.848 0.958,5.777 2.87,8.789 1.911,3.016 4.396,5.423 7.455,7.227 4.315,2.51 9.789,3.763 16.427,3.763 5.539,0 10.325-0.919 14.365-2.753 4.038-1.834 7.105-4.373 9.2-7.616z"/>
    <path d="m82.031,59.836c2.784,3.092 6.256,5.482 10.419,7.181 4.16,1.699 8.87,2.549 14.129,2.549 5.296,0 9.991-0.825 14.09-2.479 4.1-1.651 7.556-4.038 10.37-7.155 2.813-3.123 4.927-6.809 6.334-11.061 1.406-4.25 2.108-8.981 2.108-14.182 0-7.035-1.283-13.159-3.853-18.378-2.57-5.212-6.355-9.237-11.355-12.064-5.005-2.832-10.992-4.247-17.968-4.247-5.141,0-9.729,0.803-13.767,2.407-4.038,1.609-7.462,3.926-10.276,6.953-2.814,3.028-4.966,6.699-6.45,11.015-1.48,4.311-2.224,9.053-2.224,14.224 0,5.047 0.709,9.743 2.135,14.089 1.423,4.344 3.524,8.06 6.308,11.148zm6.817-35.492c0.962-3.046 2.274-5.544 3.943-7.502 1.667-1.959 3.656-3.451 5.966-4.474 2.31-1.026 4.828-1.54 7.548-1.54 3.824,0 7.211,0.928 10.166,2.776 2.951,1.851 5.222,4.58 6.814,8.193 1.59,3.609 2.386,7.874 2.386,12.801 0,5.324-0.864,9.808-2.593,13.446-1.728,3.64-4.055,6.33-6.975,8.075-2.922,1.745-6.128,2.617-9.614,2.617-2.725,0-5.222-0.505-7.501-1.514-2.28-1.01-4.299-2.531-6.057-4.567-1.763-2.036-3.122-4.599-4.084-7.686-0.968-3.092-1.445-6.548-1.445-10.371 0.001-3.793 0.478-7.21 1.446-10.254z"/>
    <path d="m194.182,59.058c-1.253-0.979-3.075-1.471-5.463-1.471h-23.954c0.766-1.159 1.514-2.156 2.25-2.98 1.716-2.078 4.872-5 9.478-8.765 4.602-3.763 7.882-6.526 9.841-8.284 1.96-1.758 3.88-4.19 5.761-7.295 1.882-3.105 2.822-6.554 2.822-10.346 0-2.417-0.453-4.752-1.354-7.002-0.903-2.245-2.164-4.229-3.786-5.94-1.62-1.716-3.502-3.058-5.646-4.037-3.302-1.472-7.295-2.203-11.975-2.203-3.888,0-7.275,0.573-10.166,1.72-2.891,1.145-5.278,2.656-7.159,4.52-1.878,1.864-3.294,3.947-4.242,6.239-0.95,2.297-1.425,4.5-1.425,6.607 0,1.746 0.505,3.124 1.514,4.133 1.015,1.008 2.28,1.513 3.812,1.513 1.745,0 3.066-0.552 3.969-1.649 0.902-1.104 1.715-2.679 2.434-4.73 0.718-2.048 1.231-3.301 1.535-3.759 2.297-3.521 5.445-5.278 9.451-5.278 1.9,0 3.649,0.428 5.256,1.283 1.605,0.859 2.875,2.058 3.812,3.602 0.933,1.548 1.398,3.297 1.398,5.256 0,1.805-0.436,3.648-1.308,5.529-0.874,1.882-2.145,3.718-3.811,5.505-1.664,1.792-3.755,3.575-6.261,5.346-1.408,0.95-3.747,2.93-7.024,5.945-3.271,3.011-6.94,6.628-11.013,10.85-0.979,1.044-1.881,2.472-2.708,4.294-0.824,1.817-1.238,3.281-1.238,4.38 0,1.716 0.645,3.203 1.928,4.474 1.287,1.27 3.075,1.907 5.367,1.907h33.775c2.019,0 3.527-0.521 4.52-1.561 0.997-1.039 1.492-2.31 1.492-3.812-0.001-1.682-0.629-3.012-1.882-3.991z"/>
    <path d="m158.098,80.142h-108.447c-4.142,0-7.5,3.358-7.5,7.5v99.205c0,11.525 9.376,20.901 20.901,20.901h81.643c11.526,0 20.903-9.376 20.903-20.901v-99.205c2.84217e-14-4.142-3.358-7.5-7.5-7.5zm-7.5,15v21.152h-93.447v-21.152h93.447zm-5.903,97.606h-81.643c-3.254,0-5.901-2.647-5.901-5.901v-55.553h93.447v55.553c0,3.254-2.648,5.901-5.903,5.901z"/>
  </g>
</svg>
