<svg viewBox="0 0 512 512" xmlns="http://www.w3.org/2000/svg"><path d="m512 256c0-12.75-5.761719-24.148438-14.8125-31.753906 6.777344-9.6875 9.390625-22.1875 6.089844-34.503906-3.300782-12.3125-11.8125-21.835938-22.527344-26.835938 4.039062-11.113281 3.328125-23.867188-3.046875-34.90625s-17.0625-18.03125-28.707031-20.09375c1.027344-11.777344-2.960938-23.910156-11.976563-32.925781s-21.148437-13.003907-32.925781-11.976563c-2.0625-11.644531-9.054688-22.332031-20.09375-28.707031s-23.792969-7.085937-34.90625-3.046875c-5-10.714844-14.523438-19.226562-26.835938-22.527344-12.3125-3.300781-24.816406-.6875-34.503906 6.089844-7.605468-9.054688-19.003906-14.8125-31.753906-14.8125s-24.148438 5.757812-31.753906 14.8125c-9.6875-6.777344-22.1875-9.390625-34.503906-6.089844-12.3125 3.300782-21.835938 11.8125-26.835938 22.527344-11.113281-4.039062-23.867188-3.328125-34.90625 3.046875s-18.03125 17.0625-20.09375 28.707031c-11.777344-1.027344-23.910156 2.964844-32.925781 11.976563-9.015625 9.015625-13.003907 21.148437-11.976563 32.925781-11.644531 2.0625-22.332031 9.054688-28.707031 20.09375-6.371094 11.039062-7.085937 23.792969-3.046875 34.90625-10.714844 5-19.226562 14.523438-22.527344 26.835938-3.300781 12.3125-.6875 24.816406 6.089844 34.503906-9.050781 7.605468-14.8125 19.003906-14.8125 31.753906s5.761719 24.148438 14.8125 31.753906c-6.777344 9.6875-9.390625 22.1875-6.089844 34.503906 3.300782 12.3125 11.8125 21.835938 22.527344 26.835938-4.039062 11.113281-3.324219 23.867188 3.046875 34.90625 6.375 11.039062 17.0625 18.03125 28.707031 20.09375-1.027344 11.777344 2.960938 23.910156 11.976563 32.925781s21.148437 13.003907 32.925781 11.976563c2.0625 11.644531 9.054688 22.332031 20.09375 28.707031 11.039062 6.371094 23.792969 7.085937 34.90625 3.046875 5 10.714844 14.523438 19.226562 26.835938 22.527344 12.316406 3.300781 24.816406.6875 34.503906-6.089844 7.605468 9.054688 19.003906 14.8125 31.753906 14.8125s24.148438-5.757812 31.753906-14.8125c9.6875 6.777344 22.1875 9.390625 34.503906 6.089844 12.316407-3.300782 21.835938-11.8125 26.835938-22.527344 11.113281 4.039062 23.867188 3.324219 34.90625-3.046875 11.039062-6.375 18.03125-17.0625 20.09375-28.707031 11.777344 1.027344 23.910156-2.960938 32.925781-11.976563s13.003907-21.148437 11.976563-32.925781c11.644531-2.0625 22.332031-9.054688 28.707031-20.09375 6.371094-11.039062 7.085937-23.792969 3.046875-34.90625 10.714844-5 19.226562-14.523438 22.527344-26.835938 3.300781-12.3125.6875-24.816406-6.089844-34.503906 9.050781-7.605468 14.8125-19.003906 14.8125-31.753906zm-348.105469 120.664062h-30v-30h30zm0-105.664062h-30v-30h30zm0-105.664062h-30v-30h30zm107.105469 211.328124h-30v-30h30zm0-105.664062h-30v-30h30zm0-105.664062h-30v-30h30zm107.105469 211.328124h-30v-30h30zm0-105.664062h-30v-30h30zm0-105.664062h-30v-30h30zm0 0"/></svg>