<?xml version="1.0" encoding="iso-8859-1"?>
<!-- Generator: Adobe Illustrator 19.0.0, SVG Export Plug-In . SVG Version: 6.00 Build 0)  -->
<svg version="1.1" id="Capa_1" xmlns="http://www.w3.org/2000/svg" xmlns:xlink="http://www.w3.org/1999/xlink" x="0px" y="0px"
	 viewBox="0 0 512 512" style="enable-background:new 0 0 512 512;" xml:space="preserve">
<g>
	<g>
		<path d="M256,451c-5.521,0-10,4.49-10,10s4.479,10,10,10c5.51,0,10-4.49,10-10S261.51,451,256,451z"/>
	</g>
</g>
<g>
	<g>
		<path d="M502.115,285.775l-15.615-0.18V50c0-27.57-22.43-50-50-50h-361c-27.57,0-50,22.43-50,50v235.648l-15.572,0.113
			C4.434,285.8,0,290.266,0,295.76v39.997c0,2.665,1.063,5.219,2.954,7.096c1.89,1.877,4.479,2.961,7.117,2.903l15.429-0.11V380
			c0,27.57,22.43,50,50,50H99v72c0,5.523,4.478,10,10,10h294c5.522,0,10-4.477,10-10v-72h23.5c27.57,0,50-22.43,50-50v-34.413
			l15.399,0.155c2.683,0.042,5.239-1.015,7.136-2.893c1.897-1.878,2.965-4.437,2.965-7.106v-39.968
			C512,290.297,507.593,285.839,502.115,285.775z M45.5,50c0-16.542,13.458-30,30-30h361c16.542,0,30,13.458,30,30v234.915
			c-7.26-0.503-17.306-1.428-28.624-3.117c7.138-19.101,10.874-39.028,10.874-58.298c0-53.438-5.792-96.013-17.215-126.543
			C412.995,47.399,382.83,40,366.5,40c-10.809,0-26.84,3.248-41.834,18.721c-4.106,4.238-7.923,9.214-11.425,14.888
			C295.853,46.312,274.508,40,258.5,40c-15.137,0-35.485,5.754-52.823,30.556C190.597,45.77,170.724,40,155.5,40
			c-16.526,0-47.333,6.925-67.971,53.303C73.741,124.286,66.75,168.09,66.75,223.5c0,19.103,3.934,39.319,11.447,59.125
			c-18.621,2.611-32.448,2.875-32.543,2.877l-0.154,0.001V50z M394.071,110.974C386.6,91,376.808,80,366.5,80
			c-10.202,0-20.335,12.031-27.802,33.009c-1.624,4.561-3.101,9.5-4.448,14.772c-1.211-5.195-2.518-10.193-3.928-14.943
			c-1.828-6.159-3.855-11.989-6.038-17.403c4.281-9.447,9.231-17.106,14.745-22.797C349.152,62.193,359.556,60,366.5,60
			c11.149,0,31.992,5.711,46.303,43.965c10.582,28.281,15.947,68.499,15.947,119.535c0,18.018-3.757,36.758-10.907,54.647
			c-4.934-1.069-9.707-2.228-14.223-3.485c-1.852-0.515-3.603-1.042-5.272-1.577c6.825-16.177,10.402-33.117,10.402-49.585
			C408.75,162.923,400.768,128.872,394.071,110.974z M388.75,223.5c0,14.13-3.174,28.76-9.234,42.776
			C356.271,256.11,344.5,243.09,344.5,227.5c0-42.472,3.803-77.582,10.997-101.533c4.296-14.303,8.696-21.189,11.26-24.262
			c2.12,2.553,5.333,7.589,8.582,16.276C381.457,134.333,388.75,165.914,388.75,223.5z M200.75,345.5
			c7.764,0,15.874-1.702,24.107-5.058c0.003-0.001,0.005-0.003,0.008-0.004c12.227-4.986,24.84-13.735,36.475-25.304
			c25.815-25.667,43.16-60.884,43.16-87.635c0-38.821-4.564-76.465-12.523-103.279C287.074,107.706,276.207,80,258.5,80
			c-13.179,0-25.374,15.965-34.345,44.955c-2.989-16.451-6.288-27.178-8.266-32.75C227.188,70.833,241.507,60,258.5,60
			c18.975,0,34.366,13.239,45.746,39.349c0.001,0.002,0.001,0.003,0.002,0.005c2.516,5.772,4.837,12.224,6.9,19.175
			c8.61,29.005,13.352,67.706,13.352,108.971c0,16.521-4.929,35.143-14.253,53.854c-0.001,0.002-0.002,0.004-0.003,0.006
			c-6.474,12.992-14.747,25.405-24.586,36.894c-1.555,1.815-3.154,3.612-4.756,5.343c-9.885,10.678-20.49,19.57-31.52,26.43
			C233.106,360.15,216.289,365.5,200.75,365.5c-23.456,0-47.738-11.927-68.292-33.158c7.47-2.196,14.537-4.644,21.203-7.328
			C168.77,338.258,185.292,345.5,200.75,345.5z M173.814,315.524c5.936-3.283,11.433-6.815,16.456-10.575
			c3.839,7.126,8.2,13.956,13.062,20.453c-0.872,0.065-1.732,0.098-2.582,0.098C192.293,325.5,183.017,322.023,173.814,315.524z
			 M240.155,307.475c-5.461,4.647-11.012,8.495-16.472,11.424c-7.073-8.569-13.118-17.861-18.027-27.766
			c5.39-5.833,9.944-12.087,13.625-18.712C224.246,285.14,231.29,297.028,240.155,307.475z M230.75,227.5
			c0-35.659,4.548-70.841,12.477-96.525c6.596-21.359,12.925-28.379,15.337-30.405c2.989,2.626,8.962,11.561,14.239,29.342
			c7.434,25.043,11.697,60.613,11.697,97.588c0,19.028-12.074,44.967-30.133,65.811C239.258,274.949,230.75,251.485,230.75,227.5z
			 M291.056,341.902c7.862,2.378,15.722,3.598,23.444,3.598c14.731,0,31.762-7.813,47.477-21.588
			c6.686,2.664,13.824,5.119,21.333,7.337c-21.206,21.623-46.287,34.251-68.81,34.251c-13.452,0-27.19-2.896-40.419-8.436
			C279.909,352.488,285.584,347.436,291.056,341.902z M314.5,325.5c-2.762,0-5.562-0.211-8.39-0.63
			c5.895-7.459,11.215-15.241,15.913-23.274c5.915,4.643,12.515,8.953,19.764,12.906C332.08,321.522,322.399,325.5,314.5,325.5z
			 M20,325.686v-19.998l25.88-0.188c0.217-0.003,21.935-0.388,48.212-5.179c0,0,0.003,0,0.004,0
			c9.617-1.754,18.757-3.897,27.164-6.371c4.81-1.415,9.434-2.946,13.744-4.553l0.002-0.001
			c36.989-13.786,55.744-34.611,55.744-61.896c0-52.373-3.712-91.578-11.033-116.528C173.687,90.42,165.538,80,155.5,80
			c-24.266,0-48.75,44.372-48.75,143.5c0,16.503,3.766,33.811,10.941,50.634c-0.69,0.211-1.376,0.423-2.076,0.629
			c-5.442,1.601-11.243,3.052-17.311,4.34c-7.571-18.693-11.555-37.77-11.555-55.603c0-52.59,6.41-93.659,19.051-122.066
			C121.845,65.383,143.825,60,155.5,60c17.546,0,31.023,11.905,40.058,35.385c0.206,0.535,0.466,1.037,0.753,1.519
			c2.438,6.222,14.44,40.431,14.44,110.596v20c0,22.374-9.585,42.313-27.719,57.664c-13.913,11.778-33.045,21.262-56.863,28.188
			c-4.514,1.313-9.254,2.548-14.086,3.672h-0.003c-34.291,7.972-64.675,8.458-65.892,8.475L20,325.686z M126.75,223.5
			c0-89.249,20.06-117.87,27.092-122.721c1.59,2.338,4.17,7.258,6.684,15.825c6.784,23.12,10.225,60.431,10.225,110.896
			c0,16.173-11.519,29.503-34.269,39.7C130.17,252.628,126.75,237.39,126.75,223.5z M139,492h-20v-62h20V492z M353,451h-57
			c-5.521,0-10,4.49-10,10s4.479,10,10,10h57v21H159v-21h57c5.51,0,10-4.49,10-10s-4.49-10-10-10h-57v-21h194V451z M393,492h-20v-62
			h20V492z M466.501,380c-0.001,16.542-13.459,30-30.001,30h-361c-16.542,0-30-13.458-30-30v-34.496l0.891-0.006
			c1.287-0.017,30.278-0.479,64.101-7.635c25.678,30.356,58.281,47.638,90.259,47.638c17.589,0,36.173-5.324,54.066-15.445
			c19.06,10.121,39.576,15.445,59.684,15.445c30.751,0,64.552-18.148,90.82-48.657c25.029,5.412,48.093,7.444,61.18,8.204V380z
			 M477.878,325.5c-1.456-0.018-36.098-0.542-74.029-9.492c0,0-0.002-0.001-0.003-0.001c-3.486-0.822-6.935-1.702-10.25-2.615
			c-10.798-2.972-20.785-6.447-29.685-10.328h-0.001c-12.862-5.61-23.768-12.205-32.531-19.65
			c3.053-6.822,5.578-13.641,7.582-20.386c9.442,10.068,23.483,18.562,42.088,25.4c0.837,0.307,11.622,3.95,17.211,5.504
			c7.417,2.063,15.397,3.903,23.72,5.47c0.001,0,0.002,0,0.002,0c30.359,5.714,55.896,6.097,56.161,6.1l13.856,0.16v19.98
			L477.878,325.5z"/>
	</g>
</g>
<g>
</g>
<g>
</g>
<g>
</g>
<g>
</g>
<g>
</g>
<g>
</g>
<g>
</g>
<g>
</g>
<g>
</g>
<g>
</g>
<g>
</g>
<g>
</g>
<g>
</g>
<g>
</g>
<g>
</g>
</svg>
