<?xml version="1.0" encoding="iso-8859-1"?>
<!-- Generator: Adobe Illustrator 19.0.0, SVG Export Plug-In . SVG Version: 6.00 Build 0)  -->
<svg version="1.1" id="Capa_1" xmlns="http://www.w3.org/2000/svg" xmlns:xlink="http://www.w3.org/1999/xlink" x="0px" y="0px"
	 viewBox="0 0 512 512" style="enable-background:new 0 0 512 512;" xml:space="preserve">
<g>
	<g>
		<path d="M10,492c-5.52,0-10,4.49-10,10s4.48,10,10,10c5.51,0,10-4.49,10-10C19.999,496.49,15.509,492,10,492z"/>
	</g>
</g>
<g>
	<g>
		<path d="M402.004,452c-5.52,0-10,4.48-10,10c0,5.52,4.479,10,10,10c5.519,0,10-4.48,10-10C412.004,456.48,407.524,452,402.004,452
			z"/>
	</g>
</g>
<g>
	<g>
		<path d="M362.006,452c-5.52,0-10,4.48-10,10c0,5.52,4.479,10,10,10c5.519,0,10-4.48,10-10C372.006,456.48,367.525,452,362.006,452
			z"/>
	</g>
</g>
<g>
	<g>
		<path d="M442.003,452c-5.52,0-10,4.48-10,10c0,5.52,4.479,10,10,10c5.519,0,10-4.48,10-10C452.003,456.48,447.522,452,442.003,452
			z"/>
	</g>
</g>
<g>
	<g>
		<path d="M322.007,452c-5.52,0-10,4.48-10,10c0,5.52,4.48,10,10,10c5.519,0,10-4.48,10-10C332.007,456.48,327.527,452,322.007,452z
			"/>
	</g>
</g>
<g>
	<g>
		<path d="M442.002,160h-39.998c-5.522,0-10,4.477-10,10v40c0.001,5.523,4.478,10,10,10h39.998c5.522,0,10-4.477,10-10v-40
			C452.002,164.477,447.525,160,442.002,160z M432.003,200h-19.999v-20h19.999V200z"/>
	</g>
</g>
<g>
	<g>
		<path d="M442.002,240H322.007c-5.522,0-10,4.477-10,10v52c0.001,5.523,4.478,10,10,10h119.995c5.522,0,10-4.477,10-10v-52
			C452.002,244.477,447.525,240,442.002,240z M432.003,292h-99.996v-32h99.996V292z"/>
	</g>
</g>
<g>
	<g>
		<path d="M362.005,160h-39.998c-5.522,0-10,4.477-10,10v40c0.001,5.523,4.478,10,10,10h39.998c5.522,0,10-4.477,10-10v-40
			C372.005,164.477,367.528,160,362.005,160z M352.006,200h-19.999v-20h19.999V200z"/>
	</g>
</g>
<g>
	<g>
		<path d="M402.004,332h-79.997c-5.51,0-10,4.49-10,10c0.001,5.51,4.491,10,10,10h79.997c5.51,0,10-4.49,10-10
			S407.514,332,402.004,332z"/>
	</g>
</g>
<g>
	<g>
		<path d="M442.003,332c-5.51,0-10,4.49-10,10s4.49,10,10,10s10-4.49,10-10C452.002,336.49,447.512,332,442.003,332z"/>
	</g>
</g>
<g>
	<g>
		<path d="M342.006,372c-16.542,0-29.999,13.458-29.999,30v20c0.001,5.523,4.478,10,10,10h39.998c5.522,0,10-4.477,10-10v-20
			C372.005,385.458,358.548,372,342.006,372z M352.007,412h-19.999v-10h-0.001c0-5.514,4.486-10,10-10c5.514,0,10,4.486,10,10V412z"
			/>
	</g>
</g>
<g>
	<g>
		<path d="M422.004,372c-16.541,0-29.999,13.458-29.999,30v20c0,5.523,4.477,10,10,10h39.998c5.522,0,10-4.477,10-10v-20
			C452.002,385.458,438.545,372,422.004,372z M432.004,412h-0.001h-19.999v-10c0-5.514,4.486-10,10-10c5.514,0,10,4.486,10,10V412z"
			/>
	</g>
</g>
<g>
	<g>
		<path d="M502,60c5.522,0,10-4.477,10-10V10c0-5.523-4.477-10-10-10H382.005c-16.541,0-29.999,13.458-29.999,30v50h-19.999
			c-5.522,0-10,4.477-10,10v30H262.01c-5.523,0-10,4.477-10,10h-29.999c-5.523,0-10,4.477-10,10v10h-89.996
			c-16.541,0-29.999,13.458-29.999,30v72h-10c-2.652,0-5.196,1.054-7.071,2.929l-39.998,40c-0.015,0.015-0.026,0.033-0.041,0.048
			c-3.791,3.843-3.777,10.275,0.041,14.095L67.875,342l-32.927,32.929c-0.015,0.015-0.027,0.033-0.042,0.048
			c-3.717,3.783-3.723,10.276,0,14.046c0.015,0.015,0.026,0.033,0.042,0.049L67.875,422c0,0-32.88,32.881-32.927,32.929
			c-3.761,3.761-3.781,10.298-0.052,14.084c0.019,0.019,0.033,0.04,0.052,0.058L57.875,492c0,0-7.81,0-7.877,0
			c-12.784,0-13.068,20,0,20c0,0,451.982,0,452.002,0c5.522,0,10-4.477,10-10V130c0-5.523-4.477-10-10-10h-59.998V90
			c0-5.523-4.477-10-10-10h-19.999V60H502z M232.011,150h19.999v60h-19.999V150z M192.013,170h19.999v20h-19.999V170z M112.016,180
			c0-5.514,4.486-10,10-10h49.998v20h-29.999c-5.523,0-10,4.477-10,10v12h-19.999V180z M112.016,232h19.999v20h-19.999V232z
			 M86.159,272h71.713l19.999,20H66.16L86.159,272z M66.16,312h111.711l-19.999,20H86.159L66.16,312z M86.159,352h71.713l19.999,20
			H66.16L86.159,352z M66.16,392h111.711l-19.999,20H86.159L66.16,392z M157.872,492H86.159L66.16,472h111.711L157.872,492z
			 M66.16,452l19.999-20h71.713l19.999,20H66.16z M252.011,496h-0.001h-65.855l20.952-20.953c0.13,0.056,2.117-2.297,2.281-2.488
			c3.435-3.985,3.506-9.818-0.306-13.63L176.156,426l32.927-32.929c0.014-0.014,0.025-0.031,0.038-0.045
			c3.599-3.855,3.757-10.234,0.003-14.049c-0.015-0.015-0.026-0.033-0.042-0.049L176.156,346c0,0,32.902-32.903,32.927-32.929
			c3.794-3.794,3.809-10.279,0.043-14.093c-0.016-0.016-0.027-0.034-0.043-0.05l-39.998-40c-1.875-1.875-4.419-2.929-7.071-2.929
			h-10v-42h59.998v10c0,5.523,4.477,10,10,10h29.999V496z M492.001,140v352H272.009V140H492.001z M422.004,100v20h-79.997v-20
			H422.004z M402.004,40c-5.522,0-10,4.477-10,10v30h-19.999V30c0-5.514,4.486-10,10-10h109.996v20H402.004z"/>
	</g>
</g>
<g>
</g>
<g>
</g>
<g>
</g>
<g>
</g>
<g>
</g>
<g>
</g>
<g>
</g>
<g>
</g>
<g>
</g>
<g>
</g>
<g>
</g>
<g>
</g>
<g>
</g>
<g>
</g>
<g>
</g>
</svg>
