<?xml version="1.0" encoding="iso-8859-1"?>
<!-- Generator: Adobe Illustrator 19.0.0, SVG Export Plug-In . SVG Version: 6.00 Build 0)  -->
<svg version="1.1" id="Capa_1" xmlns="http://www.w3.org/2000/svg" xmlns:xlink="http://www.w3.org/1999/xlink" x="0px" y="0px"
	 viewBox="0 0 512 512" style="enable-background:new 0 0 512 512;" xml:space="preserve">
<g>
	<g>
		<path d="M502,452h-2V292h-0.01c0-1.649-0.398-3.301-1.216-4.797c-10.788-19.733-38.609-54.839-73.941-63.312V202h13.233
			c5.522,0,10-4.478,10-10c0-5.522-4.478-10-10-10H336.933c-5.522,0-10,4.478-10,10c0,5.522,4.478,10,10,10h13.233v20.959
			c-15.897,1.937-30.671,6.798-43.166,13.991V170c-0.006,0.001-0.011,0.001-0.017,0.002c0-1.561-0.348-3.125-1.082-4.56
			C291.55,137.413,263.072,120,231.582,120H231v-20h30.014c9.376,12.464,24.211,20,39.986,20c27.57,0,50-22.43,50-50
			s-22.43-50-50-50c-15.775,0-30.61,7.536-39.986,20H231V20h11.5c5.522,0,10-4.478,10-10s-4.478-10-10-10h-83
			c-5.522,0-10,4.478-10,10s4.478,10,10,10H171v20h-30c-5.522,0-10,4.478-10,10v40c0,5.522,4.478,10,10,10h30v20h-0.582
			c-31.49,0-59.968,17.413-74.319,45.442c-0.735,1.436-1.083,3-1.082,4.561c0,0-0.003,21.12-0.005,51.997H65
			c-27.57,0-50,22.43-50,50v38.187c0,0-14.358,38.303-14.354,38.304C0.235,349.584,0,350.763,0,352v130c0,16.542,13.458,30,30,30
			h472c5.522,0,10-4.478,10-10v-40C512,456.478,507.522,452,502,452z M231,60h35.364c3.569,0,6.867-1.902,8.655-4.991
			C280.377,45.751,290.332,40,301,40c16.542,0,30,13.458,30,30s-13.458,30-30,30c-10.668,0-20.623-5.751-25.98-15.009
			c-1.788-3.089-5.086-4.991-8.655-4.991H231V60z M191,20h20v20h-20V20z M191,60h20v20h-20V60z M191,100h20v20h-20V100z M151,80V60
			h20v20H151z M170.418,140h61.164c17.883,0,34.487,7.384,46.296,20H124.122C135.931,147.384,152.535,140,170.418,140z M115,243.72
			c11.639,4.128,20,15.243,20,28.28v30h-20V243.72z M35,272c0-16.542,13.458-30,30-30h30.01c0,6.427-0.001,13.127-0.001,20H65
			c-5.522,0-10,4.478-10,10v30H35V272z M95,282v20H75v-20H95z M31.93,322h106.14l7.5,20H24.43L31.93,322z M150,482
			c0,5.514-4.486,10-10,10H30c-5.514,0-10-4.486-10-10v-10h130V482z M150,452H20v-90h130V452z M287,440h-46c-5.521,0-10,4.49-10,10
			s4.479,10,10,10h46v2c0,16.542-13.458,30-30,30h-88.72c1.11-3.13,1.72-6.494,1.72-10V352c0-1.237-0.235-2.417-0.646-3.511
			c0.003,0-14.354-38.302-14.354-38.302V272c0-24.146-17.205-44.348-40-48.994V180h172V440z M370.166,202h34.667v20h-34.667V202z
			 M307,261.201C321.43,249.302,342.865,242,365.744,242h43.511c24.393,0,47.708,20.521,62.343,40H307V261.201z M307,302h173v150
			H307V302z M492,492H296.962c4.378-5.818,7.526-12.612,9.032-20H492V492z"/>
	</g>
</g>
<g>
	<g>
		<path d="M201,440c-5.521,0-10,4.49-10,10s4.479,10,10,10c5.51,0,10-4.49,10-10S206.51,440,201,440z"/>
	</g>
</g>
<g>
	<g>
		<path d="M308.069,62.93C306.21,61.069,303.63,60,301,60s-5.21,1.069-7.07,2.93C292.07,64.791,291,67.37,291,70
			s1.069,5.21,2.93,7.069C295.79,78.93,298.37,80,301,80s5.21-1.07,7.069-2.931C309.93,75.21,311,72.63,311,70
			S309.93,64.79,308.069,62.93z"/>
	</g>
</g>
<g>
</g>
<g>
</g>
<g>
</g>
<g>
</g>
<g>
</g>
<g>
</g>
<g>
</g>
<g>
</g>
<g>
</g>
<g>
</g>
<g>
</g>
<g>
</g>
<g>
</g>
<g>
</g>
<g>
</g>
</svg>
