<svg xmlns="http://www.w3.org/2000/svg" height="640pt" version="1.1" viewBox="0 -37 640 640" width="640pt">
<g id="surface1">
<path d="M 320 277.335938 C 261.089844 277.335938 213.335938 325.085938 213.335938 384 C 213.335938 442.910156 261.089844 490.667969 320 490.667969 C 378.910156 490.667969 426.664062 442.910156 426.664062 384 C 426.601562 325.117188 378.882812 277.398438 320 277.335938 Z M 320 469.332031 C 272.871094 469.332031 234.667969 431.128906 234.667969 384 C 234.667969 336.871094 272.871094 298.667969 320 298.667969 C 367.128906 298.667969 405.332031 336.871094 405.332031 384 C 405.277344 431.101562 367.105469 469.28125 320 469.332031 Z M 320 469.332031 " style=" stroke:none;fill-rule:nonzero;fill:rgb(0%,0%,0%);fill-opacity:1;" />
<path d="M 320 266.664062 C 325.890625 266.664062 330.667969 261.890625 330.667969 256 L 330.667969 245.332031 C 330.667969 239.445312 325.890625 234.667969 320 234.667969 C 314.109375 234.667969 309.332031 239.445312 309.332031 245.332031 L 309.332031 256 C 309.332031 261.890625 314.109375 266.664062 320 266.664062 Z M 320 266.664062 " style=" stroke:none;fill-rule:nonzero;fill:rgb(0%,0%,0%);fill-opacity:1;" />
<path d="M 410.507812 278.398438 L 402.964844 285.941406 C 398.730469 290.035156 398.613281 296.789062 402.703125 301.023438 C 406.796875 305.257812 413.550781 305.375 417.789062 301.285156 C 417.875 301.203125 417.964844 301.113281 418.046875 301.023438 L 425.589844 293.480469 C 429.683594 289.242188 429.566406 282.492188 425.328125 278.398438 C 421.195312 274.40625 414.640625 274.40625 410.507812 278.398438 Z M 410.507812 278.398438 " style=" stroke:none;fill-rule:nonzero;fill:rgb(0%,0%,0%);fill-opacity:1;" />
<path d="M 458.667969 373.328125 L 448 373.328125 C 442.109375 373.328125 437.335938 378.109375 437.335938 384 C 437.335938 389.890625 442.109375 394.667969 448 394.667969 L 458.667969 394.667969 C 464.554688 394.667969 469.332031 389.890625 469.332031 384 C 469.332031 378.109375 464.554688 373.328125 458.667969 373.328125 Z M 458.667969 373.328125 " style=" stroke:none;fill-rule:nonzero;fill:rgb(0%,0%,0%);fill-opacity:1;" />
<path d="M 418.046875 466.960938 C 413.8125 462.871094 407.054688 462.988281 402.964844 467.226562 C 398.976562 471.363281 398.976562 477.914062 402.964844 482.046875 L 410.507812 489.589844 C 414.671875 493.753906 421.425781 493.757812 425.59375 489.59375 C 429.761719 485.429688 429.765625 478.675781 425.601562 474.507812 Z M 418.046875 466.960938 " style=" stroke:none;fill-rule:nonzero;fill:rgb(0%,0%,0%);fill-opacity:1;" />
<path d="M 320 501.332031 C 314.109375 501.332031 309.332031 506.109375 309.332031 512 L 309.332031 522.664062 C 309.332031 528.558594 314.109375 533.335938 320 533.335938 C 325.890625 533.335938 330.667969 528.558594 330.667969 522.664062 L 330.667969 512 C 330.667969 506.109375 325.890625 501.332031 320 501.332031 Z M 320 501.332031 " style=" stroke:none;fill-rule:nonzero;fill:rgb(0%,0%,0%);fill-opacity:1;" />
<path d="M 221.953125 466.960938 L 214.410156 474.507812 C 210.242188 478.671875 210.238281 485.425781 214.40625 489.59375 C 218.570312 493.757812 225.328125 493.765625 229.492188 489.601562 L 237.035156 482.054688 C 241.128906 477.820312 241.011719 471.070312 236.773438 466.976562 C 232.640625 462.984375 226.085938 462.984375 221.953125 466.976562 Z M 221.953125 466.960938 " style=" stroke:none;fill-rule:nonzero;fill:rgb(0%,0%,0%);fill-opacity:1;" />
<path d="M 192 373.328125 L 181.332031 373.328125 C 175.4375 373.328125 170.664062 378.109375 170.664062 384 C 170.664062 389.890625 175.4375 394.667969 181.332031 394.667969 L 192 394.667969 C 197.890625 394.667969 202.664062 389.890625 202.664062 384 C 202.664062 378.109375 197.890625 373.328125 192 373.328125 Z M 192 373.328125 " style=" stroke:none;fill-rule:nonzero;fill:rgb(0%,0%,0%);fill-opacity:1;" />
<path d="M 221.953125 301.035156 C 226.1875 305.125 232.945312 305.007812 237.035156 300.773438 C 241.023438 296.640625 241.023438 290.082031 237.035156 285.953125 L 229.492188 278.414062 C 225.328125 274.242188 218.574219 274.242188 214.40625 278.402344 C 210.238281 282.570312 210.234375 289.328125 214.398438 293.492188 Z M 221.953125 301.035156 " style=" stroke:none;fill-rule:nonzero;fill:rgb(0%,0%,0%);fill-opacity:1;" />
<path d="M 608 266.664062 C 590.328125 266.664062 576 280.992188 576 298.667969 L 576 309.332031 L 485.054688 309.332031 C 466.832031 269.277344 434.722656 237.167969 394.667969 218.945312 L 394.667969 138.667969 C 394.667969 132.773438 389.890625 128 384 128 L 362.664062 128 L 362.664062 64 L 490.664062 64 C 508.339844 64 522.664062 49.671875 522.664062 32 C 522.664062 14.328125 508.339844 0 490.664062 0 L 149.332031 0 C 131.660156 0 117.335938 14.328125 117.335938 32 C 117.335938 49.671875 131.660156 64 149.332031 64 L 277.335938 64 L 277.335938 128 L 256 128 C 250.109375 128 245.332031 132.777344 245.332031 138.667969 L 245.332031 218.945312 C 205.273438 237.167969 173.167969 269.277344 154.941406 309.335938 L 64 309.335938 L 64 298.667969 C 64 280.996094 49.671875 266.671875 32 266.671875 C 14.328125 266.671875 0 280.992188 0 298.667969 L 0 469.332031 C 0 487.007812 14.328125 501.332031 32 501.332031 C 49.671875 501.332031 64 487.007812 64 469.332031 L 64 458.667969 L 154.945312 458.667969 C 196.015625 549.824219 303.207031 590.429688 394.367188 549.355469 C 434.648438 531.207031 466.90625 498.949219 485.054688 458.667969 L 576 458.667969 L 576 469.332031 C 576 487.007812 590.328125 501.332031 608 501.332031 C 625.671875 501.332031 640 487.007812 640 469.332031 L 640 298.667969 C 640 280.992188 625.671875 266.664062 608 266.664062 Z M 138.667969 32 C 138.667969 26.109375 143.441406 21.332031 149.332031 21.332031 L 490.664062 21.332031 C 496.558594 21.332031 501.332031 26.109375 501.332031 32 C 501.332031 37.890625 496.558594 42.664062 490.664062 42.664062 L 149.332031 42.664062 C 143.441406 42.664062 138.667969 37.890625 138.667969 32 Z M 298.667969 64 L 341.332031 64 L 341.332031 128 L 298.667969 128 Z M 266.664062 149.332031 L 373.335938 149.332031 L 373.335938 210.699219 C 338.585938 199.992188 301.414062 199.992188 266.664062 210.699219 Z M 42.664062 469.332031 C 42.664062 475.226562 37.890625 480 32 480 C 26.109375 480 21.332031 475.226562 21.332031 469.332031 L 21.332031 298.667969 C 21.332031 292.773438 26.109375 288 32 288 C 37.890625 288 42.664062 292.773438 42.664062 298.667969 Z M 64 437.335938 L 64 330.664062 L 146.699219 330.664062 C 135.992188 365.414062 135.992188 402.582031 146.699219 437.335938 Z M 320 544 C 231.636719 544 160 472.363281 160 384 C 160 295.632812 231.636719 224 320 224 C 408.363281 224 480 295.632812 480 384 C 479.902344 472.324219 408.324219 543.902344 320 544 Z M 493.300781 437.335938 C 504.007812 402.582031 504.007812 365.414062 493.300781 330.664062 L 576 330.664062 L 576 437.335938 Z M 618.667969 469.332031 C 618.667969 475.226562 613.890625 480 608 480 C 602.109375 480 597.335938 475.226562 597.335938 469.332031 L 597.335938 298.667969 C 597.335938 292.773438 602.109375 288 608 288 C 613.890625 288 618.667969 292.773438 618.667969 298.667969 Z M 618.667969 469.332031 " style=" stroke:none;fill-rule:nonzero;fill:rgb(0%,0%,0%);fill-opacity:1;" />
</g>
</svg>