<svg height="448pt" viewBox="0 -84 448.044 448" width="448pt" xmlns="http://www.w3.org/2000/svg"><path d="m416 248.023438c0-2.195313-.222656-4.386719-.664062-6.539063-.089844-.453125-.304688-.886719-.414063-1.34375-.40625-1.695313-.941406-3.359375-1.601563-4.976563-2.246093-5.011718-5.726562-9.367187-10.121093-12.660156-5.496094-4.246094-12.253907-6.527344-19.199219-6.480468-13-.039063-24.738281 7.765624-29.730469 19.765624-4.992187 12.003907-2.253906 25.832032 6.9375 35.023438 9.195313 9.191406 23.023438 11.933594 35.023438 6.941406 12.003906-4.992187 19.808593-16.734375 19.769531-29.730468zm-32 16c-8.835938 0-16-7.164063-16-16 0-8.839844 7.164062-16 16-16s16 7.160156 16 16c0 8.835937-7.164062 16-16 16zm0 0"/><path d="m104 96.023438h-30.59375l-33.40625 47.480468v8.519532h64zm0 0"/><path d="m312 248.023438c0-2.195313-.222656-4.386719-.664062-6.539063-.128907-.636719-.414063-1.246094-.582032-1.878906-.359375-1.5-.820312-2.972657-1.386718-4.40625-.144532-.335938-.351563-.632813-.511719-.960938-.507813-1.097656-1.074219-2.164062-1.695313-3.199219-.351562-.546874-.800781-1.023437-1.144531-1.554687-.535156-.734375-1.03125-1.503906-1.601563-2.191406-.566406-.6875-1.300781-1.34375-1.972656-2-.425781-.421875-.800781-.886719-1.257812-1.277344-.925782-.789063-1.898438-1.527344-2.902344-2.210937-.257812-.175782-.480469-.390626-.746094-.566407-1.214844-.785156-2.480468-1.492187-3.792968-2.113281l-.207032-.109375c-1.214844-.558594-2.464844-1.039063-3.742187-1.433594-.191407-.0625-.367188-.160156-.554688-.214843-15.53125-4.679688-32.109375 2.988281-38.605469 17.855468-3.515624 8.199219-3.515624 17.480469 0 25.679688 5.121094 11.644531 16.640626 19.160156 29.363282 19.160156s24.242187-7.515625 29.363281-19.160156c1.746094-4.070313 2.644531-8.453125 2.640625-12.878906zm-32 16c-8.835938 0-16-7.164063-16-16 0-8.839844 7.164062-16 16-16s16 7.160156 16 16c0 8.835937-7.164062 16-16 16zm0 0"/><path d="m104 248.023438c.042969-15.191407-10.597656-28.316407-25.464844-31.417969-14.871094-3.101563-29.871094 4.675781-35.902344 18.617187-3.515624 8.199219-3.515624 17.480469 0 25.679688 5.121094 11.644531 16.640626 19.160156 29.363282 19.160156s24.242187-7.515625 29.363281-19.160156c1.746094-4.070313 2.644531-8.453125 2.640625-12.878906zm-32 16c-8.835938 0-16-7.164063-16-16 0-8.839844 7.164062-16 16-16s16 7.160156 16 16c0 8.835937-7.164062 16-16 16zm0 0"/><path d="m336.664062 240.023438h-9.328124c.046874.269531 0 .550781.070312.796874.792969 4.753907.792969 9.601563 0 14.355469-.039062.269531 0 .550781-.070312.796875h9.328124c-.046874-.277344 0-.566406-.070312-.855468-.792969-4.738282-.792969-9.578126 0-14.320313.039062-.222656.023438-.503906.070312-.773437zm0 0"/><path d="m342.945312 223.222656c.421876-.6875.894532-1.335937 1.34375-2 .800782-1.207031 1.664063-2.402344 2.574219-3.503906.519531-.632812 1.074219-1.226562 1.601563-1.832031.949218-1.039063 1.925781-2.046875 2.960937-3 .613281-.570313 1.238281-1.113281 1.886719-1.648438 1.066406-.875 2.152344-1.703125 3.253906-2.480469.707032-.488281 1.402344-.96875 2.128906-1.421874 1.144532-.714844 2.328126-1.355469 3.527344-1.96875.800782-.394532 1.53125-.800782 2.320313-1.144532 1.25-.5625 2.535156-1.015625 3.839843-1.472656.800782-.273438 1.601563-.574219 2.402344-.800781 1.4375-.414063 2.910156-.703125 4.390625-.984375.703125-.136719 1.390625-.328125 2.113281-.429688 4.882813-.71875 9.84375-.664062 14.710938.160156.902344.144532 1.761719.445313 2.648438.648438 1.683593.339844 3.351562.773438 4.992187 1.292969.113281.042969.238281.058593.351563.097656v-10.710937h-175.992188v32h14.398438c.160156-.28125.378906-.53125.546874-.800782.421876-.6875.894532-1.335937 1.34375-2 .800782-1.207031 1.664063-2.402344 2.574219-3.503906.519531-.632812 1.074219-1.226562 1.601563-1.832031.949218-1.039063 1.925781-2.046875 2.960937-3 .613281-.570313 1.238281-1.113281 1.886719-1.648438 1.066406-.875 2.152344-1.703125 3.253906-2.480469.707032-.488281 1.402344-.96875 2.128906-1.421874 1.144532-.714844 2.328126-1.355469 3.527344-1.96875.800782-.394532 1.53125-.800782 2.320313-1.144532 1.25-.5625 2.535156-1.015625 3.839843-1.472656.800782-.273438 1.601563-.574219 2.402344-.800781 1.4375-.414063 2.910156-.703125 4.390625-.984375.703125-.136719 1.390625-.328125 2.113281-.429688 4.460938-.664062 8.992188-.664062 13.453126 0 .730468.101563 1.425781.292969 2.144531.429688 1.464843.28125 2.929687.570312 4.351562.976562.800781.242188 1.601563.5625 2.402344.839844 1.269531.441406 2.527344.890625 3.75 1.433594.800781.367187 1.601563.800781 2.402344 1.207031 1.144531.585937 2.269531 1.191406 3.359375 1.871094.800781.488281 1.550781 1.015625 2.320312 1.546875 1.03125.726562 2.039063 1.484375 3.015625 2.292968.726563.601563 1.433594 1.21875 2.121094 1.855469.933594.867188 1.816406 1.777344 2.679687 2.714844.640626.695313 1.269532 1.382813 1.863282 2.109375.800781 1.007812 1.601562 2.074219 2.320312 3.152344.527344.761718 1.070313 1.503906 1.550782 2.304687.167968.265625.367187.496094.519531.800781h20.800781c.214844-.328124.433594-.578124.601562-.847656zm0 0"/><path d="m232.664062 240.023438h-113.328124c.046874.277343 0 .566406.070312.855468.792969 4.738282.792969 9.578125 0 14.320313 0 .269531 0 .550781-.070312.796875h113.328124c-.046874-.277344 0-.566406-.070312-.855469-.792969-4.738281-.792969-9.578125 0-14.320313.039062-.246093.023438-.527343.070312-.796874zm0 0"/><path d="m189.464844 32.023438c-17.988282 46.308593-18.003906 97.675781-.050782 144h245.152344c17.96875-46.320313 17.96875-97.683594 0-144h-162.566406v72c0 4.417968-3.582031 8-8 8s-8-3.582032-8-8v-8h-32v8c0 4.417968-3.582031 8-8 8s-8-3.582032-8-8v-72zm0 0"/><path d="m24.664062 240.023438h-24.664062v16h24.664062c-.046874-.28125 0-.570313-.070312-.859376-.792969-4.738281-.792969-9.578124 0-14.316406.039062-.273437.023438-.554687.070312-.824218zm0 0"/><path d="m224 32.023438h32v16h-32zm0 0"/><path d="m224 64.023438h32v16h-32zm0 0"/><path d="m431.335938 256.023438h16.664062v-16h-16.664062c.046874.269531 0 .550781.070312.796874.792969 4.753907.792969 9.601563 0 14.355469-.039062.292969-.023438.574219-.070312.847657zm0 0"/><path d="m107.34375 215.6875c.640625.695312 1.273438 1.382812 1.863281 2.109375.800781 1.007813 1.601563 2.074219 2.320313 3.152344.527344.761719 1.074218 1.503906 1.550781 2.304687.167969.265625.371094.496094.523437.800782h22.398438v-160.03125h-75.832031l-52.167969 74.519531v85.480469h22.398438c.160156-.28125.378906-.53125.546874-.800782.421876-.6875.894532-1.335937 1.34375-2 .800782-1.207031 1.664063-2.402344 2.574219-3.503906.519531-.632812 1.074219-1.226562 1.601563-1.832031.949218-1.039063 1.925781-2.046875 2.960937-3 .613281-.570313 1.238281-1.113281 1.886719-1.648438 1.066406-.875 2.152344-1.703125 3.253906-2.480469.707032-.488281 1.402344-.96875 2.128906-1.421874 1.144532-.714844 2.328126-1.355469 3.527344-1.96875.800782-.394532 1.53125-.800782 2.320313-1.144532 1.25-.5625 2.535156-1.015625 3.839843-1.472656.800782-.273438 1.5625-.574219 2.402344-.800781 1.4375-.414063 2.910156-.703125 4.390625-.984375.703125-.136719 1.390625-.328125 2.113281-.429688 4.460938-.664062 8.992188-.664062 13.453126 0 .730468.101563 1.425781.292969 2.144531.429688 1.464843.28125 2.929687.570312 4.351562.976562.800781.242188 1.601563.5625 2.402344.839844 1.269531.441406 2.527344.890625 3.75 1.433594.800781.367187 1.601563.800781 2.402344 1.207031 1.144531.585937 2.269531 1.191406 3.359375 1.871094.800781.488281 1.550781 1.015625 2.320312 1.546875 1.03125.726562 2.039063 1.484375 3.015625 2.292968.726563.601563 1.433594 1.21875 2.121094 1.855469.992187.851563 1.871094 1.761719 2.734375 2.699219zm-83.34375-74.722656c-.003906-1.644532.507812-3.253906 1.457031-4.597656l37.253907-52.945313c1.5-2.132813 3.941406-3.398437 6.546874-3.398437h42.742188c4.417969 0 8 3.582031 8 8v72c0 4.417968-3.582031 8-8 8h-80c-4.417969 0-8-3.582032-8-8zm8 51.058594c-4.417969 0-8-3.582032-8-8 0-4.417969 3.582031-8 8-8h80c4.417969 0 8 3.582031 8 8 0 4.417968-3.582031 8-8 8zm0 0"/><path d="m368 8.023438h32v8h-32zm0 0"/><path d="m216 .0234375c-4.417969 0-8 3.5820315-8 8.0000005v8h16v-8c0-4.417969-3.582031-8.0000005-8-8.0000005zm0 0"/><path d="m272 8.023438c0-4.417969-3.582031-8.0000005-8-8.0000005s-8 3.5820315-8 8.0000005v8h16zm0 0"/></svg>