<?xml version="1.0" encoding="iso-8859-1"?>
<!-- Generator: Adobe Illustrator 19.0.0, SVG Export Plug-In . SVG Version: 6.00 Build 0)  -->
<svg version="1.1" id="Capa_1" xmlns="http://www.w3.org/2000/svg" xmlns:xlink="http://www.w3.org/1999/xlink" x="0px" y="0px"
	 viewBox="0 0 444.578 444.578" style="enable-background:new 0 0 444.578 444.578;" xml:space="preserve">
<g>
	<g>
		<path d="M66.818,234.08c78.039-0.627,234.137-1.381,312.167,0c2.224,0.039,10.25,0.335,6.417-6.165
			c-8.091-13.719,1.748-17.011-9.452-32.761c-12.303-17.3-24.311-11.672-36.614-28.973c-12.306-17.306-0.299-22.934-12.605-40.241
			c-12.305-17.304-24.311-11.676-36.617-28.979c-12.304-17.303-0.299-22.931-12.603-40.234
			c-12.304-17.302-23.68-11.979-36.613-28.976c-18.507-24.324-37.223,0.012-37.223,0.012
			c-12.309,17.311-24.317,11.683-36.626,28.993C154.741,74.064,166.748,79.692,154.44,97
			c-12.307,17.307-24.315,11.679-36.622,28.986c-12.303,17.301-0.296,22.929-12.599,40.23
			c-12.306,17.305-24.313,11.677-36.62,28.983c-10.997,15.464-1.18,18.778-8.447,32.048
			C56.318,234.249,64.431,234.099,66.818,234.08z"/>
		<path d="M414.183,253.695H30.395c-18.257,0-25.709,10.755-16.559,23.899c0,0,108.346,123.596,208.452,123.596
			c100.108,0,208.454-123.596,208.454-123.596C439.892,264.45,432.44,253.695,414.183,253.695z"/>
		<path d="M135.549,399.863v30.317c0,7.951,7.748,14.398,17.306,14.398l145.871-0.003c9.558,0,17.305-6.447,17.305-14.399v-32.168
			c-22.503,6.291-68.788,16.067-93.743,16.067C199.907,414.074,155.999,404.937,135.549,399.863z"/>
		<path d="M120.345,43.054c1.074,1.074,2.481,1.611,3.889,1.611s2.815-0.537,3.889-1.611l7.444-7.444l7.444,7.444
			c1.074,1.074,2.482,1.611,3.889,1.611c1.408,0,2.815-0.537,3.889-1.611c2.148-2.148,2.148-5.63,0-7.778l-7.444-7.444l7.444-7.444
			c2.148-2.148,2.148-5.63,0-7.778c-2.148-2.147-5.63-2.147-7.778,0l-7.444,7.444l-7.444-7.444c-2.148-2.147-5.63-2.147-7.778,0
			c-2.148,2.148-2.148,5.63,0,7.778l7.444,7.444l-7.444,7.444C118.197,37.424,118.197,40.906,120.345,43.054z"/>
		<path d="M21.345,180.054c1.074,1.074,2.481,1.611,3.889,1.611c1.408,0,2.815-0.537,3.889-1.611l7.444-7.444l7.444,7.444
			c1.074,1.074,2.482,1.611,3.889,1.611c1.408,0,2.815-0.537,3.889-1.611c2.148-2.148,2.148-5.63,0-7.778l-7.444-7.444l7.444-7.444
			c2.148-2.148,2.148-5.63,0-7.778c-2.148-2.147-5.63-2.147-7.778,0l-7.444,7.444l-7.444-7.444c-2.149-2.147-5.63-2.147-7.778,0
			c-2.148,2.148-2.148,5.63,0,7.778l7.444,7.444l-7.444,7.444C19.197,174.424,19.197,177.906,21.345,180.054z"/>
		<path d="M322.012,32.054c1.073,1.074,2.48,1.611,3.889,1.611c1.407,0,2.815-0.537,3.889-1.611l7.445-7.445l7.445,7.445
			c1.073,1.074,2.482,1.611,3.889,1.611s2.815-0.537,3.889-1.611c2.148-2.148,2.148-5.63,0-7.778l-7.444-7.444l7.444-7.444
			c2.148-2.148,2.148-5.63,0-7.778c-2.145-2.146-5.63-2.148-7.777,0l-7.445,7.445l-7.445-7.445c-2.146-2.147-5.631-2.147-7.777,0
			c-2.148,2.148-2.148,5.63,0,7.778l7.444,7.444l-7.444,7.444C319.864,26.424,319.864,29.906,322.012,32.054z"/>
		<path d="M375.335,153.547c1.073,1.074,2.481,1.611,3.889,1.611c1.407,0,2.815-0.537,3.889-1.611l7.445-7.445l7.445,7.445
			c1.073,1.074,2.481,1.611,3.889,1.611c1.407,0,2.815-0.537,3.889-1.611c2.148-2.148,2.148-5.63,0-7.778l-7.444-7.444l7.444-7.444
			c2.148-2.148,2.148-5.63,0-7.778c-2.147-2.147-5.631-2.147-7.777,0l-7.445,7.445l-7.445-7.445c-2.147-2.147-5.631-2.147-7.777,0
			c-2.148,2.148-2.148,5.63,0,7.778l7.444,7.444l-7.444,7.444C373.187,147.916,373.187,151.399,375.335,153.547z"/>
	</g>
</g>
<g>
</g>
<g>
</g>
<g>
</g>
<g>
</g>
<g>
</g>
<g>
</g>
<g>
</g>
<g>
</g>
<g>
</g>
<g>
</g>
<g>
</g>
<g>
</g>
<g>
</g>
<g>
</g>
<g>
</g>
</svg>
