<?xml version="1.0" encoding="UTF-8" standalone="no"?>
<!-- Generator: Adobe Illustrator 16.0.0, SVG Export Plug-In . SVG Version: 6.00 Build 0)  -->

<svg
   xmlns:osb="http://www.openswatchbook.org/uri/2009/osb"
   xmlns:dc="http://purl.org/dc/elements/1.1/"
   xmlns:cc="http://creativecommons.org/ns#"
   xmlns:rdf="http://www.w3.org/1999/02/22-rdf-syntax-ns#"
   xmlns:svg="http://www.w3.org/2000/svg"
   xmlns="http://www.w3.org/2000/svg"
   xmlns:xlink="http://www.w3.org/1999/xlink"
   xmlns:sodipodi="http://sodipodi.sourceforge.net/DTD/sodipodi-0.dtd"
   xmlns:inkscape="http://www.inkscape.org/namespaces/inkscape"
   version="1.1"
   id="Capa_1"
   x="0px"
   y="0px"
   width="493px"
   height="493px"
   viewBox="0 0 493 493"
   style="enable-background:new 0 0 493 493;"
   xml:space="preserve"
   sodipodi:docname="bio-mass-eco-energy.svg"
   inkscape:version="0.92.0 r15299"><metadata
     id="metadata59"><rdf:RDF><cc:Work
         rdf:about=""><dc:format>image/svg+xml</dc:format><dc:type
           rdf:resource="http://purl.org/dc/dcmitype/StillImage" /></cc:Work></rdf:RDF></metadata><defs
     id="defs57"><linearGradient
       id="linearGradient4563"
       osb:paint="solid"><stop
         style="stop-color:#000000;stop-opacity:1;"
         offset="0"
         id="stop4561" /></linearGradient><linearGradient
       id="linearGradient4557"
       osb:paint="solid"><stop
         style="stop-color:#000000;stop-opacity:1;"
         offset="0"
         id="stop4555" /></linearGradient><linearGradient
       inkscape:collect="always"
       xlink:href="#linearGradient4557"
       id="linearGradient4559"
       x1="0.00017117716"
       y1="246.49897"
       x2="493.00114"
       y2="246.49897"
       gradientUnits="userSpaceOnUse" /><linearGradient
       inkscape:collect="always"
       xlink:href="#linearGradient4563"
       id="linearGradient4565"
       x1="-0.49747528"
       y1="246.50706"
       x2="493.48792"
       y2="246.50706"
       gradientUnits="userSpaceOnUse" /></defs><sodipodi:namedview
     pagecolor="#ffffff"
     bordercolor="#666666"
     borderopacity="1"
     objecttolerance="10"
     gridtolerance="10"
     guidetolerance="10"
     inkscape:pageopacity="0"
     inkscape:pageshadow="2"
     inkscape:window-width="725"
     inkscape:window-height="480"
     id="namedview55"
     showgrid="false"
     inkscape:zoom="0.47870183"
     inkscape:cx="246.5"
     inkscape:cy="246.5"
     inkscape:window-x="0"
     inkscape:window-y="0"
     inkscape:window-maximized="0"
     inkscape:current-layer="Capa_1" /><g
     id="g22"
     style="stroke:url(#linearGradient4559);fill-opacity:1;fill:url(#linearGradient4565);opacity:1"><g
       style="opacity:0.8;stroke:url(#linearGradient4559);fill-opacity:1;fill:url(#linearGradient4565)"
       id="g20"><path
         d="M106.939,166.347l-21.581-6.562c7.138-7.633,14.848-15.168,23.053-22.456l78.855,14.484l-68.149-23.558    c9.577-7.74,19.8-15.009,30.672-21.571l77.53,19.445l-64.377-26.882c28.205-14.776,60.354-24.47,96.422-24.761    c-2.329,16.178-10.193,56.002-33.424,88.248h19.35c26.753-41.74,30.842-90.469,31.066-93.447c0.01-0.147-0.079-0.292-0.098-0.429    c1.06-2.859-0.537-6.175-4.153-7.829C147.989,4.067,82.998,34.453,55.293,57.646c-42.515,35.596-49.91,95.185-27.881,122.719    c0.548,0.679,1.213,1.276,1.958,1.764c2.682,1.743,6.366,2.172,9.234,0.887c3.685-1.667,4.642-5.538,2.156-8.665    C24.358,153.86,28.39,99.74,67.542,66.975c28.038-23.461,80.785-42.046,175.239-4.602c-32.369,2.312-61.456,11.296-87.286,24.32    l1.295-32.432l-17.63,41.378c-11.446,6.854-22.181,14.415-32.191,22.47l-5.024-53.177l-9.892,64.229    c-0.058,0.385-0.077,0.821-0.04,1.232c0.012,0.164,0.122,0.301,0.159,0.462c-6.298,5.727-12.281,11.582-17.921,17.511    l-10.265-39.743l-1.725,52.885C22.629,207.214,2.149,252.174,0.43,256.053c-1.167,2.604,0.119,5.628,2.929,7.453    c0.625,0.42,1.342,0.774,2.116,1.041c4.231,1.493,8.795,0.098,10.224-3.118c0.42-0.929,21.056-46.292,61.034-92.095l23.718,2.742    v-4.392L106.939,166.347z"
         id="path2"
         style="stroke:url(#linearGradient4559);fill-opacity:1;fill:url(#linearGradient4565)" /><path
         d="M70.275,197.438c-4.219-1.477-8.774-0.046-10.193,3.174c-1.4,3.206,0.88,7.003,5.122,8.473    c12.172,4.23,23.935,7.441,35.246,9.663v-12.942C90.754,203.814,80.713,201.062,70.275,197.438z"
         id="path4"
         style="stroke:url(#linearGradient4559);fill-opacity:1;fill:url(#linearGradient4565)" /><path
         d="M345.663,161.714c2.642-3.612,2.595-8.387-0.079-10.667c-2.665-2.285-6.954-1.209-9.605,2.429    c-2.674,3.67-5.161,7.32-7.561,10.958c4.191,1.332,8.187,3.015,11.957,5.036C342.135,166.886,343.769,164.316,345.663,161.714z"
         id="path6"
         style="stroke:url(#linearGradient4559);fill-opacity:1;fill:url(#linearGradient4565)" /><path
         d="M374.464,125.675c-0.812,0.332-1.578,0.793-2.26,1.368c-2.449,2.051-3.938,5.458-3.537,8.568    c0.518,4.012,3.958,6.056,7.668,4.583c24.381-9.729,74.972,9.876,94.938,56.864c14.286,33.647,16.713,89.517-46.587,169.002    c7.206-31.652,7.071-62.091,2.124-90.593l30.653,10.674l-34.452-28.903c-3.234-12.949-7.347-25.417-12.135-37.342l52.337,10.671    l-58.577-28.149c-0.34-0.175-0.76-0.325-1.162-0.397c-0.158-0.037-0.326,0.03-0.489,0.017    c-3.641-7.691-7.505-15.122-11.537-22.243l41.005,1.741l-50.087-17.04c-32.198-51.221-69.255-83.881-72.452-86.654    c-2.156-1.874-5.433-1.524-7.99,0.63c-0.578,0.478-1.129,1.066-1.614,1.731c-2.651,3.603-2.651,8.382,0.019,10.685    c0.766,0.674,38.148,33.617,70.342,85.193l-6.412,14.729c1.839,2.613,3.519,5.372,5.021,8.263l8.018-11.966    c5.228,9.045,10.184,18.612,14.776,28.593l-13.217,25.587c-0.047,5.085-0.438,9.98-1.111,14.699l19.892-27.408    c4.62,11.409,8.597,23.305,11.724,35.626l-41.173,68.503l44.454-53.755c5.932,31.288,5.856,64.858-4.369,99.45    c-15.266-7.164-52.925-27.307-76.974-60.765c-5.087,1.913-10.511,3.29-16.232,4.111c31.083,49.695,90.065,73.18,93.248,74.407    c0.141,0.061,0.299,0.014,0.439,0.052c2.436,1.834,6.071,1.265,8.699-1.704c90.606-102.167,80.441-173.195,66.319-206.448    C462.074,137.021,407.212,112.619,374.464,125.675z"
         id="path8"
         style="stroke:url(#linearGradient4559);fill-opacity:1;fill:url(#linearGradient4565)" /><path
         d="M253.969,320.752h-5.062c7.647,16.031,13.271,34.854,16.696,56.579c0.696,4.406,4.089,7.752,7.599,7.481    c3.49-0.262,5.759-4.056,5.073-8.513c-4.238-26.883-11.603-49.9-21.865-69.134c-0.817-0.648-1.657-1.265-2.441-1.946V320.752z"
         id="path10"
         style="stroke:url(#linearGradient4559);fill-opacity:1;fill:url(#linearGradient4565)" /><path
         d="M181.585,366.793c-11.341-4.803-22.572-10.398-33.491-16.904l-6.973-28.012c-2.585-0.042-5.162-0.103-7.68-0.22    l1.902,20.12c-9.831-6.697-19.303-14.226-28.198-22.673l-6.69-0.845v-5.885c-12.2-12.667-23.203-27.195-32.345-43.997    c6.826-2.469,18.295-6.155,32.345-9.054v-16.795c-25.228,4.824-43.227,12.562-44.914,13.313c-0.147,0.056-0.224,0.2-0.343,0.279    c-3.008,0.416-5.19,3.384-4.947,7.342c8.177,136.335,65.584,179.36,99.08,192.876c51.424,20.76,107.481-0.784,121.388-33.169    c0.346-0.798,0.551-1.661,0.645-2.562c0.284-3.179-1.093-6.632-3.575-8.551c-3.192-2.478-7.07-1.483-8.652,2.171    c-10.361,24.114-60.003,46.031-107.334,26.929c-33.913-13.688-75.124-51.478-86.562-152.44    c17.284,27.47,38.905,48.906,62.548,65.562l-29.225,14.127l44.804-3.934c11.446,6.879,23.169,12.783,34.984,17.837l-44.552,29.464    l61.325-21.511c0.364-0.126,0.766-0.308,1.099-0.546c0.138-0.08,0.206-0.252,0.333-0.351c8.011,2.861,16.001,5.377,23.886,7.562    l-30.231,27.773l47.476-23.378c58.98,13.47,108.283,10.343,112.512,10.039c2.847-0.196,4.91-2.758,5.199-6.091    c0.089-0.741,0.047-1.54-0.074-2.365c-0.673-4.42-4.061-7.79-7.57-7.543c-1.018,0.075-50.759,3.221-109.987-10.496L213.93,324.29    l11.351,57.471c-10.088-2.703-20.36-5.961-30.663-9.773l-17.009-53.368c-1.167,0.294-2.322,0.598-3.544,0.85L181.585,366.793z"
         id="path12"
         style="stroke:url(#linearGradient4559);fill-opacity:1;fill:url(#linearGradient4565)" /><path
         d="M187.439,237.988v-0.361c13.21-4.889,20.271-15.227,20.271-26.467c0-10.328-5.05-18.313-12.673-22.838    c-8.324-5.796-18.479-7.796-34.982-7.796c-12.508,0-25.382,1.094-32.446,2.543v120.183c5.628,0.709,15.035,1.624,27.361,1.624    c22.318,0,36.627-3.804,45.343-11.421c7.068-5.801,11.77-14.313,11.77-25.197C212.08,251.399,200.309,241.253,187.439,237.988z     M149.728,197.931c2.343-0.543,6.16-0.907,12.683-0.907c14.144,0,22.841,5.267,22.841,16.68c0,10.331-8.697,17.59-24.11,17.59    h-11.418v-33.363H149.728z M161.507,288.022c-5.07,0-8.874-0.188-11.779-0.542v-39.885h11.054    c15.413,0,27.725,5.801,27.725,19.938C188.501,282.58,175.826,288.022,161.507,288.022z"
         id="path14"
         style="stroke:url(#linearGradient4559);fill-opacity:1;fill:url(#linearGradient4565)" /><rect
         x="223"
         y="181.44"
         width="22.309"
         height="122.179"
         id="rect16"
         style="stroke:url(#linearGradient4559);fill-opacity:1;fill:url(#linearGradient4565)" /><path
         d="M313.479,179.445c-34.442,0-58.002,26.462-58.002,63.988c0,35.89,21.739,62.175,56.182,62.175    c33.734,0,58.554-23.377,58.554-64.354C370.212,206.448,349.187,179.445,313.479,179.445z M312.923,287.653    c-21.379,0-33.892-19.756-33.892-44.583c0-25.19,11.798-45.684,33.892-45.684c22.3,0,33.729,21.753,33.729,44.774    C346.652,267.72,334.518,287.653,312.923,287.653z"
         id="path18"
         style="stroke:url(#linearGradient4559);fill-opacity:1;fill:url(#linearGradient4565)" /></g></g><g
     id="g24" /><g
     id="g26" /><g
     id="g28" /><g
     id="g30" /><g
     id="g32" /><g
     id="g34" /><g
     id="g36" /><g
     id="g38" /><g
     id="g40" /><g
     id="g42" /><g
     id="g44" /><g
     id="g46" /><g
     id="g48" /><g
     id="g50" /><g
     id="g52" /></svg>