<?xml version="1.0" encoding="UTF-8" standalone="no"?>
<!-- Created with Inkscape (http://www.inkscape.org/) -->

<svg
   xmlns:osb="http://www.openswatchbook.org/uri/2009/osb"
   xmlns:dc="http://purl.org/dc/elements/1.1/"
   xmlns:cc="http://creativecommons.org/ns#"
   xmlns:rdf="http://www.w3.org/1999/02/22-rdf-syntax-ns#"
   xmlns:svg="http://www.w3.org/2000/svg"
   xmlns="http://www.w3.org/2000/svg"
   xmlns:xlink="http://www.w3.org/1999/xlink"
   xmlns:sodipodi="http://sodipodi.sourceforge.net/DTD/sodipodi-0.dtd"
   xmlns:inkscape="http://www.inkscape.org/namespaces/inkscape"
   width="210mm"
   height="297mm"
   viewBox="0 0 210 297"
   version="1.1"
   id="svg4548"
   inkscape:version="0.92.0 r15299"
   sodipodi:docname="biomass market.svg">
  <defs
     id="defs4542">
    <marker
       inkscape:stockid="Arrow2Mstart"
       orient="auto"
       refY="0.0"
       refX="0.0"
       id="Arrow2Mstart"
       style="overflow:visible"
       inkscape:isstock="true">
      <path
         id="path5905"
         style="fill-rule:evenodd;stroke-width:0.625;stroke-linejoin:round;stroke:#000000;stroke-opacity:1;fill:#000000;fill-opacity:1"
         d="M 8.7185878,4.0337352 L -2.2072895,0.016013256 L 8.7185884,-4.0017078 C 6.9730900,-1.6296469 6.9831476,1.6157441 8.7185878,4.0337352 z "
         transform="scale(0.6) translate(0,0)" />
    </marker>
    <marker
       inkscape:stockid="Arrow2Mend"
       orient="auto"
       refY="0.0"
       refX="0.0"
       id="Arrow2Mend"
       style="overflow:visible;"
       inkscape:isstock="true">
      <path
         id="path5908"
         style="fill-rule:evenodd;stroke-width:0.625;stroke-linejoin:round;stroke:#000000;stroke-opacity:1;fill:#000000;fill-opacity:1"
         d="M 8.7185878,4.0337352 L -2.2072895,0.016013256 L 8.7185884,-4.0017078 C 6.9730900,-1.6296469 6.9831476,1.6157441 8.7185878,4.0337352 z "
         transform="scale(0.6) rotate(180) translate(0,0)" />
    </marker>
    <marker
       inkscape:stockid="TriangleInM"
       orient="auto"
       refY="0.0"
       refX="0.0"
       id="TriangleInM"
       style="overflow:visible"
       inkscape:isstock="true">
      <path
         id="path6017"
         d="M 5.77,0.0 L -2.88,5.0 L -2.88,-5.0 L 5.77,0.0 z "
         style="fill-rule:evenodd;stroke:#000000;stroke-width:1pt;stroke-opacity:1;fill:#000000;fill-opacity:1"
         transform="scale(-0.4)" />
    </marker>
    <marker
       inkscape:stockid="Arrow1Mend"
       orient="auto"
       refY="0.0"
       refX="0.0"
       id="Arrow1Mend"
       style="overflow:visible;"
       inkscape:isstock="true">
      <path
         id="path5890"
         d="M 0.0,0.0 L 5.0,-5.0 L -12.5,0.0 L 5.0,5.0 L 0.0,0.0 z "
         style="fill-rule:evenodd;stroke:#000000;stroke-width:1pt;stroke-opacity:1;fill:#000000;fill-opacity:1"
         transform="scale(0.4) rotate(180) translate(10,0)" />
    </marker>
    <marker
       inkscape:stockid="Arrow1Lstart"
       orient="auto"
       refY="0.0"
       refX="0.0"
       id="Arrow1Lstart"
       style="overflow:visible"
       inkscape:isstock="true">
      <path
         id="path5881"
         d="M 0.0,0.0 L 5.0,-5.0 L -12.5,0.0 L 5.0,5.0 L 0.0,0.0 z "
         style="fill-rule:evenodd;stroke:#000000;stroke-width:1pt;stroke-opacity:1;fill:#000000;fill-opacity:1"
         transform="scale(0.8) translate(12.5,0)" />
    </marker>
    <linearGradient
       id="linearGradient5839"
       osb:paint="solid">
      <stop
         style="stop-color:#000000;stop-opacity:1;"
         offset="0"
         id="stop5837" />
    </linearGradient>
    <linearGradient
       id="linearGradient5833"
       osb:paint="solid">
      <stop
         style="stop-color:#ffffff;stop-opacity:1;"
         offset="0"
         id="stop5831" />
    </linearGradient>
    <linearGradient
       id="linearGradient5765"
       osb:paint="solid">
      <stop
         style="stop-color:#000000;stop-opacity:1;"
         offset="0"
         id="stop5763" />
    </linearGradient>
    <linearGradient
       id="linearGradient5759"
       osb:paint="solid">
      <stop
         style="stop-color:#ffffff;stop-opacity:1;"
         offset="0"
         id="stop5757" />
    </linearGradient>
    <linearGradient
       id="linearGradient5751"
       osb:paint="solid">
      <stop
         style="stop-color:#000000;stop-opacity:1;"
         offset="0"
         id="stop5749" />
    </linearGradient>
    <linearGradient
       inkscape:collect="always"
       xlink:href="#linearGradient5759"
       id="linearGradient5761"
       x1="61.605625"
       y1="58.328309"
       x2="84.991709"
       y2="58.328309"
       gradientUnits="userSpaceOnUse"
       gradientTransform="matrix(1.1530886,0,0,1.1549076,-11.304924,-10.350928)" />
    <linearGradient
       inkscape:collect="always"
       xlink:href="#linearGradient5765"
       id="linearGradient5767"
       x1="61.605625"
       y1="58.328309"
       x2="84.991709"
       y2="58.328309"
       gradientUnits="userSpaceOnUse"
       gradientTransform="matrix(1.1530886,0,0,1.1549076,-11.304924,-10.350928)" />
    <linearGradient
       inkscape:collect="always"
       xlink:href="#linearGradient5833"
       id="linearGradient5835"
       x1="61.338352"
       y1="103.02914"
       x2="88.332577"
       y2="103.02914"
       gradientUnits="userSpaceOnUse"
       gradientTransform="matrix(1.000621,0,0,0.8333179,-1.2204758,13.172635)" />
    <linearGradient
       inkscape:collect="always"
       xlink:href="#linearGradient5839"
       id="linearGradient5841"
       x1="61.338352"
       y1="103.02914"
       x2="88.332577"
       y2="103.02914"
       gradientUnits="userSpaceOnUse"
       gradientTransform="matrix(1.000621,0,0,0.8333179,-1.2204758,13.172635)" />
    <linearGradient
       inkscape:collect="always"
       xlink:href="#linearGradient5839"
       id="linearGradient4565"
       x1="-0.49747527"
       y1="246.50706"
       x2="493.48792"
       y2="246.50706"
       gradientUnits="userSpaceOnUse" />
    <linearGradient
       inkscape:collect="always"
       xlink:href="#linearGradient5839"
       id="linearGradient4559"
       x1="0.00017117716"
       y1="246.49896"
       x2="493.00113"
       y2="246.49896"
       gradientUnits="userSpaceOnUse" />
    <linearGradient
       inkscape:collect="always"
       xlink:href="#linearGradient5839"
       id="linearGradient7333"
       gradientUnits="userSpaceOnUse"
       x1="-0.49747527"
       y1="246.50706"
       x2="493.48792"
       y2="246.50706" />
    <linearGradient
       inkscape:collect="always"
       xlink:href="#linearGradient5839"
       id="linearGradient7335"
       gradientUnits="userSpaceOnUse"
       x1="0.00017117716"
       y1="246.49896"
       x2="493.00113"
       y2="246.49896" />
    <linearGradient
       inkscape:collect="always"
       xlink:href="#linearGradient5839"
       id="linearGradient7337"
       gradientUnits="userSpaceOnUse"
       x1="-0.49747527"
       y1="246.50706"
       x2="493.48792"
       y2="246.50706" />
    <linearGradient
       inkscape:collect="always"
       xlink:href="#linearGradient5839"
       id="linearGradient7339"
       gradientUnits="userSpaceOnUse"
       x1="0.00017117716"
       y1="246.49896"
       x2="493.00113"
       y2="246.49896" />
    <linearGradient
       inkscape:collect="always"
       xlink:href="#linearGradient5839"
       id="linearGradient7341"
       gradientUnits="userSpaceOnUse"
       x1="-0.49747527"
       y1="246.50706"
       x2="493.48792"
       y2="246.50706" />
    <linearGradient
       inkscape:collect="always"
       xlink:href="#linearGradient5839"
       id="linearGradient7343"
       gradientUnits="userSpaceOnUse"
       x1="0.00017117716"
       y1="246.49896"
       x2="493.00113"
       y2="246.49896" />
    <linearGradient
       inkscape:collect="always"
       xlink:href="#linearGradient5839"
       id="linearGradient7345"
       gradientUnits="userSpaceOnUse"
       x1="-0.49747527"
       y1="246.50706"
       x2="493.48792"
       y2="246.50706" />
    <linearGradient
       inkscape:collect="always"
       xlink:href="#linearGradient5839"
       id="linearGradient7347"
       gradientUnits="userSpaceOnUse"
       x1="0.00017117716"
       y1="246.49896"
       x2="493.00113"
       y2="246.49896" />
    <linearGradient
       inkscape:collect="always"
       xlink:href="#linearGradient5839"
       id="linearGradient7349"
       gradientUnits="userSpaceOnUse"
       x1="-0.49747527"
       y1="246.50706"
       x2="493.48792"
       y2="246.50706" />
    <linearGradient
       inkscape:collect="always"
       xlink:href="#linearGradient5839"
       id="linearGradient7351"
       gradientUnits="userSpaceOnUse"
       x1="0.00017117716"
       y1="246.49896"
       x2="493.00113"
       y2="246.49896" />
    <linearGradient
       inkscape:collect="always"
       xlink:href="#linearGradient5839"
       id="linearGradient7353"
       gradientUnits="userSpaceOnUse"
       x1="-0.49747527"
       y1="246.50706"
       x2="493.48792"
       y2="246.50706" />
    <linearGradient
       inkscape:collect="always"
       xlink:href="#linearGradient5839"
       id="linearGradient7355"
       gradientUnits="userSpaceOnUse"
       x1="0.00017117716"
       y1="246.49896"
       x2="493.00113"
       y2="246.49896" />
    <linearGradient
       inkscape:collect="always"
       xlink:href="#linearGradient5839"
       id="linearGradient7357"
       gradientUnits="userSpaceOnUse"
       x1="-0.49747527"
       y1="246.50706"
       x2="493.48792"
       y2="246.50706" />
    <linearGradient
       inkscape:collect="always"
       xlink:href="#linearGradient5839"
       id="linearGradient7359"
       gradientUnits="userSpaceOnUse"
       x1="0.00017117716"
       y1="246.49896"
       x2="493.00113"
       y2="246.49896" />
    <linearGradient
       inkscape:collect="always"
       xlink:href="#linearGradient5839"
       id="linearGradient7361"
       gradientUnits="userSpaceOnUse"
       x1="-0.49747527"
       y1="246.50706"
       x2="493.48792"
       y2="246.50706" />
    <linearGradient
       inkscape:collect="always"
       xlink:href="#linearGradient5839"
       id="linearGradient7363"
       gradientUnits="userSpaceOnUse"
       x1="0.00017117716"
       y1="246.49896"
       x2="493.00113"
       y2="246.49896" />
    <linearGradient
       inkscape:collect="always"
       xlink:href="#linearGradient5839"
       id="linearGradient7365"
       gradientUnits="userSpaceOnUse"
       x1="-0.49747527"
       y1="246.50706"
       x2="493.48792"
       y2="246.50706" />
    <linearGradient
       inkscape:collect="always"
       xlink:href="#linearGradient5839"
       id="linearGradient7367"
       gradientUnits="userSpaceOnUse"
       x1="0.00017117716"
       y1="246.49896"
       x2="493.00113"
       y2="246.49896" />
    <linearGradient
       inkscape:collect="always"
       xlink:href="#linearGradient5839"
       id="linearGradient7369"
       gradientUnits="userSpaceOnUse"
       x1="-0.49747527"
       y1="246.50706"
       x2="493.48792"
       y2="246.50706" />
    <linearGradient
       inkscape:collect="always"
       xlink:href="#linearGradient5839"
       id="linearGradient7371"
       gradientUnits="userSpaceOnUse"
       x1="0.00017117716"
       y1="246.49896"
       x2="493.00113"
       y2="246.49896" />
  </defs>
  <sodipodi:namedview
     id="base"
     pagecolor="#ffffff"
     bordercolor="#666666"
     borderopacity="1.0"
     inkscape:pageopacity="0.0"
     inkscape:pageshadow="2"
     inkscape:zoom="1.8029464"
     inkscape:cx="396.85039"
     inkscape:cy="965.69866"
     inkscape:document-units="mm"
     inkscape:current-layer="g22"
     showgrid="false"
     inkscape:window-width="1920"
     inkscape:window-height="1005"
     inkscape:window-x="-9"
     inkscape:window-y="-9"
     inkscape:window-maximized="1" />
  <metadata
     id="metadata4545">
    <rdf:RDF>
      <cc:Work
         rdf:about="">
        <dc:format>image/svg+xml</dc:format>
        <dc:type
           rdf:resource="http://purl.org/dc/dcmitype/StillImage" />
        <dc:title></dc:title>
      </cc:Work>
    </rdf:RDF>
  </metadata>
  <g
     inkscape:label="Layer 1"
     inkscape:groupmode="layer"
     id="layer1">
    <rect
       style="fill:url(#linearGradient5761);fill-opacity:1;stroke:url(#linearGradient5767);stroke-width:0.19040965;stroke-miterlimit:4;stroke-dasharray:none;stroke-dashoffset:0"
       id="rect5755"
       width="26.966227"
       height="32.101849"
       x="59.731812"
       y="40.961952" />
    <g
       id="g28"
       transform="matrix(0.11248789,0,0,0.09890734,23.29459,65.009515)">
      <g
         id="g26">
        <g
           id="g24">
          <path
             inkscape:connector-curvature="0"
             d="M 270.834,243.333 H 254.82 v -2.499 c 0,-4.142 -3.357,-7.5 -7.5,-7.5 -4.143,0 -7.5,3.358 -7.5,7.5 v 2.499 h -39.955 v -2.499 c 0,-4.142 -3.357,-7.5 -7.5,-7.5 -4.143,0 -7.5,3.358 -7.5,7.5 v 2.499 H 144.91 v -2.499 c 0,-4.142 -3.357,-7.5 -7.5,-7.5 -4.143,0 -7.5,3.358 -7.5,7.5 v 2.499 H 89.955 v -2.499 c 0,-4.142 -3.357,-7.5 -7.5,-7.5 -4.143,0 -7.5,3.358 -7.5,7.5 v 2.499 H 35 v -91.636 l 39.964,-12.363 c 0.09,4.063 3.406,7.332 7.492,7.332 4.143,0 7.5,-3.358 7.5,-7.5 v -6.895 L 132.43,89.762 c 3.456,3.078 8.791,2.323 11.282,-1.538 l 41.154,30.703 v 6.239 c 0,4.142 3.357,7.5 7.5,7.5 4.143,0 7.5,-3.358 7.5,-7.5 v -6.239 l 40.798,-30.438 5.828,7.644 c 2.473,3.244 7.531,2.594 9.103,-1.17 l 14.109,-33.767 c 1.573,-3.764 -1.519,-7.819 -5.565,-7.299 l -36.298,4.665 c -4.046,0.52 -6.012,5.225 -3.538,8.469 l 7.266,9.53 -39.203,29.248 -50.47,-37.654 c -2.973,-2.218 -7.158,-1.919 -9.787,0.706 -0.001,10e-4 -0.002,10e-4 -0.002,0.002 -0.001,0.001 -0.002,0.001 -0.002,0.002 L 78.463,122.55 35,135.995 V 7.5 C 35,3.359 31.643,0 27.5,0 23.357,0 20,3.357 20,7.5 c 0,6.017 0,225.639 0,235.833 H 7.5 c -4.143,0 -7.5,3.358 -7.5,7.5 0,4.142 3.357,7.5 7.5,7.5 H 20 v 12.5 c 0,4.142 3.357,7.5 7.5,7.5 4.143,0 7.5,-3.358 7.5,-7.5 v -12.5 c 20.179,0 225.585,0 235.834,0 4.143,0 7.5,-3.358 7.5,-7.5 0,-4.143 -3.357,-7.5 -7.5,-7.5 z"
             id="path2" />
          <path
             inkscape:connector-curvature="0"
             d="m 89.955,159.5 c 0,-4.142 -3.357,-7.5 -7.5,-7.5 -4.143,0 -7.5,3.358 -7.5,7.5 v 20.333 c 0,4.142 3.357,7.5 7.5,7.5 4.143,0 7.5,-3.358 7.5,-7.5 z"
             id="path4" />
          <path
             inkscape:connector-curvature="0"
             d="m 82.455,192.666 c -4.143,0 -7.5,3.358 -7.5,7.5 v 20.333 c 0,4.142 3.357,7.5 7.5,7.5 4.143,0 7.5,-3.358 7.5,-7.5 v -20.333 c 0,-4.142 -3.357,-7.5 -7.5,-7.5 z"
             id="path6" />
          <path
             inkscape:connector-curvature="0"
             d="m 144.91,151.309 c 0,-4.142 -3.357,-7.5 -7.5,-7.5 -4.143,0 -7.5,3.358 -7.5,7.5 v 22.381 c 0,4.142 3.357,7.5 7.5,7.5 4.143,0 7.5,-3.358 7.5,-7.5 z"
             id="path8" />
          <path
             inkscape:connector-curvature="0"
             d="m 144.91,106.547 c 0,-4.142 -3.357,-7.5 -7.5,-7.5 -4.143,0 -7.5,3.358 -7.5,7.5 v 22.381 c 0,4.142 3.357,7.5 7.5,7.5 4.143,0 7.5,-3.358 7.5,-7.5 z"
             id="path10" />
          <path
             inkscape:connector-curvature="0"
             d="m 137.41,188.572 c -4.143,0 -7.5,3.358 -7.5,7.5 v 22.381 c 0,4.142 3.357,7.5 7.5,7.5 4.143,0 7.5,-3.358 7.5,-7.5 v -22.381 c 0,-4.143 -3.357,-7.5 -7.5,-7.5 z"
             id="path12" />
          <path
             inkscape:connector-curvature="0"
             d="m 192.365,187.067 c -4.143,0 -7.5,3.358 -7.5,7.5 V 217.7 c 0,4.142 3.357,7.5 7.5,7.5 4.143,0 7.5,-3.358 7.5,-7.5 v -23.133 c 0,-4.143 -3.357,-7.5 -7.5,-7.5 z"
             id="path14" />
          <path
             inkscape:connector-curvature="0"
             d="m 199.865,148.299 c 0,-4.142 -3.357,-7.5 -7.5,-7.5 -4.143,0 -7.5,3.358 -7.5,7.5 v 23.133 c 0,4.142 3.357,7.5 7.5,7.5 4.143,0 7.5,-3.358 7.5,-7.5 z"
             id="path16" />
          <path
             inkscape:connector-curvature="0"
             d="m 254.82,151.309 c 0,-4.142 -3.357,-7.5 -7.5,-7.5 -4.143,0 -7.5,3.358 -7.5,7.5 v 22.381 c 0,4.142 3.357,7.5 7.5,7.5 4.143,0 7.5,-3.358 7.5,-7.5 z"
             id="path18" />
          <path
             inkscape:connector-curvature="0"
             d="m 247.32,188.572 c -4.143,0 -7.5,3.358 -7.5,7.5 v 22.381 c 0,4.142 3.357,7.5 7.5,7.5 4.143,0 7.5,-3.358 7.5,-7.5 v -22.381 c 0,-4.143 -3.357,-7.5 -7.5,-7.5 z"
             id="path20" />
          <path
             inkscape:connector-curvature="0"
             d="m 254.82,106.547 c 0,-4.142 -3.357,-7.5 -7.5,-7.5 -4.143,0 -7.5,3.358 -7.5,7.5 v 22.381 c 0,4.142 3.357,7.5 7.5,7.5 4.143,0 7.5,-3.358 7.5,-7.5 z"
             id="path22" />
        </g>
      </g>
    </g>
    <rect
       style="fill:url(#linearGradient5835);fill-opacity:1;stroke:url(#linearGradient5841);stroke-width:0.17623715;stroke-miterlimit:4;stroke-dasharray:none;stroke-dashoffset:0"
       id="rect5829"
       width="27.010986"
       height="29.955908"
       x="60.155956"
       y="84.050713" />
    <flowRoot
       xml:space="preserve"
       id="flowRoot5843"
       style="font-style:normal;font-weight:normal;font-size:40px;line-height:25px;font-family:sans-serif;letter-spacing:0px;word-spacing:0px;fill:#000000;fill-opacity:1;stroke:none"
       transform="scale(0.26458333)"><flowRegion
         id="flowRegion5845"><rect
           id="rect5847"
           width="78.791901"
           height="92.428955"
           x="241.93153"
           y="338.6413" /></flowRegion><flowPara
         id="flowPara5849" /></flowRoot>    <flowRoot
       xml:space="preserve"
       id="flowRoot5851"
       style="fill:black;fill-opacity:1;stroke:none;font-family:sans-serif;font-style:normal;font-weight:normal;font-size:40px;line-height:25px;letter-spacing:0px;word-spacing:0px"><flowRegion
         id="flowRegion5853"><rect
           id="rect5855"
           width="62.675186"
           height="104.82841"
           x="259.5751"
           y="337.69327" /></flowRegion><flowPara
         id="flowPara5857"></flowPara></flowRoot>    <flowRoot
       xml:space="preserve"
       id="flowRoot5859"
       style="font-style:normal;font-weight:normal;font-size:40px;line-height:25px;font-family:sans-serif;letter-spacing:0px;word-spacing:0px;fill:#000000;fill-opacity:1;stroke:none"
       transform="scale(0.26458333)"><flowRegion
         id="flowRegion5861"><rect
           id="rect5863"
           width="121.46783"
           height="115.36671"
           x="230.17877"
           y="327.70959" /></flowRegion><flowPara
         id="flowPara5865" /></flowRoot>    <flowRoot
       xml:space="preserve"
       id="flowRoot5867"
       style="font-style:normal;font-weight:normal;font-size:40px;line-height:25px;font-family:sans-serif;letter-spacing:0px;word-spacing:0px;fill:#000000;fill-opacity:1;stroke:none"
       transform="matrix(0.26458333,0,0,0.26458333,0.44025157,7.0440252)"><flowRegion
         id="flowRegion5869"><rect
           id="rect5871"
           width="69.330956"
           height="99.281929"
           x="244.59961"
           y="338.80255" /></flowRegion><flowPara
         id="flowPara5873"
         style="font-size:96px">€</flowPara></flowRoot>    <path
       style="fill:none;fill-rule:evenodd;stroke:#000000;stroke-width:0.66500002;stroke-linecap:butt;stroke-linejoin:miter;stroke-miterlimit:3.4000001;stroke-dasharray:none;stroke-opacity:1;marker-start:url(#Arrow2Mstart);marker-end:url(#Arrow2Mend)"
       d="M 73.313631,84.050713 73.058493,73.063801"
       id="path5875"
       inkscape:connector-type="polyline"
       inkscape:connector-curvature="0"
       inkscape:connection-end="#rect5755"
       inkscape:connection-start="#rect5829" />
    <g
       transform="matrix(0.05170679,0,0,0.05204097,60.77869,44.070881)"
       id="g22"
       style="fill:url(#linearGradient4565);fill-opacity:1;stroke:url(#linearGradient4559)">
      <g
         style="opacity:1;fill:url(#linearGradient7369);fill-opacity:1;stroke:url(#linearGradient7371)"
         id="g20">
        <path
           inkscape:connector-curvature="0"
           d="m 106.939,166.347 -21.581,-6.562 c 7.138,-7.633 14.848,-15.168 23.053,-22.456 l 78.855,14.484 -68.149,-23.558 c 9.577,-7.74 19.8,-15.009 30.672,-21.571 l 77.53,19.445 -64.377,-26.882 c 28.205,-14.776 60.354,-24.47 96.422,-24.761 -2.329,16.178 -10.193,56.002 -33.424,88.248 h 19.35 c 26.753,-41.74 30.842,-90.469 31.066,-93.447 0.01,-0.147 -0.079,-0.292 -0.098,-0.429 1.06,-2.859 -0.537,-6.175 -4.153,-7.829 C 147.989,4.067 82.998,34.453 55.293,57.646 12.778,93.242 5.383,152.831 27.412,180.365 c 0.548,0.679 1.213,1.276 1.958,1.764 2.682,1.743 6.366,2.172 9.234,0.887 3.685,-1.667 4.642,-5.538 2.156,-8.665 C 24.358,153.86 28.39,99.74 67.542,66.975 95.58,43.514 148.327,24.929 242.781,62.373 c -32.369,2.312 -61.456,11.296 -87.286,24.32 l 1.295,-32.432 -17.63,41.378 c -11.446,6.854 -22.181,14.415 -32.191,22.47 l -5.024,-53.177 -9.892,64.229 c -0.058,0.385 -0.077,0.821 -0.04,1.232 0.012,0.164 0.122,0.301 0.159,0.462 -6.298,5.727 -12.281,11.582 -17.921,17.511 L 63.986,108.623 62.261,161.508 C 22.629,207.214 2.149,252.174 0.43,256.053 c -1.167,2.604 0.119,5.628 2.929,7.453 0.625,0.42 1.342,0.774 2.116,1.041 4.231,1.493 8.795,0.098 10.224,-3.118 0.42,-0.929 21.056,-46.292 61.034,-92.095 l 23.718,2.742 v -4.392 z"
           id="path2-5"
           style="fill:url(#linearGradient7333);fill-opacity:1;stroke:url(#linearGradient7335)" />
        <path
           inkscape:connector-curvature="0"
           d="m 70.275,197.438 c -4.219,-1.477 -8.774,-0.046 -10.193,3.174 -1.4,3.206 0.88,7.003 5.122,8.473 12.172,4.23 23.935,7.441 35.246,9.663 v -12.942 c -9.696,-1.992 -19.737,-4.744 -30.175,-8.368 z"
           id="path4-7"
           style="fill:url(#linearGradient7337);fill-opacity:1;stroke:url(#linearGradient7339)" />
        <path
           inkscape:connector-curvature="0"
           d="m 345.663,161.714 c 2.642,-3.612 2.595,-8.387 -0.079,-10.667 -2.665,-2.285 -6.954,-1.209 -9.605,2.429 -2.674,3.67 -5.161,7.32 -7.561,10.958 4.191,1.332 8.187,3.015 11.957,5.036 1.76,-2.584 3.394,-5.154 5.288,-7.756 z"
           id="path6-2"
           style="fill:url(#linearGradient7341);fill-opacity:1;stroke:url(#linearGradient7343)" />
        <path
           inkscape:connector-curvature="0"
           d="m 374.464,125.675 c -0.812,0.332 -1.578,0.793 -2.26,1.368 -2.449,2.051 -3.938,5.458 -3.537,8.568 0.518,4.012 3.958,6.056 7.668,4.583 24.381,-9.729 74.972,9.876 94.938,56.864 14.286,33.647 16.713,89.517 -46.587,169.002 7.206,-31.652 7.071,-62.091 2.124,-90.593 l 30.653,10.674 -34.452,-28.903 c -3.234,-12.949 -7.347,-25.417 -12.135,-37.342 l 52.337,10.671 -58.577,-28.149 c -0.34,-0.175 -0.76,-0.325 -1.162,-0.397 -0.158,-0.037 -0.326,0.03 -0.489,0.017 -3.641,-7.691 -7.505,-15.122 -11.537,-22.243 l 41.005,1.741 -50.087,-17.04 c -32.198,-51.221 -69.255,-83.881 -72.452,-86.654 -2.156,-1.874 -5.433,-1.524 -7.99,0.63 -0.578,0.478 -1.129,1.066 -1.614,1.731 -2.651,3.603 -2.651,8.382 0.019,10.685 0.766,0.674 38.148,33.617 70.342,85.193 l -6.412,14.729 c 1.839,2.613 3.519,5.372 5.021,8.263 l 8.018,-11.966 c 5.228,9.045 10.184,18.612 14.776,28.593 l -13.217,25.587 c -0.047,5.085 -0.438,9.98 -1.111,14.699 l 19.892,-27.408 c 4.62,11.409 8.597,23.305 11.724,35.626 l -41.173,68.503 44.454,-53.755 c 5.932,31.288 5.856,64.858 -4.369,99.45 -15.266,-7.164 -52.925,-27.307 -76.974,-60.765 -5.087,1.913 -10.511,3.29 -16.232,4.111 31.083,49.695 90.065,73.18 93.248,74.407 0.141,0.061 0.299,0.014 0.439,0.052 2.436,1.834 6.071,1.265 8.699,-1.704 90.606,-102.167 80.441,-173.195 66.319,-206.448 -21.699,-51.034 -76.561,-75.436 -109.309,-62.38 z"
           id="path8-2"
           style="fill:url(#linearGradient7345);fill-opacity:1;stroke:url(#linearGradient7347)" />
        <path
           inkscape:connector-curvature="0"
           d="m 253.969,320.752 h -5.062 c 7.647,16.031 13.271,34.854 16.696,56.579 0.696,4.406 4.089,7.752 7.599,7.481 3.49,-0.262 5.759,-4.056 5.073,-8.513 -4.238,-26.883 -11.603,-49.9 -21.865,-69.134 -0.817,-0.648 -1.657,-1.265 -2.441,-1.946 z"
           id="path10-0"
           style="fill:url(#linearGradient7349);fill-opacity:1;stroke:url(#linearGradient7351)" />
        <path
           inkscape:connector-curvature="0"
           d="m 181.585,366.793 c -11.341,-4.803 -22.572,-10.398 -33.491,-16.904 l -6.973,-28.012 c -2.585,-0.042 -5.162,-0.103 -7.68,-0.22 l 1.902,20.12 c -9.831,-6.697 -19.303,-14.226 -28.198,-22.673 l -6.69,-0.845 v -5.885 c -12.2,-12.667 -23.203,-27.195 -32.345,-43.997 6.826,-2.469 18.295,-6.155 32.345,-9.054 v -16.795 c -25.228,4.824 -43.227,12.562 -44.914,13.313 -0.147,0.056 -0.224,0.2 -0.343,0.279 -3.008,0.416 -5.19,3.384 -4.947,7.342 8.177,136.335 65.584,179.36 99.08,192.876 51.424,20.76 107.481,-0.784 121.388,-33.169 0.346,-0.798 0.551,-1.661 0.645,-2.562 0.284,-3.179 -1.093,-6.632 -3.575,-8.551 -3.192,-2.478 -7.07,-1.483 -8.652,2.171 -10.361,24.114 -60.003,46.031 -107.334,26.929 -33.913,-13.688 -75.124,-51.478 -86.562,-152.44 17.284,27.47 38.905,48.906 62.548,65.562 l -29.225,14.127 44.804,-3.934 c 11.446,6.879 23.169,12.783 34.984,17.837 l -44.552,29.464 61.325,-21.511 c 0.364,-0.126 0.766,-0.308 1.099,-0.546 0.138,-0.08 0.206,-0.252 0.333,-0.351 8.011,2.861 16.001,5.377 23.886,7.562 l -30.231,27.773 47.476,-23.378 c 58.98,13.47 108.283,10.343 112.512,10.039 2.847,-0.196 4.91,-2.758 5.199,-6.091 0.089,-0.741 0.047,-1.54 -0.074,-2.365 -0.673,-4.42 -4.061,-7.79 -7.57,-7.543 -1.018,0.075 -50.759,3.221 -109.987,-10.496 l -23.838,-60.575 11.351,57.471 c -10.088,-2.703 -20.36,-5.961 -30.663,-9.773 L 177.609,318.62 c -1.167,0.294 -2.322,0.598 -3.544,0.85 z"
           id="path12-3"
           style="fill:url(#linearGradient7353);fill-opacity:1;stroke:url(#linearGradient7355)" />
        <path
           inkscape:connector-curvature="0"
           d="m 187.439,237.988 v -0.361 c 13.21,-4.889 20.271,-15.227 20.271,-26.467 0,-10.328 -5.05,-18.313 -12.673,-22.838 -8.324,-5.796 -18.479,-7.796 -34.982,-7.796 -12.508,0 -25.382,1.094 -32.446,2.543 v 120.183 c 5.628,0.709 15.035,1.624 27.361,1.624 22.318,0 36.627,-3.804 45.343,-11.421 7.068,-5.801 11.77,-14.313 11.77,-25.197 -0.003,-16.859 -11.774,-27.005 -24.644,-30.27 z m -37.711,-40.057 c 2.343,-0.543 6.16,-0.907 12.683,-0.907 14.144,0 22.841,5.267 22.841,16.68 0,10.331 -8.697,17.59 -24.11,17.59 h -11.418 v -33.363 z m 11.779,90.091 c -5.07,0 -8.874,-0.188 -11.779,-0.542 v -39.885 h 11.054 c 15.413,0 27.725,5.801 27.725,19.938 -0.006,15.047 -12.681,20.489 -27,20.489 z"
           id="path14-0"
           style="fill:url(#linearGradient7357);fill-opacity:1;stroke:url(#linearGradient7359)" />
        <rect
           x="223"
           y="181.44"
           width="22.309"
           height="122.179"
           id="rect16"
           style="fill:url(#linearGradient7361);fill-opacity:1;stroke:url(#linearGradient7363)" />
        <path
           inkscape:connector-curvature="0"
           d="m 313.479,179.445 c -34.442,0 -58.002,26.462 -58.002,63.988 0,35.89 21.739,62.175 56.182,62.175 33.734,0 58.554,-23.377 58.554,-64.354 -0.001,-34.806 -21.026,-61.809 -56.734,-61.809 z m -0.556,108.208 c -21.379,0 -33.892,-19.756 -33.892,-44.583 0,-25.19 11.798,-45.684 33.892,-45.684 22.3,0 33.729,21.753 33.729,44.774 0,25.56 -12.134,45.493 -33.729,45.493 z"
           id="path18-2"
           style="fill:url(#linearGradient7365);fill-opacity:1;stroke:url(#linearGradient7367)" />
      </g>
    </g>
  </g>
</svg>
