<?xml version="1.0" encoding="iso-8859-1"?>
<!-- Generator: Adobe Illustrator 19.0.0, SVG Export Plug-In . SVG Version: 6.00 Build 0)  -->
<svg version="1.1" id="Layer_1" xmlns="http://www.w3.org/2000/svg" xmlns:xlink="http://www.w3.org/1999/xlink" x="0px" y="0px"
	 viewBox="0 0 512 512" style="enable-background:new 0 0 512 512;" xml:space="preserve">
<g>
	<g>
		<path d="M281.056,370.939h-4.678c-5.771,0-10.449,4.678-10.449,10.449s4.678,10.449,10.449,10.449h4.678
			c5.771,0,10.449-4.678,10.449-10.449S286.827,370.939,281.056,370.939z"/>
	</g>
</g>
<g>
	<g>
		<path d="M242.574,370.939H141.082c-5.771,0-10.449,4.678-10.449,10.449s4.678,10.449,10.449,10.449h101.492
			c5.771,0,10.449-4.678,10.449-10.449S248.345,370.939,242.574,370.939z"/>
	</g>
</g>
<g>
	<g>
		<path d="M501.551,84.637H10.449C4.678,84.637,0,89.315,0,95.086v321.829c0,5.771,4.678,10.449,10.449,10.449h491.102
			c5.771,0,10.449-4.678,10.449-10.449V95.086C512,89.315,507.322,84.637,501.551,84.637z M103.633,406.465l25.078-50.155h254.579
			l25.078,50.155H103.633z M491.102,406.465h-59.37l-32.638-65.277c-1.771-3.54-5.389-5.776-9.347-5.776H122.253
			c-3.958,0-7.577,2.236-9.346,5.776l-32.64,65.277h-59.37V105.535h470.204V406.465z"/>
	</g>
</g>
<g>
	<g>
		<path d="M456.62,135.837H55.38c-5.771,0-10.449,4.678-10.449,10.449v152.555c0,5.771,4.678,10.449,10.449,10.449H456.62
			c5.771,0,10.449-4.678,10.449-10.449V146.286C467.069,140.515,462.391,135.837,456.62,135.837z M446.171,288.392H65.829V156.735
			h380.343V288.392z"/>
	</g>
</g>
<g>
	<g>
		<path d="M362.58,171.363H149.42c-28.232,0-51.2,22.968-51.2,51.2c0,28.232,22.968,51.2,51.2,51.2H362.58
			c28.232,0,51.2-22.968,51.2-51.2C413.78,194.331,390.812,171.363,362.58,171.363z M149.42,252.865
			c-16.709,0-30.302-13.593-30.302-30.302c0-16.709,13.593-30.302,30.302-30.302c16.709,0,30.302,13.593,30.302,30.302
			C179.722,239.272,166.129,252.865,149.42,252.865z M321.343,252.865H190.657c6.256-8.491,9.963-18.97,9.963-30.302
			c0-11.332-3.706-21.811-9.963-30.302h130.685c-6.256,8.491-9.963,18.97-9.963,30.302
			C311.38,233.895,315.086,244.374,321.343,252.865z M362.58,252.865c-16.709,0-30.302-13.593-30.302-30.302
			c0-16.709,13.593-30.302,30.302-30.302s30.302,13.593,30.302,30.302C392.882,239.272,379.289,252.865,362.58,252.865z"/>
	</g>
</g>
<g>
</g>
<g>
</g>
<g>
</g>
<g>
</g>
<g>
</g>
<g>
</g>
<g>
</g>
<g>
</g>
<g>
</g>
<g>
</g>
<g>
</g>
<g>
</g>
<g>
</g>
<g>
</g>
<g>
</g>
</svg>
