<?xml version="1.0" encoding="iso-8859-1"?>
<!-- Generator: Adobe Illustrator 19.0.0, SVG Export Plug-In . SVG Version: 6.00 Build 0)  -->
<svg version="1.1" id="Layer_1" xmlns="http://www.w3.org/2000/svg" xmlns:xlink="http://www.w3.org/1999/xlink" x="0px" y="0px"
	 viewBox="0 0 300.7 300.7" style="enable-background:new 0 0 300.7 300.7;" xml:space="preserve">
<g>
	<g>
		<path d="M299.984,218.526L254.778,79.854c-1.29-3.956-4.211-7.169-8.025-8.831L128.825,19.67
			c-4.65-2.025-10.02-1.482-14.173,1.435L6.186,97.307C2.309,100.031,0,104.473,0,109.212v118.719
			c0,6.065,3.763,11.495,9.441,13.624l106.018,39.758c1.643,0.616,3.375,0.926,5.109,0.926c1.273,0,2.546-0.167,3.788-0.502
			l165.582-44.654c3.853-1.038,7.108-3.613,9.007-7.122C300.845,226.453,301.22,222.32,299.984,218.526z M213.003,88.066
			l-55.813,44.055l-14.305-74.589L213.003,88.066z M110.592,248.409L29.1,217.848V116.772l84.175-59.136l19.252,100.379
			L110.592,248.409z M140.84,247.153l19.526-80.465l73.26-57.828l33.94,104.117L140.84,247.153z"/>
	</g>
</g>
<g>
</g>
<g>
</g>
<g>
</g>
<g>
</g>
<g>
</g>
<g>
</g>
<g>
</g>
<g>
</g>
<g>
</g>
<g>
</g>
<g>
</g>
<g>
</g>
<g>
</g>
<g>
</g>
<g>
</g>
</svg>
