<?xml version="1.0" encoding="UTF-8" standalone="no"?>
<!-- Created with Inkscape (http://www.inkscape.org/) -->

<svg
   xmlns:dc="http://purl.org/dc/elements/1.1/"
   xmlns:cc="http://creativecommons.org/ns#"
   xmlns:rdf="http://www.w3.org/1999/02/22-rdf-syntax-ns#"
   xmlns:svg="http://www.w3.org/2000/svg"
   xmlns="http://www.w3.org/2000/svg"
   xmlns:sodipodi="http://sodipodi.sourceforge.net/DTD/sodipodi-0.dtd"
   xmlns:inkscape="http://www.inkscape.org/namespaces/inkscape"
   width="52.591957mm"
   height="42.893196mm"
   viewBox="0 0 52.591957 42.893196"
   version="1.1"
   id="svg8"
   inkscape:version="0.92.0 r15299"
   sodipodi:docname="cooling_grid.svg">
  <defs
     id="defs2" />
  <sodipodi:namedview
     id="base"
     pagecolor="#ffffff"
     bordercolor="#666666"
     borderopacity="1.0"
     inkscape:pageopacity="0.0"
     inkscape:pageshadow="2"
     inkscape:zoom="1.979899"
     inkscape:cx="200.11811"
     inkscape:cy="101.88389"
     inkscape:document-units="mm"
     inkscape:current-layer="layer1"
     showgrid="false"
     inkscape:window-width="1920"
     inkscape:window-height="1005"
     inkscape:window-x="-9"
     inkscape:window-y="-9"
     inkscape:window-maximized="1"
     fit-margin-top="0"
     fit-margin-left="0"
     fit-margin-right="0"
     fit-margin-bottom="0" />
  <metadata
     id="metadata5">
    <rdf:RDF>
      <cc:Work
         rdf:about="">
        <dc:format>image/svg+xml</dc:format>
        <dc:type
           rdf:resource="http://purl.org/dc/dcmitype/StillImage" />
        <dc:title></dc:title>
      </cc:Work>
    </rdf:RDF>
  </metadata>
  <g
     inkscape:label="Layer 1"
     inkscape:groupmode="layer"
     id="layer1"
     transform="translate(-9.0871592,-42.778354)">
    <ellipse
       ry="5.6609888"
       rx="5.2852545"
       cx="14.372414"
       cy="80.010559"
       id="ellipse7634"
       style="opacity:1;stroke-width:0.13755578;stroke-miterlimit:4;stroke-dasharray:none;stroke-dashoffset:0" />
    <ellipse
       ry="5.6609888"
       rx="5.2852545"
       cx="35.279579"
       cy="48.439342"
       id="ellipse7634-4"
       style="opacity:1;stroke-width:0.13755578;stroke-miterlimit:4;stroke-dasharray:none;stroke-dashoffset:0" />
    <ellipse
       ry="5.6609888"
       rx="5.2852545"
       cx="56.393864"
       cy="80.239052"
       id="ellipse7634-1"
       style="opacity:1;stroke-width:0.13755578;stroke-miterlimit:4;stroke-dasharray:none;stroke-dashoffset:0" />
    <path
       style="fill:none;fill-rule:evenodd;stroke:#000000;stroke-width:0.465;stroke-linecap:butt;stroke-linejoin:miter;stroke-miterlimit:4;stroke-dasharray:1.86, 1.86;stroke-dashoffset:0;stroke-opacity:1"
       d="M 53.535909,75.477215 38.376834,53.026419"
       id="path4519"
       inkscape:connector-type="polyline"
       inkscape:connector-curvature="0"
       inkscape:connection-start="#ellipse7634-1"
       inkscape:connection-end="#ellipse7634-4" />
    <path
       style="fill:none;fill-rule:evenodd;stroke:#000000;stroke-width:0.26458332px;stroke-linecap:butt;stroke-linejoin:miter;stroke-opacity:1"
       d="m 23.459573,122.78891 v 0"
       id="path4527"
       inkscape:connector-type="polyline"
       inkscape:connector-curvature="0"
       inkscape:connection-start="#ellipse7634"
       inkscape:connection-end="#ellipse7634" />
    <path
       style="fill:none;fill-rule:evenodd;stroke:#000000;stroke-width:0.465;stroke-linecap:butt;stroke-linejoin:miter;stroke-miterlimit:4;stroke-dasharray:1.86, 1.86;stroke-dashoffset:0;stroke-opacity:1"
       d="M 19.657451,79.972743 51.128597,79.747559"
       id="path4529"
       inkscape:connector-type="polyline"
       inkscape:connector-curvature="0"
       inkscape:connection-start="#ellipse7634"
       inkscape:connection-end="#ellipse7634-1" />
    <path
       inkscape:connector-curvature="0"
       d="m 44.488013,70.958132 c -0.06109,-0.198966 -0.292421,-0.31559 -0.513725,-0.261563 l -2.905383,0.705325 -2.085015,-1.061154 3.259718,-1.050722 c 0.165664,-0.05366 0.276105,-0.194124 0.275688,-0.350987 -4.18e-4,-0.156864 -0.111687,-0.297331 -0.27736,-0.350241 l -3.255117,-1.035819 2.075811,-1.062646 2.907057,0.699364 c 0.0364,0.0086 0.07321,0.01309 0.109607,0.01309 0.184069,0 0.353079,-0.109547 0.403698,-0.27572 0.06024,-0.198595 -0.07195,-0.40315 -0.294932,-0.456805 l -2.099236,-0.504867 1.920607,-0.983282 c 0.200387,-0.102467 0.269832,-0.330492 0.154365,-0.508595 -0.115453,-0.178474 -0.370229,-0.239952 -0.571034,-0.137486 l -1.920606,0.982909 0.566854,-1.869316 c 0.06024,-0.198595 -0.07196,-0.40315 -0.294932,-0.456804 -0.220886,-0.0533 -0.452646,0.06334 -0.513304,0.26268 l -0.785228,2.589173 -2.102169,1.07606 0.613292,-3.067215 c 0.03095,-0.154628 -0.05021,-0.309999 -0.203316,-0.388246 -0.152689,-0.07788 -0.343876,-0.06259 -0.479418,0.03912 l -2.642248,1.998608 v -2.140195 l 2.128942,-1.896145 c 0.163572,-0.145685 0.163572,-0.381165 0,-0.526852 -0.163572,-0.145685 -0.427965,-0.145685 -0.591536,0 l -1.537406,1.369293 v -1.973266 c 0,-0.205673 -0.187416,-0.372596 -0.41834,-0.372596 -0.230926,0 -0.418342,0.166923 -0.418342,0.372596 v 1.973274 l -1.537407,-1.369294 c -0.16357,-0.145684 -0.427963,-0.145684 -0.591535,0 -0.163572,0.145687 -0.163572,0.381168 0,0.526853 l 2.128942,1.896144 v 2.153608 L 32.32682,63.515197 c -0.135124,-0.100976 -0.326724,-0.11625 -0.479418,-0.03726 -0.15269,0.07862 -0.233435,0.234363 -0.201642,0.38899 l 0.626259,3.057155 -2.099239,-1.068607 -0.79234,-2.587309 c -0.06109,-0.198595 -0.291584,-0.316336 -0.513724,-0.261564 -0.222975,0.05401 -0.354335,0.258956 -0.293675,0.457549 l 0.571873,1.868199 -1.923536,-0.979185 c -0.200385,-0.101721 -0.455993,-0.03986 -0.570616,0.1386 -0.114633,0.178474 -0.04477,0.40613 0.15563,0.508222 l 1.923116,0.978811 -2.097565,0.50934 c -0.222976,0.05441 -0.354335,0.258954 -0.293676,0.457548 0.05104,0.165806 0.219211,0.274604 0.403281,0.274604 0.0364,0 0.07321,-0.0045 0.110442,-0.01337 l 2.904966,-0.705317 2.085014,1.061154 -3.258463,1.050722 c -0.165663,0.05366 -0.276525,0.194124 -0.276105,0.350988 4.17e-4,0.156861 0.111275,0.297331 0.277778,0.350239 l 3.255117,1.035819 -2.075813,1.062645 -2.907055,-0.699364 c -0.224231,-0.05401 -0.453064,0.06371 -0.512887,0.262681 -0.06024,0.198595 0.07153,0.40315 0.29493,0.457176 l 2.099239,0.504869 -1.921444,0.983656 c -0.200385,0.102466 -0.269411,0.330492 -0.154366,0.508593 0.07739,0.119982 0.218374,0.187044 0.363121,0.187044 0.0707,0 0.142239,-0.01602 0.207916,-0.04955 l 1.921024,-0.983282 -0.566853,1.869691 c -0.06024,0.198592 0.07153,0.403149 0.294931,0.457175 0.0364,0.0086 0.07321,0.01267 0.109196,0.01267 0.184488,0 0.353499,-0.109167 0.403699,-0.275348 l 0.785228,-2.588809 2.102585,-1.076059 -0.613289,3.067215 c -0.03095,0.155001 0.05061,0.310372 0.203314,0.388619 0.06484,0.03317 0.1368,0.04956 0.208334,0.04956 0.09705,0 0.193274,-0.03019 0.270667,-0.08831 l 2.642247,-1.998976 v 2.139449 l -2.12894,1.896516 c -0.163572,0.145685 -0.163572,0.381167 0,0.526852 0.08158,0.07265 0.188671,0.109167 0.295765,0.109167 0.107093,0 0.214192,-0.03652 0.29577,-0.109167 l 1.537405,-1.369665 v 1.973273 c 0,0.206045 0.187416,0.372595 0.418342,0.372595 0.230924,0 0.418341,-0.16655 0.418341,-0.372595 v -1.973273 l 1.537406,1.369293 c 0.08158,0.07265 0.188673,0.109166 0.295767,0.109166 0.107093,0 0.214192,-0.03652 0.295769,-0.109166 0.163571,-0.145685 0.163571,-0.381166 0,-0.526852 l -2.128942,-1.896518 v -2.153608 l 2.668184,2.000844 c 0.135551,0.100976 0.326724,0.115505 0.479419,0.03763 0.152279,-0.07899 0.233435,-0.234736 0.201223,-0.389365 l -0.625839,-3.056777 2.099657,1.068606 0.79192,2.586939 c 0.05063,0.165805 0.219212,0.274603 0.403283,0.274603 0.03681,0 0.07363,-0.0041 0.110441,-0.01309 0.222974,-0.05441 0.354753,-0.258956 0.293675,-0.45755 l -0.571872,-1.868143 1.923115,0.978811 c 0.06526,0.03353 0.1368,0.04918 0.20708,0.04918 0.145163,0 0.286564,-0.06744 0.363539,-0.187788 0.114633,-0.178473 0.04477,-0.406129 -0.155631,-0.508221 l -1.923527,-0.978439 2.097983,-0.50934 c 0.222977,-0.05441 0.354753,-0.259328 0.293676,-0.457549 z m -3.62326,-2.01612 -2.833845,0.913606 -1.77628,-0.904292 1.778789,-0.910253 z m -2.735536,-4.19991 -0.53213,2.662576 -1.765402,0.903547 v -1.828332 z m -5.451409,0.01037 2.317194,1.738163 v 1.819762 l -1.773351,-0.902804 z m -2.715875,4.209594 2.833428,-0.913607 1.776698,0.904292 -1.778789,0.910254 z m 2.735536,4.199909 0.53255,-2.662576 1.764983,-0.903547 v 1.82796 z m 5.451829,-0.01037 -2.317613,-1.737791 v -1.819761 l 1.77377,0.902801 z"
       id="path2"
       style="stroke-width:0.39480716" />
    <path
       style="fill:none;fill-rule:evenodd;stroke:#000000;stroke-width:0.465;stroke-linecap:butt;stroke-linejoin:miter;stroke-miterlimit:4;stroke-dasharray:1.86, 1.86;stroke-dashoffset:0;stroke-opacity:1"
       d="M 32.221881,53.056672 17.430112,75.39323"
       id="path4493"
       inkscape:connector-type="polyline"
       inkscape:connector-curvature="0"
       inkscape:connection-start="#ellipse7634-4"
       inkscape:connection-end="#ellipse7634" />
  </g>
  <g
     inkscape:groupmode="layer"
     id="layer2"
     inkscape:label="Layer 2"
     transform="translate(-9.0871592,-42.778354)" />
</svg>
