<?xml version="1.0" encoding="iso-8859-1"?>
<!-- Generator: Adobe Illustrator 19.0.0, SVG Export Plug-In . SVG Version: 6.00 Build 0)  -->
<svg version="1.1" id="Layer_1" xmlns="http://www.w3.org/2000/svg" xmlns:xlink="http://www.w3.org/1999/xlink" x="0px" y="0px"
	 viewBox="0 0 511.999 511.999" style="enable-background:new 0 0 511.999 511.999;" xml:space="preserve">
<path style="fill:#A0BF7C;" d="M128,473.599c-63.522,0-115.2-51.678-115.2-115.2s51.678-115.2,115.2-115.2h153.6
	c63.522,0,115.2,51.678,115.2,115.2s-51.678,115.2-115.2,115.2H128z"/>
<path style="fill:#C6D9B0;" d="M93.594,409.565v-54.153h43.947c8.209,0,14.976,2.825,20.105,8.388
	c4.693,5.154,7.04,11.452,7.04,18.756c0,7.253-2.244,13.474-6.665,18.5c-4.958,5.641-11.597,8.499-19.738,8.499H93.594V409.565z"/>
<path style="fill:#FEDEA1;" d="M278.69,412.27c-15.138,0-26.837-5.615-34.739-16.691c-6.801-9.506-10.257-22.016-10.257-37.154
	c0-15.292,3.473-27.827,10.317-37.248c7.859-10.991,19.55-16.597,34.679-16.597c14.993,0,26.675,5.589,34.722,16.623
	c6.921,9.515,10.428,22.042,10.428,37.222c0,15.044-3.49,27.537-10.377,37.137C305.365,406.664,293.683,412.27,278.69,412.27z"/>
<path style="fill:#D9E5CB;" d="M93.594,355.865v-48.597h41.702c7.612,0,13.764,2.628,18.278,7.808
	c3.908,4.215,6.025,9.856,6.025,16.495c0,6.409-2.116,12.006-6.298,16.64c-4.369,5.026-10.479,7.654-18.005,7.654H93.594z"/>
<path style="fill:#A0BF7C;" d="M257.015,209.083l-14.566-6.502c-8.098-3.618-15.317-9.353-21.461-17.05
	c-26.931-33.638-3.456-62.421,17.246-87.825c8.047-9.856,15.65-19.157,19.772-28.083l6.357-13.756l12.501,8.576
	c24.132,16.555,40.917,39.945,44.911,62.549c2.628,14.942,0.922,37.581-22.118,60.638c-6.554,6.537-13.585,11.494-20.915,14.729
	l-22.323,9.856L257.015,209.083z"/>
<path style="fill:#788F5D;" d="M417.485,336.622c-5.845,0-11.759-0.896-17.587-2.671l-6.562-1.988l-1.98-6.571
	c-2.662-8.832-6.238-17.143-10.641-24.687c0,0-11.162-25.19-17.792-26.18l-3.678-0.546l-2.807-2.432l-7.484-6.289l3.388-9.463
	c3.644-7.885,9.25-14.891,16.674-20.83c10.138-8.115,20.301-12.058,31.07-12.058c19.302,0,36.412,12.698,56.772,29.295
	c9.907,8.09,19.191,15.667,28.092,19.772l13.764,6.357l-8.576,12.501c-16.555,24.132-39.936,40.926-62.549,44.919
	C424.235,336.324,420.838,336.622,417.485,336.622z"/>
<path style="fill:#C6D9B0;" d="M406.741,217.574c-22.451,0-42.325-6.869-57.472-19.857l-11.802-10.129l-0.102,0.068l-6.63-14.438
	c-5.316-11.571-7.356-24.567-5.897-37.564c6.468-58.308,57.66-67.354,102.818-75.324c18.441-3.26,35.601-6.289,48.154-12.484
	l14.438-7.117l3.678,15.676c8.474,36.122,9.489,90.999-15.565,126.763C462.592,205.678,437.828,217.574,406.741,217.574z"/>
<g>
	<path style="fill:#573A32;" d="M165.342,353.885c1.152-1.451,2.15-2.953,3.021-4.523c3.072-5.197,4.625-11.153,4.625-17.647
		c0-9.796-3.149-18.304-9.378-25.301c-6.929-7.723-16.179-11.648-27.426-11.648h-33.297c-7.023,0-12.979,2.577-17.229,7.475
		c-3.627,4.25-5.478,9.472-5.478,15.522v81.451c0,5.948,1.852,11.127,5.521,15.428c4.198,4.847,10.146,7.424,17.178,7.424h35.55
		c12.271,0,22.246-4.224,29.696-12.553c6.596-7.373,9.95-16.452,9.95-26.948c0-8.277-2.304-15.676-6.75-21.897
		C169.643,358.186,167.612,355.908,165.342,353.885z M106.394,320.059h28.902c5.052,0,7.279,1.877,8.627,3.422
		c1.971,2.125,2.876,4.702,2.876,8.073c0,3.226-0.922,5.777-3.004,8.073c-2.074,2.372-4.702,3.422-8.499,3.422h-28.902
		C106.394,343.048,106.394,320.059,106.394,320.059z M148.412,392.61c-2.475,2.825-5.675,4.147-10.129,4.147h-31.898v-28.544h31.147
		c4.625,0,8.021,1.374,10.701,4.275c2.5,2.748,3.652,5.948,3.652,10.078C151.893,386.739,150.793,389.913,148.412,392.61z"/>
	<path style="fill:#573A32;" d="M189.764,295.884c-1.749,1.749-3.823,4.847-3.823,9.728v105.754c0,3.746,1.323,7.074,4.198,9.924
		c2.449,2.176,5.521,3.328,8.9,3.328c3.277,0,6.298-1.152,8.798-3.379c2.773-2.5,4.301-5.999,4.301-9.873V305.612
		c0-3.977-1.527-7.526-4.352-10.078C202.795,291.114,195.319,290.909,189.764,295.884z"/>
	<path style="fill:#573A32;" d="M278.69,292.215c-19.2,0-34.321,7.074-45.022,21.103c-8.875,11.947-13.372,27.127-13.372,45.099
		c0,17.997,4.497,33.126,13.397,44.996c10.65,14.071,25.796,21.197,44.996,21.197c19.098,0,34.202-7.125,44.8-21.154
		c9.122-11.853,13.747-27.025,13.747-45.047s-4.625-33.229-13.722-45.175C312.866,299.289,297.788,292.215,278.69,292.215z
		 M303.061,388.087c-5.572,7.646-13.551,11.375-24.371,11.375c-10.897,0-18.876-3.703-24.329-11.324
		c-5.222-7.296-7.876-17.297-7.876-29.722c0-12.527,2.628-22.502,7.876-29.722c5.453-7.629,13.423-11.324,24.329-11.324
		c10.829,0,18.799,3.729,24.371,11.375c5.299,7.279,7.979,17.271,7.979,29.679C311.04,370.739,308.343,380.74,303.061,388.087z"/>
	<path style="fill:#573A32;" d="M498.21,262.28c-8.004,0.623-20.855-9.856-33.28-19.985c-7.074-5.777-14.882-12.1-23.287-17.638
		c19.217-6.127,35.285-17.135,47.198-34.15c32.973-47.053,24.764-120.977,11.836-156.527c-1.562-4.25-5.291-7.373-9.839-8.201
		l-2.159-0.179c-3.772,0-7.322,1.621-9.754,4.446c-8.286,9.677-31.223,13.722-53.478,17.647
		c-34.825,6.161-79.351,14.464-100.992,49.835c-13.5-24.499-37.111-44.041-57.975-53.769c-4.122-1.929-8.951-1.51-12.698,1.067
		c-3.678,2.577-5.828,6.955-5.47,11.52c0.623,8.004-9.856,20.847-19.985,33.28c-21.419,26.223-50.731,62.157-17.331,103.919
		c10.803,13.491,23.936,21.598,38.229,24.439c1.118,3.985,2.842,8.141,4.949,12.407H128C57.31,230.399,0,287.709,0,358.399
		s57.31,128,128,128h153.6c70.69,0,128-57.31,128-128c0-3.311-0.725-6.417-0.973-9.66c7.842,0.93,15.087,0.674,21.18-0.401
		c36.941-6.511,67.874-39.748,80.99-67.891c1.929-4.122,1.51-8.951-1.067-12.706C507.145,264.072,502.775,261.922,498.21,262.28z
		 M337.553,137.07c5.41-48.802,47.616-56.252,92.339-64.154c19.098-3.379,37.325-6.579,51.575-13.602
		c8.61,36.702,7.91,85.803-13.585,116.497c-13.449,19.2-34.014,28.954-61.141,28.954c-19.328,0-36.463-5.897-49.135-16.777
		c9.66-7.296,20.659-13.278,32.777-17.749l2.697-1.05c22.059-7.697,42.684-7.501,44.297-7.125l2.748,0.299
		c6.025,0,11.162-4.096,12.501-10.001c1.263-5.7-1.502-11.375-6.409-14.046c12.015-10.846,21.513-23.45,28.373-37.649
		c1.476-3.072,1.673-6.554,0.546-9.779s-3.447-5.828-6.528-7.296c-6.11-2.901-14.123-0.154-17.084,5.948
		c-10.197,21.129-27.221,37.299-51.797,49.126c1.51-10.675-0.154-21.274-4.975-30.925c-3.046-6.153-11.187-8.678-17.135-5.751
		c-3.072,1.527-5.359,4.147-6.451,7.398c-1.101,3.277-0.836,6.75,0.691,9.779c7.697,15.428-2.022,29.5-5.786,34.074
		c-8.422,4.198-16.358,9.097-23.697,14.626C338.005,158.378,336.341,147.899,337.553,137.07z M339.055,205.747
		c7.586,6.903,16.512,12.16,26.138,16.222c-1.391,0.981-2.773,1.86-4.173,2.987c-8.064,6.46-13.935,13.824-18.159,21.709
		c-6.827-3.755-13.961-6.852-21.478-9.327c0.034-0.094,0.145-0.145,0.179-0.247C325.495,225.646,331.366,215.125,339.055,205.747z
		 M322.782,185.676c-11.409,12.672-19.951,27.153-25.438,43.127c-0.358,1.041-0.324,2.091-0.401,3.149
		c-4.079-0.495-8.115-1.143-12.305-1.237c-3.823-5.026-6.818-9.702-8.687-14.003c11.426-3.328,22.545-9.813,32.751-20.019
		c4.966-4.975,8.841-9.924,12.228-14.839C321.587,183.108,322.057,184.439,322.782,185.676z M252.126,170.35
		c-1.783,6.699-3.482,13.491-4.454,20.54c-5.939-2.645-11.605-6.997-16.674-13.338c-19.106-23.885-6.255-43.025,17.169-71.748
		c8.474-10.385,16.674-20.42,21.47-30.805c18.534,12.715,35.78,32.879,39.543,54.221c3.055,17.374-3.191,33.988-18.569,49.365
		c-5.555,5.555-11.29,9.54-17.024,12.075c0.819-4.275,1.98-8.747,3.302-13.687c3.883-14.558,8.277-31.053,5.683-53.06
		c-0.828-7.014-7.194-12.041-14.217-11.204c-7.006,0.853-12.032,7.219-11.204,14.217
		C259.157,144.042,255.582,157.422,252.126,170.35z M281.6,460.799H128c-56.465,0-102.4-45.935-102.4-102.4
		s45.935-102.4,102.4-102.4h153.6c56.465,0,102.4,45.935,102.4,102.4S338.065,460.799,281.6,460.799z M425.353,323.131
		c-7.407,1.306-14.652,0.725-21.734-1.425c-2.918-9.694-6.835-18.867-11.844-27.443c11.145,2.415,23.637,4.053,38.886,2.253
		c7.023-0.828,12.041-7.194,11.204-14.217c-0.862-7.006-7.219-12.032-14.217-11.204c-17.135,2.022-30.515-1.553-43.443-5.009
		c-6.323-1.69-12.774-3.217-19.396-4.207c-0.282-0.239-0.572-0.469-0.862-0.708c2.662-5.76,6.878-11.281,13.056-16.213
		c23.885-19.106,43.025-6.255,71.757,17.161c10.385,8.474,20.42,16.674,30.805,21.47
		C466.85,302.122,446.686,319.368,425.353,323.131z"/>
</g>
<g>
</g>
<g>
</g>
<g>
</g>
<g>
</g>
<g>
</g>
<g>
</g>
<g>
</g>
<g>
</g>
<g>
</g>
<g>
</g>
<g>
</g>
<g>
</g>
<g>
</g>
<g>
</g>
<g>
</g>
</svg>
