<?xml version="1.0" encoding="iso-8859-1"?>
<!-- Generator: Adobe Illustrator 18.0.0, SVG Export Plug-In . SVG Version: 6.00 Build 0)  -->
<!DOCTYPE svg PUBLIC "-//W3C//DTD SVG 1.1//EN" "http://www.w3.org/Graphics/SVG/1.1/DTD/svg11.dtd">
<svg version="1.1" id="Capa_1" xmlns="http://www.w3.org/2000/svg" xmlns:xlink="http://www.w3.org/1999/xlink" x="0px" y="0px"
	 viewBox="0 0 305.755 305.755" style="enable-background:new 0 0 305.755 305.755;" xml:space="preserve">
<g>
	<path d="M302.66,246.401L263.77,54.055c-2.06-10.157-11.078-17.532-21.438-17.532h-1.692l-1.478-5.509
		c-1.011-3.768-4.424-6.385-8.32-6.385h-4.22v-0.104C226.621,10.978,215.642,0,202.096,0H26.923C13.377,0,2.399,10.978,2.399,24.525
		v256.707c0,13.546,10.978,24.523,24.524,24.523h175.173c13.546,0,24.525-10.978,24.525-24.523v-62.654
		c4.414,2.538,7.43,7.25,7.43,12.7v21.991c0,19.105,15.546,34.651,34.651,34.651c10.441,0,20.214-4.633,26.819-12.715
		C302.128,267.128,304.731,256.633,302.66,246.401z M28.302,193.899V42.211c0-6.898,5.588-12.486,12.486-12.486h147.439
		c6.898,0,12.486,5.588,12.486,12.486v151.968c0,6.741-5.465,12.206-12.206,12.206H40.788
		C33.891,206.385,28.302,200.797,28.302,193.899z M279.744,262.306c-2.722,3.325-6.743,5.23-11.043,5.23
		c-7.868,0-14.267-6.399-14.267-14.267v-21.991c0-16.85-11.949-30.943-27.813-34.303v-96.29h25.783l30.282,149.758
		C283.537,254.651,282.461,258.977,279.744,262.306z"/>
	<path d="M104.542,89.174c-26.361,7.36-33.318,37.318-22.45,58.185c-0.249,0.109-35.775,17.306-35.775,49.64
		c11.174-16.346,21.097-28.107,40.319-37.696c5.673-2.831,37.304-14.985,56.151-44.004c0.379-0.583,1.124-0.804,1.76-0.521
		c0.635,0.282,0.971,0.984,0.792,1.656c-8.293,31.08-31.457,45.826-38.618,51.22c24.46,8.729,50.726-1.837,63.356-29.595
		c10.36-22.766,0.372-68.887-4.801-89.003c-0.283-1.098-1.246-1.884-2.378-1.941c-1.132-0.057-2.171,0.628-2.562,1.692
		C155.898,60.913,142.833,81.22,104.542,89.174z"/>
</g>
<g>
</g>
<g>
</g>
<g>
</g>
<g>
</g>
<g>
</g>
<g>
</g>
<g>
</g>
<g>
</g>
<g>
</g>
<g>
</g>
<g>
</g>
<g>
</g>
<g>
</g>
<g>
</g>
<g>
</g>
</svg>
