<?xml version="1.0" encoding="iso-8859-1"?>
<!-- Generator: Adobe Illustrator 19.0.0, SVG Export Plug-In . SVG Version: 6.00 Build 0)  -->
<svg version="1.1" id="Layer_1" xmlns="http://www.w3.org/2000/svg" xmlns:xlink="http://www.w3.org/1999/xlink" x="0px" y="0px"
	 viewBox="0 0 511.987 511.987" style="enable-background:new 0 0 511.987 511.987;" xml:space="preserve">
<g>
	<g>
		<path d="M483.734,128.674L319.988,67.271V21.335h21.344c5.875,0,10.655-4.781,10.655-10.671c0-5.891-4.78-10.664-10.655-10.664
			H170.657c-5.891,0-10.672,4.773-10.672,10.664c0,5.89,4.781,10.671,10.672,10.671h21.327v45.936L28.254,128.676
			c-4.828,1.812-7.672,6.812-6.75,11.891c0.922,5.07,5.328,8.765,10.484,8.765h157.964l-1.562,8.797
			c0,0.039-0.016,0.078-0.016,0.117l-22.546,127.778c0,0,0,0-0.016,0.016l-0.047,0.281c0,0.016,0,0.016,0,0.016l-22.53,127.684
			l-0.016,0.047c0,0.031,0,0.062-0.016,0.078l-15.047,85.309c-1.031,5.812,2.844,11.344,8.641,12.375
			c0.641,0.094,1.266,0.156,1.875,0.156c5.078,0,9.578-3.641,10.484-8.812l2.625-14.843l93.544-27.733v40.717
			c0,5.891,4.766,10.672,10.656,10.672c5.906,0,10.672-4.781,10.672-10.672v-40.717l93.552,27.733l2.625,14.843
			c0.906,5.172,5.405,8.812,10.468,8.812c0.625,0,1.25-0.062,1.875-0.156c5.812-1.031,9.688-6.562,8.656-12.375l-15.063-85.311
			c0-0.016,0-0.047,0-0.078l-0.031-0.047l-22.529-127.684c0,0,0,0,0-0.016l-0.031-0.281c-0.031-0.016-0.031-0.016-0.031-0.016
			l-22.531-127.778c0-0.039-0.031-0.078-0.031-0.117l-1.562-8.797h157.964c5.156,0,9.562-3.695,10.5-8.765
			C491.39,135.487,488.546,130.487,483.734,128.674z M282.865,253.547l33.342-14.406l5.531,31.203L282.865,253.547z
			 M307.175,287.288l-40.521,15.203v-32.71L307.175,287.288z M310.144,204.768l-30.685-15.656l25.623-13.062L310.144,204.768z
			 M301.207,154.081l-34.554,17.617v-22.367h33.71L301.207,154.081z M298.646,29.507v26.319l-21.937-13.163L298.646,29.507z
			 M298.646,93.505v26.319l-21.937-13.163L298.646,93.505z M270.81,21.335l-14.828,8.891l-14.812-8.891H270.81z M255.981,55.108
			l14.828,8.89h-29.64L255.981,55.108z M270.81,85.333l-14.828,8.891l-14.812-8.891H270.81z M213.327,29.507l21.937,13.156
			l-21.937,13.164V29.507z M213.327,93.505l21.937,13.156l-21.937,13.164V93.505z M206.889,176.049l25.624,13.062l-30.687,15.656
			L206.889,176.049z M195.764,239.141l33.343,14.406l-38.858,16.796L195.764,239.141z M90.816,127.996l101.168-37.944v37.944H90.816
			z M184.577,302.491l41.03,15.374l-46.842,17.578L184.577,302.491z M173.376,365.989l48.686,16.124l-54.733,18.125L173.376,365.989
			z M155.923,464.861l6.218-35.249l56.327,16.702L155.923,464.861z M245.327,432.017l-55.982-16.593l55.982-18.53V432.017z
			 M245.327,367.347l-48.264-15.983l48.264-18.093V367.347z M245.327,302.491l-40.514-15.203l40.514-17.507V302.491z
			 M245.327,237.321l-32.687-14.125l32.687-16.671V237.321z M245.327,171.698l-34.562-17.617l0.844-4.75h33.718V171.698z
			 M241.17,127.996l14.812-8.89l14.828,8.89H241.17z M266.653,206.525L266.653,206.525l32.679,16.671l-32.679,14.125V206.525z
			 M314.925,351.364l-48.271,15.983v-34.076L314.925,351.364z M266.654,396.894l55.99,18.53l-55.99,16.593V396.894z
			 M349.832,429.612l6.218,35.249l-62.53-18.547L349.832,429.612z M344.644,400.238l-54.718-18.125l48.687-16.124L344.644,400.238z
			 M327.394,302.491l5.812,32.952l-46.841-17.578L327.394,302.491z M319.988,127.996V90.052l101.185,37.944H319.988z"/>
	</g>
</g>
<g>
	<g>
		<path d="M501.326,159.995h-63.998c-5.906,0-10.687,4.773-10.687,10.664c0,5.89,4.78,10.671,10.687,10.671h63.998
			c5.875,0,10.656-4.781,10.656-10.671C511.982,164.768,507.201,159.995,501.326,159.995z"/>
	</g>
</g>
<g>
	<g>
		<path d="M479.983,191.994H458.64c-5.875,0-10.656,4.773-10.656,10.664c0,5.89,4.781,10.671,10.656,10.671h21.343
			c5.875,0,10.656-4.781,10.656-10.671C490.639,196.767,485.858,191.994,479.983,191.994z"/>
	</g>
</g>
<g>
	<g>
		<path d="M74.66,159.995H10.662c-5.891,0-10.656,4.773-10.656,10.664c0,5.89,4.766,10.671,10.656,10.671H74.66
			c5.89,0,10.671-4.781,10.671-10.671C85.33,164.768,80.55,159.995,74.66,159.995z"/>
	</g>
</g>
<g>
	<g>
		<path d="M53.332,191.994H31.988c-5.875,0-10.656,4.773-10.656,10.664c0,5.89,4.781,10.671,10.656,10.671h21.343
			c5.891,0,10.656-4.781,10.656-10.671C63.988,196.767,59.223,191.994,53.332,191.994z"/>
	</g>
</g>
<g>
</g>
<g>
</g>
<g>
</g>
<g>
</g>
<g>
</g>
<g>
</g>
<g>
</g>
<g>
</g>
<g>
</g>
<g>
</g>
<g>
</g>
<g>
</g>
<g>
</g>
<g>
</g>
<g>
</g>
</svg>
