<?xml version="1.0" encoding="iso-8859-1"?>
<!-- Generator: Adobe Illustrator 19.0.0, SVG Export Plug-In . SVG Version: 6.00 Build 0)  -->
<svg version="1.1" id="Capa_1" xmlns="http://www.w3.org/2000/svg" xmlns:xlink="http://www.w3.org/1999/xlink" x="0px" y="0px"
	 viewBox="0 0 512 512" style="enable-background:new 0 0 512 512;" xml:space="preserve">
<g>
	<g>
		<path d="M511.239,191.173C509.691,187.437,506.045,185,502,185h-70v-63.001c0-5.522-4.478-10-10-10h-20V40c0-5.522-4.478-10-10-10
			h-76V10c0-5.522-4.478-10-10-10H206c-5.523,0-10,4.478-10,10v20h-76c-5.523,0-10,4.478-10,10v71.999H90c-5.523,0-10,4.478-10,10
			V185H10c-4.022,0-7.653,2.41-9.215,6.116c-1.562,3.706-0.751,7.988,2.057,10.867L40,240.069V462c0,27.57,22.43,50,50,50h332
			c27.57,0,50-22.43,50-50V239.143l37.071-37.071C511.93,199.211,512.787,194.91,511.239,191.173z M412,131.999V425h-40V131.999H412
			z M216,20h80v20h-80V20z M216,60h80v40h-80V60z M130,50h66v60c0,5.522,4.477,10,10,10h100c5.522,0,10-4.478,10-10V50h66v61.999
			h-20c-5.522,0-10,4.478-10,10V185H160v-63.001c0-5.522-4.477-10-10-10h-20V50z M352,205v60H160v-60H352z M100,131.999h40V425h-40
			V131.999z M33.727,205H80v60H60v-29.001c0-2.609-1.02-5.115-2.842-6.983L33.727,205z M452,462L452,462
			c-0.001,16.542-13.459,30-30.001,30H90c-16.542,0-30-13.458-30-30V285h20v150c0,5.522,4.477,10,10,10h60c5.523,0,10-4.478,10-10
			V285h192v150c0,5.522,4.478,10,10,10h60c5.522,0,10-4.478,10-10V285h20V462z M454.928,227.929
			c-1.875,1.876-2.929,4.419-2.929,7.071v30h-20v-60h45.857L454.928,227.929z"/>
	</g>
</g>
<g>
	<g>
		<path d="M196,305c-5.52,0-10,4.479-10,10c0,5.52,4.48,10,10,10s10-4.48,10-10C206,309.479,201.52,305,196,305z"/>
	</g>
</g>
<g>
	<g>
		<path d="M316,305c-5.521,0-10,4.479-10,10c0,5.52,4.479,10,10,10c5.52,0,10-4.48,10-10C326,309.479,321.519,305,316,305z"/>
	</g>
</g>
<g>
	<g>
		<path d="M236,305c-5.52,0-10,4.479-10,10c0,5.52,4.48,10,10,10s10-4.48,10-10C246,309.479,241.52,305,236,305z"/>
	</g>
</g>
<g>
	<g>
		<path d="M276,305c-5.52,0-10,4.479-10,10c0,5.52,4.479,10,10,10c5.52,0,10-4.48,10-10C286,309.479,281.519,305,276,305z"/>
	</g>
</g>
<g>
	<g>
		<path d="M316,345c-5.521,0-10,4.479-10,10c0,5.52,4.479,10,10,10c5.52,0,10-4.48,10-10C326,349.479,321.519,345,316,345z"/>
	</g>
</g>
<g>
	<g>
		<path d="M196,345c-5.52,0-10,4.479-10,10c0,5.52,4.48,10,10,10s10-4.48,10-10C206,349.479,201.52,345,196,345z"/>
	</g>
</g>
<g>
	<g>
		<path d="M276,345c-5.52,0-10,4.479-10,10c0,5.52,4.479,10,10,10c5.52,0,10-4.48,10-10C286,349.479,281.519,345,276,345z"/>
	</g>
</g>
<g>
	<g>
		<path d="M236,345c-5.52,0-10,4.479-10,10c0,5.52,4.48,10,10,10s10-4.48,10-10C246,349.479,241.52,345,236,345z"/>
	</g>
</g>
<g>
	<g>
		<path d="M276,385c-5.52,0-10,4.479-10,10c0,5.52,4.479,10,10,10c5.52,0,10-4.48,10-10C286,389.479,281.519,385,276,385z"/>
	</g>
</g>
<g>
	<g>
		<path d="M236,385c-5.52,0-10,4.479-10,10c0,5.52,4.48,10,10,10s10-4.48,10-10C246,389.479,241.52,385,236,385z"/>
	</g>
</g>
<g>
	<g>
		<path d="M316,385c-5.521,0-10,4.479-10,10c0,5.52,4.479,10,10,10c5.52,0,10-4.48,10-10C326,389.479,321.519,385,316,385z"/>
	</g>
</g>
<g>
	<g>
		<path d="M196,385c-5.52,0-10,4.479-10,10c0,5.52,4.48,10,10,10s10-4.48,10-10C206,389.479,201.52,385,196,385z"/>
	</g>
</g>
<g>
	<g>
		<path d="M276,425c-5.53,0-10,4.479-10,10c0,5.52,4.47,10,10,10c5.52,0,10-4.48,10-10C286,429.479,281.519,425,276,425z"/>
	</g>
</g>
<g>
	<g>
		<path d="M236,425c-5.52,0-10,4.479-10,10c0,5.52,4.48,10,10,10s10-4.48,10-10C246,429.479,241.52,425,236,425z"/>
	</g>
</g>
<g>
	<g>
		<path d="M196,425c-5.52,0-10,4.479-10,10c0,5.52,4.48,10,10,10s10-4.48,10-10C206,429.479,201.52,425,196,425z"/>
	</g>
</g>
<g>
	<g>
		<path d="M316,425c-5.521,0-10,4.479-10,10c0,5.52,4.479,10,10,10c5.52,0,10-4.48,10-10C326,429.479,321.519,425,316,425z"/>
	</g>
</g>
<g>
	<g>
		<path d="M80,20H70V10c0-5.522-4.477-10-10-10S50,4.478,50,10v10H40c-5.523,0-10,4.478-10,10s4.477,10,10,10h10v10
			c0,5.522,4.477,10,10,10s10-4.478,10-10V40h10c5.523,0,10-4.478,10-10S85.523,20,80,20z"/>
	</g>
</g>
<g>
	<g>
		<path d="M472,20h-40c-5.522,0-10,4.478-10,10s4.477,10,10,10h40c5.522,0,10-4.478,10-10S477.522,20,472,20z"/>
	</g>
</g>
<g>
</g>
<g>
</g>
<g>
</g>
<g>
</g>
<g>
</g>
<g>
</g>
<g>
</g>
<g>
</g>
<g>
</g>
<g>
</g>
<g>
</g>
<g>
</g>
<g>
</g>
<g>
</g>
<g>
</g>
</svg>
