<?xml version="1.0" encoding="UTF-8" standalone="no"?>
<!-- Generator: Adobe Illustrator 18.0.0, SVG Export Plug-In . SVG Version: 6.00 Build 0)  -->

<svg
   xmlns:dc="http://purl.org/dc/elements/1.1/"
   xmlns:cc="http://creativecommons.org/ns#"
   xmlns:rdf="http://www.w3.org/1999/02/22-rdf-syntax-ns#"
   xmlns:svg="http://www.w3.org/2000/svg"
   xmlns="http://www.w3.org/2000/svg"
   xmlns:sodipodi="http://sodipodi.sourceforge.net/DTD/sodipodi-0.dtd"
   xmlns:inkscape="http://www.inkscape.org/namespaces/inkscape"
   version="1.1"
   id="Capa_1"
   x="0px"
   y="0px"
   viewBox="0 0 41.000999 60"
   xml:space="preserve"
   sodipodi:docname="electric_boiler.svg"
   width="41.000999"
   height="60"
   inkscape:version="0.92.0 r15299"><metadata
     id="metadata47"><rdf:RDF><cc:Work
         rdf:about=""><dc:format>image/svg+xml</dc:format><dc:type
           rdf:resource="http://purl.org/dc/dcmitype/StillImage" /><dc:title></dc:title></cc:Work></rdf:RDF></metadata><defs
     id="defs45"><pattern
       y="0"
       x="0"
       height="6"
       width="6"
       patternUnits="userSpaceOnUse"
       id="EMFhbasepattern" /></defs><sodipodi:namedview
     pagecolor="#ffffff"
     bordercolor="#666666"
     borderopacity="1"
     objecttolerance="10"
     gridtolerance="10"
     guidetolerance="10"
     inkscape:pageopacity="0"
     inkscape:pageshadow="2"
     inkscape:window-width="1920"
     inkscape:window-height="1005"
     id="namedview43"
     showgrid="false"
     fit-margin-top="0"
     fit-margin-left="0"
     fit-margin-right="0"
     fit-margin-bottom="0"
     inkscape:zoom="7.8666669"
     inkscape:cx="28.092945"
     inkscape:cy="41.145435"
     inkscape:window-x="-9"
     inkscape:window-y="-9"
     inkscape:window-maximized="1"
     inkscape:current-layer="Capa_1" /><g
     id="g12"
     transform="translate(-9.5)" /><g
     id="g14"
     transform="translate(-9.5)" /><g
     id="g16"
     transform="translate(-9.5)" /><g
     id="g18"
     transform="translate(-9.5)" /><g
     id="g20"
     transform="translate(-9.5)" /><g
     id="g22"
     transform="translate(-9.5)" /><g
     id="g24"
     transform="translate(-9.5)" /><g
     id="g26"
     transform="translate(-9.5)" /><g
     id="g28"
     transform="translate(-9.5)" /><g
     id="g30"
     transform="translate(-9.5)" /><g
     id="g32"
     transform="translate(-9.5)" /><g
     id="g34"
     transform="translate(-9.5)" /><g
     id="g36"
     transform="translate(-9.5)" /><g
     id="g38"
     transform="translate(-9.5)" /><g
     id="g40"
     transform="translate(-9.5)" /><g
     id="g4528"><g
       transform="translate(-9.5)"
       id="g10"><path
         id="path2"
         d="m 16.5,42 h 14 v -7 h -14 z m 8,-6 h 5 v 5 h -5 z m -7,0 h 5 v 5 h -5 z"
         inkscape:connector-curvature="0" /><path
         id="path4"
         d="m 40.5,42 c 1.654,0 3,-1.346 3,-3 0,-0.462 -0.113,-0.894 -0.301,-1.285 l -1.992,1.992 -1.414,-1.414 1.992,-1.992 C 41.394,36.114 40.962,36 40.5,36 c -1.654,0 -3,1.346 -3,3 0,1.654 1.346,3 3,3 z"
         inkscape:connector-curvature="0" /><path
         id="path6"
         d="m 9.5,48 v 10.567 c 0,0.79 0.643,1.433 1.433,1.433 h 38.135 c 0.79,0 1.433,-0.643 1.433,-1.433 V 48 Z m 23,6 h -5 c -0.553,0 -1,-0.447 -1,-1 0,-0.553 0.447,-1 1,-1 h 5 c 0.553,0 1,0.447 1,1 0,0.553 -0.447,1 -1,1 z"
         inkscape:connector-curvature="0" /><path
         id="path8"
         d="M 50.5,46 V 0 h -41 v 46 z m -10,-12 c 2.757,0 5,2.243 5,5 0,2.757 -2.243,5 -5,5 -2.757,0 -5,-2.243 -5,-5 0,-2.757 2.243,-5 5,-5 z m -26,-1 h 18 v 11 h -18 z"
         inkscape:connector-curvature="0" /></g><g
       style="fill:#ffffff;fill-opacity:1;stroke:#ffffff;stroke-opacity:1"
       id="g6"
       transform="matrix(0.05720413,0,0,0.05217924,6.9069461,2.2038911)"><g
         style="fill:#ffffff;fill-opacity:1;stroke:#ffffff;stroke-opacity:1"
         id="g4"><path
           style="fill:#ffffff;fill-opacity:1;stroke:#ffffff;stroke-opacity:1"
           id="path2-5"
           d="m 400.268,175.599 c -1.399,-3.004 -4.412,-4.932 -7.731,-4.932 H 291.417 L 391.214,13.099 c 1.664,-2.628 1.766,-5.956 0.265,-8.678 C 389.977,1.69 387.109,0 384.003,0 H 247.47 c -3.234,0 -6.187,1.826 -7.637,4.719 l -128,256 c -1.323,2.637 -1.178,5.777 0.375,8.294 1.562,2.517 4.301,4.053 7.262,4.053 h 87.748 l -95.616,227.089 c -1.63,3.883 -0.179,8.388 3.413,10.59 1.382,0.845 2.918,1.254 4.446,1.254 2.449,0 4.864,-1.05 6.537,-3.029 L 399.065,184.703 c 2.141,-2.542 2.602,-6.092 1.203,-9.104 z"
           inkscape:connector-curvature="0" /></g></g></g></svg>