<?xml version="1.0" encoding="UTF-8" standalone="no"?>
<!-- Generator: Adobe Illustrator 18.0.0, SVG Export Plug-In . SVG Version: 6.00 Build 0)  -->

<svg
   xmlns:dc="http://purl.org/dc/elements/1.1/"
   xmlns:cc="http://creativecommons.org/ns#"
   xmlns:rdf="http://www.w3.org/1999/02/22-rdf-syntax-ns#"
   xmlns:svg="http://www.w3.org/2000/svg"
   xmlns="http://www.w3.org/2000/svg"
   xmlns:sodipodi="http://sodipodi.sourceforge.net/DTD/sodipodi-0.dtd"
   xmlns:inkscape="http://www.inkscape.org/namespaces/inkscape"
   version="1.1"
   id="Capa_1"
   x="0px"
   y="0px"
   viewBox="0 0 445.682 445.682"
   style="enable-background:new 0 0 445.682 445.682;"
   xml:space="preserve"
   sodipodi:docname="factory_bio.svg"
   inkscape:version="0.92.0 r15299"><metadata
     id="metadata51"><rdf:RDF><cc:Work
         rdf:about=""><dc:format>image/svg+xml</dc:format><dc:type
           rdf:resource="http://purl.org/dc/dcmitype/StillImage" /><dc:title></dc:title></cc:Work></rdf:RDF></metadata><defs
     id="defs49" /><sodipodi:namedview
     pagecolor="#ffffff"
     bordercolor="#666666"
     borderopacity="1"
     objecttolerance="10"
     gridtolerance="10"
     guidetolerance="10"
     inkscape:pageopacity="0"
     inkscape:pageshadow="2"
     inkscape:window-width="1920"
     inkscape:window-height="1005"
     id="namedview47"
     showgrid="false"
     inkscape:zoom="0.52952553"
     inkscape:cx="222.841"
     inkscape:cy="222.841"
     inkscape:window-x="-9"
     inkscape:window-y="-9"
     inkscape:window-maximized="1"
     inkscape:current-layer="Capa_1" /><g
     id="g14"><path
       d="M136.907,232.349H92.979v-22.324H69.575v22.324h-9.722v-22.324H36.45v22.324H19.887v20.988H0v122.004h155.199v-1.53   V260.959v-1.957l0.686-1.832l1.436-3.833h-20.414V232.349z M76.416,286.717H19.887v-16.923h56.529V286.717z M144.468,269.794   v16.923H87.938v-16.923H144.468z"
       id="path2" /><polygon
       points="368.353,174.451 368.353,137.815 300.842,137.815 300.842,172.015 332.741,257.17 333.428,259.002    333.428,260.959 333.428,373.81 400.939,373.81 400.939,260.959 368.533,174.451  "
       id="polygon4" /><polygon
       points="290.04,174.451 290.04,137.815 276.719,137.815 198.405,137.815 198.405,174.451 166.001,260.959 166.001,373.81    244.314,373.81 322.626,373.81 322.626,260.959 290.22,174.451  "
       id="polygon6" /><path
       d="M322.513,112.872c30.419,0.641,66.806-11.584,81.166-42.531c-51.572,14.351-134.498-8.717-162.088,51.077   C267.933,114.158,295.268,111.971,322.513,112.872z"
       id="path8" /><path
       d="M379.194,111.706c10.765-1.852,21.724-1.646,32.526-0.215c12.075,1.451,27.03-1.982,33.961-13.727   C424.602,101.445,392.522,89.006,379.194,111.706z"
       id="path10" /><path
       d="M375.942,128.815c6.971,0.654,15.525-1.545,19.338-8.406c-12.075,2.433-30.723-4.245-38.052,9.017   C363.396,128.2,369.705,128.153,375.942,128.815z"
       id="path12" /></g><g
     id="g16" /><g
     id="g18" /><g
     id="g20" /><g
     id="g22" /><g
     id="g24" /><g
     id="g26" /><g
     id="g28" /><g
     id="g30" /><g
     id="g32" /><g
     id="g34" /><g
     id="g36" /><g
     id="g38" /><g
     id="g40" /><g
     id="g42" /><g
     id="g44" /></svg>