<?xml version="1.0" encoding="UTF-8" standalone="no"?>
<!-- Generator: Adobe Illustrator 19.0.0, SVG Export Plug-In . SVG Version: 6.00 Build 0)  -->

<svg
   xmlns:dc="http://purl.org/dc/elements/1.1/"
   xmlns:cc="http://creativecommons.org/ns#"
   xmlns:rdf="http://www.w3.org/1999/02/22-rdf-syntax-ns#"
   xmlns:svg="http://www.w3.org/2000/svg"
   xmlns="http://www.w3.org/2000/svg"
   xmlns:sodipodi="http://sodipodi.sourceforge.net/DTD/sodipodi-0.dtd"
   xmlns:inkscape="http://www.inkscape.org/namespaces/inkscape"
   version="1.1"
   id="Layer_1"
   x="0px"
   y="0px"
   viewBox="0 0 330.02 330.02"
   style="enable-background:new 0 0 330.02 330.02;"
   xml:space="preserve"
   sodipodi:docname="factory_KWK.svg"
   inkscape:version="0.92.0 r15299"><metadata
     id="metadata39"><rdf:RDF><cc:Work
         rdf:about=""><dc:format>image/svg+xml</dc:format><dc:type
           rdf:resource="http://purl.org/dc/dcmitype/StillImage" /><dc:title></dc:title></cc:Work></rdf:RDF></metadata><defs
     id="defs37"><pattern
       y="0"
       x="0"
       height="6"
       width="6"
       patternUnits="userSpaceOnUse"
       id="EMFhbasepattern" /></defs><sodipodi:namedview
     pagecolor="#ffffff"
     bordercolor="#666666"
     borderopacity="1"
     objecttolerance="10"
     gridtolerance="10"
     guidetolerance="10"
     inkscape:pageopacity="0"
     inkscape:pageshadow="2"
     inkscape:window-width="1920"
     inkscape:window-height="1005"
     id="namedview35"
     showgrid="false"
     inkscape:zoom="0.7151082"
     inkscape:cx="165.00999"
     inkscape:cy="165.00999"
     inkscape:window-x="-9"
     inkscape:window-y="-9"
     inkscape:window-maximized="1"
     inkscape:current-layer="Layer_1" /><g
     id="g4" /><g
     id="g6" /><g
     id="g8" /><g
     id="g10" /><g
     id="g12" /><g
     id="g14" /><g
     id="g16" /><g
     id="g18" /><g
     id="g20" /><g
     id="g22" /><g
     id="g24" /><g
     id="g26" /><g
     id="g28" /><g
     id="g30" /><g
     id="g32" /><path
     id="path4519"
     d="m 320.80562,75.207444 c -0.32,-8.079941 -6.95995,-14.399894 -14.95989,-14.399894 h -26.5598 C 272.32598,26.647803 242.0062,0.8079941 205.84647,0.8079941 c -0.16,0 -0.24,0 -0.32,0 H 15.847883 v 0 c -8.3199387,0 -15.0398887,6.71995 -15.0398887,14.9598889 0,8.319939 6.71995,15.039889 14.9598887,15.039889 h 189.998587 0.08 c 0,0 0.08,0 0.16,0 19.43986,0.08 36.07973,12.639906 42.23969,29.999778 h -22.39984 c -8.07994,0 -14.71989,6.319953 -15.03989,14.399894 l -5.35996,129.039036 -79.03941,-79.03941 c -4.31997,-4.31997 -10.71992,-5.59996 -16.31988,-3.27998 -5.59996,2.31999 -9.27993,7.83994 -9.27993,13.9199 v 63.75953 L 26.407804,125.20707 c -4.319968,-4.31997 -10.71992,-5.59996 -16.319879,-3.27998 -5.5999587,2.31999 -9.2799307,7.83994 -9.2799307,13.9199 v 179.99867 c 0,8.23994 6.71995,14.95989 15.0398887,14.95989 H 215.8464 315.84566 v 0 c 8.23994,0 14.95989,-6.71995 14.95989,-14.95989 0,-0.48 0,-0.96 -0.08,-1.43999 z"
     style="fill:#000000;fill-opacity:1;fill-rule:nonzero;stroke:none"
     inkscape:connector-curvature="0" /><path
     id="path4521"
     d="m 83.447384,261.76604 c 1.19999,1.03999 1.91998,-3.11997 2.31998,-3.83997 1.27999,-2.47998 3.75997,-3.83997 5.67996,-5.43996 3.35997,-2.71998 9.039926,-4.47997 13.119896,-4.31997 5.67996,-0.16 11.91991,-1.19999 17.51987,0.88 4.47997,1.67998 9.11993,2.87998 13.6799,4.55996 5.03996,1.99999 10.07993,4.15997 15.27989,5.43996 2.95998,0.72 5.83995,1.19999 8.79993,1.35999 2.31998,0.16 4.63997,-0.63999 6.87995,-0.32 1.67999,-1.43998 4.39997,-1.19999 5.75996,-3.27997 2.15998,-0.8 3.51997,-2.87998 5.43996,-4.15997 1.27999,-0.87999 7.11995,-10.31992 5.43996,-12.71991 -0.08,-0.08 -0.16,-0.23999 -0.32,-0.31999 -1.03999,-0.72 -2.79998,3.19997 -3.59997,4.07997 -1.83999,2.15998 -3.83997,4.07997 -6.15996,5.75995 -4.71996,3.43998 -9.19993,3.91997 -14.63989,3.03998 -9.67993,-1.51999 -18.87986,-5.43996 -28.15979,-8.87993 -10.15993,-3.75998 -21.27984,-4.15997 -31.75977,-1.83999 -4.319956,1.03999 -10.159916,3.75997 -12.799896,8.31994 -1.35999,2.31998 -5.99996,8.87993 -2.47998,11.67991 z m 99.839256,5.03996 c -1.03999,-0.63999 -3.27998,2.95998 -3.91997,3.75998 -1.59999,1.83998 -3.35998,3.59997 -5.27996,5.03996 -4.39997,3.35997 -8.47994,3.83997 -13.5199,3.83997 -10.47993,0 -21.11985,-6.07995 -31.03977,-9.35993 -10.31993,-3.43997 -21.59984,-4.07997 -31.999766,-1.19999 -4.63996,1.27999 -9.43993,4.15997 -12.15991,8.95993 -1.27999,2.23999 -5.19996,8.07994 -1.91998,10.63992 1.19999,1.04 1.91998,-3.03997 2.31998,-3.83997 1.27999,-2.39998 3.75997,-3.75997 5.67996,-5.35996 3.35997,-2.71998 9.039926,-4.47996 13.119896,-4.39997 5.67996,-0.08 11.91991,-1.11999 17.51987,0.96 4.47997,1.67999 9.11993,2.79998 13.6799,4.55996 5.03996,1.99999 10.07993,4.15997 15.27989,5.43996 2.95998,0.72 5.83995,1.19999 8.79993,1.35999 2.31998,0.16 4.63997,-0.63999 6.87995,-0.31999 1.67999,-1.43999 4.39997,-1.2 5.75996,-3.27998 2.15998,-0.79999 3.51997,-2.87998 5.43996,-4.15997 1.83998,-1.27999 6.23995,-8.87993 5.75996,-11.75991 -0.08,-0.48 -0.24,-0.72 -0.4,-0.88 z m 0.24,25.99981 c -0.08,-0.16 -0.16,-0.32 -0.32,-0.47999 -1.11999,-1.2 -3.11998,2.95997 -3.91997,3.91997 -1.75999,1.99998 -3.59998,3.83997 -5.67996,5.27996 -4.95996,3.59997 -10.55992,3.75997 -16.15988,3.03998 -9.59993,-1.35999 -18.39986,-6.23996 -27.83979,-8.79994 -4.07997,-1.11999 -7.91995,-2.47998 -12.23991,-2.71998 -5.51996,-0.32 -10.71992,-0.48 -16.23988,0.56 -2.71998,0.47999 -5.519956,1.27999 -8.079936,2.55998 -2.23999,1.11999 -3.99997,3.35997 -5.83996,5.27996 -1.99999,2.07998 -8.23994,10.79992 -3.03998,13.0399 3.03998,-11.35991 16.079876,-14.47989 24.799816,-14.47989 5.83996,0 11.35991,0.55999 16.95987,2.39998 4.55997,1.43999 8.87994,3.27998 13.3599,5.03996 8.55994,3.35998 20.07986,7.91995 28.87979,4.15997 3.75997,-1.67998 7.35995,-3.99997 10.31992,-7.27994 1.59999,-1.83999 6.39996,-8.39994 5.03997,-11.51992 z"
     style="fill:#ffffff;fill-opacity:1;fill-rule:evenodd;stroke:none"
     inkscape:connector-curvature="0" /><path
     id="path4523"
     d="m 64.647521,235.36624 c -0.239998,-0.72 -0.799994,-1.19999 -1.439989,-1.19999 H 44.967667 l 17.999867,-39.19971 c 0.319997,-0.72 0.319997,-1.51999 0.08,-2.15999 -0.319998,-0.71999 -0.799994,-1.11999 -1.35999,-1.11999 H 37.047726 c -0.639996,0 -1.119992,0.48 -1.43999,1.19999 l -23.119829,63.67953 c -0.239998,0.64 -0.159998,1.43999 0.08,2.07999 0.319998,0.63999 0.799994,1.03999 1.35999,1.03999 h 15.839882 l -17.279872,56.47958 c -0.319997,0.95999 0,2.07998 0.639996,2.63998 0.239998,0.24 0.479996,0.32 0.799994,0.32 0.399997,0 0.879993,-0.24 1.119992,-0.72 l 49.359634,-80.7194 c 0.399997,-0.63999 0.479996,-1.51999 0.239998,-2.31998 z"
     style="fill:#ffffff;fill-opacity:1;fill-rule:nonzero;stroke:#ffffff;stroke-width:0.23999822px;stroke-linecap:butt;stroke-linejoin:miter;stroke-miterlimit:4;stroke-dasharray:none;stroke-opacity:1"
     inkscape:connector-curvature="0" /></svg>