<?xml version='1.0' encoding='utf-8'?>
<!DOCTYPE svg PUBLIC '-//W3C//DTD SVG 1.1//EN' 'http://www.w3.org/Graphics/SVG/1.1/DTD/svg11.dtd'>
<svg version="1.1" xmlns="http://www.w3.org/2000/svg" viewBox="0 0 512 512" xmlns:xlink="http://www.w3.org/1999/xlink" enable-background="new 0 0 512 512">
  <g>
    <g>
      <path d="m488,213.8c-7.8-3-16.8-0.9-22.5,5.3l-92.5,101.7v-87.9c0-8.4-5.2-16-13-19-7.8-3-16.8-0.9-22.5,5.3l-95,104.4-34.8-114.6v-90c0-11.3-9.1-20.4-20.4-20.4h-118.6c-11.3,0-20.4,9.1-20.4,20.4v89.9l-36.4,119.6c-0.6,1.9-0.9,3.9-0.9,5.9v146.1c0,11.3 9.1,20.4 20.4,20.4h449.2c11.3,0 20.4-9.1 20.4-20.4v-247.6c5.68434e-14-8.5-5.2-16-13-19.1zm-284,246.4h-152.1v-122.7l36.3-119.6c0.6-1.9 0.9-3.9 0.9-5.9v-72.5h77.7v72.5c0,2 0.3,4 0.9,5.9l36.3,119.6v122.7zm128.1,0h-87.2v-78.7l87.2-95.8v174.5zm128.1,0h-87.2v-78.7l87.2-95.8v174.5z"/>
      <path d="m431.5,110.2c-2.3,0-4.7-0.4-7-1.2-13.4-4.9-29.4-4.3-46.3-3.7-8.7,0.3-17.6,0.6-26.8,0.3-6.7-0.3-14.6-1.1-22.2-5.1-4.2-2.2-7.4-4.9-9.8-6.9-0.7-0.6-1.5-1.3-2.3-1.8-3.9-2.8-10.8-4.1-20.6-3.7-3,0.1-5.9,0.3-8.9,0.5-9,0.6-19.3,1.3-29.9-0.4-11.1-1.8-18.7-12.3-16.9-23.4 1.8-11.1 12.2-18.8 23.4-16.9 6,1 13.1,0.5 20.6,0 3.4-0.2 6.8-0.5 10.2-0.6 19.5-0.8 34.6,3.1 46.2,11.5 1.5,1.1 3,2.3 4.4,3.5 0.8,0.7 1.6,1.5 2.6,2 0.2,0 1.3,0.3 4.9,0.5 7.6,0.3 15.3,0 23.6-0.3 20.1-0.7 40.9-1.5 61.8,6.2 10.6,3.9 16.1,15.6 12.2,26.2-3,8.1-10.8,13.3-19.2,13.3z"/>
    </g>
  </g>
</svg>
