<?xml version="1.0" encoding="iso-8859-1"?>
<!-- Generator: Adobe Illustrator 19.0.0, SVG Export Plug-In . SVG Version: 6.00 Build 0)  -->
<svg version="1.1" id="Layer_1" xmlns="http://www.w3.org/2000/svg" xmlns:xlink="http://www.w3.org/1999/xlink" x="0px" y="0px"
	 viewBox="0 0 330.02 330.02" style="enable-background:new 0 0 330.02 330.02;" xml:space="preserve">
<g id="XMLID_312_">
	<path id="XMLID_333_" d="M319.987,74.386C319.652,66.351,313.041,60.01,305,60.01h-26.51c-6.968-34.192-37.27-60-73.49-60
		c-0.107,0-0.212,0.014-0.318,0.016L15.002,0.01H15c-8.283,0-15,6.715-15,14.998c0,8.285,6.715,15.001,14.998,15.002l190.001,0.016
		H205c0.072,0,0.141-0.01,0.213-0.01c19.462,0.09,36.037,12.599,42.207,29.994H225c-8.041,0-14.652,6.341-14.987,14.376
		l-5.377,129.046l-79.029-79.028c-4.29-4.291-10.742-5.573-16.347-3.252c-5.606,2.321-9.26,7.792-9.26,13.858v63.786l-74.394-74.393
		c-4.29-4.291-10.742-5.575-16.347-3.252C3.654,123.473,0,128.943,0,135.01v180c0,8.284,6.716,15,15,15h200h100
		c0.007,0,0.015,0,0.02,0c8.285,0,15-6.716,15-15c0-0.478-0.021-0.95-0.065-1.416L319.987,74.386z"/>
</g>
<g>
</g>
<g>
</g>
<g>
</g>
<g>
</g>
<g>
</g>
<g>
</g>
<g>
</g>
<g>
</g>
<g>
</g>
<g>
</g>
<g>
</g>
<g>
</g>
<g>
</g>
<g>
</g>
<g>
</g>
</svg>
