<?xml version="1.0" encoding="iso-8859-1"?>
<!-- Generator: Adobe Illustrator 18.1.1, SVG Export Plug-In . SVG Version: 6.00 Build 0)  -->
<svg version="1.1" id="Capa_1" xmlns="http://www.w3.org/2000/svg" xmlns:xlink="http://www.w3.org/1999/xlink" x="0px" y="0px"
	 viewBox="0 0 612 612" style="enable-background:new 0 0 612 612;" xml:space="preserve">
<g>
	<g>
		<path d="M515.491,347.273L365.148,299.14c-0.358-4.477-1.231-8.809-2.573-12.936c6.347-2.143,12.892-4.46,19.506-6.955
			c59.815-22.559,94.284-47.785,102.447-74.979c5.43-18.091-0.354-36.035-17.187-53.336c-13.279-13.649-42.628-34.07-43.872-34.931
			c-4.7-3.262-11.142-2.152-14.479,2.487l-92.931,129.078c-2.393-0.31-4.83-0.488-7.307-0.488c-1.705,0-3.391,0.089-5.058,0.238
			c-0.408-47.517-6.297-108.07-31.19-135.539c-9.669-10.67-21.449-16.082-35.015-16.082c0,0,0,0-0.002,0
			c-9.316,0-19.448,2.662-30.108,7.911c-13.205,6.504-33.216,20.884-42.181,27.502c-2.631,1.943-4.319,3.223-4.593,3.43
			c-2.845,2.162-4.278,5.501-4.127,8.825c0.089,1.996,0.749,3.986,2.017,5.716l97.799,133.387c-1.074,2.646-1.949,5.391-2.617,8.217
			c-31.962-10.418-72.041-20.787-105.023-20.787c-25.975,0-44.827,6.558-56.027,19.49c-9.87,11.395-13.436,27.152-10.594,46.838
			c2.725,18.844,14.467,52.61,14.967,54.039c1.504,4.315,5.553,7.029,9.891,7.029c1.09,0,2.195-0.17,3.283-0.53l159.207-52.49
			c1.763,1.711,3.631,3.318,5.606,4.791c-5.524,7.565-11.258,15.743-16.897,24.314c-35.133,53.406-48.191,94.075-38.811,120.872
			c6.243,17.83,21.471,28.95,45.262,33.052c12.286,2.12,31.687,2.565,45.802,2.565c6.125,0,10.209-0.089,10.209-0.089
			c5.716-0.122,10.28-4.804,10.255-10.522l-0.701-163.187c3.136-1.283,6.126-2.84,8.953-4.64c4.638,6.322,9.57,12.841,14.812,19.413
			c39.6,49.625,74.011,74.789,102.278,74.789c13.323,0,32.206-5.697,46.505-32.841c8.871-16.842,19.237-51.062,19.672-52.509
			C523.981,354.807,520.938,349.017,515.491,347.273z M308.75,332.711c-16.031,0-29.033-13-29.033-29.037
			c0-16.037,13.002-29.035,29.033-29.035c16.037,0,29.037,12.998,29.037,29.035C337.787,319.712,324.787,332.711,308.75,332.711z"/>
		<path d="M600.507,0H11.495C5.148,0,0.001,5.147,0.001,11.496v589.01c0,6.349,5.147,11.494,11.494,11.494h589.01
			c6.347,0,11.494-5.145,11.494-11.494V11.496C612.001,5.147,606.854,0,600.507,0z M28.154,46.968
			c0-10.389,8.424-18.815,18.817-18.815c10.397,0,18.817,8.426,18.817,18.815c0,10.397-8.42,18.817-18.817,18.817
			C36.578,65.784,28.154,57.364,28.154,46.968z M306.001,551.868c-135.785,0-245.87-110.079-245.87-245.868
			S170.216,60.132,306.001,60.132c135.783,0,245.874,110.079,245.874,245.868S441.784,551.868,306.001,551.868z M565.035,583.849
			c-10.397,0-18.817-8.426-18.817-18.817c0-10.397,8.42-18.815,18.817-18.815c10.385,0,18.813,8.42,18.813,18.815
			C583.848,575.423,575.422,583.849,565.035,583.849z"/>
	</g>
</g>
<g>
</g>
<g>
</g>
<g>
</g>
<g>
</g>
<g>
</g>
<g>
</g>
<g>
</g>
<g>
</g>
<g>
</g>
<g>
</g>
<g>
</g>
<g>
</g>
<g>
</g>
<g>
</g>
<g>
</g>
</svg>
