<?xml version="1.0" encoding="iso-8859-1"?>
<!-- Generator: Adobe Illustrator 19.0.0, SVG Export Plug-In . SVG Version: 6.00 Build 0)  -->
<svg version="1.1" id="Layer_1" xmlns="http://www.w3.org/2000/svg" xmlns:xlink="http://www.w3.org/1999/xlink" x="0px" y="0px"
	 viewBox="0 0 512.004 512.004" style="enable-background:new 0 0 512.004 512.004;" xml:space="preserve">
<g>
	<g>
		<rect x="52.411" y="464.471" width="407.185" height="47.533"/>
	</g>
</g>
<g>
	<g>
		<path d="M446.017,0H65.986C44.051,0,26.207,17.845,26.207,39.779v394.27h459.589V39.779C485.797,17.845,467.952,0,446.017,0z
			 M371.117,232.234L371.117,232.234h-78.398l21.346,21.346l38.492-0.001v30.417l-29.583,0.001v29.587h-30.417v-38.496
			l-21.347-21.347l0.001,78.398h-30.417l-0.001-78.402l-21.35,21.35l0.002,38.496l-30.417,0.002l-0.001-29.589l-29.586,0.001
			v-30.417l38.494-0.001l21.346-21.345h-78.394v-30.417h78.397l-21.347-21.347l-38.497-0.005l0.004-30.417l29.584,0.004
			l-0.001-29.587l30.417-0.002l0.002,38.5l21.347,21.347l-0.001-78.398h30.417l0.001,78.395l21.347-21.347v-38.496h30.417v29.587
			l29.587,0.001v30.417l-38.496-0.001l-21.349,21.349h78.401V232.234z"/>
	</g>
</g>
<g>
</g>
<g>
</g>
<g>
</g>
<g>
</g>
<g>
</g>
<g>
</g>
<g>
</g>
<g>
</g>
<g>
</g>
<g>
</g>
<g>
</g>
<g>
</g>
<g>
</g>
<g>
</g>
<g>
</g>
</svg>
