<?xml version="1.0" encoding="iso-8859-1"?>
<!-- Generator: Adobe Illustrator 19.0.0, SVG Export Plug-In . SVG Version: 6.00 Build 0)  -->
<svg version="1.1" id="Layer_1" xmlns="http://www.w3.org/2000/svg" xmlns:xlink="http://www.w3.org/1999/xlink" x="0px" y="0px"
	 viewBox="0 0 496 496" style="enable-background:new 0 0 496 496;" xml:space="preserve">
<g>
	<g>
		<g>
			<path d="M472,456H8c-4.416,0-8,3.584-8,8c0,4.416,3.584,8,8,8h464c4.416,0,8-3.584,8-8C480,459.584,476.416,456,472,456z"/>
			<path d="M480,40h-16c0-8.832-7.152-16-16-16c-8.848,0-16,7.168-16,16H320c-8.848,0-16,7.168-16,16v32c-8.848,0-16,7.168-16,16
				c0,8.832,7.152,16,16,16v16H112C50.256,136,0,186.24,0,248s50.256,112,112,112h19.744l-33.456,55.76
				c-4.544,7.584-2.096,17.408,5.488,21.952c2.56,1.552,5.408,2.288,8.208,2.288c5.44,0,10.736-2.768,13.728-7.76L160,375.104
				l34.288,57.136c2.992,4.992,8.288,7.76,13.728,7.76c2.8,0,5.648-0.736,8.224-2.288c7.584-4.544,10.032-14.368,5.488-21.952
				L188.256,360h103.488l-33.456,55.76c-4.544,7.584-2.096,17.408,5.488,21.952c2.56,1.552,5.408,2.288,8.208,2.288
				c5.44,0,10.736-2.768,13.728-7.76L320,375.104l34.288,57.136c2.992,4.992,8.288,7.76,13.728,7.76c2.8,0,5.648-0.736,8.224-2.288
				c7.584-4.544,10.032-14.368,5.488-21.952L348.256,360H368c61.744,0,112-50.24,112-112s-50.256-112-112-112h-32v-16
				c8.848,0,16-7.168,16-16c0-8.832-7.152-16-16-16V72h96c0,8.832,7.152,16,16,16c8.848,0,16-7.168,16-16h16c8.848,0,16-7.168,16-16
				C496,47.168,488.848,40,480,40z M106.16,327.408C64.816,324.352,32,290.112,32,248s32.816-76.352,74.16-79.408
				C92.912,216.272,92.912,279.744,106.16,327.408z M373.84,168.592C415.184,171.648,448,205.888,448,248
				s-32.816,76.352-74.16,79.408C387.088,279.728,387.088,216.256,373.84,168.592z M356.848,168c14.624,47.136,14.624,112.864,0,160
				H123.152c-14.608-47.136-14.608-112.864,0-160H356.848z"/>
			<path d="M274.352,309.648c1.552,1.568,3.6,2.352,5.648,2.352c2.048,0,4.096-0.784,5.664-2.336L304,291.312l18.336,18.336
				c1.568,1.568,3.616,2.352,5.664,2.352c2.048,0,4.096-0.784,5.664-2.336c3.12-3.12,3.12-8.192,0-11.312L315.312,280l18.336-18.336
				c3.12-3.12,3.12-8.192,0-11.312c-3.12-3.12-8.192-3.12-11.312,0L304,268.688l-18.336-18.336c-3.12-3.12-8.192-3.12-11.312,0
				c-3.12,3.12-3.12,8.192,0,11.312L292.688,280l-18.336,18.336C271.232,301.456,271.232,306.528,274.352,309.648z"/>
		</g>
	</g>
</g>
<g>
</g>
<g>
</g>
<g>
</g>
<g>
</g>
<g>
</g>
<g>
</g>
<g>
</g>
<g>
</g>
<g>
</g>
<g>
</g>
<g>
</g>
<g>
</g>
<g>
</g>
<g>
</g>
<g>
</g>
</svg>
