<?xml version="1.0" encoding="UTF-8" standalone="no"?>
<!-- Created with Inkscape (http://www.inkscape.org/) -->

<svg
   xmlns:osb="http://www.openswatchbook.org/uri/2009/osb"
   xmlns:dc="http://purl.org/dc/elements/1.1/"
   xmlns:cc="http://creativecommons.org/ns#"
   xmlns:rdf="http://www.w3.org/1999/02/22-rdf-syntax-ns#"
   xmlns:svg="http://www.w3.org/2000/svg"
   xmlns="http://www.w3.org/2000/svg"
   xmlns:xlink="http://www.w3.org/1999/xlink"
   xmlns:sodipodi="http://sodipodi.sourceforge.net/DTD/sodipodi-0.dtd"
   xmlns:inkscape="http://www.inkscape.org/namespaces/inkscape"
   width="198.64816mm"
   height="112.02647mm"
   viewBox="0 0 198.64816 112.02647"
   version="1.1"
   id="svg4548"
   inkscape:version="0.92.0 r15299"
   sodipodi:docname="gas_market.svg">
  <defs
     id="defs4542">
    <marker
       inkscape:stockid="Arrow2Mstart"
       orient="auto"
       refY="0"
       refX="0"
       id="Arrow2Mstart"
       style="overflow:visible"
       inkscape:isstock="true">
      <path
         id="path5905"
         style="fill:#000000;fill-opacity:1;fill-rule:evenodd;stroke:#000000;stroke-width:0.625;stroke-linejoin:round;stroke-opacity:1"
         d="M 8.7185878,4.0337352 -2.2072895,0.01601326 8.7185884,-4.0017078 c -1.7454984,2.3720609 -1.7354408,5.6174519 -6e-7,8.035443 z"
         transform="scale(0.6)"
         inkscape:connector-curvature="0" />
    </marker>
    <marker
       inkscape:stockid="Arrow2Mend"
       orient="auto"
       refY="0"
       refX="0"
       id="Arrow2Mend"
       style="overflow:visible"
       inkscape:isstock="true">
      <path
         id="path5908"
         style="fill:#000000;fill-opacity:1;fill-rule:evenodd;stroke:#000000;stroke-width:0.625;stroke-linejoin:round;stroke-opacity:1"
         d="M 8.7185878,4.0337352 -2.2072895,0.01601326 8.7185884,-4.0017078 c -1.7454984,2.3720609 -1.7354408,5.6174519 -6e-7,8.035443 z"
         transform="scale(-0.6)"
         inkscape:connector-curvature="0" />
    </marker>
    <marker
       inkscape:stockid="TriangleInM"
       orient="auto"
       refY="0"
       refX="0"
       id="TriangleInM"
       style="overflow:visible"
       inkscape:isstock="true">
      <path
         id="path6017"
         d="M 5.77,0 -2.88,5 V -5 Z"
         style="fill:#000000;fill-opacity:1;fill-rule:evenodd;stroke:#000000;stroke-width:1.00000003pt;stroke-opacity:1"
         transform="scale(-0.4)"
         inkscape:connector-curvature="0" />
    </marker>
    <marker
       inkscape:stockid="Arrow1Mend"
       orient="auto"
       refY="0"
       refX="0"
       id="Arrow1Mend"
       style="overflow:visible"
       inkscape:isstock="true">
      <path
         id="path5890"
         d="M 0,0 5,-5 -12.5,0 5,5 Z"
         style="fill:#000000;fill-opacity:1;fill-rule:evenodd;stroke:#000000;stroke-width:1.00000003pt;stroke-opacity:1"
         transform="matrix(-0.4,0,0,-0.4,-4,0)"
         inkscape:connector-curvature="0" />
    </marker>
    <marker
       inkscape:stockid="Arrow1Lstart"
       orient="auto"
       refY="0"
       refX="0"
       id="Arrow1Lstart"
       style="overflow:visible"
       inkscape:isstock="true">
      <path
         id="path5881"
         d="M 0,0 5,-5 -12.5,0 5,5 Z"
         style="fill:#000000;fill-opacity:1;fill-rule:evenodd;stroke:#000000;stroke-width:1.00000003pt;stroke-opacity:1"
         transform="matrix(0.8,0,0,0.8,10,0)"
         inkscape:connector-curvature="0" />
    </marker>
    <linearGradient
       id="linearGradient5839"
       osb:paint="solid">
      <stop
         style="stop-color:#000000;stop-opacity:1;"
         offset="0"
         id="stop5837" />
    </linearGradient>
    <linearGradient
       id="linearGradient5833"
       osb:paint="solid">
      <stop
         style="stop-color:#ffffff;stop-opacity:1;"
         offset="0"
         id="stop5831" />
    </linearGradient>
    <linearGradient
       id="linearGradient5765"
       osb:paint="solid">
      <stop
         style="stop-color:#000000;stop-opacity:1;"
         offset="0"
         id="stop5763" />
    </linearGradient>
    <linearGradient
       id="linearGradient5759"
       osb:paint="solid">
      <stop
         style="stop-color:#ffffff;stop-opacity:1;"
         offset="0"
         id="stop5757" />
    </linearGradient>
    <linearGradient
       id="linearGradient5751"
       osb:paint="solid">
      <stop
         style="stop-color:#000000;stop-opacity:1;"
         offset="0"
         id="stop5749" />
    </linearGradient>
    <linearGradient
       inkscape:collect="always"
       xlink:href="#linearGradient5751"
       id="linearGradient5753"
       x1="114.72991"
       y1="305.99942"
       x2="497.26907"
       y2="305.99942"
       gradientUnits="userSpaceOnUse" />
    <linearGradient
       inkscape:collect="always"
       xlink:href="#linearGradient5751"
       id="linearGradient4639"
       gradientUnits="userSpaceOnUse"
       x1="114.72991"
       y1="305.99942"
       x2="497.26907"
       y2="305.99942" />
  </defs>
  <sodipodi:namedview
     id="base"
     pagecolor="#ffffff"
     bordercolor="#666666"
     borderopacity="1.0"
     inkscape:pageopacity="0.0"
     inkscape:pageshadow="2"
     inkscape:zoom="0.63743781"
     inkscape:cx="487.58755"
     inkscape:cy="161.81828"
     inkscape:document-units="mm"
     inkscape:current-layer="layer1"
     showgrid="false"
     inkscape:window-width="1920"
     inkscape:window-height="1005"
     inkscape:window-x="-9"
     inkscape:window-y="-9"
     inkscape:window-maximized="1"
     fit-margin-top="0"
     fit-margin-left="0"
     fit-margin-right="0"
     fit-margin-bottom="0" />
  <metadata
     id="metadata4545">
    <rdf:RDF>
      <cc:Work
         rdf:about="">
        <dc:format>image/svg+xml</dc:format>
        <dc:type
           rdf:resource="http://purl.org/dc/dcmitype/StillImage" />
        <dc:title></dc:title>
      </cc:Work>
    </rdf:RDF>
  </metadata>
  <g
     inkscape:label="Layer 1"
     inkscape:groupmode="layer"
     id="layer1"
     transform="translate(-2.1193528,-88.472505)">
    <flowRoot
       xml:space="preserve"
       id="flowRoot5843"
       style="font-style:normal;font-weight:normal;font-size:40px;line-height:25px;font-family:sans-serif;letter-spacing:0px;word-spacing:0px;fill:#000000;fill-opacity:1;stroke:none"
       transform="scale(0.26458333)"><flowRegion
         id="flowRegion5845"><rect
           id="rect5847"
           width="78.791901"
           height="92.428955"
           x="241.93153"
           y="338.6413" /></flowRegion><flowPara
         id="flowPara5849" /></flowRoot>    <flowRoot
       xml:space="preserve"
       id="flowRoot5851"
       style="font-style:normal;font-weight:normal;font-size:40px;line-height:25px;font-family:sans-serif;letter-spacing:0px;word-spacing:0px;fill:#000000;fill-opacity:1;stroke:none"><flowRegion
         id="flowRegion5853"><rect
           id="rect5855"
           width="62.675186"
           height="104.82841"
           x="259.5751"
           y="337.69327" /></flowRegion><flowPara
         id="flowPara5857" /></flowRoot>    <flowRoot
       xml:space="preserve"
       id="flowRoot5859"
       style="font-style:normal;font-weight:normal;font-size:40px;line-height:25px;font-family:sans-serif;letter-spacing:0px;word-spacing:0px;fill:#000000;fill-opacity:1;stroke:none"
       transform="scale(0.26458333)"><flowRegion
         id="flowRegion5861"><rect
           id="rect5863"
           width="121.46783"
           height="115.36671"
           x="230.17877"
           y="327.70959" /></flowRegion><flowPara
         id="flowPara5865" /></flowRoot>    <g
       id="g4679">
      <g
         transform="matrix(0.35924847,0,0,0.29503321,2.1193528,110.04088)"
         id="g28">
        <g
           id="g26">
          <g
             id="g24">
            <path
               id="path2"
               d="M 270.834,243.333 H 254.82 v -2.499 c 0,-4.142 -3.357,-7.5 -7.5,-7.5 -4.143,0 -7.5,3.358 -7.5,7.5 v 2.499 h -39.955 v -2.499 c 0,-4.142 -3.357,-7.5 -7.5,-7.5 -4.143,0 -7.5,3.358 -7.5,7.5 v 2.499 H 144.91 v -2.499 c 0,-4.142 -3.357,-7.5 -7.5,-7.5 -4.143,0 -7.5,3.358 -7.5,7.5 v 2.499 H 89.955 v -2.499 c 0,-4.142 -3.357,-7.5 -7.5,-7.5 -4.143,0 -7.5,3.358 -7.5,7.5 v 2.499 H 35 v -91.636 l 39.964,-12.363 c 0.09,4.063 3.406,7.332 7.492,7.332 4.143,0 7.5,-3.358 7.5,-7.5 v -6.895 L 132.43,89.762 c 3.456,3.078 8.791,2.323 11.282,-1.538 l 41.154,30.703 v 6.239 c 0,4.142 3.357,7.5 7.5,7.5 4.143,0 7.5,-3.358 7.5,-7.5 v -6.239 l 40.798,-30.438 5.828,7.644 c 2.473,3.244 7.531,2.594 9.103,-1.17 l 14.109,-33.767 c 1.573,-3.764 -1.519,-7.819 -5.565,-7.299 l -36.298,4.665 c -4.046,0.52 -6.012,5.225 -3.538,8.469 l 7.266,9.53 -39.203,29.248 -50.47,-37.654 c -2.973,-2.218 -7.158,-1.919 -9.787,0.706 -0.001,10e-4 -0.002,10e-4 -0.002,0.002 -0.001,0.001 -0.002,0.001 -0.002,0.002 L 78.463,122.55 35,135.995 V 7.5 C 35,3.359 31.643,0 27.5,0 23.357,0 20,3.357 20,7.5 c 0,6.017 0,225.639 0,235.833 H 7.5 c -4.143,0 -7.5,3.358 -7.5,7.5 0,4.142 3.357,7.5 7.5,7.5 H 20 v 12.5 c 0,4.142 3.357,7.5 7.5,7.5 4.143,0 7.5,-3.358 7.5,-7.5 v -12.5 c 20.179,0 225.585,0 235.834,0 4.143,0 7.5,-3.358 7.5,-7.5 0,-4.143 -3.357,-7.5 -7.5,-7.5 z"
               inkscape:connector-curvature="0" />
            <path
               id="path4"
               d="m 89.955,159.5 c 0,-4.142 -3.357,-7.5 -7.5,-7.5 -4.143,0 -7.5,3.358 -7.5,7.5 v 20.333 c 0,4.142 3.357,7.5 7.5,7.5 4.143,0 7.5,-3.358 7.5,-7.5 z"
               inkscape:connector-curvature="0" />
            <path
               id="path6"
               d="m 82.455,192.666 c -4.143,0 -7.5,3.358 -7.5,7.5 v 20.333 c 0,4.142 3.357,7.5 7.5,7.5 4.143,0 7.5,-3.358 7.5,-7.5 v -20.333 c 0,-4.142 -3.357,-7.5 -7.5,-7.5 z"
               inkscape:connector-curvature="0" />
            <path
               id="path8"
               d="m 144.91,151.309 c 0,-4.142 -3.357,-7.5 -7.5,-7.5 -4.143,0 -7.5,3.358 -7.5,7.5 v 22.381 c 0,4.142 3.357,7.5 7.5,7.5 4.143,0 7.5,-3.358 7.5,-7.5 z"
               inkscape:connector-curvature="0" />
            <path
               id="path10"
               d="m 144.91,106.547 c 0,-4.142 -3.357,-7.5 -7.5,-7.5 -4.143,0 -7.5,3.358 -7.5,7.5 v 22.381 c 0,4.142 3.357,7.5 7.5,7.5 4.143,0 7.5,-3.358 7.5,-7.5 z"
               inkscape:connector-curvature="0" />
            <path
               id="path12"
               d="m 137.41,188.572 c -4.143,0 -7.5,3.358 -7.5,7.5 v 22.381 c 0,4.142 3.357,7.5 7.5,7.5 4.143,0 7.5,-3.358 7.5,-7.5 v -22.381 c 0,-4.143 -3.357,-7.5 -7.5,-7.5 z"
               inkscape:connector-curvature="0" />
            <path
               id="path14"
               d="m 192.365,187.067 c -4.143,0 -7.5,3.358 -7.5,7.5 V 217.7 c 0,4.142 3.357,7.5 7.5,7.5 4.143,0 7.5,-3.358 7.5,-7.5 v -23.133 c 0,-4.143 -3.357,-7.5 -7.5,-7.5 z"
               inkscape:connector-curvature="0" />
            <path
               id="path16"
               d="m 199.865,148.299 c 0,-4.142 -3.357,-7.5 -7.5,-7.5 -4.143,0 -7.5,3.358 -7.5,7.5 v 23.133 c 0,4.142 3.357,7.5 7.5,7.5 4.143,0 7.5,-3.358 7.5,-7.5 z"
               inkscape:connector-curvature="0" />
            <path
               id="path18"
               d="m 254.82,151.309 c 0,-4.142 -3.357,-7.5 -7.5,-7.5 -4.143,0 -7.5,3.358 -7.5,7.5 v 22.381 c 0,4.142 3.357,7.5 7.5,7.5 4.143,0 7.5,-3.358 7.5,-7.5 z"
               inkscape:connector-curvature="0" />
            <path
               id="path20"
               d="m 247.32,188.572 c -4.143,0 -7.5,3.358 -7.5,7.5 v 22.381 c 0,4.142 3.357,7.5 7.5,7.5 4.143,0 7.5,-3.358 7.5,-7.5 v -22.381 c 0,-4.143 -3.357,-7.5 -7.5,-7.5 z"
               inkscape:connector-curvature="0" />
            <path
               id="path22"
               d="m 254.82,106.547 c 0,-4.142 -3.357,-7.5 -7.5,-7.5 -4.143,0 -7.5,3.358 -7.5,7.5 v 22.381 c 0,4.142 3.357,7.5 7.5,7.5 4.143,0 7.5,-3.358 7.5,-7.5 z"
               inkscape:connector-curvature="0" />
          </g>
        </g>
      </g>
      <g
         style="stroke:url(#linearGradient5753)"
         id="g5149"
         transform="matrix(0.23558646,0,0,0.18275425,83.499843,88.563299)">
        <path
           style="stroke:url(#linearGradient4639)"
           id="path5147"
           d="m 216.02,611.195 c 5.978,3.178 12.284,-3.704 8.624,-9.4 -19.866,-30.919 -38.678,-82.947 -8.706,-149.952 49.982,-111.737 80.396,-169.609 80.396,-169.609 0,0 16.177,67.536 60.029,127.585 42.205,57.793 65.306,130.478 28.064,191.029 -3.495,5.683 2.668,12.388 8.607,9.349 46.1,-23.582 97.806,-70.885 103.64,-165.017 2.151,-28.764 -1.075,-69.034 -17.206,-119.851 -20.741,-64.406 -46.239,-94.459 -60.992,-107.365 -4.413,-3.861 -11.276,-0.439 -10.914,5.413 4.299,69.494 -21.845,87.129 -36.726,47.386 -5.943,-15.874 -9.409,-43.33 -9.409,-76.766 0,-55.665 -16.15,-112.967 -51.755,-159.531 -9.259,-12.109 -20.093,-23.424 -32.523,-33.073 -4.5,-3.494 -11.023,0.018 -10.611,5.7 2.734,37.736 0.257,145.885 -94.624,275.089 -86.029,119.851 -52.693,211.896 -40.864,236.826 22.616,47.759 54.162,75.806 84.97,92.187 z"
           inkscape:connector-curvature="0" />
      </g>
    </g>
  </g>
</svg>
