<?xml version="1.0" encoding="iso-8859-1"?>
<!-- Generator: Adobe Illustrator 19.0.0, SVG Export Plug-In . SVG Version: 6.00 Build 0)  -->
<svg version="1.1" id="Layer_1" xmlns="http://www.w3.org/2000/svg" xmlns:xlink="http://www.w3.org/1999/xlink" x="0px" y="0px"
	 viewBox="0 0 512 512" style="enable-background:new 0 0 512 512;" xml:space="preserve">
<circle style="fill:#E6F3FF;" cx="256" cy="256" r="256"/>
<path style="fill:#CFDBE6;" d="M329.778,501.189c93.718-28.162,164.814-108.57,179.44-207.394L308.474,93.053l-14.591,21.637
	l-33.58-33.58l-1.141,6.809l-7.344,30.196l90.331,92.108l-21.249-8.395L212.023,92.965l4.751,29.053l105.674,105.674l-28.458,13.883
	l-56.353-56.353l-8.326,29.087l-23.018,39.681l-60.709,63.007L329.778,501.189z"/>
<path style="fill:#FD5790;" d="M100.848,235.313c0-42.844,34.732-77.576,77.576-77.576S256,192.469,256,235.313
	c0-42.844,34.732-77.576,77.576-77.576s77.576,34.732,77.576,77.576c0,74.18-155.152,162.909-155.152,162.909
	S100.848,313.673,100.848,235.313z"/>
<path style="fill:#C75163;" d="M256,235.313c0-42.844,34.732-77.576,77.576-77.576s77.576,34.732,77.576,77.576
	c0,74.18-155.152,162.909-155.152,162.909V235.313z"/>
<path style="fill:#FFD15D;" d="M256,119.811c-3.332,0-6.034-2.701-6.034-6.034V85.333c0-3.332,2.701-6.034,6.034-6.034
	s6.034,2.701,6.034,6.034v28.444C262.034,117.11,259.332,119.811,256,119.811z"/>
<path style="fill:#F9B54C;" d="M256,79.3c3.332,0,6.034,2.701,6.034,6.034v28.444c0,3.332-2.701,6.034-6.034,6.034V79.3z"/>
<path style="fill:#FFD15D;" d="M221.527,124.323c-1.969,0-3.898-0.962-5.056-2.732L202.68,100.5
	c-1.824-2.788-1.041-6.527,1.75-8.352c2.788-1.82,6.527-1.041,8.352,1.75l13.791,21.09c1.824,2.788,1.041,6.527-1.75,8.352
	C223.804,124.006,222.66,124.323,221.527,124.323z"/>
<path style="fill:#F9B54C;" d="M290.473,124.323c-1.133,0-2.277-0.319-3.296-0.983c-2.789-1.826-3.572-5.565-1.75-8.352
	l13.791-21.09c1.826-2.791,5.565-3.57,8.352-1.75c2.789,1.826,3.572,5.565,1.75,8.352l-13.791,21.09
	C294.371,123.363,292.442,124.323,290.473,124.323z"/>
<g>
</g>
<g>
</g>
<g>
</g>
<g>
</g>
<g>
</g>
<g>
</g>
<g>
</g>
<g>
</g>
<g>
</g>
<g>
</g>
<g>
</g>
<g>
</g>
<g>
</g>
<g>
</g>
<g>
</g>
</svg>
