<?xml version="1.0" encoding="UTF-8" standalone="no"?>
<!-- Generator: Adobe Illustrator 19.0.0, SVG Export Plug-In . SVG Version: 6.00 Build 0)  -->

<svg
   xmlns:dc="http://purl.org/dc/elements/1.1/"
   xmlns:cc="http://creativecommons.org/ns#"
   xmlns:rdf="http://www.w3.org/1999/02/22-rdf-syntax-ns#"
   xmlns:svg="http://www.w3.org/2000/svg"
   xmlns="http://www.w3.org/2000/svg"
   xmlns:sodipodi="http://sodipodi.sourceforge.net/DTD/sodipodi-0.dtd"
   xmlns:inkscape="http://www.inkscape.org/namespaces/inkscape"
   version="1.1"
   id="Capa_1"
   x="0px"
   y="0px"
   viewBox="0 0 100.221 100.221"
   style="enable-background:new 0 0 100.221 100.221;"
   xml:space="preserve"
   sodipodi:docname="heat.svg"
   inkscape:version="0.92.0 r15299"><metadata
     id="metadata42"><rdf:RDF><cc:Work
         rdf:about=""><dc:format>image/svg+xml</dc:format><dc:type
           rdf:resource="http://purl.org/dc/dcmitype/StillImage" /></cc:Work></rdf:RDF></metadata><defs
     id="defs40" /><sodipodi:namedview
     pagecolor="#ffffff"
     bordercolor="#666666"
     borderopacity="1"
     objecttolerance="10"
     gridtolerance="10"
     guidetolerance="10"
     inkscape:pageopacity="0"
     inkscape:pageshadow="2"
     inkscape:window-width="1920"
     inkscape:window-height="1005"
     id="namedview38"
     showgrid="false"
     inkscape:zoom="2.3547959"
     inkscape:cx="50.1105"
     inkscape:cy="50.1105"
     inkscape:window-x="-9"
     inkscape:window-y="-9"
     inkscape:window-maximized="1"
     inkscape:current-layer="Capa_1" /><g
     id="_x30_203-wind-breeze-icon"
     style="opacity:1;stroke:#000000;stroke-opacity:1;fill:#000000;fill-opacity:1"><g
       id="g4"
       style="stroke:#000000;stroke-opacity:1;fill:#000000;fill-opacity:1"><path
         style="fill-rule:evenodd;clip-rule:evenodd;stroke:#000000;stroke-opacity:1;fill:#000000;fill-opacity:1"
         d="M1.302,37.69c1.176,0.846,1.908-2.488,2.304-3.125    c1.24-2,3.652-3.107,5.551-4.368c3.341-2.222,8.944-3.671,12.921-3.565c5.645-0.1,11.828-0.954,17.34,0.755    c4.401,1.364,8.968,2.309,13.428,3.721c5.014,1.588,9.979,3.351,15.143,4.413c2.858,0.586,5.757,0.964,8.672,1.103    c2.249,0.106,4.522-0.526,6.739-0.274c1.715-1.169,4.336-0.971,5.697-2.68c2.097-0.615,3.509-2.308,5.362-3.351    c1.264-0.711,7.025-8.416,5.343-10.373c-0.075-0.088-0.164-0.164-0.269-0.227c-1.03-0.619-2.754,2.546-3.537,3.284    c-1.877,1.769-3.858,3.351-6.081,4.671c-4.701,2.791-9.126,3.209-14.485,2.517c-9.539-1.23-18.631-4.454-27.72-7.222    c-10.069-3.065-21.017-3.438-31.33-1.5c-4.278,0.805-10.049,3.029-12.628,6.719C2.418,30.098-2.177,35.42,1.302,37.69z     M99.743,41.832c-0.987-0.505-3.215,2.42-3.825,3.015c-1.597,1.556-3.331,2.979-5.229,4.154c-4.366,2.7-8.358,3.098-13.368,3.098    c-10.285,0-20.808-4.959-30.629-7.637c-10.148-2.766-21.245-3.329-31.524-0.949c-4.557,1.056-9.309,3.373-11.984,7.284    c-1.265,1.85-5.105,6.571-1.882,8.675c1.176,0.846,1.908-2.488,2.304-3.125c1.24-2,3.652-3.106,5.551-4.369    c3.341-2.223,8.944-3.672,12.921-3.565c5.645-0.1,11.828-0.955,17.34,0.754c4.401,1.365,8.968,2.309,13.428,3.721    c5.014,1.588,9.979,3.35,15.143,4.413c2.858,0.587,5.757,0.965,8.672,1.103c2.249,0.107,4.522-0.525,6.739-0.274    c1.715-1.169,4.336-0.971,5.697-2.681c2.097-0.614,3.509-2.305,5.362-3.35c1.858-1.047,6.153-7.199,5.697-9.549    C100.079,42.155,99.934,41.928,99.743,41.832z M99.996,62.982c-0.087-0.165-0.183-0.29-0.286-0.379    c-1.133-0.976-3.145,2.404-3.931,3.167c-1.69,1.641-3.559,3.095-5.582,4.304c-4.856,2.897-10.443,3.07-15.928,2.436    c-9.474-1.092-18.18-5.051-27.421-7.13c-4.074-0.917-7.824-2.044-12.074-2.223c-5.448-0.232-10.619-0.396-16.046,0.452    c-2.724,0.425-5.439,1.045-7.994,2.1c-2.229,0.919-3.964,2.716-5.779,4.283c-1.953,1.684-8.062,8.769-2.982,10.588    C5.007,71.388,17.83,68.85,26.466,68.846c5.715-0.005,11.223,0.42,16.746,1.903c4.428,1.188,8.752,2.714,13.113,4.125    c8.481,2.742,19.806,6.44,28.493,3.355c3.698-1.313,7.31-3.257,10.211-5.922C96.601,70.861,101.298,65.469,99.996,62.982z"
         id="path2" /></g></g><g
     id="g7" /><g
     id="g9" /><g
     id="g11" /><g
     id="g13" /><g
     id="g15" /><g
     id="g17" /><g
     id="g19" /><g
     id="g21" /><g
     id="g23" /><g
     id="g25" /><g
     id="g27" /><g
     id="g29" /><g
     id="g31" /><g
     id="g33" /><g
     id="g35" /></svg>