<?xml version="1.0" encoding="UTF-8" standalone="no"?>
<!-- Created with Inkscape (http://www.inkscape.org/) -->

<svg
   xmlns:dc="http://purl.org/dc/elements/1.1/"
   xmlns:cc="http://creativecommons.org/ns#"
   xmlns:rdf="http://www.w3.org/1999/02/22-rdf-syntax-ns#"
   xmlns:svg="http://www.w3.org/2000/svg"
   xmlns="http://www.w3.org/2000/svg"
   xmlns:sodipodi="http://sodipodi.sourceforge.net/DTD/sodipodi-0.dtd"
   xmlns:inkscape="http://www.inkscape.org/namespaces/inkscape"
   width="190.28438mm"
   height="154.74529mm"
   viewBox="0 0 190.28438 154.74529"
   version="1.1"
   id="svg8"
   inkscape:version="0.92.0 r15299"
   sodipodi:docname="heat_grid_2.svg">
  <defs
     id="defs2" />
  <sodipodi:namedview
     id="base"
     pagecolor="#ffffff"
     bordercolor="#666666"
     borderopacity="1.0"
     inkscape:pageopacity="0.0"
     inkscape:pageshadow="2"
     inkscape:zoom="0.49497475"
     inkscape:cx="-421.38539"
     inkscape:cy="334.62552"
     inkscape:document-units="mm"
     inkscape:current-layer="layer1"
     showgrid="false"
     inkscape:window-width="1920"
     inkscape:window-height="1005"
     inkscape:window-x="-9"
     inkscape:window-y="-9"
     inkscape:window-maximized="1"
     fit-margin-top="0"
     fit-margin-left="0"
     fit-margin-right="0"
     fit-margin-bottom="0" />
  <metadata
     id="metadata5">
    <rdf:RDF>
      <cc:Work
         rdf:about="">
        <dc:format>image/svg+xml</dc:format>
        <dc:type
           rdf:resource="http://purl.org/dc/dcmitype/StillImage" />
        <dc:title></dc:title>
      </cc:Work>
    </rdf:RDF>
  </metadata>
  <g
     inkscape:label="Layer 1"
     inkscape:groupmode="layer"
     id="layer1"
     transform="translate(-10.775799,-61.186742)">
    <ellipse
       ry="20.762691"
       rx="20.960342"
       cx="42.598942"
       cy="195.33089"
       id="ellipse7634"
       style="opacity:1;stroke-width:0.52461505;stroke-miterlimit:4;stroke-dasharray:none;stroke-dashoffset:0" />
    <ellipse
       ry="20.762691"
       rx="20.960342"
       cx="136.1123"
       cy="81.949432"
       id="ellipse7634-4"
       style="opacity:1;stroke-width:0.52461505;stroke-miterlimit:4;stroke-dasharray:none;stroke-dashoffset:0" />
    <ellipse
       ry="20.762691"
       rx="20.960342"
       cx="180.09984"
       cy="195.32549"
       id="ellipse7634-1"
       style="opacity:1;stroke-width:0.52461505;stroke-miterlimit:4;stroke-dasharray:none;stroke-dashoffset:0" />
    <path
       style="fill:none;fill-rule:evenodd;stroke:#000000;stroke-width:1.00907707px;stroke-linecap:butt;stroke-linejoin:miter;stroke-opacity:1"
       d="m 42.598942,194.80173 v 0"
       id="path4527"
       inkscape:connector-type="polyline"
       inkscape:connector-curvature="0"
       inkscape:connection-start="#ellipse7634"
       inkscape:connection-end="#ellipse7634" />
    <path
       style="fill:none;stroke:#000000;stroke-width:2.55038071;stroke-linecap:butt;stroke-linejoin:miter;stroke-miterlimit:4;stroke-dasharray:5.1007615, 2.55038079;stroke-dashoffset:0;stroke-opacity:1"
       d="m 10.786959,140.76495 185.742001,-1.47039 v 0"
       id="path4498"
       inkscape:connector-curvature="0" />
    <path
       style="fill:none;fill-rule:evenodd;stroke:#000000;stroke-width:2.65912271;stroke-linecap:butt;stroke-linejoin:miter;stroke-miterlimit:4;stroke-dasharray:5.31824574, 2.65912289;stroke-dashoffset:0;stroke-opacity:1"
       d="m 179.71689,174.56665 -0.67697,-35.76222"
       id="path4502"
       inkscape:connector-type="polyline"
       inkscape:connector-curvature="0"
       inkscape:connection-start="#ellipse7634-1" />
    <path
       style="fill:none;fill-rule:evenodd;stroke:#000000;stroke-width:2.65912271;stroke-linecap:butt;stroke-linejoin:miter;stroke-miterlimit:4;stroke-dasharray:5.31824574, 2.65912289;stroke-dashoffset:0;stroke-opacity:1"
       d="M 42.490785,174.56885 42.307462,140.27482"
       id="path4504"
       inkscape:connector-type="polyline"
       inkscape:connector-curvature="0"
       inkscape:connection-start="#ellipse7634" />
    <ellipse
       ry="20.762691"
       rx="20.960342"
       cx="108.5538"
       cy="195.16934"
       id="ellipse7634-6"
       style="opacity:1;stroke-width:0.52461505;stroke-miterlimit:4;stroke-dasharray:none;stroke-dashoffset:0" />
    <path
       style="display:inline;fill:none;fill-rule:evenodd;stroke:#000000;stroke-width:2.65912271;stroke-linecap:butt;stroke-linejoin:miter;stroke-miterlimit:4;stroke-dasharray:5.31824574, 2.65912289;stroke-dashoffset:0;stroke-opacity:1"
       d="m 108.55381,174.40665 1e-5,-33.6417"
       id="path4523"
       inkscape:connector-type="polyline"
       inkscape:connector-curvature="0"
       inkscape:connection-start="#ellipse7634-6" />
    <path
       style="fill:none;fill-rule:evenodd;stroke:#000000;stroke-width:1.00907707px;stroke-linecap:butt;stroke-linejoin:miter;stroke-opacity:1"
       d="m 32.123697,74.738863 v 0"
       id="path4525"
       inkscape:connector-type="polyline"
       inkscape:connector-curvature="0" />
    <path
       style="fill:none;fill-rule:evenodd;stroke:#000000;stroke-width:2.65912271;stroke-linecap:butt;stroke-linejoin:miter;stroke-miterlimit:4;stroke-dasharray:5.31824574, 2.65912289;stroke-dashoffset:0;stroke-opacity:1"
       d="m 136.88593,102.69796 1.34625,36.10647"
       id="path4530"
       inkscape:connector-type="polyline"
       inkscape:connector-curvature="0"
       inkscape:connection-start="#ellipse7634-4" />
    <g
       transform="matrix(0.90848615,0,0,0.66518643,12.269157,63.058801)"
       id="_x30_203-wind-breeze-icon">
      <g
         id="g4">
        <path
           inkscape:connector-curvature="0"
           style="clip-rule:evenodd;fill-rule:evenodd"
           d="m 1.302,37.69 c 1.176,0.846 1.908,-2.488 2.304,-3.125 1.24,-2 3.652,-3.107 5.551,-4.368 3.341,-2.222 8.944,-3.671 12.921,-3.565 5.645,-0.1 11.828,-0.954 17.34,0.755 4.401,1.364 8.968,2.309 13.428,3.721 5.014,1.588 9.979,3.351 15.143,4.413 2.858,0.586 5.757,0.964 8.672,1.103 2.249,0.106 4.522,-0.526 6.739,-0.274 1.715,-1.169 4.336,-0.971 5.697,-2.68 2.097,-0.615 3.509,-2.308 5.362,-3.351 1.264,-0.711 7.025,-8.416 5.343,-10.373 -0.075,-0.088 -0.164,-0.164 -0.269,-0.227 -1.03,-0.619 -2.754,2.546 -3.537,3.284 -1.877,1.769 -3.858,3.351 -6.081,4.671 -4.701,2.791 -9.126,3.209 -14.485,2.517 -9.539,-1.23 -18.631,-4.454 -27.72,-7.222 -10.069,-3.065 -21.017,-3.438 -31.33,-1.5 -4.278,0.805 -10.049,3.029 -12.628,6.719 -1.334,1.91 -5.929,7.232 -2.45,9.502 z m 98.441,4.142 c -0.987,-0.505 -3.215,2.42 -3.825,3.015 -1.597,1.556 -3.331,2.979 -5.229,4.154 -4.366,2.7 -8.358,3.098 -13.368,3.098 -10.285,0 -20.808,-4.959 -30.629,-7.637 -10.148,-2.766 -21.245,-3.329 -31.524,-0.949 -4.557,1.056 -9.309,3.373 -11.984,7.284 -1.265,1.85 -5.105,6.571 -1.882,8.675 1.176,0.846 1.908,-2.488 2.304,-3.125 1.24,-2 3.652,-3.106 5.551,-4.369 3.341,-2.223 8.944,-3.672 12.921,-3.565 5.645,-0.1 11.828,-0.955 17.34,0.754 4.401,1.365 8.968,2.309 13.428,3.721 5.014,1.588 9.979,3.35 15.143,4.413 2.858,0.587 5.757,0.965 8.672,1.103 2.249,0.107 4.522,-0.525 6.739,-0.274 1.715,-1.169 4.336,-0.971 5.697,-2.681 2.097,-0.614 3.509,-2.305 5.362,-3.35 1.858,-1.047 6.153,-7.199 5.697,-9.549 -0.077,-0.395 -0.222,-0.622 -0.413,-0.718 z m 0.253,21.15 c -0.087,-0.165 -0.183,-0.29 -0.286,-0.379 -1.133,-0.976 -3.145,2.404 -3.931,3.167 -1.69,1.641 -3.559,3.095 -5.582,4.304 -4.856,2.897 -10.443,3.07 -15.928,2.436 -9.474,-1.092 -18.18,-5.051 -27.421,-7.13 -4.074,-0.917 -7.824,-2.044 -12.074,-2.223 -5.448,-0.232 -10.619,-0.396 -16.046,0.452 -2.724,0.425 -5.439,1.045 -7.994,2.1 C 8.505,66.628 6.77,68.425 4.955,69.992 3.002,71.676 -3.107,78.761 1.973,80.58 5.007,71.388 17.83,68.85 26.466,68.846 c 5.715,-0.005 11.223,0.42 16.746,1.903 4.428,1.188 8.752,2.714 13.113,4.125 8.481,2.742 19.806,6.44 28.493,3.355 3.698,-1.313 7.31,-3.257 10.211,-5.922 1.572,-1.446 6.269,-6.838 4.967,-9.325 z"
           id="path2" />
      </g>
    </g>
  </g>
  <g
     inkscape:groupmode="layer"
     id="layer2"
     inkscape:label="Layer 2"
     transform="translate(-10.775799,-61.186742)" />
</svg>
