<?xml version="1.0" encoding="UTF-8" standalone="no"?>
<!-- Created with Inkscape (http://www.inkscape.org/) -->

<svg
   xmlns:osb="http://www.openswatchbook.org/uri/2009/osb"
   xmlns:dc="http://purl.org/dc/elements/1.1/"
   xmlns:cc="http://creativecommons.org/ns#"
   xmlns:rdf="http://www.w3.org/1999/02/22-rdf-syntax-ns#"
   xmlns:svg="http://www.w3.org/2000/svg"
   xmlns="http://www.w3.org/2000/svg"
   xmlns:sodipodi="http://sodipodi.sourceforge.net/DTD/sodipodi-0.dtd"
   xmlns:inkscape="http://www.inkscape.org/namespaces/inkscape"
   width="180.94611mm"
   height="86.297997mm"
   viewBox="0 0 180.9461 86.297997"
   version="1.1"
   id="svg4548"
   inkscape:version="0.92.0 r15299"
   sodipodi:docname="heat_market.svg">
  <defs
     id="defs4542">
    <marker
       inkscape:stockid="Arrow2Mstart"
       orient="auto"
       refY="0"
       refX="0"
       id="Arrow2Mstart"
       style="overflow:visible"
       inkscape:isstock="true">
      <path
         id="path5905"
         style="fill:#000000;fill-opacity:1;fill-rule:evenodd;stroke:#000000;stroke-width:0.625;stroke-linejoin:round;stroke-opacity:1"
         d="M 8.7185878,4.0337352 -2.2072895,0.01601326 8.7185884,-4.0017078 c -1.7454984,2.3720609 -1.7354408,5.6174519 -6e-7,8.035443 z"
         transform="scale(0.6)"
         inkscape:connector-curvature="0" />
    </marker>
    <marker
       inkscape:stockid="Arrow2Mend"
       orient="auto"
       refY="0"
       refX="0"
       id="Arrow2Mend"
       style="overflow:visible"
       inkscape:isstock="true">
      <path
         id="path5908"
         style="fill:#000000;fill-opacity:1;fill-rule:evenodd;stroke:#000000;stroke-width:0.625;stroke-linejoin:round;stroke-opacity:1"
         d="M 8.7185878,4.0337352 -2.2072895,0.01601326 8.7185884,-4.0017078 c -1.7454984,2.3720609 -1.7354408,5.6174519 -6e-7,8.035443 z"
         transform="scale(-0.6)"
         inkscape:connector-curvature="0" />
    </marker>
    <marker
       inkscape:stockid="TriangleInM"
       orient="auto"
       refY="0"
       refX="0"
       id="TriangleInM"
       style="overflow:visible"
       inkscape:isstock="true">
      <path
         id="path6017"
         d="M 5.77,0 -2.88,5 V -5 Z"
         style="fill:#000000;fill-opacity:1;fill-rule:evenodd;stroke:#000000;stroke-width:1.00000003pt;stroke-opacity:1"
         transform="scale(-0.4)"
         inkscape:connector-curvature="0" />
    </marker>
    <marker
       inkscape:stockid="Arrow1Mend"
       orient="auto"
       refY="0"
       refX="0"
       id="Arrow1Mend"
       style="overflow:visible"
       inkscape:isstock="true">
      <path
         id="path5890"
         d="M 0,0 5,-5 -12.5,0 5,5 Z"
         style="fill:#000000;fill-opacity:1;fill-rule:evenodd;stroke:#000000;stroke-width:1.00000003pt;stroke-opacity:1"
         transform="matrix(-0.4,0,0,-0.4,-4,0)"
         inkscape:connector-curvature="0" />
    </marker>
    <marker
       inkscape:stockid="Arrow1Lstart"
       orient="auto"
       refY="0"
       refX="0"
       id="Arrow1Lstart"
       style="overflow:visible"
       inkscape:isstock="true">
      <path
         id="path5881"
         d="M 0,0 5,-5 -12.5,0 5,5 Z"
         style="fill:#000000;fill-opacity:1;fill-rule:evenodd;stroke:#000000;stroke-width:1.00000003pt;stroke-opacity:1"
         transform="matrix(0.8,0,0,0.8,10,0)"
         inkscape:connector-curvature="0" />
    </marker>
    <linearGradient
       id="linearGradient5839"
       osb:paint="solid">
      <stop
         style="stop-color:#000000;stop-opacity:1;"
         offset="0"
         id="stop5837" />
    </linearGradient>
    <linearGradient
       id="linearGradient5833"
       osb:paint="solid">
      <stop
         style="stop-color:#ffffff;stop-opacity:1;"
         offset="0"
         id="stop5831" />
    </linearGradient>
    <linearGradient
       id="linearGradient5765"
       osb:paint="solid">
      <stop
         style="stop-color:#000000;stop-opacity:1;"
         offset="0"
         id="stop5763" />
    </linearGradient>
    <linearGradient
       id="linearGradient5759"
       osb:paint="solid">
      <stop
         style="stop-color:#ffffff;stop-opacity:1;"
         offset="0"
         id="stop5757" />
    </linearGradient>
    <linearGradient
       id="linearGradient5751"
       osb:paint="solid">
      <stop
         style="stop-color:#000000;stop-opacity:1;"
         offset="0"
         id="stop5749" />
    </linearGradient>
  </defs>
  <sodipodi:namedview
     id="base"
     pagecolor="#ffffff"
     bordercolor="#666666"
     borderopacity="1.0"
     inkscape:pageopacity="0.0"
     inkscape:pageshadow="2"
     inkscape:zoom="0.63743781"
     inkscape:cx="202.28444"
     inkscape:cy="195.1136"
     inkscape:document-units="mm"
     inkscape:current-layer="g4596"
     showgrid="false"
     inkscape:window-width="1920"
     inkscape:window-height="1005"
     inkscape:window-x="-9"
     inkscape:window-y="-9"
     inkscape:window-maximized="1"
     fit-margin-top="0"
     fit-margin-left="0"
     fit-margin-right="0"
     fit-margin-bottom="0" />
  <metadata
     id="metadata4545">
    <rdf:RDF>
      <cc:Work
         rdf:about="">
        <dc:format>image/svg+xml</dc:format>
        <dc:type
           rdf:resource="http://purl.org/dc/dcmitype/StillImage" />
        <dc:title></dc:title>
      </cc:Work>
    </rdf:RDF>
  </metadata>
  <g
     inkscape:label="Layer 1"
     inkscape:groupmode="layer"
     id="layer1"
     transform="translate(-1.2857733,-102.08331)">
    <flowRoot
       xml:space="preserve"
       id="flowRoot5843"
       style="font-style:normal;font-weight:normal;font-size:40px;line-height:25px;font-family:sans-serif;letter-spacing:0px;word-spacing:0px;fill:#000000;fill-opacity:1;stroke:none"
       transform="scale(0.26458333)"><flowRegion
         id="flowRegion5845"><rect
           id="rect5847"
           width="78.791901"
           height="92.428955"
           x="241.93153"
           y="338.6413" /></flowRegion><flowPara
         id="flowPara5849" /></flowRoot>    <flowRoot
       xml:space="preserve"
       id="flowRoot5851"
       style="font-style:normal;font-weight:normal;font-size:40px;line-height:25px;font-family:sans-serif;letter-spacing:0px;word-spacing:0px;fill:#000000;fill-opacity:1;stroke:none"><flowRegion
         id="flowRegion5853"><rect
           id="rect5855"
           width="62.675186"
           height="104.82841"
           x="259.5751"
           y="337.69327" /></flowRegion><flowPara
         id="flowPara5857" /></flowRoot>    <flowRoot
       xml:space="preserve"
       id="flowRoot5859"
       style="font-style:normal;font-weight:normal;font-size:40px;line-height:25px;font-family:sans-serif;letter-spacing:0px;word-spacing:0px;fill:#000000;fill-opacity:1;stroke:none"
       transform="scale(0.26458333)"><flowRegion
         id="flowRegion5861"><rect
           id="rect5863"
           width="121.46783"
           height="115.36671"
           x="230.17877"
           y="327.70959" /></flowRegion><flowPara
         id="flowPara5865" /></flowRoot>    <g
       id="g4596"
       transform="matrix(3.2197288,0,0,2.9076746,-73.716489,-80.691095)">
      <g
         id="g4706">
        <g
           id="g28"
           transform="matrix(0.11248789,0,0,0.09890734,23.29459,65.009515)">
          <g
             transform="matrix(0.86412258,0,0,0.96370192,0,10.102954)"
             id="g26">
            <g
               id="g24">
              <path
                 inkscape:connector-curvature="0"
                 d="M 270.834,243.333 H 254.82 v -2.499 c 0,-4.142 -3.357,-7.5 -7.5,-7.5 -4.143,0 -7.5,3.358 -7.5,7.5 v 2.499 h -39.955 v -2.499 c 0,-4.142 -3.357,-7.5 -7.5,-7.5 -4.143,0 -7.5,3.358 -7.5,7.5 v 2.499 H 144.91 v -2.499 c 0,-4.142 -3.357,-7.5 -7.5,-7.5 -4.143,0 -7.5,3.358 -7.5,7.5 v 2.499 H 89.955 v -2.499 c 0,-4.142 -3.357,-7.5 -7.5,-7.5 -4.143,0 -7.5,3.358 -7.5,7.5 v 2.499 H 35 v -91.636 l 39.964,-12.363 c 0.09,4.063 3.406,7.332 7.492,7.332 4.143,0 7.5,-3.358 7.5,-7.5 v -6.895 L 132.43,89.762 c 3.456,3.078 8.791,2.323 11.282,-1.538 l 41.154,30.703 v 6.239 c 0,4.142 3.357,7.5 7.5,7.5 4.143,0 7.5,-3.358 7.5,-7.5 v -6.239 l 40.798,-30.438 5.828,7.644 c 2.473,3.244 7.531,2.594 9.103,-1.17 l 14.109,-33.767 c 1.573,-3.764 -1.519,-7.819 -5.565,-7.299 l -36.298,4.665 c -4.046,0.52 -6.012,5.225 -3.538,8.469 l 7.266,9.53 -39.203,29.248 -50.47,-37.654 c -2.973,-2.218 -7.158,-1.919 -9.787,0.706 -0.001,10e-4 -0.002,10e-4 -0.002,0.002 -0.001,0.001 -0.002,0.001 -0.002,0.002 L 78.463,122.55 35,135.995 V 7.5 C 35,3.359 31.643,0 27.5,0 23.357,0 20,3.357 20,7.5 c 0,6.017 0,225.639 0,235.833 H 7.5 c -4.143,0 -7.5,3.358 -7.5,7.5 0,4.142 3.357,7.5 7.5,7.5 H 20 v 12.5 c 0,4.142 3.357,7.5 7.5,7.5 4.143,0 7.5,-3.358 7.5,-7.5 v -12.5 c 20.179,0 225.585,0 235.834,0 4.143,0 7.5,-3.358 7.5,-7.5 0,-4.143 -3.357,-7.5 -7.5,-7.5 z"
                 id="path2" />
              <path
                 inkscape:connector-curvature="0"
                 d="m 89.955,159.5 c 0,-4.142 -3.357,-7.5 -7.5,-7.5 -4.143,0 -7.5,3.358 -7.5,7.5 v 20.333 c 0,4.142 3.357,7.5 7.5,7.5 4.143,0 7.5,-3.358 7.5,-7.5 z"
                 id="path4" />
              <path
                 inkscape:connector-curvature="0"
                 d="m 82.455,192.666 c -4.143,0 -7.5,3.358 -7.5,7.5 v 20.333 c 0,4.142 3.357,7.5 7.5,7.5 4.143,0 7.5,-3.358 7.5,-7.5 v -20.333 c 0,-4.142 -3.357,-7.5 -7.5,-7.5 z"
                 id="path6" />
              <path
                 inkscape:connector-curvature="0"
                 d="m 144.91,151.309 c 0,-4.142 -3.357,-7.5 -7.5,-7.5 -4.143,0 -7.5,3.358 -7.5,7.5 v 22.381 c 0,4.142 3.357,7.5 7.5,7.5 4.143,0 7.5,-3.358 7.5,-7.5 z"
                 id="path8" />
              <path
                 inkscape:connector-curvature="0"
                 d="m 144.91,106.547 c 0,-4.142 -3.357,-7.5 -7.5,-7.5 -4.143,0 -7.5,3.358 -7.5,7.5 v 22.381 c 0,4.142 3.357,7.5 7.5,7.5 4.143,0 7.5,-3.358 7.5,-7.5 z"
                 id="path10" />
              <path
                 inkscape:connector-curvature="0"
                 d="m 137.41,188.572 c -4.143,0 -7.5,3.358 -7.5,7.5 v 22.381 c 0,4.142 3.357,7.5 7.5,7.5 4.143,0 7.5,-3.358 7.5,-7.5 v -22.381 c 0,-4.143 -3.357,-7.5 -7.5,-7.5 z"
                 id="path12" />
              <path
                 inkscape:connector-curvature="0"
                 d="m 192.365,187.067 c -4.143,0 -7.5,3.358 -7.5,7.5 V 217.7 c 0,4.142 3.357,7.5 7.5,7.5 4.143,0 7.5,-3.358 7.5,-7.5 v -23.133 c 0,-4.143 -3.357,-7.5 -7.5,-7.5 z"
                 id="path14" />
              <path
                 inkscape:connector-curvature="0"
                 d="m 199.865,148.299 c 0,-4.142 -3.357,-7.5 -7.5,-7.5 -4.143,0 -7.5,3.358 -7.5,7.5 v 23.133 c 0,4.142 3.357,7.5 7.5,7.5 4.143,0 7.5,-3.358 7.5,-7.5 z"
                 id="path16" />
              <path
                 inkscape:connector-curvature="0"
                 d="m 254.82,151.309 c 0,-4.142 -3.357,-7.5 -7.5,-7.5 -4.143,0 -7.5,3.358 -7.5,7.5 v 22.381 c 0,4.142 3.357,7.5 7.5,7.5 4.143,0 7.5,-3.358 7.5,-7.5 z"
                 id="path18" />
              <path
                 inkscape:connector-curvature="0"
                 d="m 247.32,188.572 c -4.143,0 -7.5,3.358 -7.5,7.5 v 22.381 c 0,4.142 3.357,7.5 7.5,7.5 4.143,0 7.5,-3.358 7.5,-7.5 v -22.381 c 0,-4.143 -3.357,-7.5 -7.5,-7.5 z"
                 id="path20" />
              <path
                 inkscape:connector-curvature="0"
                 d="m 254.82,106.547 c 0,-4.142 -3.357,-7.5 -7.5,-7.5 -4.143,0 -7.5,3.358 -7.5,7.5 v 22.381 c 0,4.142 3.357,7.5 7.5,7.5 4.143,0 7.5,-3.358 7.5,-7.5 z"
                 id="path22" />
            </g>
          </g>
        </g>
        <g
           style="opacity:1;fill:#000000;fill-opacity:1;stroke:#000000;stroke-opacity:1"
           id="_x30_203-wind-breeze-icon"
           transform="matrix(0.26729123,0,0,0.46748953,52.571269,53.910959)">
          <g
             style="fill:#000000;fill-opacity:1;stroke:#000000;stroke-opacity:1"
             id="g4">
            <path
               id="path2-8"
               d="m 1.302,37.69 c 1.176,0.846 1.908,-2.488 2.304,-3.125 1.24,-2 3.652,-3.107 5.551,-4.368 3.341,-2.222 8.944,-3.671 12.921,-3.565 5.645,-0.1 11.828,-0.954 17.34,0.755 4.401,1.364 8.968,2.309 13.428,3.721 5.014,1.588 9.979,3.351 15.143,4.413 2.858,0.586 5.757,0.964 8.672,1.103 2.249,0.106 4.522,-0.526 6.739,-0.274 1.715,-1.169 4.336,-0.971 5.697,-2.68 2.097,-0.615 3.509,-2.308 5.362,-3.351 1.264,-0.711 7.025,-8.416 5.343,-10.373 -0.075,-0.088 -0.164,-0.164 -0.269,-0.227 -1.03,-0.619 -2.754,2.546 -3.537,3.284 -1.877,1.769 -3.858,3.351 -6.081,4.671 -4.701,2.791 -9.126,3.209 -14.485,2.517 -9.539,-1.23 -18.631,-4.454 -27.72,-7.222 -10.069,-3.065 -21.017,-3.438 -31.33,-1.5 -4.278,0.805 -10.049,3.029 -12.628,6.719 -1.334,1.91 -5.929,7.232 -2.45,9.502 z m 98.441,4.142 c -0.987,-0.505 -3.215,2.42 -3.825,3.015 -1.597,1.556 -3.331,2.979 -5.229,4.154 -4.366,2.7 -8.358,3.098 -13.368,3.098 -10.285,0 -20.808,-4.959 -30.629,-7.637 -10.148,-2.766 -21.245,-3.329 -31.524,-0.949 -4.557,1.056 -9.309,3.373 -11.984,7.284 -1.265,1.85 -5.105,6.571 -1.882,8.675 1.176,0.846 1.908,-2.488 2.304,-3.125 1.24,-2 3.652,-3.106 5.551,-4.369 3.341,-2.223 8.944,-3.672 12.921,-3.565 5.645,-0.1 11.828,-0.955 17.34,0.754 4.401,1.365 8.968,2.309 13.428,3.721 5.014,1.588 9.979,3.35 15.143,4.413 2.858,0.587 5.757,0.965 8.672,1.103 2.249,0.107 4.522,-0.525 6.739,-0.274 1.715,-1.169 4.336,-0.971 5.697,-2.681 2.097,-0.614 3.509,-2.305 5.362,-3.35 1.858,-1.047 6.153,-7.199 5.697,-9.549 -0.077,-0.395 -0.222,-0.622 -0.413,-0.718 z m 0.253,21.15 c -0.087,-0.165 -0.183,-0.29 -0.286,-0.379 -1.133,-0.976 -3.145,2.404 -3.931,3.167 -1.69,1.641 -3.559,3.095 -5.582,4.304 -4.856,2.897 -10.443,3.07 -15.928,2.436 -9.474,-1.092 -18.18,-5.051 -27.421,-7.13 -4.074,-0.917 -7.824,-2.044 -12.074,-2.223 -5.448,-0.232 -10.619,-0.396 -16.046,0.452 -2.724,0.425 -5.439,1.045 -7.994,2.1 C 8.505,66.628 6.77,68.425 4.955,69.992 3.002,71.676 -3.107,78.761 1.973,80.58 5.007,71.388 17.83,68.85 26.466,68.846 c 5.715,-0.005 11.223,0.42 16.746,1.903 4.428,1.188 8.752,2.714 13.113,4.125 8.481,2.742 19.806,6.44 28.493,3.355 3.698,-1.313 7.31,-3.257 10.211,-5.922 1.572,-1.446 6.269,-6.838 4.967,-9.325 z"
               style="clip-rule:evenodd;fill:#000000;fill-opacity:1;fill-rule:evenodd;stroke:#000000;stroke-opacity:1"
               inkscape:connector-curvature="0" />
          </g>
        </g>
      </g>
    </g>
  </g>
</svg>
