<?xml version="1.0" encoding="iso-8859-1"?>
<!-- Generator: Adobe Illustrator 17.1.0, SVG Export Plug-In . SVG Version: 6.00 Build 0)  -->
<!DOCTYPE svg PUBLIC "-//W3C//DTD SVG 1.1//EN" "http://www.w3.org/Graphics/SVG/1.1/DTD/svg11.dtd">
<svg version="1.1" id="Capa_1" xmlns="http://www.w3.org/2000/svg" xmlns:xlink="http://www.w3.org/1999/xlink" x="0px" y="0px"
	 viewBox="0 0 362.008 362.008" style="enable-background:new 0 0 362.008 362.008;" xml:space="preserve">
<g>
	<path d="M163.837,210.564c-0.605-0.389-1.835-1.121-1.835-2.954V42.598C162.002,19.109,142.893,0,119.406,0
		C95.918,0,76.809,19.109,76.809,42.598v165.178c0,1.542-1.237,2.405-1.847,2.797c-23.472,15.073-37.794,41.009-37.794,69.195
		c0,45.348,36.892,82.24,82.238,82.24c45.347,0,82.238-36.893,82.238-82.24C201.644,251.576,187.317,225.637,163.837,210.564z
		 M119.406,347.008c-37.075,0-67.238-30.164-67.238-67.24c0-24.893,13.667-47.643,35.669-59.37l0.923-0.492
		c0,0,3.049-1.213,3.049-6.087c0-42.806,0-171.221,0-171.221C91.809,27.38,104.188,15,119.406,15
		c15.217,0,27.596,12.38,27.596,27.598c0,0,0,128.462,0,171.282c0,4.813,3.235,6.125,3.235,6.125l0.737,0.393
		c22.002,11.727,35.67,34.476,35.67,59.37C186.644,316.844,156.481,347.008,119.406,347.008z"/>
	<path d="M132.65,248.141c-0.737-0.279-2.244-0.739-2.244-3.239V75.486c0-6.075-4.925-11-11-11c-6.075,0-11,4.925-11,11v169.415
		c0,2.417-1.655,3.012-2.463,3.323c-14.045,5.421-24.037,19.063-24.037,34.998c0,20.678,16.822,37.5,37.5,37.5
		c20.678,0,37.5-16.822,37.5-37.5C156.906,267.206,146.81,253.505,132.65,248.141z"/>
	<path d="M233.338,45.486h59.035c3.314,0,6-2.687,6-6c0-3.313-2.686-6-6-6h-59.035c-3.313,0-6,2.687-6,6
		C227.338,42.8,230.024,45.486,233.338,45.486z"/>
	<path d="M233.338,84.152h79.035c3.314,0,6-2.687,6-6c0-3.313-2.686-6-6-6h-79.035c-3.313,0-6,2.687-6,6
		C227.338,81.466,230.024,84.152,233.338,84.152z"/>
	<path d="M233.338,122.818h59.035c3.314,0,6-2.687,6-6s-2.686-6-6-6h-59.035c-3.313,0-6,2.687-6,6S230.024,122.818,233.338,122.818z
		"/>
	<path d="M312.373,161.486c3.314,0,6-2.686,6-6c0-3.313-2.686-6-6-6h-79.035c-3.313,0-6,2.687-6,6c0,3.314,2.687,6,6,6H312.373z"/>
	<path d="M322.21,269.372l-34.715-44.919c-2.428-3.14-5.941-4.941-9.64-4.941c-3.698,0-7.212,1.802-9.64,4.942l-34.715,44.917
		c-2.735,3.539-3.372,7.47-1.745,10.784c1.628,3.314,5.126,5.216,9.6,5.216h8.186c1.084,0,2,0.916,2,2v49.281c0,7.72,6.28,14,14,14
		h22.695c7.72,0,14-6.28,14-14v-49.281c0-1.084,0.916-2,2-2h10.119c4.474,0,7.972-1.901,9.6-5.216
		C325.582,276.841,324.945,272.91,322.21,269.372z M308.699,273.371c-1.115,0-4.463,0-4.463,0c-7.72,0-14,6.28-14,14v49.281
		c0,1.084-0.916,2-2,2h-22.695c-1.084,0-2-0.916-2-2v-49.281c0-7.72-6.28-14-14-14c0,0-2.084,0-2.779,0
		c-1.141,0-0.709-0.617-0.709-0.617l30.106-38.953c0,0,0.838-1.046,1.697-1.046c0.906,0,1.75,1.112,1.75,1.112l29.999,38.818
		C309.604,272.686,310.152,273.371,308.699,273.371z"/>
</g>
<g>
</g>
<g>
</g>
<g>
</g>
<g>
</g>
<g>
</g>
<g>
</g>
<g>
</g>
<g>
</g>
<g>
</g>
<g>
</g>
<g>
</g>
<g>
</g>
<g>
</g>
<g>
</g>
<g>
</g>
</svg>
