<?xml version="1.0" encoding="iso-8859-1"?>
<!-- Generator: Adobe Illustrator 19.0.0, SVG Export Plug-In . SVG Version: 6.00 Build 0)  -->
<svg version="1.1" id="Layer_1" xmlns="http://www.w3.org/2000/svg" xmlns:xlink="http://www.w3.org/1999/xlink" x="0px" y="0px"
	 viewBox="0 0 512.001 512.001" style="enable-background:new 0 0 512.001 512.001;" xml:space="preserve">
<g>
	<g>
		<rect x="71.556" y="91.616" width="367.383" height="15.656"/>
	</g>
</g>
<g>
	<g>
		<path d="M493.982,384.813c-5.558-4.99-12.357-11.061-24.326-12.226V61.35h26.103v300.065h15.656V45.694H454v328.35
			c-7.62,2.384-12.67,6.903-16.976,10.769c-5.453,4.896-9.392,8.434-18.018,8.434c-2.527,0-4.643-0.311-6.522-0.863l-25.708-149.43
			h39.642v-15.656h-42.336l-1.357-7.884c-2.648-15.389-15.903-26.558-31.518-26.558c-15.615,0-28.87,11.17-31.518,26.558
			l-1.357,7.884h-12.528v-59.491h90.802v44.357h15.656v-60.013H290.149v75.147h-15.071v15.656h40.56L292.97,374.716
			c-3.741-1.426-8.128-2.343-13.441-2.343c-14.621,0-22.303,6.898-28.475,12.441c-5.452,4.896-9.39,8.433-18.014,8.433
			c-6.934,0-10.841-2.289-14.94-5.731l-24.871-144.562h41.145v-15.656h-15.196v-75.147H97.063v60.013h15.656v-44.357h90.802v59.491
			h-12.987l-1.356-7.884c-2.648-15.389-15.903-26.558-31.518-26.558c-15.615,0-28.87,11.17-31.518,26.558l-1.356,7.884H81.995
			v15.656h40.101L99.751,372.838c-1.92-0.289-3.964-0.464-6.185-0.464c-14.621,0-22.303,6.898-28.475,12.44
			c-2.678,2.405-4.993,4.479-7.675,5.97V45.694H0v300.065h15.656V61.35H41.76v331.346c-5.209-1.17-8.511-4.122-12.699-7.882
			c-6.171-5.542-13.853-12.441-28.474-12.441v15.656c8.623,0,12.562,3.537,18.014,8.433c6.172,5.542,13.853,12.441,28.474,12.441
			s22.304-6.898,28.476-12.441c5.452-4.896,9.391-8.433,18.015-8.433c8.624,0,12.564,3.537,18.016,8.434
			c6.172,5.542,13.854,12.44,28.475,12.44c14.621,0,22.303-6.898,28.475-12.441c5.452-4.896,9.391-8.433,18.015-8.433
			c8.112,0,12.08,3.13,17.058,7.575l0.092,0.535l0.424-0.073c0.147,0.132,0.291,0.261,0.44,0.396
			c6.172,5.542,13.854,12.441,28.476,12.441c14.621,0,22.303-6.898,28.475-12.441c5.452-4.896,9.391-8.433,18.014-8.433
			c8.624,0,12.564,3.537,18.016,8.434c6.172,5.542,13.853,12.44,28.474,12.44c14.622,0,22.304-6.898,28.476-12.44
			c5.453-4.896,9.392-8.434,18.016-8.434c8.624,0,12.564,3.537,18.016,8.434c6.172,5.542,13.854,12.44,28.475,12.44
			c14.622,0,22.305-6.898,28.478-12.44c5.453-4.896,9.393-8.434,18.02-8.434c8.626,0,12.566,3.538,18.02,8.434
			c6.172,5.542,13.855,12.44,28.479,12.44v-15.656C503.375,393.247,499.435,389.709,493.982,384.813z M186.548,372.373
			c-14.621,0-22.303,6.898-28.475,12.441c-5.452,4.896-9.391,8.433-18.015,8.433c-8.624,0-12.564-3.537-18.016-8.433
			c-2.198-1.975-4.596-4.116-7.423-6.062l26.957-156.684c1.351-7.855,8.117-13.557,16.089-13.557
			c7.971,0,14.737,5.702,16.089,13.557l26.264,152.656C196.269,373.295,191.873,372.373,186.548,372.373z M372.513,372.373
			c-14.622,0-22.304,6.898-28.476,12.44c-5.452,4.896-9.392,8.434-18.016,8.434c-8.623,0-12.563-3.537-18.014-8.433
			c-0.252-0.226-0.511-0.457-0.768-0.688l27.881-162.058c1.351-7.855,8.117-13.557,16.089-13.557
			c7.971,0,14.737,5.702,16.089,13.557l27.051,157.23C389.124,375.537,382.412,372.373,372.513,372.373z"/>
	</g>
</g>
<g>
	<g>
		<path d="M424.243,442.218c-6.172-5.543-13.854-12.441-28.476-12.441c-14.622,0-22.304,6.898-28.476,12.44
			c-5.452,4.896-9.392,8.434-18.016,8.434c-8.624,0-12.563-3.537-18.015-8.433c-6.172-5.542-13.854-12.441-28.475-12.441
			s-22.303,6.898-28.475,12.441c-5.452,4.896-9.39,8.433-18.014,8.433c-8.624,0-12.564-3.537-18.016-8.434
			c-6.172-5.543-13.854-12.44-28.476-12.44c-14.621,0-22.303,6.898-28.475,12.441c-5.452,4.896-9.391,8.433-18.014,8.433
			c-8.624,0-12.564-3.537-18.016-8.434c-6.172-5.543-13.854-12.44-28.475-12.44c-14.622,0-22.304,6.898-28.476,12.441
			c-5.452,4.896-9.391,8.433-18.015,8.433v15.656c14.621,0,22.303-6.898,28.475-12.44c5.452-4.896,9.391-8.434,18.015-8.434
			c8.624,0,12.564,3.537,18.016,8.433c6.172,5.543,13.854,12.441,28.476,12.441c14.621,0,22.303-6.898,28.475-12.441
			c5.452-4.896,9.391-8.433,18.015-8.433c8.624,0,12.564,3.537,18.016,8.434c6.172,5.542,13.854,12.44,28.476,12.44
			c14.621,0,22.303-6.898,28.475-12.441c5.452-4.896,9.391-8.433,18.014-8.433c8.624,0,12.563,3.537,18.015,8.433
			c6.172,5.543,13.854,12.441,28.475,12.441c14.622,0,22.304-6.898,28.476-12.44c5.452-4.896,9.392-8.434,18.016-8.434
			c8.624,0,12.564,3.537,18.015,8.434c6.172,5.542,13.854,12.44,28.475,12.44v-15.656
			C433.635,450.651,429.696,447.114,424.243,442.218z"/>
	</g>
</g>
<g>
</g>
<g>
</g>
<g>
</g>
<g>
</g>
<g>
</g>
<g>
</g>
<g>
</g>
<g>
</g>
<g>
</g>
<g>
</g>
<g>
</g>
<g>
</g>
<g>
</g>
<g>
</g>
<g>
</g>
</svg>
