<?xml version="1.0" encoding="iso-8859-1"?>
<!-- Generator: Adobe Illustrator 18.1.1, SVG Export Plug-In . SVG Version: 6.00 Build 0)  -->
<svg version="1.1" id="Capa_1" xmlns="http://www.w3.org/2000/svg" xmlns:xlink="http://www.w3.org/1999/xlink" x="0px" y="0px"
	 viewBox="0 0 482.626 482.626" style="enable-background:new 0 0 482.626 482.626;" xml:space="preserve">
<g>
	<g>
		<g>
			<polygon style="fill:#010002;" points="188.66,214.448 188.644,214.424 188.66,214.521 			"/>
		</g>
		<g>
			<path style="fill:#010002;" d="M87.468,238.704c3.544,14.599,9.202,28.572,16.81,41.586l-37.465,37.448l4.511,4.511
				c13.485,13.493,31.433,20.915,50.511,20.915c12.372,0,24.508-3.186,35.205-9.226c12.851,7.86,26.743,13.762,41.277,17.541v52.657
				h6.357c31.953,0,60.046-21.281,68.743-51.95c14.672-3.536,28.686-9.21,41.716-16.834l37.456,37.473l4.511-4.511
				c22.768-22.736,27.483-57.827,11.689-85.716c7.86-12.851,13.754-26.702,17.541-41.285h52.998v-6.357
				c0-32.149-21.468-60.273-52.332-68.865c-3.512-14.615-9.161-28.588-16.785-41.586l37.448-37.481l-4.487-4.495
				c-13.51-13.493-31.441-20.931-50.535-20.931c-12.372,0-24.524,3.203-35.205,9.25c-12.843-7.86-26.702-13.77-41.261-17.558V0
				h-6.348c-32.352,0-60.525,21.598-68.979,52.665c-14.558,3.544-28.515,9.177-41.48,16.794L121.9,31.978l-4.511,4.495
				c-22.752,22.76-27.475,57.819-11.697,85.724c-7.86,12.859-13.745,26.727-17.541,41.277H35.168v6.365
				C35.168,201.987,56.611,230.12,87.468,238.704z M185.092,208.417l74.393-83.163c0.91-1.032,2.252-1.65,3.666-1.65l39.212-0.366
				c2.048,0,3.918,1.268,4.65,3.146c0.772,1.926,0.293,4.081-1.227,5.471l-61.94,57.705l36.44,2.032
				c2,0.098,3.755,1.406,4.422,3.325c0.683,1.886,0.138,4.024-1.39,5.365l-88.732,79.351c-0.91,0.829-2.081,1.276-3.325,1.276
				c-1.333,0-2.569-0.52-3.512-1.463c-1.861-1.861-1.951-4.877-0.195-6.836l52.568-58.745l-51.064,2.829h-0.065
				c-2.203,0-3.885-1.105-4.682-2.812C183.442,212.042,183.751,209.904,185.092,208.417z"/>
		</g>
		<g>
			<path style="fill:#010002;" d="M371.09,423.141c-8.616,7.86-17.135,11.665-26.044,11.665h-0.91
				c-11.705-0.683-20.143-8.933-22.524-11.526c-0.707-0.707-17.688-17.224-39.765-17.224l-1.341,0.024
				c-12.624,0.455-23.996,6.381-33.799,17.615c-7.6,8.673-15.509,13.071-23.898,13.071c-13.794-0.179-24.337-12.941-24.353-12.941
				l-1.488-1.341c-11.014-8.234-29.572-17.021-48.601-17.021c-15.883,0-29.295,6.129-39.919,18.2
				c-7.836,8.885-16.428,13.485-25.564,13.721l0.033,2.187l-0.154-2.162h-0.626c-11.835,0-22.142-7.088-27.263-11.347l-1.496-1.227
				l-9.649,9.258l1.837,1.544c6.552,5.649,19.988,15.078,36.57,15.078h0.024h0.788c13.103-0.276,25.028-6.43,35.473-18.273
				c8.023-9.137,18.184-13.737,30.165-13.737c18.956,0,36.652,11.778,39.659,13.851c5.926,6.405,18.241,17.2,34.278,17.517
				c12.258,0,24.069-6.105,34.181-17.631c7.356-8.429,15.265-12.697,24.174-13.079h0.984c13.355,0,25.312,9.023,28.661,11.803
				l1.292,1.097c2.17,2.439,13.762,14.648,31.238,15.81c12.624,0.707,25.288-4.422,37.009-15.078
				c8.47-7.747,18.021-11.673,28.409-11.673c12.672,0,23.443,5.942,28.751,9.502l1.642,1.073l8.592-10.21l-1.935-1.366
				c-6.495-4.601-19.939-12.331-37.18-12.331C394.622,407.989,382.088,413.094,371.09,423.141z"/>
		</g>
		<g>
			<path style="fill:#010002;" d="M408.343,439.91c-13.721,0-26.247,5.105-37.253,15.127c-8.616,7.885-17.135,11.705-26.044,11.705
				h-0.91c-11.705-0.707-20.143-8.974-22.524-11.575c-1.805-1.756-18.273-17.176-39.765-17.176l-1.341,0.024
				c-12.624,0.463-23.996,6.357-33.799,17.59c-7.584,8.673-15.493,13.071-23.874,13.071h-0.024
				c-13.794-0.163-24.337-12.916-24.353-12.941l-1.488-1.341c-11.014-8.202-29.572-16.997-48.601-16.997
				c-15.883,0-29.295,6.105-39.919,18.176c-7.828,8.885-16.428,13.485-25.564,13.721l0.033,2l-0.106-1.975h-0.675
				c-12.282,0-23.15-7.909-27.263-11.331l-1.496-1.252l-9.649,9.258l1.837,1.569c6.552,5.625,19.988,15.062,36.57,15.062h0.813
				c13.087-0.268,25.02-6.422,35.473-18.273c8.031-9.112,18.184-13.737,30.165-13.737c18.956,0,36.652,11.803,39.659,13.851
				c7.234,7.844,19.062,17.224,34.278,17.525c12.258,0,24.069-6.113,34.181-17.639c7.356-8.429,15.265-12.713,24.134-13.071
				l1.024-0.024c13.331,0,25.312,9.039,28.661,11.795l1.292,1.146c2.17,2.439,13.81,14.631,31.238,15.81
				c12.827,0.683,25.312-4.446,37.009-15.127c8.47-7.722,18.045-11.648,28.409-11.648c12.689,0,23.443,5.95,28.751,9.502
				l1.642,1.097l8.592-10.209l-1.935-1.39C439.028,447.633,425.559,439.91,408.343,439.91z"/>
		</g>
	</g>
</g>
<g>
</g>
<g>
</g>
<g>
</g>
<g>
</g>
<g>
</g>
<g>
</g>
<g>
</g>
<g>
</g>
<g>
</g>
<g>
</g>
<g>
</g>
<g>
</g>
<g>
</g>
<g>
</g>
<g>
</g>
</svg>
