<?xml version="1.0" encoding="iso-8859-1"?>
<!-- Generator: Adobe Illustrator 16.0.0, SVG Export Plug-In . SVG Version: 6.00 Build 0)  -->
<!DOCTYPE svg PUBLIC "-//W3C//DTD SVG 1.1//EN" "http://www.w3.org/Graphics/SVG/1.1/DTD/svg11.dtd">
<svg version="1.1" id="Capa_1" xmlns="http://www.w3.org/2000/svg" xmlns:xlink="http://www.w3.org/1999/xlink" x="0px" y="0px"
	 width="532.075px" height="532.075px" viewBox="0 0 532.075 532.075" style="enable-background:new 0 0 532.075 532.075;"
	 xml:space="preserve">
<g>
	<path d="M532.075,303.591h-26.107v-30.695h-1.933v-8.373h-2.091v1.938c-17.506-10.166-143.078-84.906-154.434-141.361
		c0.331-0.133,0.598-0.397,0.598-0.777v-3.715h2.062c0.757,0,1.363-0.607,1.363-1.352c0-0.747-0.606-1.353-1.363-1.353h-2.062
		v-1.239h2.062c0.757,0,1.363-0.607,1.363-1.351c0-0.745-0.606-1.354-1.363-1.354h-2.062v-2.074h4.126
		c0.522,0,0.961-0.353,1.102-0.85c0.116-0.502-0.107-1.022-0.561-1.267l-22.486-12.144V59.216c0-0.187-0.056-0.35-0.13-0.508
		c-0.047-0.166-0.112-0.329-0.229-0.458l-8.746-14.272c-0.214-0.343-0.588-0.544-0.998-0.534c-0.406,0.014-0.771,0.245-0.957,0.602
		l-7.514,14.419c-0.047,0.095-0.075,0.191-0.104,0.292c-0.064,0.138-0.103,0.292-0.103,0.455v17.285l-22.887,12.363
		c-0.448,0.245-0.682,0.766-0.551,1.272c0.121,0.497,0.569,0.845,1.092,0.845h4.131v2.079h-2.068c-0.382,0-0.718,0.168-0.971,0.427
		C164.855,100.2,64.259,76.988,63.242,76.746l-0.822,3.489c0.898,0.21,78.139,18.068,181.643,18.068
		c15.189,0,30.973-0.411,47.135-1.295c-0.729,0.019-1.325,0.606-1.325,1.344c0,0.745,0.606,1.352,1.353,1.352h2.068v3.715
		c0,0.495,0.401,0.903,0.9,0.903h4.499c0.504,0,0.905-0.403,0.905-0.903v-2.224c4.028,3.213,8.032,5.941,11.91,8.249v15.551
		l-10.1,43.357l-11.452,26.259c-0.057,0.145-0.084,0.296-0.084,0.45h-3.165v3.302h16.896v-3.302h-4.023l17.674-25.23h6.035
		l17.464,25.23h-3.883v3.302h16.895v-3.302h-3.08c0-0.154-0.028-0.306-0.093-0.45l-11.439-26.246l-8.765-43.366
		c-0.019-0.091-0.07-0.166-0.099-0.248v-6.506c4.966,1.736,8.984,2.698,11.51,3.192v2.884c0,0.495,0.401,0.901,0.896,0.901h1.204
		c11.64,61.566,149.795,140.701,158.046,145.373v2.296h-1.745v30.695h-37.505v57.284L355.632,241.337v-39.864
		c0-1.68-1.363-3.047-3.053-3.047H285.42v-87.989c0-1.687-1.362-3.05-3.043-3.05h-35.833c-1.692,0-3.052,1.363-3.052,3.05v57.947
		H229.77v-57.947c0-1.687-1.372-3.05-3.055-3.05h-30.504c-1.496,0-2.772,1.09-3.008,2.567l-11.406,71.12
		c-11.437,6.851-59.72,32.464-99.696,3.549c-49.487-35.803-81.055,0.119-81.375,0.493L0,185.972v143.96h162.198
		c0.159,0.023,0.292,0.103,0.45,0.103l74.365,0.351l249.353,157.775c0.489,0.303,1.045,0.471,1.624,0.471h29.486
		c1.685,0,3.057-1.362,3.057-3.048v-8.134c0-0.938-0.438-1.825-1.176-2.404l-257.2-201.296c-0.411-0.316-0.889-0.527-1.391-0.606
		l-43.71-7.117c-0.254-0.042-0.511-0.052-0.756-0.028l-46.379,3.93c-1.431,0.122-2.577,1.209-2.772,2.619l-7.113,51.286H6.103
		V188.275c4.714-4.919,30.945-28.719,72.424,1.29c38.958,28.183,84.679,8.597,102.043-0.793L173,236.017
		c-0.149,0.884,0.1,1.783,0.691,2.462c0.579,0.679,1.421,1.071,2.314,1.071h41.257l43.719,8.947L482.104,421.16v-7.738
		L264.173,243.249c-0.362-0.292-0.803-0.493-1.26-0.583l-44.738-9.147c-0.196-0.042-0.401-0.065-0.607-0.065H179.58l7.812-48.67
		c0.206-0.136,0.355-0.236,0.383-0.255l-0.282-0.406l11.322-70.629h24.845v57.946c0,1.688,1.363,3.053,3.055,3.053h19.823
		c1.683,0,3.045-1.365,3.045-3.053v-57.951h29.741v87.986c0,1.688,1.362,3.055,3.052,3.055h67.159v38.076
		c0,0.808,0.317,1.58,0.892,2.154l131.682,147.036v-9.241l-15.83-17.669v-57.709h62.217v123.062h-1.686l-13.23-14.771v9.235
		l10.599,11.831v10.791l-10.599-8.279v7.732h-0.005l11.779,9.194c0.542,0.43,1.204,0.645,1.876,0.645
		c0.463,0,0.906-0.099,1.335-0.304c1.046-0.514,1.718-1.577,1.718-2.744v-18.3c0-0.522-0.178-1.003-0.425-1.451h2.217V303.591z
		 M350.171,118.801c0.252,0,0.458,0.201,0.458,0.448c0,0.25-0.206,0.455-0.458,0.455h-3.458l-0.061-0.903H350.171z M350.171,114.857
		c0.252,0,0.458,0.205,0.458,0.455c0,0.25-0.206,0.45-0.458,0.45h-10.137c-0.252,0-0.457-0.201-0.457-0.45
		c0-0.25,0.205-0.455,0.457-0.455H350.171z M330.289,100.186l17.492,9.444h-17.492V100.186z M328.04,113.524
		c-2.067-0.812-4.247-1.743-6.534-2.84l6.534-3.402V113.524z M316.241,99.273l11.799-7.304v12.179L316.241,99.273z M314.846,83.613
		l13.194-6.443v12.295L314.846,83.613z M328.04,74.151l-13.32-6.576l13.32-6.228V74.151z M320.302,46.855l6.749,11.007h-12.48
		L320.302,46.855z M313.768,60.348h12.163l-12.163,5.682V60.348z M313.768,69.112l13.246,6.548l-13.246,6.476V69.112z
		 M313.768,85.104l12.77,5.67l-12.736,7.887c-0.014,0.009-0.023,0.019-0.033,0.023V85.104z M313.927,100.263l13.203,5.458
		l-7.631,3.981c-1.866-0.938-3.771-1.965-5.722-3.113v-6.417C313.819,100.2,313.866,100.24,313.927,100.263z M311.509,79.067v9.672
		c-0.009,0-0.019-0.009-0.037-0.009h-17.856L311.509,79.067z M301.802,98.375c-0.196-0.159-0.393-0.315-0.598-0.474h0.159
		c0.252,0,0.447,0.201,0.447,0.455C301.811,98.366,301.802,98.371,301.802,98.375z M298.143,93.958h3.221
		c0.252,0,0.447,0.208,0.447,0.455c0,0.245-0.195,0.451-0.447,0.451h-3.165L298.143,93.958z M293.289,96.898v0.101h-1.867
		C292.038,96.966,292.663,96.931,293.289,96.898z M291.226,98.8c-0.252,0-0.447-0.201-0.447-0.443c0-0.254,0.195-0.455,0.447-0.455
		h4.453c0.345,0.306,0.7,0.598,1.045,0.898H291.226z M302.483,98.896c0.093-0.177,0.224-0.329,0.224-0.539
		c0-0.747-0.598-1.354-1.344-1.354h-1.204c-0.187-0.151-0.374-0.315-0.561-0.474v-0.768h1.765c0.746,0,1.344-0.609,1.344-1.349
		c0-0.744-0.598-1.351-1.344-1.351h-1.765v-2.079h11.868c0.02,0,0.033-0.007,0.042-0.007v14.234
		C308.541,103.364,305.525,101.276,302.483,98.896z M315.579,111.747l-1.812,0.942v-1.923
		C314.384,111.112,314.977,111.427,315.579,111.747z M310.958,142.859l9.824-4.891l9.899,4.887l-9.987,4.151L310.958,142.859z
		 M332.885,154.166l-12.709,5.731l-12.078-5.701l12.597-5.229L332.885,154.166z M320.778,135.961l-5.909-2.915h11.752
		L320.778,135.961z M312.368,131.246l1.147-4.894h14.847l0.984,4.894H312.368z M313.768,124.095v-9.243l13.974,9.243H313.768z
		 M311.836,133.558l6.916,3.412l-8.736,4.345L311.836,133.558z M309.362,144.133l9.008,3.839l-10.968,4.555L309.362,144.133z
		 M306.707,155.538l11.308,5.332l-14.02,6.324L306.707,155.538z M297.62,193.934h-4.905l10.496-24.103h11.304L297.62,193.934z
		 M307.523,167.576l12.634-5.691l12.064,5.691H307.523z M347.847,193.934h-5.124l-16.689-24.103h11.304L347.847,193.934z
		 M336.702,167.576h-0.252l-14.132-6.671l11.938-5.381L336.702,167.576z M333.649,152.537l-10.641-4.541l8.97-3.731L333.649,152.537
		z M331.367,141.182l-8.559-4.221l7-3.484L331.367,141.182z M328.04,122.133l-12.555-8.307l2.025-1.057
		c3.753,1.918,7.304,3.451,10.529,4.665V122.133z M330.289,111.884h11.51v2.074h-1.765c-0.742,0-1.349,0.609-1.349,1.354
		c0,0.744,0.606,1.351,1.349,1.351h1.765v1.097c-2.623-0.56-6.613-1.586-11.51-3.375V111.884z M172.85,275.798l43.582-3.691
		l42.57,6.926l255.423,199.896v3.598h-25.553L239.533,324.761c-0.487-0.304-1.047-0.467-1.615-0.472l-71.754-0.341L172.85,275.798z
		 M212.091,259.87l6.424-5.349l-38.665,0.751c0,0,0,0-0.009,0c-0.411,0-0.745-0.336-0.754-0.747
		c-0.021-0.425,0.324-0.768,0.735-0.78l38.457-0.749l-5.07-4.779c-0.306-0.292-0.315-0.775-0.038-1.081
		c0.301-0.306,0.775-0.319,1.085-0.033l6.667,6.285c0.157,0.146,0.243,0.356,0.233,0.578c-0.009,0.215-0.1,0.42-0.273,0.558
		l-7.812,6.51c-0.138,0.119-0.315,0.18-0.488,0.18c-0.224,0-0.439-0.093-0.588-0.275
		C211.729,260.619,211.776,260.143,212.091,259.87z M281.089,283.803l8.354-0.262l-30.929-23.216
		c-0.325-0.254-0.401-0.733-0.147-1.066c0.264-0.336,0.735-0.401,1.076-0.154l30.756,23.093l-1.055-6.884
		c-0.065-0.416,0.224-0.808,0.645-0.873c0.429-0.065,0.803,0.229,0.858,0.644l1.381,9.055c0.038,0.214-0.027,0.434-0.168,0.602
		c-0.135,0.168-0.341,0.267-0.555,0.271l-10.165,0.322c0,0-0.01,0-0.023,0c-0.411,0-0.752-0.326-0.761-0.742
		C280.343,284.167,280.669,283.817,281.089,283.803z M336.562,326.544l8.354-0.257l-30.924-23.224
		c-0.336-0.247-0.401-0.729-0.149-1.064c0.252-0.341,0.737-0.406,1.063-0.153l30.762,23.097l-1.051-6.893
		c-0.065-0.416,0.215-0.803,0.64-0.863c0.448-0.062,0.803,0.224,0.868,0.639l1.381,9.059c0.033,0.215-0.027,0.435-0.177,0.603
		c-0.126,0.168-0.331,0.266-0.556,0.271l-10.155,0.322c-0.01,0-0.019,0-0.028,0c-0.415,0-0.746-0.327-0.766-0.742
		C335.806,326.908,336.142,326.558,336.562,326.544z M397.757,374.544l8.345-0.261l-30.915-23.219
		c-0.345-0.252-0.41-0.724-0.158-1.064c0.261-0.336,0.737-0.401,1.073-0.153l30.761,23.097l-1.055-6.894
		c-0.061-0.415,0.224-0.803,0.644-0.867c0.443-0.065,0.803,0.224,0.873,0.639l1.372,9.059c0.037,0.215-0.032,0.435-0.168,0.603
		c-0.131,0.168-0.346,0.267-0.56,0.271l-10.156,0.317c-0.009,0-0.019,0-0.027,0c-0.411,0-0.757-0.326-0.766-0.737
		C397.001,374.909,397.327,374.554,397.757,374.544z M454.686,420.208l8.354-0.257l-30.924-23.219
		c-0.337-0.252-0.401-0.732-0.149-1.068s0.737-0.406,1.073-0.154l30.751,23.098l-1.045-6.889c-0.07-0.416,0.215-0.803,0.635-0.873
		c0.452-0.065,0.812,0.229,0.872,0.645l1.382,9.054c0.028,0.215-0.033,0.435-0.168,0.603c-0.14,0.168-0.346,0.266-0.569,0.271
		l-10.155,0.317c-0.01,0-0.01,0-0.028,0c-0.411,0-0.747-0.327-0.756-0.742C453.939,420.577,454.266,420.231,454.686,420.208z
		 M18.323,214.224c-3.202,2.31-6.237-2.982-3.083-5.26c30.112-21.784,65.292,30.882,93.927,5.05
		c2.912-2.627,7.246,1.673,4.312,4.312c-12.358,11.149-27.118,10.289-41.985,4.597C55.725,216.877,34.385,202.607,18.323,214.224z
		 M78.108,253.25c-3.358-2.035-0.289-7.311,3.083-5.265c27.218,16.542,50.974-17.154,79.583-5.899
		c3.621,1.418,2.044,7.322-1.627,5.883C130.221,236.586,107.43,271.057,78.108,253.25z M27.977,285.795
		c27.216,16.536,50.974-17.156,79.581-5.895c3.624,1.419,2.047,7.323-1.615,5.876c-28.938-11.378-51.73,23.098-81.048,5.283
		C21.543,289.025,24.603,283.747,27.977,285.795z M507.377,432.991c0.396,0.061,0.691,0.308,1.083,0.509
		c0.331,0.275,0.7,0.569,1.026,0.9c0.364,0.294,0.598,0.631,0.845,0.84c0.229,0.211,0.393,0.346,0.393,0.346
		s0.074-0.182,0.135-0.499c0.047-0.304,0.187-0.784,0.08-1.33c-0.033-0.561-0.248-1.219-0.677-1.872
		c-0.262-0.284-0.467-0.667-0.85-0.896c-0.354-0.252-0.737-0.49-1.157-0.621c-0.854-0.271-1.728-0.261-2.432-0.047
		c-0.668,0.164-1.19,0.481-1.61,0.799c-0.924-2.227-2.688-4.019-4.91-4.962c0.243-0.336,0.472-0.69,0.733-1.008
		c0.303-0.373,0.588-0.709,0.91-0.915c0.274-0.294,0.639-0.396,1.017-0.606c0.42-0.135,0.873-0.284,1.326-0.368
		c0.438-0.136,0.858-0.149,1.157-0.243c0.304-0.074,0.495-0.135,0.495-0.135s-0.104-0.159-0.327-0.393
		c-0.247-0.21-0.551-0.588-1.083-0.798c-0.485-0.285-1.144-0.462-1.918-0.477c-0.388,0.07-0.826,0.038-1.223,0.225
		c-0.406,0.158-0.816,0.345-1.157,0.635c-0.696,0.564-1.167,1.292-1.377,1.997c-0.201,0.569-0.233,1.092-0.215,1.578
		c-0.14-0.028-0.289-0.023-0.425-0.052v-14.169h5.866v-85.436h-14.935v85.426h6.497v14.095c-1.75,0.21-3.352,0.905-4.667,1.96
		c-0.01-0.005-0.028-0.019-0.047-0.028c-0.354-0.303-0.774-0.588-1.115-0.914c-0.351-0.322-0.687-0.621-0.863-0.966
		c-0.29-0.285-0.364-0.654-0.57-1.041c-0.098-0.42-0.232-0.883-0.298-1.335c-0.103-0.448-0.103-0.863-0.178-1.177
		c-0.061-0.303-0.112-0.508-0.112-0.508s-0.153,0.098-0.401,0.321c-0.224,0.225-0.616,0.523-0.858,1.032
		c-0.299,0.471-0.522,1.119-0.569,1.895c0.047,0.392-0.01,0.826,0.159,1.228c0.135,0.41,0.298,0.831,0.568,1.19
		c0.523,0.718,1.232,1.231,1.924,1.479c0.316,0.131,0.63,0.206,0.924,0.252c-1.265,1.583-2.067,3.562-2.067,5.741
		c0,0.494,0.079,0.984,0.145,1.465c-0.312,0.201-0.635,0.425-0.957,0.598c-0.425,0.233-0.812,0.448-1.194,0.514
		c-0.355,0.173-0.733,0.126-1.167,0.187c-0.438-0.028-0.91-0.065-1.354-0.154c-0.472-0.037-0.868-0.172-1.172-0.2
		c-0.317-0.047-0.522-0.061-0.522-0.061s0.047,0.187,0.168,0.485c0.141,0.289,0.299,0.751,0.7,1.139
		c0.341,0.443,0.896,0.863,1.61,1.162c0.383,0.084,0.774,0.275,1.218,0.247c0.438,0,0.887-0.014,1.307-0.154
		c0.854-0.266,1.56-0.77,2.021-1.344c0.019-0.023,0.027-0.047,0.046-0.075c1.139,2.497,3.36,4.378,6.062,5.083
		c-0.121,0.28-0.252,0.564-0.4,0.826c-0.243,0.41-0.458,0.798-0.742,1.055c-0.22,0.336-0.561,0.504-0.901,0.779
		c-0.383,0.2-0.812,0.425-1.246,0.588c-0.406,0.206-0.812,0.299-1.097,0.438c-0.294,0.127-0.476,0.22-0.476,0.22
		s0.135,0.131,0.401,0.327c0.271,0.163,0.653,0.485,1.204,0.602c0.518,0.196,1.204,0.257,1.969,0.141
		c0.374-0.131,0.812-0.173,1.162-0.43c0.374-0.233,0.742-0.48,1.041-0.821c0.579-0.673,0.915-1.476,1.008-2.203
		c0.075-0.443,0.057-0.845,0.01-1.223c0.121,0,0.252,0.032,0.383,0.032c2.044,0,3.906-0.69,5.433-1.815
		c0.308,0.336,0.662,0.663,0.934,1.027c0.303,0.373,0.588,0.714,0.719,1.082c0.224,0.322,0.256,0.705,0.392,1.116
		c0.047,0.429,0.103,0.905,0.103,1.367c0.047,0.462-0.037,0.873,0,1.189c0.01,0.318,0.028,0.523,0.028,0.523
		s0.168-0.084,0.448-0.262c0.261-0.187,0.69-0.42,0.994-0.887c0.378-0.42,0.695-1.036,0.863-1.792
		c0.014-0.396,0.131-0.816,0.027-1.237c-0.079-0.429-0.177-0.872-0.383-1.265c-0.42-0.793-1.035-1.404-1.689-1.745
		c-0.336-0.201-0.672-0.336-0.998-0.43c1.438-1.633,2.343-3.743,2.343-6.081c0-0.682-0.089-1.339-0.233-1.979
		c0.467,0.023,0.957,0.014,1.428,0.065C506.584,432.799,507.031,432.823,507.377,432.991z M495.709,441.088
		c-3.556,0-6.449-2.89-6.449-6.45c0-3.188,2.352-5.713,5.391-6.23v6.23h2.571v-6.142c2.81,0.7,4.938,3.117,4.938,6.142
		C502.159,438.199,499.266,441.088,495.709,441.088z"/>
</g>
<g>
</g>
<g>
</g>
<g>
</g>
<g>
</g>
<g>
</g>
<g>
</g>
<g>
</g>
<g>
</g>
<g>
</g>
<g>
</g>
<g>
</g>
<g>
</g>
<g>
</g>
<g>
</g>
<g>
</g>
</svg>
