<?xml version="1.0" encoding="iso-8859-1"?>
<!-- Generator: Adobe Illustrator 19.0.0, SVG Export Plug-In . SVG Version: 6.00 Build 0)  -->
<svg version="1.1" id="Layer_1" xmlns="http://www.w3.org/2000/svg" xmlns:xlink="http://www.w3.org/1999/xlink" x="0px" y="0px"
	 viewBox="0 0 512 512" style="enable-background:new 0 0 512 512;" xml:space="preserve">
<g>
	<g>
		<path d="M189.015,299.363c-4.328,0-7.837,3.509-7.837,7.837v44.967c0,4.328,3.509,7.837,7.837,7.837
			c4.328,0,7.837-3.509,7.837-7.837V307.2C196.851,302.872,193.343,299.363,189.015,299.363z"/>
	</g>
</g>
<g>
	<g>
		<path d="M355.546,299.363c-4.328,0-7.837,3.509-7.837,7.837v44.967c0,4.328,3.509,7.837,7.837,7.837
			c4.328,0,7.837-3.509,7.837-7.837V307.2C363.383,302.872,359.874,299.363,355.546,299.363z"/>
	</g>
</g>
<g>
	<g>
		<path d="M135.093,411.167H30.128c-4.328,0-7.837,3.509-7.837,7.837c0,4.328,3.509,7.837,7.837,7.837h104.965
			c4.328,0,7.837-3.509,7.837-7.837C142.929,414.676,139.421,411.167,135.093,411.167z"/>
	</g>
</g>
<g>
	<g>
		<path d="M481.873,411.167H176.064c-4.328,0-7.837,3.509-7.837,7.837c0,4.328,3.509,7.837,7.837,7.837h305.809
			c4.328,0,7.837-3.509,7.837-7.837C489.71,414.676,486.201,411.167,481.873,411.167z"/>
	</g>
</g>
<g>
	<g>
		<path d="M185.605,448.784H71.69c-4.328,0-7.837,3.509-7.837,7.837c0,4.328,3.509,7.837,7.837,7.837h113.915
			c4.328,0,7.837-3.509,7.837-7.837C193.442,452.292,189.933,448.784,185.605,448.784z"/>
	</g>
</g>
<g>
	<g>
		<path d="M440.31,448.784H326.395c-4.328,0-7.837,3.509-7.837,7.837c0,4.328,3.509,7.837,7.837,7.837H440.31
			c4.328,0,7.837-3.509,7.837-7.837C448.146,452.292,444.638,448.784,440.31,448.784z"/>
	</g>
</g>
<g>
	<g>
		<path d="M284.221,448.784h-56.442c-4.328,0-7.837,3.509-7.837,7.837c0,4.328,3.509,7.837,7.837,7.837h56.442
			c4.328,0,7.837-3.509,7.837-7.837C292.057,452.292,288.549,448.784,284.221,448.784z"/>
	</g>
</g>
<g>
	<g>
		<path d="M243.022,329.214c-4.328,0-7.837,3.509-7.837,7.837v2.541c0,4.328,3.509,7.837,7.837,7.837
			c4.328,0,7.837-3.509,7.837-7.837v-2.541C250.859,332.723,247.35,329.214,243.022,329.214z"/>
	</g>
</g>
<g>
	<g>
		<path d="M409.161,342.204c-4.328,0-7.837,3.509-7.837,7.837v2.541c0,4.328,3.509,7.837,7.837,7.837s7.837-3.509,7.837-7.837
			v-2.541C416.998,345.713,413.489,342.204,409.161,342.204z"/>
	</g>
</g>
<g>
	<g>
		<path d="M95.692,328.62c-4.328,0-7.837,3.509-7.837,7.837v2.541c0,4.328,3.509,7.837,7.837,7.837s7.837-3.509,7.837-7.837v-2.541
			C103.528,332.129,100.02,328.62,95.692,328.62z"/>
	</g>
</g>
<g>
	<g>
		<path d="M504.163,373.551h-21.42V60.604c0-7.202-5.859-13.061-13.061-13.061h-24.033c-7.203,0-13.061,5.859-13.061,13.061v33.68
			H79.412v-33.68c0-7.202-5.859-13.061-13.061-13.061H42.318c-7.202,0-13.061,5.859-13.061,13.061v312.947H7.837
			c-4.328,0-7.837,3.509-7.837,7.837s3.509,7.837,7.837,7.837h496.327c4.328,0,7.837-3.509,7.837-7.837
			S508.491,373.551,504.163,373.551z M63.739,373.551H44.931V63.216h18.808V373.551z M207.89,373.551h-0.001h-42.385V271.673
			c0-4.328-3.509-7.837-7.837-7.837s-7.837,3.509-7.837,7.837v101.878h-11.038V221.963c0-0.705,0.574-1.279,1.279-1.279h41.107
			v47.968c0,4.328,3.509,7.837,7.837,7.837c4.328,0,7.837-3.509,7.837-7.837v-47.968h9.759c0.705,0,1.279,0.574,1.279,1.279V373.551
			z M222.93,217.431h-0.001c-1.99-7.15-8.542-12.42-16.318-12.42h-66.54c-7.776,0-14.329,5.269-16.318,12.42v-26.459
			c0-0.705,0.574-1.279,1.279-1.279h96.62c0.705,0,1.279,0.574,1.279,1.279V217.431z M374.421,373.551h-0.001h-42.385V271.673
			c0-4.328-3.509-7.837-7.837-7.837c-4.328,0-7.837,3.509-7.837,7.837v101.878h-11.038V221.963c0-0.705,0.574-1.279,1.279-1.279
			h41.107v47.968c0,4.328,3.509,7.837,7.837,7.837c4.328,0,7.837-3.509,7.837-7.837v-47.968h9.759c0.705,0,1.279,0.574,1.279,1.279
			V373.551z M389.462,217.431h-0.001c-1.989-7.15-8.542-12.42-16.318-12.42h-66.54c-7.776,0-14.329,5.269-16.318,12.42v-26.459
			c0-0.705,0.574-1.279,1.279-1.279h96.62c0.705,0,1.279,0.574,1.279,1.279V217.431z M432.588,133.224h-48.065
			c-4.328,0-7.837,3.509-7.837,7.837c0,4.328,3.509,7.837,7.837,7.837h48.065v224.653h-42.494V236.977
			c8.449-0.954,15.04-8.137,15.04-16.836v-29.168c0-9.348-7.605-16.952-16.952-16.952h-96.62c-9.348,0-16.952,7.605-16.952,16.952
			v29.168c0,8.7,6.59,15.882,15.04,16.836v136.574h-15.803v-0.974c0-4.328-3.509-7.837-7.837-7.837
			c-4.328,0-7.837,3.509-7.837,7.837v0.974h-34.611V236.977c8.449-0.954,15.039-8.137,15.039-16.836v-29.168
			c0-9.348-7.605-16.952-16.952-16.952h-96.62c-9.348,0-16.952,7.605-16.952,16.952v29.168c0,8.7,6.59,15.882,15.04,16.836v136.574
			h-12.302c0.011-0.173,0.026-0.346,0.026-0.522v-5.441c0-4.328-3.509-7.837-7.837-7.837s-7.837,3.509-7.837,7.837v5.441
			c0,0.177,0.015,0.349,0.026,0.522H79.412V148.898h263.314c4.328,0,7.837-3.509,7.837-7.837c0-4.328-3.509-7.837-7.837-7.837
			H79.412v-23.267h353.176V133.224z M467.069,373.551h-18.808V63.216h18.808V373.551z"/>
	</g>
</g>
<g>
</g>
<g>
</g>
<g>
</g>
<g>
</g>
<g>
</g>
<g>
</g>
<g>
</g>
<g>
</g>
<g>
</g>
<g>
</g>
<g>
</g>
<g>
</g>
<g>
</g>
<g>
</g>
<g>
</g>
</svg>
