<svg height="512pt" viewBox="-109 0 512 512" width="512pt" xmlns="http://www.w3.org/2000/svg"><path d="m248.652344 282.210938c0-56.238282-45.75-101.992188-101.988282-101.992188-56.238281 0-101.988281 45.753906-101.988281 101.992188 0 56.234374 45.75 101.988281 101.988281 101.988281 56.238282 0 101.988282-45.753907 101.988282-101.988281zm-101.988282 86.988281c-47.964843 0-86.988281-39.023438-86.988281-86.988281 0-47.96875 39.023438-86.992188 86.988281-86.992188 47.964844 0 86.988282 39.023438 86.988282 86.992188 0 47.964843-39.023438 86.988281-86.988282 86.988281zm0 0"/><path d="m135.628906 271.867188h-19.109375v-26.605469h-15v68.210937h15v-26.605468h19.109375v26.605468h15v-68.210937h-15zm0 0"/><path d="m157.980469 286.867188h18.828125v7.957031l-18.828125 10.335937v21.496094h33.828125v-15h-14.496094l14.496094-7.957031v-31.832031h-33.828125zm0 0"/><path d="m32.175781 295.917969h-17.175781v-27.394531h17.175781v-15h-32.175781v57.394531h32.175781zm0 0"/><path d="m261.152344 253.523438v15h17.175781v27.394531h-17.175781v15h32.175781v-57.394531zm0 0"/><path d="m182.4375 113.710938 20.722656-20.726563v-60.324219h-112.984375v60.328125l20.722657 20.722657zm-65.324219-15-11.9375-11.9375v-39.113282h82.984375v39.113282l-11.9375 11.9375h-9.265625v-25.644532h11.28125v-15h-63.144531v15h11.28125v25.644532zm24.261719 0v-25.644532h10.585938v25.644532zm0 0"/><path d="m24 172.949219h41.167969v-15h-41.167969v-13.925781c0-16.714844 13.597656-30.3125 30.3125-30.3125h37.515625l-26.9375-26.9375v-59.835938l11.9375-11.9375h139.675781l11.9375 11.9375v59.835938l-26.9375 26.9375h37.519532c16.710937 0 30.3125 13.597656 30.3125 30.3125v97h15v-97c0-24.984376-20.328126-45.3125-45.3125-45.3125h-1.304688l5.722656-5.722657v-72.261719l-20.722656-20.726562h-152.101562l-20.722657 20.726562v72.261719l5.722657 5.722657h-1.304688c-24.984375 0-45.3125 20.328124-45.3125 45.3125v97h15zm0 0"/><path d="m269.335938 420.417969c0 16.714843-13.601563 30.3125-30.3125 30.3125h-14.664063v37.316406h22.589844v8.953125h-200.566407v-8.953125h22.59375v-22.316406h18.476563v22.316406h49.113281v-22.316406h10.097656v-15h-92.351562c-16.554688 0-30.050781-13.339844-30.308594-29.835938h41.164063v-15h-41.167969v-82.476562h-15v97c0 24.871093 20.144531 45.128906 44.976562 45.3125v7.316406h-22.59375v38.953125h230.566407v-38.953125h-22.589844v-7.316406c24.828125-.183594 44.976563-20.441407 44.976563-45.3125v-97h-15zm-147.769532 45.3125v7.316406h-19.113281v-7.316406zm0 0"/><path d="m205.882812 488.046875v-37.316406h-49.113281v37.316406zm-34.113281-22.316406h19.113281v7.316406h-19.113281zm0 0"/><path d="m223.484375 282.378906h-15c0-12.398437-3.675781-24.363281-10.625-34.605468l12.414063-8.421876c8.640624 12.738282 13.210937 27.617188 13.210937 43.027344zm-31.144531-41.609375c-3.003906-3.296875-6.371094-6.273437-10.007813-8.851562l8.675781-12.238281c4.511719 3.199218 8.6875 6.898437 12.417969 10.984374zm-17.628906-13.472656c-3.972657-2.03125-8.164063-3.628906-12.46875-4.75l3.785156-14.515625c5.351562 1.398438 10.570312 3.382812 15.511718 5.910156zm0 0"/><path d="m259.335938 225.242188h-15v-81.21875c0-2.929688-2.386719-5.3125-5.316407-5.3125h-20.171875v-15h20.171875c11.203125 0 20.316407 9.109374 20.316407 20.3125zm-50.484376-86.53125h-15v-15h15zm-25 0h-15v-15h15zm0 0"/></svg>