<?xml version="1.0" encoding="iso-8859-1"?>
<!-- Generator: Adobe Illustrator 16.0.0, SVG Export Plug-In . SVG Version: 6.00 Build 0)  -->
<!DOCTYPE svg PUBLIC "-//W3C//DTD SVG 1.1//EN" "http://www.w3.org/Graphics/SVG/1.1/DTD/svg11.dtd">
<svg version="1.1" id="Capa_1" xmlns="http://www.w3.org/2000/svg" xmlns:xlink="http://www.w3.org/1999/xlink" x="0px" y="0px"
	 width="411.757px" height="411.757px" viewBox="0 0 411.757 411.757" style="enable-background:new 0 0 411.757 411.757;"
	 xml:space="preserve">
<g>
	<path d="M384.45,130.625c-15.08,0-27.308,12.226-27.308,27.306v4.418h-112.41v-31.817c0-4.266-3.459-7.724-7.726-7.724H225.54
		V87.401h65.533c16.305,0,29.567-13.265,29.567-29.568c0-16.305-13.264-29.568-29.567-29.568H120.685
		c-16.305,0-29.568,13.264-29.568,29.568c0,16.304,13.264,29.568,29.568,29.568h65.533v35.407h-11.469
		c-4.266,0-7.723,3.458-7.723,7.724v31.817H54.614v-4.418c0-15.08-12.227-27.306-27.307-27.306C12.227,130.625,0,142.852,0,157.931
		v198.254c0,15.082,12.227,27.307,27.307,27.307c15.08,0,27.307-12.226,27.307-27.307v-4.417h302.529v4.417
		c0,15.082,12.228,27.307,27.308,27.307s27.307-12.226,27.307-27.307V157.931C411.757,142.852,399.53,130.625,384.45,130.625z"/>
</g>
<g>
</g>
<g>
</g>
<g>
</g>
<g>
</g>
<g>
</g>
<g>
</g>
<g>
</g>
<g>
</g>
<g>
</g>
<g>
</g>
<g>
</g>
<g>
</g>
<g>
</g>
<g>
</g>
<g>
</g>
</svg>
