<?xml version="1.0" encoding="iso-8859-1"?>
<!-- Generator: Adobe Illustrator 16.0.0, SVG Export Plug-In . SVG Version: 6.00 Build 0)  -->
<!DOCTYPE svg PUBLIC "-//W3C//DTD SVG 1.1//EN" "http://www.w3.org/Graphics/SVG/1.1/DTD/svg11.dtd">
<svg version="1.1" id="Capa_1" xmlns="http://www.w3.org/2000/svg" xmlns:xlink="http://www.w3.org/1999/xlink" x="0px" y="0px"
	 width="428px" height="428px" viewBox="0 0 428 428" style="enable-background:new 0 0 428 428;" xml:space="preserve">
<g>
	<path d="M308,194.817h-2.429v-18.272c0-16.568-13.433-30-30-30H249v-23.038h61.009c19.33,0,35-15.67,35-35s-15.67-35-35-35h-67.416
		c-6.338-8.966-16.776-14.826-28.593-14.826c-11.816,0-22.255,5.86-28.593,14.826h-67.416c-19.33,0-35,15.67-35,35s15.67,35,35,35
		H179v23.038h-26.571c-16.568,0-30,13.432-30,30v18.272H120c-66.169,0-120,53.832-120,120v74.501h80v-74.501
		c0-22.056,17.944-40,40-40h2.429v18.272c0,16.568,13.432,30,30,30h123.143c16.567,0,30-13.432,30-30v-18.272H308
		c22.056,0,40,17.944,40,40v74.501h80v-74.501C428,248.649,374.169,194.817,308,194.817z"/>
</g>
<g>
</g>
<g>
</g>
<g>
</g>
<g>
</g>
<g>
</g>
<g>
</g>
<g>
</g>
<g>
</g>
<g>
</g>
<g>
</g>
<g>
</g>
<g>
</g>
<g>
</g>
<g>
</g>
<g>
</g>
</svg>
