<?xml version="1.0" encoding="iso-8859-1"?>
<!-- Generator: Adobe Illustrator 19.0.0, SVG Export Plug-In . SVG Version: 6.00 Build 0)  -->
<svg version="1.1" id="Capa_1" xmlns="http://www.w3.org/2000/svg" xmlns:xlink="http://www.w3.org/1999/xlink" x="0px" y="0px"
	 viewBox="0 0 495.36 495.36" style="enable-background:new 0 0 495.36 495.36;" xml:space="preserve">
<g>
	<g>
		<path d="M247.467,0C110.677,0.118-0.118,111.104,0,247.893c0.118,136.79,111.103,247.584,247.893,247.467
			C384.6,495.242,495.36,384.387,495.36,247.68C495.125,110.904,384.242,0.117,247.467,0z M247.467,474.027v0.213
			C122.459,474.122,21.216,372.688,21.334,247.68c0.118-125.008,101.552-226.251,226.56-226.133
			c124.841,0.118,226.015,101.292,226.133,226.133C473.792,372.674,372.46,473.909,247.467,474.027z"/>
	</g>
</g>
<g>
	<g>
		<path d="M228.693,170.667h82.773v-21.333H230.4c-24.96-0.944-45.96,18.525-46.903,43.485c-0.027,0.722-0.037,1.445-0.03,2.168
			V345.6H204.8v-87.253h106.667v-21.333H204.8v-42.667C204.917,181.234,215.58,170.666,228.693,170.667z"/>
	</g>
</g>
<g>
</g>
<g>
</g>
<g>
</g>
<g>
</g>
<g>
</g>
<g>
</g>
<g>
</g>
<g>
</g>
<g>
</g>
<g>
</g>
<g>
</g>
<g>
</g>
<g>
</g>
<g>
</g>
<g>
</g>
</svg>
