<?xml version="1.0" encoding="UTF-8" standalone="no"?>
<!-- Created with Inkscape (http://www.inkscape.org/) -->

<svg
   xmlns:osb="http://www.openswatchbook.org/uri/2009/osb"
   xmlns:dc="http://purl.org/dc/elements/1.1/"
   xmlns:cc="http://creativecommons.org/ns#"
   xmlns:rdf="http://www.w3.org/1999/02/22-rdf-syntax-ns#"
   xmlns:svg="http://www.w3.org/2000/svg"
   xmlns="http://www.w3.org/2000/svg"
   xmlns:xlink="http://www.w3.org/1999/xlink"
   xmlns:sodipodi="http://sodipodi.sourceforge.net/DTD/sodipodi-0.dtd"
   xmlns:inkscape="http://www.inkscape.org/namespaces/inkscape"
   width="210mm"
   height="297mm"
   viewBox="0 0 210 297"
   version="1.1"
   id="svg4548"
   inkscape:version="0.92.0 r15299"
   sodipodi:docname="lignite market.svg">
  <defs
     id="defs4542">
    <marker
       inkscape:stockid="Arrow2Mstart"
       orient="auto"
       refY="0.0"
       refX="0.0"
       id="Arrow2Mstart"
       style="overflow:visible"
       inkscape:isstock="true">
      <path
         id="path5905"
         style="fill-rule:evenodd;stroke-width:0.625;stroke-linejoin:round;stroke:#000000;stroke-opacity:1;fill:#000000;fill-opacity:1"
         d="M 8.7185878,4.0337352 L -2.2072895,0.016013256 L 8.7185884,-4.0017078 C 6.9730900,-1.6296469 6.9831476,1.6157441 8.7185878,4.0337352 z "
         transform="scale(0.6) translate(0,0)" />
    </marker>
    <marker
       inkscape:stockid="Arrow2Mend"
       orient="auto"
       refY="0.0"
       refX="0.0"
       id="Arrow2Mend"
       style="overflow:visible;"
       inkscape:isstock="true">
      <path
         id="path5908"
         style="fill-rule:evenodd;stroke-width:0.625;stroke-linejoin:round;stroke:#000000;stroke-opacity:1;fill:#000000;fill-opacity:1"
         d="M 8.7185878,4.0337352 L -2.2072895,0.016013256 L 8.7185884,-4.0017078 C 6.9730900,-1.6296469 6.9831476,1.6157441 8.7185878,4.0337352 z "
         transform="scale(0.6) rotate(180) translate(0,0)" />
    </marker>
    <marker
       inkscape:stockid="TriangleInM"
       orient="auto"
       refY="0.0"
       refX="0.0"
       id="TriangleInM"
       style="overflow:visible"
       inkscape:isstock="true">
      <path
         id="path6017"
         d="M 5.77,0.0 L -2.88,5.0 L -2.88,-5.0 L 5.77,0.0 z "
         style="fill-rule:evenodd;stroke:#000000;stroke-width:1pt;stroke-opacity:1;fill:#000000;fill-opacity:1"
         transform="scale(-0.4)" />
    </marker>
    <marker
       inkscape:stockid="Arrow1Mend"
       orient="auto"
       refY="0.0"
       refX="0.0"
       id="Arrow1Mend"
       style="overflow:visible;"
       inkscape:isstock="true">
      <path
         id="path5890"
         d="M 0.0,0.0 L 5.0,-5.0 L -12.5,0.0 L 5.0,5.0 L 0.0,0.0 z "
         style="fill-rule:evenodd;stroke:#000000;stroke-width:1pt;stroke-opacity:1;fill:#000000;fill-opacity:1"
         transform="scale(0.4) rotate(180) translate(10,0)" />
    </marker>
    <marker
       inkscape:stockid="Arrow1Lstart"
       orient="auto"
       refY="0.0"
       refX="0.0"
       id="Arrow1Lstart"
       style="overflow:visible"
       inkscape:isstock="true">
      <path
         id="path5881"
         d="M 0.0,0.0 L 5.0,-5.0 L -12.5,0.0 L 5.0,5.0 L 0.0,0.0 z "
         style="fill-rule:evenodd;stroke:#000000;stroke-width:1pt;stroke-opacity:1;fill:#000000;fill-opacity:1"
         transform="scale(0.8) translate(12.5,0)" />
    </marker>
    <linearGradient
       id="linearGradient5839"
       osb:paint="solid">
      <stop
         style="stop-color:#000000;stop-opacity:1;"
         offset="0"
         id="stop5837" />
    </linearGradient>
    <linearGradient
       id="linearGradient5833"
       osb:paint="solid">
      <stop
         style="stop-color:#ffffff;stop-opacity:1;"
         offset="0"
         id="stop5831" />
    </linearGradient>
    <linearGradient
       id="linearGradient5765"
       osb:paint="solid">
      <stop
         style="stop-color:#000000;stop-opacity:1;"
         offset="0"
         id="stop5763" />
    </linearGradient>
    <linearGradient
       id="linearGradient5759"
       osb:paint="solid">
      <stop
         style="stop-color:#ffffff;stop-opacity:1;"
         offset="0"
         id="stop5757" />
    </linearGradient>
    <linearGradient
       id="linearGradient5751"
       osb:paint="solid">
      <stop
         style="stop-color:#000000;stop-opacity:1;"
         offset="0"
         id="stop5749" />
    </linearGradient>
    <linearGradient
       inkscape:collect="always"
       xlink:href="#linearGradient5759"
       id="linearGradient5761"
       x1="61.605625"
       y1="58.328309"
       x2="84.991709"
       y2="58.328309"
       gradientUnits="userSpaceOnUse"
       gradientTransform="matrix(1.1530886,0,0,1.1549076,-11.304924,-10.350928)" />
    <linearGradient
       inkscape:collect="always"
       xlink:href="#linearGradient5765"
       id="linearGradient5767"
       x1="61.605625"
       y1="58.328309"
       x2="84.991709"
       y2="58.328309"
       gradientUnits="userSpaceOnUse"
       gradientTransform="matrix(1.1530886,0,0,1.1549076,-11.304924,-10.350928)" />
    <linearGradient
       inkscape:collect="always"
       xlink:href="#linearGradient5833"
       id="linearGradient5835"
       x1="61.338352"
       y1="103.02914"
       x2="88.332577"
       y2="103.02914"
       gradientUnits="userSpaceOnUse"
       gradientTransform="matrix(1.000621,0,0,0.8333179,-1.2204758,13.172635)" />
    <linearGradient
       inkscape:collect="always"
       xlink:href="#linearGradient5839"
       id="linearGradient5841"
       x1="61.338352"
       y1="103.02914"
       x2="88.332577"
       y2="103.02914"
       gradientUnits="userSpaceOnUse"
       gradientTransform="matrix(1.000621,0,0,0.8333179,-1.2204758,13.172635)" />
    <linearGradient
       inkscape:collect="always"
       xlink:href="#linearGradient5839"
       id="linearGradient4565"
       x1="-0.49747527"
       y1="246.50706"
       x2="493.48792"
       y2="246.50706"
       gradientUnits="userSpaceOnUse" />
    <linearGradient
       inkscape:collect="always"
       xlink:href="#linearGradient5839"
       id="linearGradient4559"
       x1="0.00017117716"
       y1="246.49896"
       x2="493.00113"
       y2="246.49896"
       gradientUnits="userSpaceOnUse" />
    <linearGradient
       inkscape:collect="always"
       xlink:href="#linearGradient5839"
       id="linearGradient7383"
       gradientUnits="userSpaceOnUse"
       x1="-0.49747527"
       y1="246.50706"
       x2="493.48792"
       y2="246.50706" />
    <linearGradient
       inkscape:collect="always"
       xlink:href="#linearGradient5839"
       id="linearGradient7385"
       gradientUnits="userSpaceOnUse"
       x1="0.00017117716"
       y1="246.49896"
       x2="493.00113"
       y2="246.49896" />
    <linearGradient
       inkscape:collect="always"
       xlink:href="#linearGradient5839"
       id="linearGradient7387"
       gradientUnits="userSpaceOnUse"
       x1="-0.49747527"
       y1="246.50706"
       x2="493.48792"
       y2="246.50706" />
    <linearGradient
       inkscape:collect="always"
       xlink:href="#linearGradient5839"
       id="linearGradient7389"
       gradientUnits="userSpaceOnUse"
       x1="0.00017117716"
       y1="246.49896"
       x2="493.00113"
       y2="246.49896" />
    <linearGradient
       inkscape:collect="always"
       xlink:href="#linearGradient5839"
       id="linearGradient7391"
       gradientUnits="userSpaceOnUse"
       x1="-0.49747527"
       y1="246.50706"
       x2="493.48792"
       y2="246.50706" />
    <linearGradient
       inkscape:collect="always"
       xlink:href="#linearGradient5839"
       id="linearGradient7393"
       gradientUnits="userSpaceOnUse"
       x1="0.00017117716"
       y1="246.49896"
       x2="493.00113"
       y2="246.49896" />
  </defs>
  <sodipodi:namedview
     id="base"
     pagecolor="#ffffff"
     bordercolor="#666666"
     borderopacity="1.0"
     inkscape:pageopacity="0.0"
     inkscape:pageshadow="2"
     inkscape:zoom="1.8029464"
     inkscape:cx="396.85039"
     inkscape:cy="965.69866"
     inkscape:document-units="mm"
     inkscape:current-layer="g22"
     showgrid="false"
     inkscape:window-width="1920"
     inkscape:window-height="1005"
     inkscape:window-x="-9"
     inkscape:window-y="-9"
     inkscape:window-maximized="1" />
  <metadata
     id="metadata4545">
    <rdf:RDF>
      <cc:Work
         rdf:about="">
        <dc:format>image/svg+xml</dc:format>
        <dc:type
           rdf:resource="http://purl.org/dc/dcmitype/StillImage" />
        <dc:title></dc:title>
      </cc:Work>
    </rdf:RDF>
  </metadata>
  <g
     inkscape:label="Layer 1"
     inkscape:groupmode="layer"
     id="layer1">
    <rect
       style="fill:url(#linearGradient5761);fill-opacity:1;stroke:url(#linearGradient5767);stroke-width:0.19040965;stroke-miterlimit:4;stroke-dasharray:none;stroke-dashoffset:0"
       id="rect5755"
       width="26.966227"
       height="32.101849"
       x="59.731812"
       y="40.961952" />
    <g
       id="g28"
       transform="matrix(0.11248789,0,0,0.09890734,23.29459,65.009515)">
      <g
         id="g26">
        <g
           id="g24">
          <path
             inkscape:connector-curvature="0"
             d="M 270.834,243.333 H 254.82 v -2.499 c 0,-4.142 -3.357,-7.5 -7.5,-7.5 -4.143,0 -7.5,3.358 -7.5,7.5 v 2.499 h -39.955 v -2.499 c 0,-4.142 -3.357,-7.5 -7.5,-7.5 -4.143,0 -7.5,3.358 -7.5,7.5 v 2.499 H 144.91 v -2.499 c 0,-4.142 -3.357,-7.5 -7.5,-7.5 -4.143,0 -7.5,3.358 -7.5,7.5 v 2.499 H 89.955 v -2.499 c 0,-4.142 -3.357,-7.5 -7.5,-7.5 -4.143,0 -7.5,3.358 -7.5,7.5 v 2.499 H 35 v -91.636 l 39.964,-12.363 c 0.09,4.063 3.406,7.332 7.492,7.332 4.143,0 7.5,-3.358 7.5,-7.5 v -6.895 L 132.43,89.762 c 3.456,3.078 8.791,2.323 11.282,-1.538 l 41.154,30.703 v 6.239 c 0,4.142 3.357,7.5 7.5,7.5 4.143,0 7.5,-3.358 7.5,-7.5 v -6.239 l 40.798,-30.438 5.828,7.644 c 2.473,3.244 7.531,2.594 9.103,-1.17 l 14.109,-33.767 c 1.573,-3.764 -1.519,-7.819 -5.565,-7.299 l -36.298,4.665 c -4.046,0.52 -6.012,5.225 -3.538,8.469 l 7.266,9.53 -39.203,29.248 -50.47,-37.654 c -2.973,-2.218 -7.158,-1.919 -9.787,0.706 -0.001,10e-4 -0.002,10e-4 -0.002,0.002 -0.001,0.001 -0.002,0.001 -0.002,0.002 L 78.463,122.55 35,135.995 V 7.5 C 35,3.359 31.643,0 27.5,0 23.357,0 20,3.357 20,7.5 c 0,6.017 0,225.639 0,235.833 H 7.5 c -4.143,0 -7.5,3.358 -7.5,7.5 0,4.142 3.357,7.5 7.5,7.5 H 20 v 12.5 c 0,4.142 3.357,7.5 7.5,7.5 4.143,0 7.5,-3.358 7.5,-7.5 v -12.5 c 20.179,0 225.585,0 235.834,0 4.143,0 7.5,-3.358 7.5,-7.5 0,-4.143 -3.357,-7.5 -7.5,-7.5 z"
             id="path2" />
          <path
             inkscape:connector-curvature="0"
             d="m 89.955,159.5 c 0,-4.142 -3.357,-7.5 -7.5,-7.5 -4.143,0 -7.5,3.358 -7.5,7.5 v 20.333 c 0,4.142 3.357,7.5 7.5,7.5 4.143,0 7.5,-3.358 7.5,-7.5 z"
             id="path4" />
          <path
             inkscape:connector-curvature="0"
             d="m 82.455,192.666 c -4.143,0 -7.5,3.358 -7.5,7.5 v 20.333 c 0,4.142 3.357,7.5 7.5,7.5 4.143,0 7.5,-3.358 7.5,-7.5 v -20.333 c 0,-4.142 -3.357,-7.5 -7.5,-7.5 z"
             id="path6" />
          <path
             inkscape:connector-curvature="0"
             d="m 144.91,151.309 c 0,-4.142 -3.357,-7.5 -7.5,-7.5 -4.143,0 -7.5,3.358 -7.5,7.5 v 22.381 c 0,4.142 3.357,7.5 7.5,7.5 4.143,0 7.5,-3.358 7.5,-7.5 z"
             id="path8" />
          <path
             inkscape:connector-curvature="0"
             d="m 144.91,106.547 c 0,-4.142 -3.357,-7.5 -7.5,-7.5 -4.143,0 -7.5,3.358 -7.5,7.5 v 22.381 c 0,4.142 3.357,7.5 7.5,7.5 4.143,0 7.5,-3.358 7.5,-7.5 z"
             id="path10" />
          <path
             inkscape:connector-curvature="0"
             d="m 137.41,188.572 c -4.143,0 -7.5,3.358 -7.5,7.5 v 22.381 c 0,4.142 3.357,7.5 7.5,7.5 4.143,0 7.5,-3.358 7.5,-7.5 v -22.381 c 0,-4.143 -3.357,-7.5 -7.5,-7.5 z"
             id="path12" />
          <path
             inkscape:connector-curvature="0"
             d="m 192.365,187.067 c -4.143,0 -7.5,3.358 -7.5,7.5 V 217.7 c 0,4.142 3.357,7.5 7.5,7.5 4.143,0 7.5,-3.358 7.5,-7.5 v -23.133 c 0,-4.143 -3.357,-7.5 -7.5,-7.5 z"
             id="path14" />
          <path
             inkscape:connector-curvature="0"
             d="m 199.865,148.299 c 0,-4.142 -3.357,-7.5 -7.5,-7.5 -4.143,0 -7.5,3.358 -7.5,7.5 v 23.133 c 0,4.142 3.357,7.5 7.5,7.5 4.143,0 7.5,-3.358 7.5,-7.5 z"
             id="path16" />
          <path
             inkscape:connector-curvature="0"
             d="m 254.82,151.309 c 0,-4.142 -3.357,-7.5 -7.5,-7.5 -4.143,0 -7.5,3.358 -7.5,7.5 v 22.381 c 0,4.142 3.357,7.5 7.5,7.5 4.143,0 7.5,-3.358 7.5,-7.5 z"
             id="path18" />
          <path
             inkscape:connector-curvature="0"
             d="m 247.32,188.572 c -4.143,0 -7.5,3.358 -7.5,7.5 v 22.381 c 0,4.142 3.357,7.5 7.5,7.5 4.143,0 7.5,-3.358 7.5,-7.5 v -22.381 c 0,-4.143 -3.357,-7.5 -7.5,-7.5 z"
             id="path20" />
          <path
             inkscape:connector-curvature="0"
             d="m 254.82,106.547 c 0,-4.142 -3.357,-7.5 -7.5,-7.5 -4.143,0 -7.5,3.358 -7.5,7.5 v 22.381 c 0,4.142 3.357,7.5 7.5,7.5 4.143,0 7.5,-3.358 7.5,-7.5 z"
             id="path22" />
        </g>
      </g>
    </g>
    <rect
       style="fill:url(#linearGradient5835);fill-opacity:1;stroke:url(#linearGradient5841);stroke-width:0.17623715;stroke-miterlimit:4;stroke-dasharray:none;stroke-dashoffset:0"
       id="rect5829"
       width="27.010986"
       height="29.955908"
       x="60.155956"
       y="84.050713" />
    <flowRoot
       xml:space="preserve"
       id="flowRoot5843"
       style="font-style:normal;font-weight:normal;font-size:40px;line-height:25px;font-family:sans-serif;letter-spacing:0px;word-spacing:0px;fill:#000000;fill-opacity:1;stroke:none"
       transform="scale(0.26458333)"><flowRegion
         id="flowRegion5845"><rect
           id="rect5847"
           width="78.791901"
           height="92.428955"
           x="241.93153"
           y="338.6413" /></flowRegion><flowPara
         id="flowPara5849" /></flowRoot>    <flowRoot
       xml:space="preserve"
       id="flowRoot5851"
       style="fill:black;fill-opacity:1;stroke:none;font-family:sans-serif;font-style:normal;font-weight:normal;font-size:40px;line-height:25px;letter-spacing:0px;word-spacing:0px"><flowRegion
         id="flowRegion5853"><rect
           id="rect5855"
           width="62.675186"
           height="104.82841"
           x="259.5751"
           y="337.69327" /></flowRegion><flowPara
         id="flowPara5857"></flowPara></flowRoot>    <flowRoot
       xml:space="preserve"
       id="flowRoot5859"
       style="font-style:normal;font-weight:normal;font-size:40px;line-height:25px;font-family:sans-serif;letter-spacing:0px;word-spacing:0px;fill:#000000;fill-opacity:1;stroke:none"
       transform="scale(0.26458333)"><flowRegion
         id="flowRegion5861"><rect
           id="rect5863"
           width="121.46783"
           height="115.36671"
           x="230.17877"
           y="327.70959" /></flowRegion><flowPara
         id="flowPara5865" /></flowRoot>    <flowRoot
       xml:space="preserve"
       id="flowRoot5867"
       style="font-style:normal;font-weight:normal;font-size:40px;line-height:25px;font-family:sans-serif;letter-spacing:0px;word-spacing:0px;fill:#000000;fill-opacity:1;stroke:none"
       transform="matrix(0.26458333,0,0,0.26458333,0.44025157,7.0440252)"><flowRegion
         id="flowRegion5869"><rect
           id="rect5871"
           width="69.330956"
           height="99.281929"
           x="244.59961"
           y="338.80255" /></flowRegion><flowPara
         id="flowPara5873"
         style="font-size:96px">€</flowPara></flowRoot>    <path
       style="fill:none;fill-rule:evenodd;stroke:#000000;stroke-width:0.66500002;stroke-linecap:butt;stroke-linejoin:miter;stroke-miterlimit:3.4000001;stroke-dasharray:none;stroke-opacity:1;marker-start:url(#Arrow2Mstart);marker-end:url(#Arrow2Mend)"
       d="M 73.313631,84.050713 73.058493,73.063801"
       id="path5875"
       inkscape:connector-type="polyline"
       inkscape:connector-curvature="0"
       inkscape:connection-end="#rect5755"
       inkscape:connection-start="#rect5829" />
    <g
       transform="matrix(0.05170679,0,0,0.05204097,60.77869,44.070881)"
       id="g22"
       style="fill:url(#linearGradient4565);fill-opacity:1;stroke:url(#linearGradient4559)">
      <g
         transform="matrix(1.5796192,0,0,1.7403674,11.795892,-14.833995)"
         id="g6"
         style="fill:url(#linearGradient7391);stroke:url(#linearGradient7393)">
        <g
           id="g4"
           style="fill:url(#linearGradient7387);stroke:url(#linearGradient7389)">
          <path
             inkscape:connector-curvature="0"
             d="M 299.984,218.526 254.778,79.854 c -1.29,-3.956 -4.211,-7.169 -8.025,-8.831 L 128.825,19.67 c -4.65,-2.025 -10.02,-1.482 -14.173,1.435 L 6.186,97.307 C 2.309,100.031 0,104.473 0,109.212 v 118.719 c 0,6.065 3.763,11.495 9.441,13.624 l 106.018,39.758 c 1.643,0.616 3.375,0.926 5.109,0.926 1.273,0 2.546,-0.167 3.788,-0.502 l 165.582,-44.654 c 3.853,-1.038 7.108,-3.613 9.007,-7.122 1.9,-3.508 2.275,-7.641 1.039,-11.435 z M 213.003,88.066 157.19,132.121 142.885,57.532 Z M 110.592,248.409 29.1,217.848 V 116.772 l 84.175,-59.136 19.252,100.379 z m 30.248,-1.256 19.526,-80.465 73.26,-57.828 33.94,104.117 z"
             id="path2-8"
             style="fill:url(#linearGradient7383);stroke:url(#linearGradient7385)" />
        </g>
      </g>
    </g>
  </g>
</svg>
