<?xml version="1.0" encoding="UTF-8" standalone="no"?>
<!-- Generator: Adobe Illustrator 18.0.0, SVG Export Plug-In . SVG Version: 6.00 Build 0)  -->

<svg
   xmlns:dc="http://purl.org/dc/elements/1.1/"
   xmlns:cc="http://creativecommons.org/ns#"
   xmlns:rdf="http://www.w3.org/1999/02/22-rdf-syntax-ns#"
   xmlns:svg="http://www.w3.org/2000/svg"
   xmlns="http://www.w3.org/2000/svg"
   xmlns:sodipodi="http://sodipodi.sourceforge.net/DTD/sodipodi-0.dtd"
   xmlns:inkscape="http://www.inkscape.org/namespaces/inkscape"
   version="1.1"
   id="Capa_1"
   x="0px"
   y="0px"
   viewBox="0 0 41.000999 60"
   xml:space="preserve"
   sodipodi:docname="natural_gas_heater.svg"
   width="41.000999"
   height="60"
   inkscape:version="0.92.0 r15299"><metadata
     id="metadata47"><rdf:RDF><cc:Work
         rdf:about=""><dc:format>image/svg+xml</dc:format><dc:type
           rdf:resource="http://purl.org/dc/dcmitype/StillImage" /><dc:title></dc:title></cc:Work></rdf:RDF></metadata><defs
     id="defs45"><pattern
       y="0"
       x="0"
       height="6"
       width="6"
       patternUnits="userSpaceOnUse"
       id="EMFhbasepattern" /></defs><sodipodi:namedview
     pagecolor="#ffffff"
     bordercolor="#666666"
     borderopacity="1"
     objecttolerance="10"
     gridtolerance="10"
     guidetolerance="10"
     inkscape:pageopacity="0"
     inkscape:pageshadow="2"
     inkscape:window-width="1920"
     inkscape:window-height="1005"
     id="namedview43"
     showgrid="false"
     fit-margin-top="0"
     fit-margin-left="0"
     fit-margin-right="0"
     fit-margin-bottom="0"
     inkscape:zoom="3.9333333"
     inkscape:cx="73.140233"
     inkscape:cy="33.858906"
     inkscape:window-x="-9"
     inkscape:window-y="-9"
     inkscape:window-maximized="1"
     inkscape:current-layer="Capa_1" /><g
     id="g12"
     transform="translate(-9.5)" /><g
     id="g14"
     transform="translate(-9.5)" /><g
     id="g16"
     transform="translate(-9.5)" /><g
     id="g18"
     transform="translate(-9.5)" /><g
     id="g20"
     transform="translate(-9.5)" /><g
     id="g22"
     transform="translate(-9.5)" /><g
     id="g24"
     transform="translate(-9.5)" /><g
     id="g26"
     transform="translate(-9.5)" /><g
     id="g28"
     transform="translate(-9.5)" /><g
     id="g30"
     transform="translate(-9.5)" /><g
     id="g32"
     transform="translate(-9.5)" /><g
     id="g34"
     transform="translate(-9.5)" /><g
     id="g36"
     transform="translate(-9.5)" /><g
     id="g38"
     transform="translate(-9.5)" /><g
     id="g40"
     transform="translate(-9.5)" /><g
     id="g4543"
     transform="translate(-9.5)"><g
       id="g10"><path
         id="path2"
         d="m 16.5,42 h 14 v -7 h -14 z m 8,-6 h 5 v 5 h -5 z m -7,0 h 5 v 5 h -5 z"
         inkscape:connector-curvature="0" /><path
         id="path4"
         d="m 40.5,42 c 1.654,0 3,-1.346 3,-3 0,-0.462 -0.113,-0.894 -0.301,-1.285 l -1.992,1.992 -1.414,-1.414 1.992,-1.992 C 41.394,36.114 40.962,36 40.5,36 c -1.654,0 -3,1.346 -3,3 0,1.654 1.346,3 3,3 z"
         inkscape:connector-curvature="0" /><path
         id="path6"
         d="m 9.5,48 v 10.567 c 0,0.79 0.643,1.433 1.433,1.433 h 38.135 c 0.79,0 1.433,-0.643 1.433,-1.433 V 48 Z m 23,6 h -5 c -0.553,0 -1,-0.447 -1,-1 0,-0.553 0.447,-1 1,-1 h 5 c 0.553,0 1,0.447 1,1 0,0.553 -0.447,1 -1,1 z"
         inkscape:connector-curvature="0" /><path
         id="path8"
         d="M 50.5,46 V 0 h -41 v 46 z m -10,-12 c 2.757,0 5,2.243 5,5 0,2.757 -2.243,5 -5,5 -2.757,0 -5,-2.243 -5,-5 0,-2.757 2.243,-5 5,-5 z m -26,-1 h 18 v 11 h -18 z"
         inkscape:connector-curvature="0" /></g><path
       inkscape:connector-curvature="0"
       style="fill:#fefefe;fill-opacity:1;fill-rule:nonzero;stroke:#ffffff;stroke-width:0.04184076;stroke-miterlimit:4;stroke-dasharray:none;stroke-opacity:1"
       d="m 25.794116,27.889157 c 0.284913,0.11892 0.585021,-0.136758 0.410275,-0.350815 -0.942112,-1.147581 -1.838638,-3.080037 -0.414073,-5.571418 2.374274,-4.153292 3.817832,-6.302778 3.817832,-6.302778 0,0 0.767366,2.509219 2.849129,4.741949 2.005788,2.146513 3.103653,4.848977 1.333393,7.099545 -0.163349,0.211083 0.129161,0.457842 0.410276,0.344869 2.18813,-0.874066 4.64218,-2.634086 4.919495,-6.130345 0.102569,-1.070282 -0.04938,-2.565706 -0.816749,-4.453566 -0.983901,-2.393272 -2.19573,-3.511123 -2.894716,-3.989777 -0.208936,-0.145678 -0.535637,-0.01784 -0.520441,0.199191 0.205136,2.583544 -1.037083,3.237607 -1.743667,1.762995 -0.281115,-0.59163 -0.444465,-1.611371 -0.444465,-2.854089 0,-2.069213 -0.767365,-4.1978873 -2.457848,-5.9281772 -0.440666,-0.451897 -0.953509,-0.8710923 -1.546128,-1.2308256 -0.212735,-0.1278392 -0.524239,0.00298 -0.501446,0.2140567 0.129161,1.4002864 0.0114,5.4197931 -4.494026,10.2212011 -4.087552,4.453567 -2.503435,7.8755 -1.941207,8.803079 1.075071,1.774885 2.571814,2.815438 4.034366,3.424905 z"
       id="path4527" /></g></svg>