<?xml version="1.0" encoding="iso-8859-1"?>
<!-- Generator: Adobe Illustrator 19.0.0, SVG Export Plug-In . SVG Version: 6.00 Build 0)  -->
<svg version="1.1" id="Capa_1" xmlns="http://www.w3.org/2000/svg" xmlns:xlink="http://www.w3.org/1999/xlink" x="0px" y="0px"
	 viewBox="0 0 490 490" style="enable-background:new 0 0 490 490;" xml:space="preserve">
<g>
	<path d="M473.35,448.8V203.9c0-11.4-9.4-20.8-20.8-20.8l-57.3-100.2V20.8c0-11.4-9.4-20.8-20.8-20.8h-260.1
		c-11.4,0-20.8,9.4-20.8,20.8v58.9l-56.1,103.4c-11.4,0-20.8,9.4-20.8,20.8v244.9c-9.5,1.9-16.6,10.4-16.6,20.4
		c0,11.4,9.4,20.8,20.8,20.8h447.3c11.4,0,21.8-9.4,21.8-20.8C489.95,459.2,482.75,450.8,473.35,448.8z M317.25,224.7h114.4v223.7
		h-114.4V224.7z M345.95,183.1l29.6-55.1l28.6,55.1H345.95z M353.65,41.6v37.2L297.45,183c-11.4,0-20.8,9.4-20.8,20.8v244.5h-63.5
		V203.9c0-11.4-9.4-20.8-20.8-20.8l-57.2-103.2V41.6H353.65z M57.15,224.7h114.4v223.7H57.15V224.7z M115.45,128l28.6,55.1h-58.2
		L115.45,128z"/>
</g>
<g>
</g>
<g>
</g>
<g>
</g>
<g>
</g>
<g>
</g>
<g>
</g>
<g>
</g>
<g>
</g>
<g>
</g>
<g>
</g>
<g>
</g>
<g>
</g>
<g>
</g>
<g>
</g>
<g>
</g>
</svg>
