<?xml version="1.0" encoding="iso-8859-1"?>
<!-- Generator: Adobe Illustrator 17.1.0, SVG Export Plug-In . SVG Version: 6.00 Build 0)  -->
<!DOCTYPE svg PUBLIC "-//W3C//DTD SVG 1.1//EN" "http://www.w3.org/Graphics/SVG/1.1/DTD/svg11.dtd">
<svg version="1.1" id="Capa_1" xmlns="http://www.w3.org/2000/svg" xmlns:xlink="http://www.w3.org/1999/xlink" x="0px" y="0px"
	 viewBox="0 0 298 298" style="enable-background:new 0 0 298 298;" xml:space="preserve">
<g>
	<path d="M272.833,125H180.5V91c0-3.35-1.895-6.215-4.816-7.406c5.137-3.645,9.419-8.482,12.467-14.45
		c7.928-15.519,6.327-36.279-3.952-50.488c-0.938-1.295-2.54-1.907-4.095-1.558c-1.561,0.35-2.752,1.596-3.046,3.168
		c-1.9,10.151-5.624,19.863-8.672,23.392c-1.448-4.374-4.781-11.358-12.445-20.838c-6.046-7.479-3.741-17.797-3.72-17.885
		c0.369-1.539-0.202-3.152-1.46-4.113c-1.259-0.961-2.964-1.091-4.353-0.328c-0.699,0.384-17.081,9.771-12.875,42.024
		c0.378,2.893-0.181,5.359-1.573,6.944c-0.932,1.063-2.182,1.646-3.52,1.646c-1.305,0-2.61-0.55-3.775-1.592
		c-3.521-3.144-4.937-10.033-5.184-12.414c-0.163-1.63-1.304-2.996-2.878-3.447c-1.573-0.453-3.266,0.101-4.267,1.399
		c-5.501,7.118-7.459,22.903-1.032,35.992c2.443,4.976,5.697,9.105,9.958,12.322C118.019,84.391,115.5,87.42,115.5,91v34H25.833
		c-4.418,0-8.333,3.582-8.333,8v165h16V141h82v82h-9.667c-4.418,0-8.333,3.582-8.333,8v22.865c-5,1.757-10.506,3.797-15.27,6.118
		C62.521,269.588,51.833,283,51.833,298h194c0-15-11.02-28.373-30.729-37.978c-5.052-2.462-10.604-4.608-16.604-6.438V231
		c0-4.418-3.249-8-7.667-8H180.5v-82h84v157h16V133C280.5,128.582,277.251,125,272.833,125z M132.443,83
		c0.112-2.012,1.389-9.732,13.182-25.576c0.755-1.014,1.945-1.611,3.209-1.611c1.264,0,2.454,0.598,3.209,1.611
		C163.835,73.268,165.112,80.989,165.224,83H132.443z"/>
</g>
<g>
</g>
<g>
</g>
<g>
</g>
<g>
</g>
<g>
</g>
<g>
</g>
<g>
</g>
<g>
</g>
<g>
</g>
<g>
</g>
<g>
</g>
<g>
</g>
<g>
</g>
<g>
</g>
<g>
</g>
</svg>
