<?xml version="1.0" encoding="iso-8859-1"?>
<!-- Generator: Adobe Illustrator 19.0.0, SVG Export Plug-In . SVG Version: 6.00 Build 0)  -->
<svg version="1.1" id="Layer_1" xmlns="http://www.w3.org/2000/svg" xmlns:xlink="http://www.w3.org/1999/xlink" x="0px" y="0px"
	 viewBox="0 0 512 512" style="enable-background:new 0 0 512 512;" xml:space="preserve">
<g>
	<g>
		<path d="M469.335,273.067h-17.067V256h17.067c4.233,0,7.825-3.106,8.44-7.296c0.623-4.19-1.929-8.192-5.99-9.412l-164.582-49.374
			v-84.582l103.996,31.198h-86.929c-4.719,0-8.533,3.823-8.533,8.533c0,4.71,3.814,8.533,8.533,8.533h110.933v17.067h-17.067
			c-4.719,0-8.533,3.823-8.533,8.533s3.814,8.533,8.533,8.533h51.2c4.719,0,8.533-3.823,8.533-8.533s-3.814-8.533-8.533-8.533
			h-17.067V153.6h17.067c4.233,0,7.825-3.106,8.44-7.296c0.623-4.19-1.929-8.192-5.99-9.412l-167.1-50.133L264.373,4.77
			c-1.425-2.901-4.369-4.753-7.603-4.77h-0.06c-3.209,0-6.153,1.801-7.612,4.668l-43.375,85.333
			c-0.043,0.094-0.026,0.188-0.068,0.282c-0.247,0.512-0.316,1.075-0.461,1.63c-0.137,0.555-0.316,1.101-0.333,1.664
			c0,0.102-0.06,0.188-0.06,0.29v42.667H101.923l88.218-25.95c4.523-1.323,7.108-6.067,5.777-10.59
			c-1.323-4.514-6.042-7.117-10.59-5.786L40.262,136.875c-4.07,1.203-6.647,5.205-6.042,9.412c0.606,4.198,4.207,7.313,8.448,7.313
			h17.067v17.067H42.668c-4.719,0-8.533,3.823-8.533,8.533s3.814,8.533,8.533,8.533h51.2c4.719,0,8.533-3.823,8.533-8.533
			s-3.814-8.533-8.533-8.533H76.801V153.6h128v85.333H101.923l88.218-25.95c4.523-1.323,7.108-6.067,5.777-10.59
			c-1.323-4.514-6.042-7.108-10.59-5.786L40.262,239.275c-4.07,1.203-6.647,5.205-6.042,9.412c0.606,4.198,4.207,7.313,8.448,7.313
			h17.067v17.067H42.668c-4.719,0-8.533,3.823-8.533,8.533s3.814,8.533,8.533,8.533h51.2c4.719,0,8.533-3.823,8.533-8.533
			s-3.814-8.533-8.533-8.533H76.801V256H202.02l-63.394,221.867h-27.691c-4.719,0-8.533,3.823-8.533,8.533v17.067
			c0,4.71,3.814,8.533,8.533,8.533s8.533-3.823,8.533-8.533v-8.533h25.583h0.026h221.824h0.026h25.609v8.533
			c0,4.71,3.814,8.533,8.533,8.533s8.533-3.823,8.533-8.533V486.4c0-4.71-3.814-8.533-8.533-8.533h-27.691l-66.176-231.595v-38.537
			l103.996,31.198h-86.929c-4.719,0-8.533,3.823-8.533,8.533s3.814,8.533,8.533,8.533h110.933v17.067h-17.067
			c-4.719,0-8.533,3.823-8.533,8.533s3.814,8.533,8.533,8.533h51.2c4.719,0,8.533-3.823,8.533-8.533
			S474.054,273.067,469.335,273.067z M156.383,477.867l27.887-97.587l55.842,35.524l-59.52,37.879
			c-3.977,2.526-5.146,7.808-2.62,11.785c1.63,2.551,4.386,3.951,7.211,3.951c1.57,0,3.149-0.427,4.574-1.34l66.244-42.155
			l81.621,51.942H156.383z M352.556,467.132L189.16,363.153l19.43-68.019l31.932,21.086l-31.889,21.052
			c-3.934,2.594-5.018,7.893-2.415,11.827c1.63,2.483,4.352,3.823,7.125,3.823c1.613,0,3.251-0.452,4.693-1.408l37.965-25.071
			l61.116,40.354l-40.277,25.634c-3.968,2.534-5.146,7.799-2.611,11.784c1.621,2.552,4.386,3.951,7.211,3.951
			c1.562,0,3.149-0.435,4.574-1.34l41.719-26.547L352.556,467.132z M318.261,347.102l-57.515-37.973
			c-0.009-0.009-0.017-0.017-0.034-0.026l-47.198-31.172L219.777,256h53.291c4.719,0,8.533-3.823,8.533-8.533
			s-3.814-8.533-8.533-8.533h-51.2V204.8h51.2c4.719,0,8.533-3.823,8.533-8.533s-3.814-8.533-8.533-8.533h-51.2V153.6h51.2
			c4.719,0,8.533-3.823,8.533-8.533c0-4.71-3.814-8.533-8.533-8.533h-51.2V102.4h42.667c4.719,0,8.533-3.823,8.533-8.533
			c0-4.71-3.814-8.533-8.533-8.533h-37.291l29.338-57.719l33.553,68.241v151.612c0,0.794,0.111,1.579,0.324,2.347l8.038,28.117
			l-21.299,14.063c-3.934,2.594-5.009,7.893-2.415,11.819c1.638,2.492,4.361,3.831,7.125,3.831c1.621,0,3.251-0.452,4.693-1.408
			l16.811-11.102L318.261,347.102z"/>
	</g>
</g>
<g>
</g>
<g>
</g>
<g>
</g>
<g>
</g>
<g>
</g>
<g>
</g>
<g>
</g>
<g>
</g>
<g>
</g>
<g>
</g>
<g>
</g>
<g>
</g>
<g>
</g>
<g>
</g>
<g>
</g>
</svg>
