<?xml version="1.0" encoding="iso-8859-1"?>
<!-- Generator: Adobe Illustrator 19.0.0, SVG Export Plug-In . SVG Version: 6.00 Build 0)  -->
<svg version="1.1" id="Layer_1" xmlns="http://www.w3.org/2000/svg" xmlns:xlink="http://www.w3.org/1999/xlink" x="0px" y="0px"
	 viewBox="0 0 512.001 512.001" style="enable-background:new 0 0 512.001 512.001;" xml:space="preserve">
<g>
	<g>
		<path d="M433.891,215.644h23.634v-15.622H332.549v15.622h84.924l73.06,225.999H328.859l-73.059-225.999h23.634v-15.622H177.37
			v15.622h62.011l73.06,225.999H162.268V192.731h117.165v-15.622h-26.557V68.796H177.37v15.622h59.885v92.691h-74.986V54.736
			h-15.622v26.557H127.9V54.736h-15.622v14.06H81.034v108.313H54.476v15.622h57.802v7.29H54.476v15.622H78.11L0,457.265h323.175
			h10.734h178.091L433.891,215.644z M21.468,441.642l73.06-225.999h17.749v225.999H21.468z M112.278,177.109H96.656V84.418h15.622
			V177.109z M146.646,441.642H127.9v-19.788h18.746V441.642z M146.646,406.232H127.9v-11.456h18.746V406.232z M146.646,379.154
			H127.9v-11.456h18.746V379.154z M146.646,352.076H127.9V340.62h18.746V352.076z M146.646,324.998H127.9v-11.456h18.746V324.998z
			 M146.646,297.92H127.9v-11.456h18.746V297.92z M146.646,270.841H127.9v-11.456h18.746V270.841z M146.646,243.763H127.9v-11.456
			h18.746V243.763z M146.646,216.685H127.9v-11.456h18.746V216.685z M146.646,189.607H127.9v-11.456h18.746V189.607z
			 M146.646,162.529H127.9v-11.456h18.746V162.529z M146.646,135.45H127.9v-11.456h18.746V135.45z M146.646,108.372H127.9V96.916
			h18.746V108.372z"/>
	</g>
</g>
<g>
	<g>
		<polygon points="259.125,68.796 259.125,162.008 274.747,162.008 274.747,84.418 298.18,84.418 298.18,68.796 		"/>
	</g>
</g>
<g>
	<g>
		<polygon points="430.967,177.109 430.967,68.796 355.461,68.796 355.461,84.418 415.345,84.418 415.345,177.109 354.94,177.109 
			354.94,192.731 457.525,192.731 457.525,177.109 		"/>
	</g>
</g>
<g>
</g>
<g>
</g>
<g>
</g>
<g>
</g>
<g>
</g>
<g>
</g>
<g>
</g>
<g>
</g>
<g>
</g>
<g>
</g>
<g>
</g>
<g>
</g>
<g>
</g>
<g>
</g>
<g>
</g>
</svg>
