<?xml version="1.0" encoding="UTF-8" standalone="no"?>
<!-- Generator: Adobe Illustrator 19.0.0, SVG Export Plug-In . SVG Version: 6.00 Build 0)  -->

<svg
   xmlns:dc="http://purl.org/dc/elements/1.1/"
   xmlns:cc="http://creativecommons.org/ns#"
   xmlns:rdf="http://www.w3.org/1999/02/22-rdf-syntax-ns#"
   xmlns:svg="http://www.w3.org/2000/svg"
   xmlns="http://www.w3.org/2000/svg"
   xmlns:sodipodi="http://sodipodi.sourceforge.net/DTD/sodipodi-0.dtd"
   xmlns:inkscape="http://www.inkscape.org/namespaces/inkscape"
   version="1.1"
   id="Layer_1"
   x="0px"
   y="0px"
   viewBox="0 0 554.67004 511.987"
   xml:space="preserve"
   sodipodi:docname="reserve_grid.svg"
   width="554.67004"
   height="511.987"
   inkscape:version="0.92.0 r15299"><metadata
     id="metadata67"><rdf:RDF><cc:Work
         rdf:about=""><dc:format>image/svg+xml</dc:format><dc:type
           rdf:resource="http://purl.org/dc/dcmitype/StillImage" /><dc:title></dc:title></cc:Work></rdf:RDF></metadata><defs
     id="defs65" /><sodipodi:namedview
     pagecolor="#ffffff"
     bordercolor="#666666"
     borderopacity="1"
     objecttolerance="10"
     gridtolerance="10"
     guidetolerance="10"
     inkscape:pageopacity="0"
     inkscape:pageshadow="2"
     inkscape:window-width="1920"
     inkscape:window-height="1005"
     id="namedview63"
     showgrid="false"
     fit-margin-top="0"
     fit-margin-left="0"
     fit-margin-right="0"
     fit-margin-bottom="0"
     inkscape:zoom="0.4609492"
     inkscape:cx="-830.61308"
     inkscape:cy="257.9935"
     inkscape:window-x="-9"
     inkscape:window-y="-9"
     inkscape:window-maximized="1"
     inkscape:current-layer="flowRoot4505" /><g
     id="g32"
     transform="translate(-7.3119513,-2)" /><g
     id="g34"
     transform="translate(-7.3119513,-2)" /><g
     id="g36"
     transform="translate(-7.3119513,-2)" /><g
     id="g38"
     transform="translate(-7.3119513,-2)" /><g
     id="g40"
     transform="translate(-7.3119513,-2)" /><g
     id="g42"
     transform="translate(-7.3119513,-2)" /><g
     id="g44"
     transform="translate(-7.3119513,-2)" /><g
     id="g46"
     transform="translate(-7.3119513,-2)" /><g
     id="g48"
     transform="translate(-7.3119513,-2)" /><g
     id="g50"
     transform="translate(-7.3119513,-2)" /><g
     id="g52"
     transform="translate(-7.3119513,-2)" /><g
     id="g54"
     transform="translate(-7.3119513,-2)" /><g
     id="g56"
     transform="translate(-7.3119513,-2)" /><g
     id="g58"
     transform="translate(-7.3119513,-2)" /><g
     id="g60"
     transform="translate(-7.3119513,-2)" /><g
     id="g6"
     transform="translate(42.688049)"><g
       id="g4"><path
         d="M 483.734,128.674 319.988,67.271 V 21.335 h 21.344 c 5.875,0 10.655,-4.781 10.655,-10.671 C 351.987,4.773 347.207,0 341.332,0 H 170.657 c -5.891,0 -10.672,4.773 -10.672,10.664 0,5.89 4.781,10.671 10.672,10.671 h 21.327 v 45.936 l -163.73,61.405 c -4.828,1.812 -7.672,6.812 -6.75,11.891 0.922,5.07 5.328,8.765 10.484,8.765 h 157.964 l -1.562,8.797 c 0,0.039 -0.016,0.078 -0.016,0.117 l -22.546,127.778 c 0,0 0,0 -0.016,0.016 l -0.047,0.281 c 0,0.016 0,0.016 0,0.016 l -22.53,127.684 -0.016,0.047 c 0,0.031 0,0.062 -0.016,0.078 l -15.047,85.309 c -1.031,5.812 2.844,11.344 8.641,12.375 0.641,0.094 1.266,0.156 1.875,0.156 5.078,0 9.578,-3.641 10.484,-8.812 l 2.625,-14.843 93.544,-27.733 v 40.717 c 0,5.891 4.766,10.672 10.656,10.672 5.906,0 10.672,-4.781 10.672,-10.672 v -40.717 l 93.552,27.733 2.625,14.843 c 0.906,5.172 5.405,8.812 10.468,8.812 0.625,0 1.25,-0.062 1.875,-0.156 5.812,-1.031 9.688,-6.562 8.656,-12.375 l -15.063,-85.311 c 0,-0.016 0,-0.047 0,-0.078 l -0.031,-0.047 -22.529,-127.684 c 0,0 0,0 0,-0.016 l -0.031,-0.281 c -0.031,-0.016 -0.031,-0.016 -0.031,-0.016 L 323.613,158.244 c 0,-0.039 -0.031,-0.078 -0.031,-0.117 l -1.562,-8.797 h 157.964 c 5.156,0 9.562,-3.695 10.5,-8.765 0.906,-5.078 -1.938,-10.078 -6.75,-11.891 z m -200.869,124.873 33.342,-14.406 5.531,31.203 z m 24.31,33.741 -40.521,15.203 v -32.71 z m 2.969,-82.52 -30.685,-15.656 25.623,-13.062 z m -8.937,-50.687 -34.554,17.617 v -22.367 h 33.71 z M 298.646,29.507 V 55.826 L 276.709,42.663 Z m 0,63.998 v 26.319 L 276.709,106.661 Z M 270.81,21.335 255.982,30.226 241.17,21.335 Z m -14.829,33.773 14.828,8.89 h -29.64 z m 14.829,30.225 -14.828,8.891 -14.812,-8.891 z m -57.483,-55.826 21.937,13.156 -21.937,13.164 z m 0,63.998 21.937,13.156 -21.937,13.164 z m -6.438,82.544 25.624,13.062 -30.687,15.656 z m -11.125,63.092 33.343,14.406 -38.858,16.796 z M 90.816,127.996 191.984,90.052 v 37.944 z m 93.761,174.495 41.03,15.374 -46.842,17.578 z m -11.201,63.498 48.686,16.124 -54.733,18.125 z m -17.453,98.872 6.218,-35.249 56.327,16.702 z m 89.404,-32.844 -55.982,-16.593 55.982,-18.53 z m 0,-64.67 -48.264,-15.983 48.264,-18.093 z m 0,-64.856 -40.514,-15.203 40.514,-17.507 z m 0,-65.17 -32.687,-14.125 32.687,-16.671 z m 0,-65.623 -34.562,-17.617 0.844,-4.75 h 33.718 z m -4.157,-43.702 14.812,-8.89 14.828,8.89 z m 25.483,78.529 v 0 l 32.679,16.671 -32.679,14.125 z m 48.272,144.839 -48.271,15.983 v -34.076 z m -48.271,45.53 55.99,18.53 -55.99,16.593 z m 83.178,32.718 6.218,35.249 -62.53,-18.547 z m -5.188,-29.374 -54.718,-18.125 48.687,-16.124 z m -17.25,-97.747 5.812,32.952 -46.841,-17.578 z M 319.988,127.996 V 90.052 l 101.185,37.944 H 319.988 Z"
         id="path2"
         inkscape:connector-curvature="0" /></g></g><g
     id="g12"
     transform="translate(42.688049)"><g
       id="g10"><path
         d="m 501.326,159.995 h -63.998 c -5.906,0 -10.687,4.773 -10.687,10.664 0,5.89 4.78,10.671 10.687,10.671 h 63.998 c 5.875,0 10.656,-4.781 10.656,-10.671 0,-5.891 -4.781,-10.664 -10.656,-10.664 z"
         id="path8"
         inkscape:connector-curvature="0" /></g></g><g
     id="g18"
     transform="translate(42.688049)"><g
       id="g16"><path
         d="M 479.983,191.994 H 458.64 c -5.875,0 -10.656,4.773 -10.656,10.664 0,5.89 4.781,10.671 10.656,10.671 h 21.343 c 5.875,0 10.656,-4.781 10.656,-10.671 0,-5.891 -4.781,-10.664 -10.656,-10.664 z"
         id="path14"
         inkscape:connector-curvature="0" /></g></g><g
     id="g24"
     transform="translate(42.688049)"><g
       id="g22"><path
         d="M 74.66,159.995 H 10.662 c -5.891,0 -10.656,4.773 -10.656,10.664 0,5.89 4.766,10.671 10.656,10.671 H 74.66 c 5.89,0 10.671,-4.781 10.671,-10.671 C 85.33,164.768 80.55,159.995 74.66,159.995 Z"
         id="path20"
         inkscape:connector-curvature="0" /></g></g><g
     id="g30"
     transform="translate(42.688049)"><g
       id="g28"><path
         d="M 53.332,191.994 H 31.988 c -5.875,0 -10.656,4.773 -10.656,10.664 0,5.89 4.781,10.671 10.656,10.671 h 21.343 c 5.891,0 10.656,-4.781 10.656,-10.671 10e-4,-5.891 -4.764,-10.664 -10.655,-10.664 z"
         id="path26"
         inkscape:connector-curvature="0" /></g></g><g
     aria-label="- R

+R"
     transform="matrix(6.1258039,0,0,6.5586848,-2692.0277,-467.11991)"
     style="font-style:normal;font-weight:normal;font-size:17.33333397px;line-height:12.26513958px;font-family:sans-serif;letter-spacing:0px;word-spacing:0px;fill:#000000;fill-opacity:1;stroke:none;stroke-width:0.81128782"
     id="flowRoot4505"><path
       d="m 446.76562,115.40948 h -6.95442 v -2.625 h 6.95442 z"
       style="font-size:18.66666603px;line-height:12.26513958px;stroke-width:0.81128782"
       id="path4518" /><path
       d="m 461.25391,112.06052 q 0,-0.4375 -0.17969,-0.75 -0.17969,-0.3125 -0.61719,-0.49219 -0.30469,-0.125 -0.71094,-0.14843 -0.40625,-0.0312 -0.94531,-0.0312 h -1.08594 v 3.13281 h 0.92188 q 0.71875,0 1.20312,-0.0703 0.48438,-0.0703 0.8125,-0.32032 0.3125,-0.24218 0.45313,-0.53125 0.14844,-0.29687 0.14844,-0.78906 z m 4.67968,8.07031 h -3.66406 l -3.17187,-4.26562 h -1.38282 v 4.26562 h -2.98437 v -11.63281 h 5.03125 q 1.03125,0 1.77344,0.11719 0.74218,0.11719 1.39062,0.50781 0.65625,0.39063 1.03906,1.01563 0.39063,0.61718 0.39063,1.55468 0,1.28907 -0.60156,2.10157 -0.59375,0.8125 -1.70313,1.35156 z"
       style="font-style:normal;font-variant:normal;font-weight:bold;font-stretch:normal;font-size:16px;line-height:12.26513958px;font-family:sans-serif;-inkscape-font-specification:'sans-serif, Bold';font-variant-ligatures:normal;font-variant-caps:normal;font-variant-numeric:normal;font-feature-settings:normal;text-align:start;word-spacing:0px;writing-mode:lr-tb;text-anchor:start;stroke-width:0.81128782"
       id="path4520" /><path
       d="m 450.98047,140.91922 h -4.16406 v 4.125 h -2.14063 v -4.125 h -4.16406 v -2.09375 h 4.16406 v -4.125 h 2.14063 v 4.125 h 4.16406 z"
       style="font-style:normal;font-variant:normal;font-weight:bold;font-stretch:normal;font-size:16px;line-height:12.26513958px;font-family:sans-serif;-inkscape-font-specification:'sans-serif, Bold';font-variant-ligatures:normal;font-variant-caps:normal;font-variant-numeric:normal;font-feature-settings:normal;text-align:start;word-spacing:0px;writing-mode:lr-tb;text-anchor:start;stroke-width:0.81128782"
       id="path4522" /><path
       d="m 460.69141,136.97391 q 0,-0.4375 -0.17969,-0.75 -0.17969,-0.3125 -0.61719,-0.49219 -0.30469,-0.125 -0.71094,-0.14844 -0.40625,-0.0312 -0.94531,-0.0312 h -1.08594 v 3.13282 h 0.92188 q 0.71875,0 1.20312,-0.0703 0.48438,-0.0703 0.8125,-0.32031 0.3125,-0.24219 0.45313,-0.53125 0.14844,-0.29687 0.14844,-0.78906 z m 4.67968,8.07031 h -3.66406 l -3.17187,-4.26562 h -1.38282 v 4.26562 h -2.98437 v -11.63281 h 5.03125 q 1.03125,0 1.77344,0.11719 0.74218,0.11718 1.39062,0.50781 0.65625,0.39062 1.03906,1.01562 0.39063,0.61719 0.39063,1.55469 0,1.28906 -0.60156,2.10156 -0.59375,0.8125 -1.70313,1.35157 z"
       style="font-style:normal;font-variant:normal;font-weight:bold;font-stretch:normal;font-size:16px;line-height:12.26513958px;font-family:sans-serif;-inkscape-font-specification:'sans-serif, Bold';font-variant-ligatures:normal;font-variant-caps:normal;font-variant-numeric:normal;font-feature-settings:normal;text-align:start;word-spacing:0px;writing-mode:lr-tb;text-anchor:start;stroke-width:0.81128782"
       id="path4524" /></g></svg>