<?xml version="1.0" encoding="UTF-8" standalone="no"?>
<!-- Created with Inkscape (http://www.inkscape.org/) -->

<svg
   xmlns:dc="http://purl.org/dc/elements/1.1/"
   xmlns:cc="http://creativecommons.org/ns#"
   xmlns:rdf="http://www.w3.org/1999/02/22-rdf-syntax-ns#"
   xmlns:svg="http://www.w3.org/2000/svg"
   xmlns="http://www.w3.org/2000/svg"
   xmlns:sodipodi="http://sodipodi.sourceforge.net/DTD/sodipodi-0.dtd"
   xmlns:inkscape="http://www.inkscape.org/namespaces/inkscape"
   width="45.106907mm"
   height="34.10054mm"
   viewBox="0 0 45.106906 34.100541"
   version="1.1"
   id="svg8"
   sodipodi:docname="reserve.svg"
   inkscape:version="0.92.0 r15299">
  <defs
     id="defs2" />
  <sodipodi:namedview
     id="base"
     pagecolor="#ffffff"
     bordercolor="#666666"
     borderopacity="1.0"
     inkscape:pageopacity="0.0"
     inkscape:pageshadow="2"
     inkscape:zoom="2.4657638"
     inkscape:cx="25.683354"
     inkscape:cy="-15.212138"
     inkscape:document-units="mm"
     inkscape:current-layer="layer1"
     showgrid="false"
     inkscape:snap-global="false"
     inkscape:window-width="1920"
     inkscape:window-height="1005"
     inkscape:window-x="-9"
     inkscape:window-y="-9"
     inkscape:window-maximized="1"
     fit-margin-top="0"
     fit-margin-left="0"
     fit-margin-right="0"
     fit-margin-bottom="0" />
  <metadata
     id="metadata5">
    <rdf:RDF>
      <cc:Work
         rdf:about="">
        <dc:format>image/svg+xml</dc:format>
        <dc:type
           rdf:resource="http://purl.org/dc/dcmitype/StillImage" />
        <dc:title></dc:title>
      </cc:Work>
    </rdf:RDF>
  </metadata>
  <g
     inkscape:label="Layer 1"
     inkscape:groupmode="layer"
     id="layer1"
     transform="translate(-32.482466,-13.89815)">
    <g
       id="g4513"
       transform="matrix(2.3567281,0,0,2.6527917,-44.069872,-79.331832)">
      <path
         sodipodi:nodetypes="ccccccccc"
         inkscape:connector-curvature="0"
         id="path3690"
         d="m 32.740813,41.708513 c 0.374064,-1.96232 0.620129,-9.22296 1.263811,-0.02479 0.385562,6.161351 0.804799,6.504501 1.263812,-0.02479 0.269835,-3.642148 0.56171,-6.755451 1.263811,-0.02479 0.476003,4.325886 0.910905,1.827263 1.153616,-0.421439 0.833311,-6.863549 0.980047,-1.585883 1.374007,0.37185 0.492532,3.046884 0.986274,6.208503 1.263811,-0.0248 0.251046,-4.297309 0.720622,-3.088423 1.263812,-0.02479 0.476873,2.393413 0.854343,0.493226 1.263812,-0.0248"
         style="fill:none;stroke:#000000;stroke-width:0.52600002;stroke-linecap:butt;stroke-linejoin:miter;stroke-miterlimit:4;stroke-dasharray:none;stroke-dashoffset:0;stroke-opacity:1" />
      <path
         inkscape:connector-curvature="0"
         id="path3696"
         d="m 32.657799,36.989345 c 10.61173,0 10.61173,0 10.61173,0 v 0"
         style="fill:none;stroke:#000000;stroke-width:0.52600002;stroke-linecap:butt;stroke-linejoin:miter;stroke-miterlimit:4;stroke-dasharray:1.578, 0.526;stroke-dashoffset:0;stroke-opacity:1" />
      <path
         style="fill:none;stroke:#000000;stroke-width:0.52600002;stroke-linecap:butt;stroke-linejoin:miter;stroke-miterlimit:4;stroke-dasharray:1.578, 0.526;stroke-dashoffset:0;stroke-opacity:1"
         d="m 32.861907,46.463978 c 10.740276,0 10.740276,0 10.740276,0 v 0"
         id="path3698"
         inkscape:connector-curvature="0" />
      <g
         id="flowRoot4505"
         style="font-style:normal;font-weight:normal;font-size:17.33333397px;line-height:12.26513958px;font-family:sans-serif;letter-spacing:0px;word-spacing:0px;fill:#000000;fill-opacity:1;stroke:none;stroke-width:0.81128782"
         transform="matrix(0.30238421,0,0,0.35173523,-89.268864,-3.0184741)"
         aria-label="- R  +R">
        <path
           id="path4496"
           style="font-size:18.66666603px;line-height:12.26513958px;stroke-width:0.81128782"
           d="m 446.76562,115.40948 h -6.95442 v -2.625 h 6.95442 z"
           inkscape:connector-curvature="0" />
        <path
           id="path4498"
           style="font-style:normal;font-variant:normal;font-weight:bold;font-stretch:normal;font-size:16px;line-height:12.26513958px;font-family:sans-serif;-inkscape-font-specification:'sans-serif, Bold';font-variant-ligatures:normal;font-variant-caps:normal;font-variant-numeric:normal;font-feature-settings:normal;text-align:start;word-spacing:0px;writing-mode:lr-tb;text-anchor:start;stroke-width:0.81128782"
           d="m 461.25391,112.06052 q 0,-0.4375 -0.17969,-0.75 -0.17969,-0.3125 -0.61719,-0.49219 -0.30469,-0.125 -0.71094,-0.14843 -0.40625,-0.0312 -0.94531,-0.0312 h -1.08594 v 3.13281 h 0.92188 q 0.71875,0 1.20312,-0.0703 0.48438,-0.0703 0.8125,-0.32032 0.3125,-0.24218 0.45313,-0.53125 0.14844,-0.29687 0.14844,-0.78906 z m 4.67968,8.07031 h -3.66406 l -3.17187,-4.26562 h -1.38282 v 4.26562 h -2.98437 v -11.63281 h 5.03125 q 1.03125,0 1.77344,0.11719 0.74218,0.11719 1.39062,0.50781 0.65625,0.39063 1.03906,1.01563 0.39063,0.61718 0.39063,1.55468 0,1.28907 -0.60156,2.10157 -0.59375,0.8125 -1.70313,1.35156 z"
           inkscape:connector-curvature="0" />
        <path
           id="path4500"
           style="font-style:normal;font-variant:normal;font-weight:bold;font-stretch:normal;font-size:16px;line-height:12.26513958px;font-family:sans-serif;-inkscape-font-specification:'sans-serif, Bold';font-variant-ligatures:normal;font-variant-caps:normal;font-variant-numeric:normal;font-feature-settings:normal;text-align:start;word-spacing:0px;writing-mode:lr-tb;text-anchor:start;stroke-width:0.81128782"
           d="m 450.98047,140.91922 h -4.16406 v 4.125 h -2.14063 v -4.125 h -4.16406 v -2.09375 h 4.16406 v -4.125 h 2.14063 v 4.125 h 4.16406 z"
           inkscape:connector-curvature="0" />
        <path
           id="path4502"
           style="font-style:normal;font-variant:normal;font-weight:bold;font-stretch:normal;font-size:16px;line-height:12.26513958px;font-family:sans-serif;-inkscape-font-specification:'sans-serif, Bold';font-variant-ligatures:normal;font-variant-caps:normal;font-variant-numeric:normal;font-feature-settings:normal;text-align:start;word-spacing:0px;writing-mode:lr-tb;text-anchor:start;stroke-width:0.81128782"
           d="m 460.69141,136.97391 q 0,-0.4375 -0.17969,-0.75 -0.17969,-0.3125 -0.61719,-0.49219 -0.30469,-0.125 -0.71094,-0.14844 -0.40625,-0.0312 -0.94531,-0.0312 h -1.08594 v 3.13282 h 0.92188 q 0.71875,0 1.20312,-0.0703 0.48438,-0.0703 0.8125,-0.32031 0.3125,-0.24219 0.45313,-0.53125 0.14844,-0.29687 0.14844,-0.78906 z m 4.67968,8.07031 h -3.66406 l -3.17187,-4.26562 h -1.38282 v 4.26562 h -2.98437 v -11.63281 h 5.03125 q 1.03125,0 1.77344,0.11719 0.74218,0.11718 1.39062,0.50781 0.65625,0.39062 1.03906,1.01562 0.39063,0.61719 0.39063,1.55469 0,1.28906 -0.60156,2.10156 -0.59375,0.8125 -1.70313,1.35157 z"
           inkscape:connector-curvature="0" />
      </g>
    </g>
    <flowRoot
       xml:space="preserve"
       id="flowRoot4517"
       style="font-style:normal;font-weight:normal;font-size:40px;line-height:25px;font-family:sans-serif;letter-spacing:0px;word-spacing:0px;fill:#000000;fill-opacity:1;stroke:none"><flowRegion
         id="flowRegion4519"><rect
           id="rect4521"
           width="39.947056"
           height="53.330334"
           x="200.3436"
           y="140.87659" /></flowRegion><flowPara
         id="flowPara4523" /></flowRoot>  </g>
</svg>
