<?xml version='1.0' encoding='iso-8859-1'?>
<!DOCTYPE svg PUBLIC '-//W3C//DTD SVG 1.1//EN' 'http://www.w3.org/Graphics/SVG/1.1/DTD/svg11.dtd'>
<svg version="1.1" xmlns="http://www.w3.org/2000/svg" viewBox="0 0 297 297" xmlns:xlink="http://www.w3.org/1999/xlink" enable-background="new 0 0 297 297">
  <g>
    <polygon points="118.134,15.459 84.25,15.459 76.26,48.657 115.471,48.657  "/>
    <polygon points="165.537,15.459 131.466,15.459 128.804,48.657 168.2,48.657  "/>
    <polygon points="111.504,98.094 114.362,62.458 72.939,62.458 64.362,98.094  "/>
    <polygon points="186.603,111.897 190.292,157.869 247.028,157.869 235.963,111.897  "/>
    <polygon points="49.976,157.869 106.708,157.869 110.396,111.897 61.04,111.897  "/>
    <polygon points="59.243,62.458 31.629,62.458 18.266,98.094 50.665,98.094  "/>
    <polygon points="220.741,48.657 212.751,15.459 178.864,15.459 181.528,48.657  "/>
    <polygon points="169.307,62.458 127.696,62.458 124.839,98.094 172.164,98.094  "/>
    <path d="m260.196,48.657l-10.17-27.119c-1.371-3.656-4.867-6.079-8.773-6.079h-14.807l7.989,33.198h25.761z"/>
    <path d="m70.555,15.459h-14.809c-3.905,0-7.401,2.423-8.772,6.079l-10.17,27.119h25.761l7.99-33.198z"/>
    <polygon points="173.272,111.897 123.731,111.897 120.044,157.869 176.958,157.869  "/>
    <polygon points="246.334,98.094 278.734,98.094 265.371,62.458 237.758,62.458  "/>
    <polygon points="185.496,98.094 232.641,98.094 224.063,62.458 182.636,62.458  "/>
    <path d="m287.631,157.869c3.073,0 5.951-1.507 7.701-4.032 1.75-2.526 2.15-5.75 1.071-8.627l-12.492-33.313h-34.255l11.063,45.973h26.912z"/>
    <path d="m36.278,157.869l11.066-45.973h-34.255l-12.492,33.314c-1.079,2.877-0.679,6.1 1.071,8.627 1.75,2.525 4.628,4.032 7.701,4.032h26.909z"/>
    <path d="m30.918,272.172c0,5.174 4.195,9.369 9.369,9.369h216.426c5.174,0 9.369-4.195 9.369-9.369v-101.187h-235.164v101.187zm102.123-39.35c-3.79,0-7.206-2.283-8.656-5.784-1.449-3.501-0.647-7.53 2.031-10.211l30.918-30.918c3.659-3.657 9.591-3.657 13.25,0 3.659,3.659 3.659,9.592 0,13.251l-14.924,14.924h8.299c3.79,0 7.206,2.282 8.656,5.783 1.449,3.501 0.648,7.531-2.031,10.211l-30.918,30.918c-1.83,1.828-4.226,2.744-6.625,2.744-2.398,0-4.795-0.916-6.625-2.744-3.659-3.659-3.659-9.592 0-13.251l14.924-14.923h-8.299z"/>
  </g>
</svg>
