<?xml version="1.0" encoding="UTF-8" standalone="no"?>
<svg
   xmlns:osb="http://www.openswatchbook.org/uri/2009/osb"
   xmlns:dc="http://purl.org/dc/elements/1.1/"
   xmlns:cc="http://creativecommons.org/ns#"
   xmlns:rdf="http://www.w3.org/1999/02/22-rdf-syntax-ns#"
   xmlns:svg="http://www.w3.org/2000/svg"
   xmlns="http://www.w3.org/2000/svg"
   xmlns:xlink="http://www.w3.org/1999/xlink"
   xmlns:sodipodi="http://sodipodi.sourceforge.net/DTD/sodipodi-0.dtd"
   xmlns:inkscape="http://www.inkscape.org/namespaces/inkscape"
   version="1.1"
   viewBox="0 0 297 297"
   enable-background="new 0 0 297 297"
   id="svg36"
   sodipodi:docname="solar-system.svg"
   inkscape:version="0.92.0 r15299">
  <metadata
     id="metadata42">
    <rdf:RDF>
      <cc:Work
         rdf:about="">
        <dc:format>image/svg+xml</dc:format>
        <dc:type
           rdf:resource="http://purl.org/dc/dcmitype/StillImage" />
        <dc:title></dc:title>
      </cc:Work>
    </rdf:RDF>
  </metadata>
  <defs
     id="defs40">
    <linearGradient
       id="linearGradient4539"
       osb:paint="solid">
      <stop
         style="stop-color:#ffffff;stop-opacity:1;"
         offset="0"
         id="stop4537" />
    </linearGradient>
    <linearGradient
       id="linearGradient4533"
       osb:paint="solid">
      <stop
         style="stop-color:#ffffff;stop-opacity:1;"
         offset="0"
         id="stop4531" />
    </linearGradient>
    <linearGradient
       inkscape:collect="always"
       xlink:href="#linearGradient4533"
       id="linearGradient4535"
       x1="0.00056710815"
       y1="50.10963"
       x2="100.22134"
       y2="50.10963"
       gradientUnits="userSpaceOnUse" />
    <linearGradient
       inkscape:collect="always"
       xlink:href="#linearGradient4539"
       id="linearGradient4541"
       x1="-0.50037667"
       y1="50.18242"
       x2="100.72346"
       y2="50.18242"
       gradientUnits="userSpaceOnUse" />
    <linearGradient
       inkscape:collect="always"
       xlink:href="#linearGradient4539"
       id="linearGradient4543"
       gradientUnits="userSpaceOnUse"
       x1="-0.50037667"
       y1="50.18242"
       x2="100.72346"
       y2="50.18242" />
    <linearGradient
       inkscape:collect="always"
       xlink:href="#linearGradient4533"
       id="linearGradient4545"
       gradientUnits="userSpaceOnUse"
       x1="0.00056710815"
       y1="50.10963"
       x2="100.22134"
       y2="50.10963" />
    <linearGradient
       inkscape:collect="always"
       xlink:href="#linearGradient4539"
       id="linearGradient4547"
       gradientUnits="userSpaceOnUse"
       x1="-0.50037667"
       y1="50.18242"
       x2="100.72346"
       y2="50.18242" />
    <linearGradient
       inkscape:collect="always"
       xlink:href="#linearGradient4533"
       id="linearGradient4549"
       gradientUnits="userSpaceOnUse"
       x1="0.00056710815"
       y1="50.10963"
       x2="100.22134"
       y2="50.10963" />
  </defs>
  <sodipodi:namedview
     pagecolor="#ffffff"
     bordercolor="#666666"
     borderopacity="1"
     objecttolerance="10"
     gridtolerance="10"
     guidetolerance="10"
     inkscape:pageopacity="0"
     inkscape:pageshadow="2"
     inkscape:window-width="1920"
     inkscape:window-height="1005"
     id="namedview38"
     showgrid="false"
     inkscape:zoom="2.2475044"
     inkscape:cx="187.04119"
     inkscape:cy="198.33398"
     inkscape:window-x="-9"
     inkscape:window-y="-9"
     inkscape:window-maximized="1"
     inkscape:current-layer="svg36" />
  <g
     id="g34">
    <polygon
       points="118.134,15.459 84.25,15.459 76.26,48.657 115.471,48.657  "
       id="polygon2" />
    <polygon
       points="165.537,15.459 131.466,15.459 128.804,48.657 168.2,48.657  "
       id="polygon4" />
    <polygon
       points="111.504,98.094 114.362,62.458 72.939,62.458 64.362,98.094  "
       id="polygon6" />
    <polygon
       points="186.603,111.897 190.292,157.869 247.028,157.869 235.963,111.897  "
       id="polygon8" />
    <polygon
       points="49.976,157.869 106.708,157.869 110.396,111.897 61.04,111.897  "
       id="polygon10" />
    <polygon
       points="59.243,62.458 31.629,62.458 18.266,98.094 50.665,98.094  "
       id="polygon12" />
    <polygon
       points="220.741,48.657 212.751,15.459 178.864,15.459 181.528,48.657  "
       id="polygon14" />
    <polygon
       points="169.307,62.458 127.696,62.458 124.839,98.094 172.164,98.094  "
       id="polygon16" />
    <path
       d="m260.196,48.657l-10.17-27.119c-1.371-3.656-4.867-6.079-8.773-6.079h-14.807l7.989,33.198h25.761z"
       id="path18" />
    <path
       d="m70.555,15.459h-14.809c-3.905,0-7.401,2.423-8.772,6.079l-10.17,27.119h25.761l7.99-33.198z"
       id="path20" />
    <polygon
       points="173.272,111.897 123.731,111.897 120.044,157.869 176.958,157.869  "
       id="polygon22" />
    <polygon
       points="246.334,98.094 278.734,98.094 265.371,62.458 237.758,62.458  "
       id="polygon24" />
    <polygon
       points="185.496,98.094 232.641,98.094 224.063,62.458 182.636,62.458  "
       id="polygon26" />
    <path
       d="m287.631,157.869c3.073,0 5.951-1.507 7.701-4.032 1.75-2.526 2.15-5.75 1.071-8.627l-12.492-33.313h-34.255l11.063,45.973h26.912z"
       id="path28" />
    <path
       d="m36.278,157.869l11.066-45.973h-34.255l-12.492,33.314c-1.079,2.877-0.679,6.1 1.071,8.627 1.75,2.525 4.628,4.032 7.701,4.032h26.909z"
       id="path30" />
    <path
       d="m30.918,272.172c0,5.174 4.195,9.369 9.369,9.369h216.426c5.174,0 9.369-4.195 9.369-9.369v-101.187h-235.164v101.187zm102.123-39.35c-3.79,0-7.206-2.283-8.656-5.784-1.449-3.501-0.647-7.53 2.031-10.211l30.918-30.918c3.659-3.657 9.591-3.657 13.25,0 3.659,3.659 3.659,9.592 0,13.251l-14.924,14.924h8.299c3.79,0 7.206,2.282 8.656,5.783 1.449,3.501 0.648,7.531-2.031,10.211l-30.918,30.918c-1.83,1.828-4.226,2.744-6.625,2.744-2.398,0-4.795-0.916-6.625-2.744-3.659-3.659-3.659-9.592 0-13.251l14.924-14.923h-8.299z"
       id="path32" />
  </g>
  <rect
     style="stroke-width:2.51338577;stroke-miterlimit:4;stroke-dasharray:none;stroke-dashoffset:0"
     id="rect4519"
     width="214.01515"
     height="102.33573"
     x="41.824169"
     y="173.30725" />
  <g
     transform="translate(99.388198,178.36993)"
     id="_x30_203-wind-breeze-icon"
     style="fill:url(#linearGradient4541);fill-opacity:1;stroke:url(#linearGradient4535)">
    <g
       id="g4"
       style="fill:url(#linearGradient4547);fill-opacity:1;stroke:url(#linearGradient4549)">
      <path
         inkscape:connector-curvature="0"
         style="clip-rule:evenodd;fill:url(#linearGradient4543);fill-opacity:1;fill-rule:evenodd;stroke:url(#linearGradient4545)"
         d="m 1.302,37.69 c 1.176,0.846 1.908,-2.488 2.304,-3.125 1.24,-2 3.652,-3.107 5.551,-4.368 3.341,-2.222 8.944,-3.671 12.921,-3.565 5.645,-0.1 11.828,-0.954 17.34,0.755 4.401,1.364 8.968,2.309 13.428,3.721 5.014,1.588 9.979,3.351 15.143,4.413 2.858,0.586 5.757,0.964 8.672,1.103 2.249,0.106 4.522,-0.526 6.739,-0.274 1.715,-1.169 4.336,-0.971 5.697,-2.68 2.097,-0.615 3.509,-2.308 5.362,-3.351 1.264,-0.711 7.025,-8.416 5.343,-10.373 -0.075,-0.088 -0.164,-0.164 -0.269,-0.227 -1.03,-0.619 -2.754,2.546 -3.537,3.284 -1.877,1.769 -3.858,3.351 -6.081,4.671 -4.701,2.791 -9.126,3.209 -14.485,2.517 -9.539,-1.23 -18.631,-4.454 -27.72,-7.222 -10.069,-3.065 -21.017,-3.438 -31.33,-1.5 -4.278,0.805 -10.049,3.029 -12.628,6.719 -1.334,1.91 -5.929,7.232 -2.45,9.502 z m 98.441,4.142 c -0.987,-0.505 -3.215,2.42 -3.825,3.015 -1.597,1.556 -3.331,2.979 -5.229,4.154 -4.366,2.7 -8.358,3.098 -13.368,3.098 -10.285,0 -20.808,-4.959 -30.629,-7.637 -10.148,-2.766 -21.245,-3.329 -31.524,-0.949 -4.557,1.056 -9.309,3.373 -11.984,7.284 -1.265,1.85 -5.105,6.571 -1.882,8.675 1.176,0.846 1.908,-2.488 2.304,-3.125 1.24,-2 3.652,-3.106 5.551,-4.369 3.341,-2.223 8.944,-3.672 12.921,-3.565 5.645,-0.1 11.828,-0.955 17.34,0.754 4.401,1.365 8.968,2.309 13.428,3.721 5.014,1.588 9.979,3.35 15.143,4.413 2.858,0.587 5.757,0.965 8.672,1.103 2.249,0.107 4.522,-0.525 6.739,-0.274 1.715,-1.169 4.336,-0.971 5.697,-2.681 2.097,-0.614 3.509,-2.305 5.362,-3.35 1.858,-1.047 6.153,-7.199 5.697,-9.549 -0.077,-0.395 -0.222,-0.622 -0.413,-0.718 z m 0.253,21.15 c -0.087,-0.165 -0.183,-0.29 -0.286,-0.379 -1.133,-0.976 -3.145,2.404 -3.931,3.167 -1.69,1.641 -3.559,3.095 -5.582,4.304 -4.856,2.897 -10.443,3.07 -15.928,2.436 -9.474,-1.092 -18.18,-5.051 -27.421,-7.13 -4.074,-0.917 -7.824,-2.044 -12.074,-2.223 -5.448,-0.232 -10.619,-0.396 -16.046,0.452 -2.724,0.425 -5.439,1.045 -7.994,2.1 C 8.505,66.628 6.77,68.425 4.955,69.992 3.002,71.676 -3.107,78.761 1.973,80.58 5.007,71.388 17.83,68.85 26.466,68.846 c 5.715,-0.005 11.223,0.42 16.746,1.903 4.428,1.188 8.752,2.714 13.113,4.125 8.481,2.742 19.806,6.44 28.493,3.355 3.698,-1.313 7.31,-3.257 10.211,-5.922 1.572,-1.446 6.269,-6.838 4.967,-9.325 z"
         id="path2" />
    </g>
  </g>
</svg>
