<?xml version="1.0" encoding="iso-8859-1"?>
<!-- Generator: Adobe Illustrator 17.1.0, SVG Export Plug-In . SVG Version: 6.00 Build 0)  -->
<!DOCTYPE svg PUBLIC "-//W3C//DTD SVG 1.1//EN" "http://www.w3.org/Graphics/SVG/1.1/DTD/svg11.dtd">
<svg version="1.1" id="Capa_1" xmlns="http://www.w3.org/2000/svg" xmlns:xlink="http://www.w3.org/1999/xlink" x="0px" y="0px"
	 viewBox="0 0 511 511" style="enable-background:new 0 0 511 511;" xml:space="preserve">
<g>
	<path d="M435.5,0h-360C55.925,0,40,15.925,40,35.5v440c0,19.575,15.925,35.5,35.5,35.5h360c19.575,0,35.5-15.925,35.5-35.5v-440
		C471,15.925,455.075,0,435.5,0z M359.5,392c-4.142,0-7.5,3.358-7.5,7.5V416h-89v-89h16.5c4.142,0,7.5-3.358,7.5-7.5
		s-3.358-7.5-7.5-7.5H263v-89h89v16.5c0,4.142,3.358,7.5,7.5,7.5s7.5-3.358,7.5-7.5V223h89v89h-16.5c-4.142,0-7.5,3.358-7.5,7.5
		s3.358,7.5,7.5,7.5H456v89h-89v-16.5C367,395.358,363.642,392,359.5,392z M159,416v-40.5c0-4.142-3.358-7.5-7.5-7.5
		s-7.5,3.358-7.5,7.5V416H55v-89h40.5c4.142,0,7.5-3.358,7.5-7.5s-3.358-7.5-7.5-7.5H55v-89h89v40.5c0,4.142,3.358,7.5,7.5,7.5
		s7.5-3.358,7.5-7.5V223h89v89h-40.5c-4.142,0-7.5,3.358-7.5,7.5s3.358,7.5,7.5,7.5H248v89H159z M456,35.5V104h-40.5
		c-4.142,0-7.5,3.358-7.5,7.5s3.358,7.5,7.5,7.5H456v89h-89v-40.5c0-4.142-3.358-7.5-7.5-7.5s-7.5,3.358-7.5,7.5V208h-89v-89h40.5
		c4.142,0,7.5-3.358,7.5-7.5s-3.358-7.5-7.5-7.5H263V15h89v40.5c0,4.142,3.358,7.5,7.5,7.5s7.5-3.358,7.5-7.5V15h68.5
		C446.804,15,456,24.196,456,35.5z M75.5,15H144v16.5c0,4.142,3.358,7.5,7.5,7.5s7.5-3.358,7.5-7.5V15h89v89h-16.5
		c-4.142,0-7.5,3.358-7.5,7.5s3.358,7.5,7.5,7.5H248v89h-89v-16.5c0-4.142-3.358-7.5-7.5-7.5s-7.5,3.358-7.5,7.5V208H55v-89h16.5
		c4.142,0,7.5-3.358,7.5-7.5s-3.358-7.5-7.5-7.5H55V35.5C55,24.196,64.196,15,75.5,15z M435.5,496h-360
		c-11.304,0-20.5-9.196-20.5-20.5V431h401v44.5C456,486.804,446.804,496,435.5,496z"/>
	<path d="M151.5,175c35.014,0,63.5-28.486,63.5-63.5S186.514,48,151.5,48S88,76.486,88,111.5S116.486,175,151.5,175z M151.5,63
		c26.743,0,48.5,21.757,48.5,48.5S178.243,160,151.5,160S103,138.243,103,111.5S124.757,63,151.5,63z"/>
	<path d="M423,319.5c0-35.014-28.486-63.5-63.5-63.5S296,284.486,296,319.5s28.486,63.5,63.5,63.5S423,354.514,423,319.5z
		 M359.5,368c-26.743,0-48.5-21.757-48.5-48.5s21.757-48.5,48.5-48.5s48.5,21.757,48.5,48.5S386.243,368,359.5,368z"/>
	<path d="M151.5,280c-21.78,0-39.5,17.72-39.5,39.5s17.72,39.5,39.5,39.5s39.5-17.72,39.5-39.5S173.28,280,151.5,280z M151.5,344
		c-13.509,0-24.5-10.991-24.5-24.5s10.991-24.5,24.5-24.5s24.5,10.991,24.5,24.5S165.009,344,151.5,344z"/>
	<path d="M359.5,72c-21.78,0-39.5,17.72-39.5,39.5s17.72,39.5,39.5,39.5s39.5-17.72,39.5-39.5S381.28,72,359.5,72z M359.5,136
		c-13.509,0-24.5-10.991-24.5-24.5S345.991,87,359.5,87S384,97.991,384,111.5S373.009,136,359.5,136z"/>
	<path d="M223.5,440c-12.958,0-23.5,10.542-23.5,23.5s10.542,23.5,23.5,23.5s23.5-10.542,23.5-23.5S236.458,440,223.5,440z
		 M223.5,472c-4.687,0-8.5-3.813-8.5-8.5s3.813-8.5,8.5-8.5s8.5,3.813,8.5,8.5S228.187,472,223.5,472z"/>
	<path d="M159.5,440c-12.958,0-23.5,10.542-23.5,23.5s10.542,23.5,23.5,23.5s23.5-10.542,23.5-23.5S172.458,440,159.5,440z
		 M159.5,472c-4.687,0-8.5-3.813-8.5-8.5s3.813-8.5,8.5-8.5s8.5,3.813,8.5,8.5S164.187,472,159.5,472z"/>
	<path d="M351.5,440c-12.958,0-23.5,10.542-23.5,23.5s10.542,23.5,23.5,23.5s23.5-10.542,23.5-23.5S364.458,440,351.5,440z
		 M351.5,472c-4.687,0-8.5-3.813-8.5-8.5s3.813-8.5,8.5-8.5s8.5,3.813,8.5,8.5S356.187,472,351.5,472z"/>
	<path d="M287.5,440c-12.958,0-23.5,10.542-23.5,23.5s10.542,23.5,23.5,23.5s23.5-10.542,23.5-23.5S300.458,440,287.5,440z
		 M287.5,472c-4.687,0-8.5-3.813-8.5-8.5s3.813-8.5,8.5-8.5s8.5,3.813,8.5,8.5S292.187,472,287.5,472z"/>
</g>
<g>
</g>
<g>
</g>
<g>
</g>
<g>
</g>
<g>
</g>
<g>
</g>
<g>
</g>
<g>
</g>
<g>
</g>
<g>
</g>
<g>
</g>
<g>
</g>
<g>
</g>
<g>
</g>
<g>
</g>
</svg>
