<svg height="512pt" viewBox="-39 0 512 512" width="512pt" xmlns="http://www.w3.org/2000/svg"><path d="m428.269531 489.171875c8.09375-14.292969 7.878907-31.238281-.570312-45.324219l-150.605469-251.003906v-102.84375h30v-90h-180v90h30v102.84375l-150.601562 251.003906c-8.449219 14.085938-8.664063 31.03125-.570313 45.324219s22.734375 22.828125 39.160156 22.828125h344.027344c16.425781 0 31.066406-8.535156 39.160156-22.828125zm-241.175781-288.015625v-141.15625h-30v-30h120v30h-30v141.15625l42.507812 70.84375h-145.011718zm215.070312 273.234375c-1.296874 2.289063-5.164062 7.609375-13.054687 7.609375h-344.027344c-7.894531 0-11.757812-5.320312-13.054687-7.609375s-3.871094-8.339844.191406-15.109375l94.371094-157.28125h181.011718l94.371094 157.28125c4.0625 6.769531 1.484375 12.820312.191406 15.109375zm0 0"/><path d="m277.09375 332h-30v120h60v-30h-30zm0 0"/><path d="m179.59375 362c5.488281 0 10.8125 2.765625 14.996094 7.78125l23.046875-19.203125c-9.984375-11.980469-23.496094-18.578125-38.042969-18.578125s-28.054688 6.597656-38.039062 18.578125c-19.355469 23.226563-19.355469 59.617187 0 82.84375 9.984374 11.980469 23.492187 18.578125 38.039062 18.578125s28.058594-6.597656 38.042969-18.578125l-23.046875-19.203125c-4.183594 5.015625-9.507813 7.78125-14.996094 7.78125-5.484375 0-10.808594-2.765625-14.992188-7.78125-10.035156-12.042969-10.035156-32.394531 0-44.4375 4.183594-5.015625 9.507813-7.78125 14.992188-7.78125zm0 0"/></svg>