<?xml version="1.0" encoding="iso-8859-1"?>
<!-- Generator: Adobe Illustrator 19.0.0, SVG Export Plug-In . SVG Version: 6.00 Build 0)  -->
<svg version="1.1" id="Capa_1" xmlns="http://www.w3.org/2000/svg" xmlns:xlink="http://www.w3.org/1999/xlink" x="0px" y="0px"
	 viewBox="0 0 463 463" style="enable-background:new 0 0 463 463;" xml:space="preserve">
<path d="M455.5,276h-20.687c-0.134,0-0.259-0.052-0.353-0.146l-11.315-11.315c-2.928-2.927-6.819-4.539-10.959-4.539H391v-0.5
	c0-8.547-6.953-15.5-15.5-15.5h-16c-8.547,0-15.5,6.953-15.5,15.5v0.5h-21.187c-4.14,0-8.031,1.612-10.96,4.54l-11.312,11.313
	c-0.095,0.095-0.221,0.146-0.354,0.146H271v-29.187c0-0.131,0.053-0.26,0.147-0.354l11.312-11.313
	c2.928-2.927,4.541-6.819,4.541-10.96V203h0.5c8.547,0,15.5-6.953,15.5-15.5v-16c0-8.547-6.953-15.5-15.5-15.5H255v-9h64.5
	c6.904,0,13.431-3.019,17.907-8.281c4.474-5.26,6.397-12.226,5.277-19.11C340.865,108.43,330.53,100,318.644,100h-57.738
	l-2.644-7.932C255.058,82.457,246.098,76,235.968,76h-8.936c-10.13,0-19.09,6.457-22.294,16.068L202.094,100h-57.738
	c-11.886,0-22.221,8.43-24.04,19.608c-1.12,6.885,0.803,13.851,5.277,19.11c4.476,5.263,11.002,8.281,17.907,8.281H208v9h-32.5
	c-8.547,0-15.5,6.953-15.5,15.5v16c0,8.547,6.953,15.5,15.5,15.5h0.5v21.187c0,4.141,1.613,8.033,4.54,10.959l11.315,11.315
	c0.092,0.093,0.146,0.222,0.146,0.353V276h-29.187c-0.134,0-0.259-0.052-0.353-0.146l-11.315-11.315
	c-2.928-2.927-6.819-4.539-10.959-4.539H119v-0.5c0-8.547-6.953-15.5-15.5-15.5h-16c-8.547,0-15.5,6.953-15.5,15.5v0.5H50.813
	c-4.14,0-8.031,1.612-10.96,4.54l-11.312,11.313C28.446,275.948,28.32,276,28.187,276H7.5c-4.142,0-7.5,3.357-7.5,7.5v64
	c0,4.143,3.358,7.5,7.5,7.5h20.687c0.134,0,0.259,0.052,0.353,0.146l11.315,11.315c2.928,2.927,6.819,4.539,10.959,4.539H72v0.5
	c0,8.547,6.953,15.5,15.5,15.5h16c8.547,0,15.5-6.953,15.5-15.5V371h21.187c4.14,0,8.031-1.612,10.96-4.54l11.312-11.313
	c0.095-0.095,0.221-0.146,0.354-0.146h137.373c0.134,0,0.26,0.052,0.353,0.146l11.315,11.315c2.928,2.927,6.819,4.539,10.959,4.539
	H344v0.5c0,8.547,6.953,15.5,15.5,15.5h16c8.547,0,15.5-6.953,15.5-15.5V371h21.187c4.14,0,8.031-1.612,10.96-4.54l11.312-11.313
	c0.095-0.095,0.221-0.146,0.354-0.146H455.5c4.142,0,7.5-3.357,7.5-7.5v-64C463,279.357,459.642,276,455.5,276z M412.187,275
	c0.134,0,0.259,0.052,0.353,0.146l11.315,11.315c2.928,2.927,6.819,4.539,10.959,4.539H448v25h-57v-41H412.187z M137.02,129.001
	c-1.643-1.932-2.317-4.411-1.898-6.984c0.64-3.935,4.696-7.017,9.234-7.017H207.5c3.229,0,6.094-2.065,7.115-5.128l4.353-13.06
	c1.159-3.477,4.4-5.813,8.064-5.813h8.936c3.665,0,6.905,2.336,8.064,5.813l4.353,13.06c1.021,3.063,3.887,5.128,7.115,5.128h63.144
	c4.538,0,8.594,3.082,9.234,7.017c0.419,2.573-0.255,5.053-1.898,6.984c-1.621,1.906-3.982,2.999-6.48,2.999h-176
	C141.002,132,138.641,130.907,137.02,129.001z M223,147h17v9h-17V147z M175,187.5v-16c0-0.275,0.224-0.5,0.5-0.5h112
	c0.276,0,0.5,0.225,0.5,0.5v16c0,0.275-0.224,0.5-0.5,0.5h-112C175.224,188,175,187.775,175,187.5z M140.187,275
	c0.134,0,0.259,0.052,0.353,0.146l11.315,11.315c2.928,2.927,6.819,4.539,10.959,4.539H199.5c4.142,0,7.5-3.357,7.5-7.5v-36.687
	c0-4.141-1.613-8.033-4.54-10.959l-11.315-11.315c-0.092-0.093-0.146-0.222-0.146-0.353V203h81v21.187
	c0,0.131-0.053,0.26-0.147,0.354l-11.312,11.313c-2.928,2.927-4.541,6.819-4.541,10.96V283.5c0,4.143,3.358,7.5,7.5,7.5h36.687
	c4.14,0,8.031-1.612,10.96-4.54l11.312-11.313c0.095-0.095,0.221-0.146,0.354-0.146H344v41H119v-41H140.187z M28.187,291
	c4.14,0,8.031-1.612,10.96-4.54l11.312-11.313c0.095-0.095,0.221-0.146,0.354-0.146H72v41H15v-25H28.187z M50.813,356
	c-0.134,0-0.259-0.052-0.353-0.146l-11.315-11.315C36.218,341.612,32.326,340,28.187,340H15v-9h57v25H50.813z M104,371.5
	c0,0.275-0.224,0.5-0.5,0.5h-16c-0.276,0-0.5-0.225-0.5-0.5v-112c0-0.275,0.224-0.5,0.5-0.5h16c0.276,0,0.5,0.225,0.5,0.5V371.5z
	 M322.813,356c-0.134,0-0.26-0.052-0.353-0.146l-11.315-11.315c-2.928-2.927-6.819-4.539-10.959-4.539H162.813
	c-4.14,0-8.031,1.612-10.96,4.54l-11.312,11.313c-0.095,0.095-0.221,0.146-0.354,0.146H119v-25h225v25H322.813z M376,371.5
	c0,0.275-0.224,0.5-0.5,0.5h-16c-0.276,0-0.5-0.225-0.5-0.5v-112c0-0.275,0.224-0.5,0.5-0.5h16c0.276,0,0.5,0.225,0.5,0.5V371.5z
	 M434.813,340c-4.14,0-8.031,1.612-10.96,4.54l-11.312,11.313c-0.095,0.095-0.221,0.146-0.354,0.146H391v-25h57v9H434.813z"/>
<g>
</g>
<g>
</g>
<g>
</g>
<g>
</g>
<g>
</g>
<g>
</g>
<g>
</g>
<g>
</g>
<g>
</g>
<g>
</g>
<g>
</g>
<g>
</g>
<g>
</g>
<g>
</g>
<g>
</g>
</svg>
