<?xml version="1.0" encoding="UTF-8" standalone="no"?>
<!-- Created with Inkscape (http://www.inkscape.org/) -->

<svg
   xmlns:osb="http://www.openswatchbook.org/uri/2009/osb"
   xmlns:dc="http://purl.org/dc/elements/1.1/"
   xmlns:cc="http://creativecommons.org/ns#"
   xmlns:rdf="http://www.w3.org/1999/02/22-rdf-syntax-ns#"
   xmlns:svg="http://www.w3.org/2000/svg"
   xmlns="http://www.w3.org/2000/svg"
   xmlns:sodipodi="http://sodipodi.sourceforge.net/DTD/sodipodi-0.dtd"
   xmlns:inkscape="http://www.inkscape.org/namespaces/inkscape"
   width="181.06181mm"
   height="93.774734mm"
   viewBox="0 0 181.06181 93.774735"
   version="1.1"
   id="svg4548"
   inkscape:version="0.92.0 r15299"
   sodipodi:docname="waste_market.svg">
  <defs
     id="defs4542">
    <marker
       inkscape:stockid="Arrow2Mstart"
       orient="auto"
       refY="0"
       refX="0"
       id="Arrow2Mstart"
       style="overflow:visible"
       inkscape:isstock="true">
      <path
         id="path5905"
         style="fill:#000000;fill-opacity:1;fill-rule:evenodd;stroke:#000000;stroke-width:0.625;stroke-linejoin:round;stroke-opacity:1"
         d="M 8.7185878,4.0337352 -2.2072895,0.01601326 8.7185884,-4.0017078 c -1.7454984,2.3720609 -1.7354408,5.6174519 -6e-7,8.035443 z"
         transform="scale(0.6)"
         inkscape:connector-curvature="0" />
    </marker>
    <marker
       inkscape:stockid="Arrow2Mend"
       orient="auto"
       refY="0"
       refX="0"
       id="Arrow2Mend"
       style="overflow:visible"
       inkscape:isstock="true">
      <path
         id="path5908"
         style="fill:#000000;fill-opacity:1;fill-rule:evenodd;stroke:#000000;stroke-width:0.625;stroke-linejoin:round;stroke-opacity:1"
         d="M 8.7185878,4.0337352 -2.2072895,0.01601326 8.7185884,-4.0017078 c -1.7454984,2.3720609 -1.7354408,5.6174519 -6e-7,8.035443 z"
         transform="scale(-0.6)"
         inkscape:connector-curvature="0" />
    </marker>
    <marker
       inkscape:stockid="TriangleInM"
       orient="auto"
       refY="0"
       refX="0"
       id="TriangleInM"
       style="overflow:visible"
       inkscape:isstock="true">
      <path
         id="path6017"
         d="M 5.77,0 -2.88,5 V -5 Z"
         style="fill:#000000;fill-opacity:1;fill-rule:evenodd;stroke:#000000;stroke-width:1.00000003pt;stroke-opacity:1"
         transform="scale(-0.4)"
         inkscape:connector-curvature="0" />
    </marker>
    <marker
       inkscape:stockid="Arrow1Mend"
       orient="auto"
       refY="0"
       refX="0"
       id="Arrow1Mend"
       style="overflow:visible"
       inkscape:isstock="true">
      <path
         id="path5890"
         d="M 0,0 5,-5 -12.5,0 5,5 Z"
         style="fill:#000000;fill-opacity:1;fill-rule:evenodd;stroke:#000000;stroke-width:1.00000003pt;stroke-opacity:1"
         transform="matrix(-0.4,0,0,-0.4,-4,0)"
         inkscape:connector-curvature="0" />
    </marker>
    <marker
       inkscape:stockid="Arrow1Lstart"
       orient="auto"
       refY="0"
       refX="0"
       id="Arrow1Lstart"
       style="overflow:visible"
       inkscape:isstock="true">
      <path
         id="path5881"
         d="M 0,0 5,-5 -12.5,0 5,5 Z"
         style="fill:#000000;fill-opacity:1;fill-rule:evenodd;stroke:#000000;stroke-width:1.00000003pt;stroke-opacity:1"
         transform="matrix(0.8,0,0,0.8,10,0)"
         inkscape:connector-curvature="0" />
    </marker>
    <linearGradient
       id="linearGradient5839"
       osb:paint="solid">
      <stop
         style="stop-color:#000000;stop-opacity:1;"
         offset="0"
         id="stop5837" />
    </linearGradient>
    <linearGradient
       id="linearGradient5833"
       osb:paint="solid">
      <stop
         style="stop-color:#ffffff;stop-opacity:1;"
         offset="0"
         id="stop5831" />
    </linearGradient>
    <linearGradient
       id="linearGradient5765"
       osb:paint="solid">
      <stop
         style="stop-color:#000000;stop-opacity:1;"
         offset="0"
         id="stop5763" />
    </linearGradient>
    <linearGradient
       id="linearGradient5759"
       osb:paint="solid">
      <stop
         style="stop-color:#ffffff;stop-opacity:1;"
         offset="0"
         id="stop5757" />
    </linearGradient>
    <linearGradient
       id="linearGradient5751"
       osb:paint="solid">
      <stop
         style="stop-color:#000000;stop-opacity:1;"
         offset="0"
         id="stop5749" />
    </linearGradient>
  </defs>
  <sodipodi:namedview
     id="base"
     pagecolor="#ffffff"
     bordercolor="#666666"
     borderopacity="1.0"
     inkscape:pageopacity="0.0"
     inkscape:pageshadow="2"
     inkscape:zoom="0.63743781"
     inkscape:cx="202.28444"
     inkscape:cy="195.49819"
     inkscape:document-units="mm"
     inkscape:current-layer="g4596"
     showgrid="false"
     inkscape:window-width="1920"
     inkscape:window-height="1005"
     inkscape:window-x="-9"
     inkscape:window-y="-9"
     inkscape:window-maximized="1"
     fit-margin-top="0"
     fit-margin-left="0"
     fit-margin-right="0"
     fit-margin-bottom="0" />
  <metadata
     id="metadata4545">
    <rdf:RDF>
      <cc:Work
         rdf:about="">
        <dc:format>image/svg+xml</dc:format>
        <dc:type
           rdf:resource="http://purl.org/dc/dcmitype/StillImage" />
        <dc:title></dc:title>
      </cc:Work>
    </rdf:RDF>
  </metadata>
  <g
     inkscape:label="Layer 1"
     inkscape:groupmode="layer"
     id="layer1"
     transform="translate(-1.2857733,-94.70833)">
    <flowRoot
       xml:space="preserve"
       id="flowRoot5843"
       style="font-style:normal;font-weight:normal;font-size:40px;line-height:25px;font-family:sans-serif;letter-spacing:0px;word-spacing:0px;fill:#000000;fill-opacity:1;stroke:none"
       transform="scale(0.26458333)"><flowRegion
         id="flowRegion5845"><rect
           id="rect5847"
           width="78.791901"
           height="92.428955"
           x="241.93153"
           y="338.6413" /></flowRegion><flowPara
         id="flowPara5849" /></flowRoot>    <flowRoot
       xml:space="preserve"
       id="flowRoot5851"
       style="font-style:normal;font-weight:normal;font-size:40px;line-height:25px;font-family:sans-serif;letter-spacing:0px;word-spacing:0px;fill:#000000;fill-opacity:1;stroke:none"><flowRegion
         id="flowRegion5853"><rect
           id="rect5855"
           width="62.675186"
           height="104.82841"
           x="259.5751"
           y="337.69327" /></flowRegion><flowPara
         id="flowPara5857" /></flowRoot>    <flowRoot
       xml:space="preserve"
       id="flowRoot5859"
       style="font-style:normal;font-weight:normal;font-size:40px;line-height:25px;font-family:sans-serif;letter-spacing:0px;word-spacing:0px;fill:#000000;fill-opacity:1;stroke:none"
       transform="scale(0.26458333)"><flowRegion
         id="flowRegion5861"><rect
           id="rect5863"
           width="121.46783"
           height="115.36671"
           x="230.17877"
           y="327.70959" /></flowRegion><flowPara
         id="flowPara5865" /></flowRoot>    <g
       id="g4596"
       transform="matrix(3.2197288,0,0,2.9076746,-73.716489,-80.691095)">
      <g
         id="g4629">
        <g
           id="g28"
           transform="matrix(0.11248789,0,0,0.09890734,23.29459,65.009515)">
          <g
             transform="matrix(0.86412258,0,0,0.96370192,0,10.102954)"
             id="g26">
            <g
               id="g24">
              <path
                 inkscape:connector-curvature="0"
                 d="M 270.834,243.333 H 254.82 v -2.499 c 0,-4.142 -3.357,-7.5 -7.5,-7.5 -4.143,0 -7.5,3.358 -7.5,7.5 v 2.499 h -39.955 v -2.499 c 0,-4.142 -3.357,-7.5 -7.5,-7.5 -4.143,0 -7.5,3.358 -7.5,7.5 v 2.499 H 144.91 v -2.499 c 0,-4.142 -3.357,-7.5 -7.5,-7.5 -4.143,0 -7.5,3.358 -7.5,7.5 v 2.499 H 89.955 v -2.499 c 0,-4.142 -3.357,-7.5 -7.5,-7.5 -4.143,0 -7.5,3.358 -7.5,7.5 v 2.499 H 35 v -91.636 l 39.964,-12.363 c 0.09,4.063 3.406,7.332 7.492,7.332 4.143,0 7.5,-3.358 7.5,-7.5 v -6.895 L 132.43,89.762 c 3.456,3.078 8.791,2.323 11.282,-1.538 l 41.154,30.703 v 6.239 c 0,4.142 3.357,7.5 7.5,7.5 4.143,0 7.5,-3.358 7.5,-7.5 v -6.239 l 40.798,-30.438 5.828,7.644 c 2.473,3.244 7.531,2.594 9.103,-1.17 l 14.109,-33.767 c 1.573,-3.764 -1.519,-7.819 -5.565,-7.299 l -36.298,4.665 c -4.046,0.52 -6.012,5.225 -3.538,8.469 l 7.266,9.53 -39.203,29.248 -50.47,-37.654 c -2.973,-2.218 -7.158,-1.919 -9.787,0.706 -0.001,10e-4 -0.002,10e-4 -0.002,0.002 -0.001,0.001 -0.002,0.001 -0.002,0.002 L 78.463,122.55 35,135.995 V 7.5 C 35,3.359 31.643,0 27.5,0 23.357,0 20,3.357 20,7.5 c 0,6.017 0,225.639 0,235.833 H 7.5 c -4.143,0 -7.5,3.358 -7.5,7.5 0,4.142 3.357,7.5 7.5,7.5 H 20 v 12.5 c 0,4.142 3.357,7.5 7.5,7.5 4.143,0 7.5,-3.358 7.5,-7.5 v -12.5 c 20.179,0 225.585,0 235.834,0 4.143,0 7.5,-3.358 7.5,-7.5 0,-4.143 -3.357,-7.5 -7.5,-7.5 z"
                 id="path2" />
              <path
                 inkscape:connector-curvature="0"
                 d="m 89.955,159.5 c 0,-4.142 -3.357,-7.5 -7.5,-7.5 -4.143,0 -7.5,3.358 -7.5,7.5 v 20.333 c 0,4.142 3.357,7.5 7.5,7.5 4.143,0 7.5,-3.358 7.5,-7.5 z"
                 id="path4" />
              <path
                 inkscape:connector-curvature="0"
                 d="m 82.455,192.666 c -4.143,0 -7.5,3.358 -7.5,7.5 v 20.333 c 0,4.142 3.357,7.5 7.5,7.5 4.143,0 7.5,-3.358 7.5,-7.5 v -20.333 c 0,-4.142 -3.357,-7.5 -7.5,-7.5 z"
                 id="path6" />
              <path
                 inkscape:connector-curvature="0"
                 d="m 144.91,151.309 c 0,-4.142 -3.357,-7.5 -7.5,-7.5 -4.143,0 -7.5,3.358 -7.5,7.5 v 22.381 c 0,4.142 3.357,7.5 7.5,7.5 4.143,0 7.5,-3.358 7.5,-7.5 z"
                 id="path8" />
              <path
                 inkscape:connector-curvature="0"
                 d="m 144.91,106.547 c 0,-4.142 -3.357,-7.5 -7.5,-7.5 -4.143,0 -7.5,3.358 -7.5,7.5 v 22.381 c 0,4.142 3.357,7.5 7.5,7.5 4.143,0 7.5,-3.358 7.5,-7.5 z"
                 id="path10" />
              <path
                 inkscape:connector-curvature="0"
                 d="m 137.41,188.572 c -4.143,0 -7.5,3.358 -7.5,7.5 v 22.381 c 0,4.142 3.357,7.5 7.5,7.5 4.143,0 7.5,-3.358 7.5,-7.5 v -22.381 c 0,-4.143 -3.357,-7.5 -7.5,-7.5 z"
                 id="path12" />
              <path
                 inkscape:connector-curvature="0"
                 d="m 192.365,187.067 c -4.143,0 -7.5,3.358 -7.5,7.5 V 217.7 c 0,4.142 3.357,7.5 7.5,7.5 4.143,0 7.5,-3.358 7.5,-7.5 v -23.133 c 0,-4.143 -3.357,-7.5 -7.5,-7.5 z"
                 id="path14" />
              <path
                 inkscape:connector-curvature="0"
                 d="m 199.865,148.299 c 0,-4.142 -3.357,-7.5 -7.5,-7.5 -4.143,0 -7.5,3.358 -7.5,7.5 v 23.133 c 0,4.142 3.357,7.5 7.5,7.5 4.143,0 7.5,-3.358 7.5,-7.5 z"
                 id="path16" />
              <path
                 inkscape:connector-curvature="0"
                 d="m 254.82,151.309 c 0,-4.142 -3.357,-7.5 -7.5,-7.5 -4.143,0 -7.5,3.358 -7.5,7.5 v 22.381 c 0,4.142 3.357,7.5 7.5,7.5 4.143,0 7.5,-3.358 7.5,-7.5 z"
                 id="path18" />
              <path
                 inkscape:connector-curvature="0"
                 d="m 247.32,188.572 c -4.143,0 -7.5,3.358 -7.5,7.5 v 22.381 c 0,4.142 3.357,7.5 7.5,7.5 4.143,0 7.5,-3.358 7.5,-7.5 v -22.381 c 0,-4.143 -3.357,-7.5 -7.5,-7.5 z"
                 id="path20" />
              <path
                 inkscape:connector-curvature="0"
                 d="m 254.82,106.547 c 0,-4.142 -3.357,-7.5 -7.5,-7.5 -4.143,0 -7.5,3.358 -7.5,7.5 v 22.381 c 0,4.142 3.357,7.5 7.5,7.5 4.143,0 7.5,-3.358 7.5,-7.5 z"
                 id="path22" />
            </g>
          </g>
        </g>
        <g
           id="g8"
           transform="matrix(0.04276562,0,0,0.04856817,51.831096,60.322921)">
          <g
             id="g6">
            <path
               id="path2-6"
               d="m 332.016,663.939 c 174.338,0 315.668,9.506 315.668,-164.834 0,-135.946 -85.94,-304.758 -206.454,-372.517 H 382.233 281.799 222.802 C 102.288,194.347 16.348,363.159 16.348,499.105 c 0,174.339 141.329,164.834 315.668,164.834 z M 201.375,383.672 c 1.116,-1.604 2.199,-3.134 3.22,-4.568 0.784,-1.102 1.083,-2.44 0.842,-3.771 -0.242,-1.333 -0.994,-2.485 -2.119,-3.244 l -21.573,-14.553 c -1.126,-0.76 -1.641,-2.009 -1.377,-3.341 0.264,-1.333 1.216,-2.292 2.547,-2.564 l 83.238,-17.049 c 0.22,-0.044 0.441,-0.067 0.661,-0.067 1.573,0 2.921,1.125 3.207,2.676 l 15.38,83.575 c 0.18,0.977 -0.061,1.919 -0.676,2.658 -1.052,1.262 -2.95,1.592 -4.361,0.641 l -22.979,-15.499 c -0.828,-0.56 -1.792,-0.854 -2.788,-0.854 -1.6,0 -3.111,0.775 -4.042,2.073 -3.018,4.206 -6.597,9.303 -10.251,15.207 -6.887,10.867 -12.083,22.754 -13.235,30.268 -0.579,3.545 -0.908,7.261 0.588,10.427 2.536,5.364 7.969,8.257 13.462,10.585 4.824,2.043 10.125,3.647 15.755,4.771 8.573,1.71 18.708,2.069 25.698,2.069 4.253,0 7.036,-0.134 7.201,-0.143 1.412,-0.112 2.675,0.965 2.789,2.371 l 4.037,50.092 c -0.048,0.769 -0.282,2.68 -3.14,2.861 -0.047,10e-4 -4.769,0.065 -10.358,0.065 -7.591,0 -13.209,-0.117 -16.247,-0.339 -19.516,-1.421 -37.232,-5.861 -52.639,-13.19 -14.939,-7.361 -26.329,-17.625 -33.852,-30.506 -0.978,-1.674 -1.84,-3.307 -2.633,-4.979 -8.555,-18.472 -8.548,-38.853 0.02,-62.3 6.458,-17.412 16.02,-32.328 23.625,-43.372 z M 285.052,241.75 c 13.049,-10.349 27.201,-16.247 42.062,-17.53 1.935,-0.167 3.779,-0.247 5.627,-0.247 20.356,0.178 38.771,8.911 56.292,26.693 12.969,13.286 22.354,28.316 29.079,39.918 0.972,1.695 1.892,3.329 2.75,4.866 0.878,1.572 2.543,2.548 4.347,2.548 0.891,0 1.769,-0.241 2.54,-0.698 l 22.388,-13.265 c 1.437,-0.852 3.259,-0.456 4.258,0.817 0.618,0.788 0.823,1.771 0.578,2.77 l -20.233,82.521 c -0.358,1.467 -1.661,2.489 -3.168,2.489 -0.282,0 -0.566,-0.038 -0.844,-0.111 l -82.112,-21.886 c -1.312,-0.35 -2.208,-1.363 -2.394,-2.708 -0.186,-1.346 0.401,-2.562 1.57,-3.256 l 23.845,-14.131 c 2.335,-1.384 3.135,-4.324 1.823,-6.694 -2.512,-4.533 -5.588,-9.953 -9.354,-15.773 -6.872,-10.876 -15.389,-20.662 -21.687,-24.92 -2.956,-2.041 -6.174,-3.929 -9.687,-3.932 -5.928,0 -10.865,3.669 -15.316,7.634 -3.912,3.484 -7.633,7.587 -11.059,12.195 -8.555,11.506 -15.518,28.158 -15.829,28.907 -0.488,1.293 -2.027,2 -3.336,1.505 l -46.997,-17.8 c -0.673,-0.373 -2.301,-1.402 -1.242,-4.062 0.08,-0.175 8.034,-17.558 11.639,-23.926 9.64,-17.03 21.24,-31.139 34.46,-41.924 z m 85.944,297.395 -0.094,26.023 c -0.007,2.042 -1.683,3.263 -3.299,3.263 -0.591,0 -1.464,-0.165 -2.26,-0.95 l -60.469,-59.688 c -0.629,-0.622 -0.975,-1.451 -0.972,-2.335 0.003,-0.884 0.354,-1.712 0.988,-2.329 l 60.897,-59.27 c 0.794,-0.773 1.657,-0.936 2.243,-0.936 0.886,0 1.751,0.36 2.376,0.988 0.424,0.424 0.927,1.167 0.923,2.298 l -0.098,27.718 c -0.009,2.714 2.105,4.909 4.812,4.997 2.772,0.09 6.479,0.194 10.563,0.194 2.702,0 5.25,-0.044 7.774,-0.134 12.862,-0.322 25.63,-2.616 32.515,-5.839 3.269,-1.49 6.539,-3.284 8.337,-6.288 3.047,-5.091 2.43,-11.215 1.309,-17.075 -0.985,-5.146 -2.601,-10.444 -4.798,-15.747 -5.491,-13.246 -16.217,-27.764 -16.699,-28.413 -0.431,-0.542 -0.624,-1.218 -0.544,-1.905 0.079,-0.687 0.421,-1.302 0.962,-1.73 l 39.379,-31.216 c 1.577,-0.895 2.968,-0.497 4.127,1.016 0.109,0.158 10.954,15.898 14.572,22.261 9.675,17.008 15.839,34.201 18.317,51.081 2.193,16.51 -0.001,31.684 -6.521,45.101 -0.849,1.745 -1.726,3.371 -2.672,4.958 -10.592,17.385 -27.533,28.716 -51.784,34.639 -16.976,4.061 -33.242,4.53 -44.002,4.53 -1.792,0 -3.525,-0.016 -5.181,-0.036 -1.953,-0.036 -3.827,-0.084 -5.588,-0.136 l -0.146,-0.002 c -2.727,-0.002 -4.957,2.225 -4.967,4.962 z"
               inkscape:connector-curvature="0" />
            <path
               id="path4-8"
               d="M 266.894,94.29 H 397.139 L 424.598,34.789 C 432.095,18.544 420.229,0 402.338,0 h -70.322 -70.321 c -17.891,0 -29.757,18.544 -22.26,34.789 z"
               inkscape:connector-curvature="0" />
          </g>
        </g>
      </g>
    </g>
  </g>
</svg>
