<?xml version="1.0" encoding="iso-8859-1"?>
<!-- Generator: Adobe Illustrator 18.0.0, SVG Export Plug-In . SVG Version: 6.00 Build 0)  -->
<!DOCTYPE svg PUBLIC "-//W3C//DTD SVG 1.1//EN" "http://www.w3.org/Graphics/SVG/1.1/DTD/svg11.dtd">
<svg version="1.1" id="Capa_1" xmlns="http://www.w3.org/2000/svg" xmlns:xlink="http://www.w3.org/1999/xlink" x="0px" y="0px"
	 viewBox="0 0 297 297" style="enable-background:new 0 0 297 297;" xml:space="preserve">
<g>
	<path d="M252.032,262.489c5.775,0,10.458-4.682,10.458-10.458V10.458C262.489,4.682,257.807,0,252.032,0H44.968
		c-5.775,0-10.458,4.682-10.458,10.458v241.574c0,5.775,4.682,10.458,10.458,10.458H252.032z M156.228,238.255
		c-2.034,2.035-4.855,3.205-7.731,3.205c-2.876,0-5.698-1.171-7.732-3.205c-2.035-2.033-3.204-4.855-3.204-7.731
		c0-2.876,1.169-5.698,3.204-7.732c2.034-2.034,4.856-3.204,7.732-3.204c2.887,0,5.698,1.169,7.731,3.204
		c2.045,2.035,3.205,4.856,3.205,7.732C159.433,233.399,158.273,236.221,156.228,238.255z M193.468,188.303
		c0,2.153-0.905,4.092-2.351,5.468c1.141-11.265-3.019-28.851-5.094-36.68c-0.889-3.353-3.381-6.046-6.656-7.192
		c-3.274-1.144-6.901-0.591-9.687,1.475c-0.108,0.081-1.239,0.921-2.984,2.285c-4.834-8.17-9.323-14.69-9.592-15.079
		c-1.953-2.827-5.17-4.515-8.605-4.515c-3.437,0-6.654,1.688-8.606,4.516c-0.268,0.389-4.756,6.909-9.591,15.078
		c-1.745-1.363-2.876-2.204-2.984-2.285c-2.785-2.067-6.415-2.62-9.687-1.475c-3.274,1.146-5.767,3.839-6.656,7.192
		c-2.076,7.829-6.235,25.415-5.094,36.68c-1.445-1.377-2.351-3.315-2.351-5.468v-62.351c0-4.174,3.384-7.558,7.558-7.558h74.821
		c4.174,0,7.558,3.384,7.558,7.558V188.303z"/>
	<path d="M92.234,276.085H27.713c-5.775,0-10.458,4.682-10.458,10.458c0,5.775,4.682,10.458,10.458,10.458h30.501
		C69.785,297,85.743,291.541,92.234,276.085z"/>
	<path d="M204.765,276.085c6.491,15.457,22.449,20.915,34.02,20.915h30.502c5.775,0,10.458-4.682,10.458-10.458
		c0-5.775-4.682-10.458-10.458-10.458H204.765z"/>
</g>
<g>
</g>
<g>
</g>
<g>
</g>
<g>
</g>
<g>
</g>
<g>
</g>
<g>
</g>
<g>
</g>
<g>
</g>
<g>
</g>
<g>
</g>
<g>
</g>
<g>
</g>
<g>
</g>
<g>
</g>
</svg>
