<?xml version="1.0" encoding="UTF-8" standalone="no"?>
<!-- Generator: Adobe Illustrator 18.0.0, SVG Export Plug-In . SVG Version: 6.00 Build 0)  -->

<svg
   xmlns:dc="http://purl.org/dc/elements/1.1/"
   xmlns:cc="http://creativecommons.org/ns#"
   xmlns:rdf="http://www.w3.org/1999/02/22-rdf-syntax-ns#"
   xmlns:svg="http://www.w3.org/2000/svg"
   xmlns="http://www.w3.org/2000/svg"
   xmlns:sodipodi="http://sodipodi.sourceforge.net/DTD/sodipodi-0.dtd"
   xmlns:inkscape="http://www.inkscape.org/namespaces/inkscape"
   version="1.1"
   id="Capa_1"
   x="0px"
   y="0px"
   viewBox="0 0 41.000999 60"
   xml:space="preserve"
   sodipodi:docname="water_heater.svg"
   width="41.000999"
   height="60"
   inkscape:version="0.92.0 r15299"><metadata
     id="metadata47"><rdf:RDF><cc:Work
         rdf:about=""><dc:format>image/svg+xml</dc:format><dc:type
           rdf:resource="http://purl.org/dc/dcmitype/StillImage" /><dc:title /></cc:Work></rdf:RDF></metadata><defs
     id="defs45"><pattern
       y="0"
       x="0"
       height="6"
       width="6"
       patternUnits="userSpaceOnUse"
       id="EMFhbasepattern" /></defs><sodipodi:namedview
     pagecolor="#ffffff"
     bordercolor="#666666"
     borderopacity="1"
     objecttolerance="10"
     gridtolerance="10"
     guidetolerance="10"
     inkscape:pageopacity="0"
     inkscape:pageshadow="2"
     inkscape:window-width="1920"
     inkscape:window-height="1005"
     id="namedview43"
     showgrid="false"
     fit-margin-top="0"
     fit-margin-left="0"
     fit-margin-right="0"
     fit-margin-bottom="0"
     inkscape:zoom="11.125147"
     inkscape:cx="23.077829"
     inkscape:cy="24.194471"
     inkscape:window-x="-9"
     inkscape:window-y="-9"
     inkscape:window-maximized="1"
     inkscape:current-layer="Capa_1" /><g
     id="g12"
     transform="translate(-9.5)" /><g
     id="g14"
     transform="translate(-9.5)" /><g
     id="g16"
     transform="translate(-9.5)" /><g
     id="g18"
     transform="translate(-9.5)" /><g
     id="g20"
     transform="translate(-9.5)" /><g
     id="g22"
     transform="translate(-9.5)" /><g
     id="g24"
     transform="translate(-9.5)" /><g
     id="g26"
     transform="translate(-9.5)" /><g
     id="g28"
     transform="translate(-9.5)" /><g
     id="g30"
     transform="translate(-9.5)" /><g
     id="g32"
     transform="translate(-9.5)" /><g
     id="g34"
     transform="translate(-9.5)" /><g
     id="g36"
     transform="translate(-9.5)" /><g
     id="g38"
     transform="translate(-9.5)" /><g
     id="g40"
     transform="translate(-9.5)" /><g
     id="g10"
     transform="translate(-9.5)"><path
       inkscape:connector-curvature="0"
       d="m 16.5,42 h 14 v -7 h -14 z m 8,-6 h 5 v 5 h -5 z m -7,0 h 5 v 5 h -5 z"
       id="path2" /><path
       inkscape:connector-curvature="0"
       d="m 40.5,42 c 1.654,0 3,-1.346 3,-3 0,-0.462 -0.113,-0.894 -0.301,-1.285 l -1.992,1.992 -1.414,-1.414 1.992,-1.992 C 41.394,36.114 40.962,36 40.5,36 c -1.654,0 -3,1.346 -3,3 0,1.654 1.346,3 3,3 z"
       id="path4" /><path
       inkscape:connector-curvature="0"
       d="m 9.5,48 v 10.567 c 0,0.79 0.643,1.433 1.433,1.433 h 38.135 c 0.79,0 1.433,-0.643 1.433,-1.433 V 48 Z m 23,6 h -5 c -0.553,0 -1,-0.447 -1,-1 0,-0.553 0.447,-1 1,-1 h 5 c 0.553,0 1,0.447 1,1 0,0.553 -0.447,1 -1,1 z"
       id="path6" /><path
       inkscape:connector-curvature="0"
       d="M 50.5,46 V 0 h -41 v 46 z m -10,-12 c 2.757,0 5,2.243 5,5 0,2.757 -2.243,5 -5,5 -2.757,0 -5,-2.243 -5,-5 0,-2.757 2.243,-5 5,-5 z m -26,-1 h 18 v 11 h -18 z"
       id="path8" /></g></svg>