<?xml version="1.0" encoding="iso-8859-1"?>
<!-- Generator: Adobe Illustrator 18.1.1, SVG Export Plug-In . SVG Version: 6.00 Build 0)  -->
<svg version="1.1" id="Capa_1" xmlns="http://www.w3.org/2000/svg" xmlns:xlink="http://www.w3.org/1999/xlink" x="0px" y="0px"
	 viewBox="0 0 32 32" style="enable-background:new 0 0 32 32;" xml:space="preserve">
<g>
	<g>
		<circle style="fill:#030104;" cx="16" cy="13" r="2"/>
		<path style="fill:#030104;" d="M17.88,10.661C17.585,7.532,16.792,0,16,0s-1.585,7.532-1.88,10.661C14.635,10.248,15.288,10,16,10
			S17.365,10.248,17.88,10.661z"/>
		<path style="fill:#030104;" d="M18.968,12.56C18.989,12.703,19,12.851,19,13c0,1.657-1.343,3-3,3s-3-1.343-3-3
			c0-0.149,0.011-0.297,0.033-0.441c-2.556,1.815-8.702,6.279-8.306,6.966c0.395,0.687,7.304-2.387,10.166-3.699L14,31
			c0,0,0.5,1,2,1s2-1,2-1l-0.893-15.173c2.863,1.312,9.771,4.386,10.166,3.7C27.67,18.839,21.523,14.374,18.968,12.56z"/>
	</g>
</g>
<g>
</g>
<g>
</g>
<g>
</g>
<g>
</g>
<g>
</g>
<g>
</g>
<g>
</g>
<g>
</g>
<g>
</g>
<g>
</g>
<g>
</g>
<g>
</g>
<g>
</g>
<g>
</g>
<g>
</g>
</svg>
