<?xml version="1.0" encoding="iso-8859-1"?>
<!-- Generator: Adobe Illustrator 16.0.0, SVG Export Plug-In . SVG Version: 6.00 Build 0)  -->
<!DOCTYPE svg PUBLIC "-//W3C//DTD SVG 1.1//EN" "http://www.w3.org/Graphics/SVG/1.1/DTD/svg11.dtd">
<svg version="1.1" id="Capa_1" xmlns="http://www.w3.org/2000/svg" xmlns:xlink="http://www.w3.org/1999/xlink" x="0px" y="0px"
	 width="664.031px" height="664.031px" viewBox="0 0 664.031 664.031" style="enable-background:new 0 0 664.031 664.031;"
	 xml:space="preserve">
<g>
	<g>
		<path d="M332.016,663.939c174.338,0,315.668,9.506,315.668-164.834c0-135.946-85.94-304.758-206.454-372.517h-58.997H281.799
			h-58.997C102.288,194.347,16.348,363.159,16.348,499.105C16.348,673.444,157.677,663.939,332.016,663.939z M201.375,383.672
			c1.116-1.604,2.199-3.134,3.22-4.568c0.784-1.102,1.083-2.44,0.842-3.771c-0.242-1.333-0.994-2.485-2.119-3.244l-21.573-14.553
			c-1.126-0.76-1.641-2.009-1.377-3.341c0.264-1.333,1.216-2.292,2.547-2.564l83.238-17.049c0.22-0.044,0.441-0.067,0.661-0.067
			c1.573,0,2.921,1.125,3.207,2.676l15.38,83.575c0.18,0.977-0.061,1.919-0.676,2.658c-1.052,1.262-2.95,1.592-4.361,0.641
			l-22.979-15.499c-0.828-0.56-1.792-0.854-2.788-0.854c-1.6,0-3.111,0.775-4.042,2.073c-3.018,4.206-6.597,9.303-10.251,15.207
			c-6.887,10.867-12.083,22.754-13.235,30.268c-0.579,3.545-0.908,7.261,0.588,10.427c2.536,5.364,7.969,8.257,13.462,10.585
			c4.824,2.043,10.125,3.647,15.755,4.771c8.573,1.71,18.708,2.069,25.698,2.069c4.253,0,7.036-0.134,7.201-0.143
			c1.412-0.112,2.675,0.965,2.789,2.371l4.037,50.092c-0.048,0.769-0.282,2.68-3.14,2.861c-0.047,0.001-4.769,0.065-10.358,0.065
			c-7.591,0-13.209-0.117-16.247-0.339c-19.516-1.421-37.232-5.861-52.639-13.19c-14.939-7.361-26.329-17.625-33.852-30.506
			c-0.978-1.674-1.84-3.307-2.633-4.979c-8.555-18.472-8.548-38.853,0.02-62.3C184.208,409.632,193.77,394.716,201.375,383.672z
			 M285.052,241.75c13.049-10.349,27.201-16.247,42.062-17.53c1.935-0.167,3.779-0.247,5.627-0.247
			c20.356,0.178,38.771,8.911,56.292,26.693c12.969,13.286,22.354,28.316,29.079,39.918c0.972,1.695,1.892,3.329,2.75,4.866
			c0.878,1.572,2.543,2.548,4.347,2.548c0.891,0,1.769-0.241,2.54-0.698l22.388-13.265c1.437-0.852,3.259-0.456,4.258,0.817
			c0.618,0.788,0.823,1.771,0.578,2.77l-20.233,82.521c-0.358,1.467-1.661,2.489-3.168,2.489c-0.282,0-0.566-0.038-0.844-0.111
			l-82.112-21.886c-1.312-0.35-2.208-1.363-2.394-2.708c-0.186-1.346,0.401-2.562,1.57-3.256l23.845-14.131
			c2.335-1.384,3.135-4.324,1.823-6.694c-2.512-4.533-5.588-9.953-9.354-15.773c-6.872-10.876-15.389-20.662-21.687-24.92
			c-2.956-2.041-6.174-3.929-9.687-3.932c-5.928,0-10.865,3.669-15.316,7.634c-3.912,3.484-7.633,7.587-11.059,12.195
			c-8.555,11.506-15.518,28.158-15.829,28.907c-0.488,1.293-2.027,2-3.336,1.505l-46.997-17.8c-0.673-0.373-2.301-1.402-1.242-4.062
			c0.08-0.175,8.034-17.558,11.639-23.926C260.232,266.644,271.832,252.535,285.052,241.75z M370.996,539.145l-0.094,26.023
			c-0.007,2.042-1.683,3.263-3.299,3.263c-0.591,0-1.464-0.165-2.26-0.95l-60.469-59.688c-0.629-0.622-0.975-1.451-0.972-2.335
			s0.354-1.712,0.988-2.329l60.897-59.27c0.794-0.773,1.657-0.936,2.243-0.936c0.886,0,1.751,0.36,2.376,0.988
			c0.424,0.424,0.927,1.167,0.923,2.298l-0.098,27.718c-0.009,2.714,2.105,4.909,4.812,4.997c2.772,0.09,6.479,0.194,10.563,0.194
			c2.702,0,5.25-0.044,7.774-0.134c12.862-0.322,25.63-2.616,32.515-5.839c3.269-1.49,6.539-3.284,8.337-6.288
			c3.047-5.091,2.43-11.215,1.309-17.075c-0.985-5.146-2.601-10.444-4.798-15.747c-5.491-13.246-16.217-27.764-16.699-28.413
			c-0.431-0.542-0.624-1.218-0.544-1.905c0.079-0.687,0.421-1.302,0.962-1.73l39.379-31.216c1.577-0.895,2.968-0.497,4.127,1.016
			c0.109,0.158,10.954,15.898,14.572,22.261c9.675,17.008,15.839,34.201,18.317,51.081c2.193,16.51-0.001,31.684-6.521,45.101
			c-0.849,1.745-1.726,3.371-2.672,4.958c-10.592,17.385-27.533,28.716-51.784,34.639c-16.976,4.061-33.242,4.53-44.002,4.53
			c-1.792,0-3.525-0.016-5.181-0.036c-1.953-0.036-3.827-0.084-5.588-0.136l-0.146-0.002
			C373.236,534.181,371.006,536.408,370.996,539.145z"/>
		<path d="M266.894,94.29h130.245l27.459-59.501C432.095,18.544,420.229,0,402.338,0h-70.322h-70.321
			c-17.891,0-29.757,18.544-22.26,34.789L266.894,94.29z"/>
	</g>
</g>
<g>
</g>
<g>
</g>
<g>
</g>
<g>
</g>
<g>
</g>
<g>
</g>
<g>
</g>
<g>
</g>
<g>
</g>
<g>
</g>
<g>
</g>
<g>
</g>
<g>
</g>
<g>
</g>
<g>
</g>
</svg>
